%TF.GenerationSoftware,KiCad,Pcbnew,7.0.2*%
%TF.CreationDate,2024-03-28T21:29:24-05:00*%
%TF.ProjectId,Relay_board_hardware,52656c61-795f-4626-9f61-72645f686172,rev?*%
%TF.SameCoordinates,Original*%
%TF.FileFunction,Copper,L2,Bot*%
%TF.FilePolarity,Positive*%
%FSLAX46Y46*%
G04 Gerber Fmt 4.6, Leading zero omitted, Abs format (unit mm)*
G04 Created by KiCad (PCBNEW 7.0.2) date 2024-03-28 21:29:24*
%MOMM*%
%LPD*%
G01*
G04 APERTURE LIST*
G04 Aperture macros list*
%AMRoundRect*
0 Rectangle with rounded corners*
0 $1 Rounding radius*
0 $2 $3 $4 $5 $6 $7 $8 $9 X,Y pos of 4 corners*
0 Add a 4 corners polygon primitive as box body*
4,1,4,$2,$3,$4,$5,$6,$7,$8,$9,$2,$3,0*
0 Add four circle primitives for the rounded corners*
1,1,$1+$1,$2,$3*
1,1,$1+$1,$4,$5*
1,1,$1+$1,$6,$7*
1,1,$1+$1,$8,$9*
0 Add four rect primitives between the rounded corners*
20,1,$1+$1,$2,$3,$4,$5,0*
20,1,$1+$1,$4,$5,$6,$7,0*
20,1,$1+$1,$6,$7,$8,$9,0*
20,1,$1+$1,$8,$9,$2,$3,0*%
G04 Aperture macros list end*
%TA.AperFunction,EtchedComponent*%
%ADD10C,0.381000*%
%TD*%
%TA.AperFunction,SMDPad,CuDef*%
%ADD11RoundRect,0.237500X0.237500X-0.300000X0.237500X0.300000X-0.237500X0.300000X-0.237500X-0.300000X0*%
%TD*%
%TA.AperFunction,SMDPad,CuDef*%
%ADD12RoundRect,0.237500X0.250000X0.237500X-0.250000X0.237500X-0.250000X-0.237500X0.250000X-0.237500X0*%
%TD*%
%TA.AperFunction,SMDPad,CuDef*%
%ADD13RoundRect,0.150000X0.150000X-0.512500X0.150000X0.512500X-0.150000X0.512500X-0.150000X-0.512500X0*%
%TD*%
%TA.AperFunction,ComponentPad*%
%ADD14O,5.100000X3.000000*%
%TD*%
%TA.AperFunction,ComponentPad*%
%ADD15R,25.400000X50.800000*%
%TD*%
%TA.AperFunction,ComponentPad*%
%ADD16RoundRect,0.775000X-3.525000X0.775000X-3.525000X-0.775000X3.525000X-0.775000X3.525000X0.775000X0*%
%TD*%
%TA.AperFunction,ComponentPad*%
%ADD17RoundRect,0.775000X0.775000X3.525000X-0.775000X3.525000X-0.775000X-3.525000X0.775000X-3.525000X0*%
%TD*%
%TA.AperFunction,ComponentPad*%
%ADD18RoundRect,0.775000X-0.775000X-3.525000X0.775000X-3.525000X0.775000X3.525000X-0.775000X3.525000X0*%
%TD*%
%TA.AperFunction,ComponentPad*%
%ADD19C,1.524000*%
%TD*%
%TA.AperFunction,ComponentPad*%
%ADD20RoundRect,0.775000X3.525000X-0.775000X3.525000X0.775000X-3.525000X0.775000X-3.525000X-0.775000X0*%
%TD*%
%TA.AperFunction,ComponentPad*%
%ADD21R,25.400000X25.400000*%
%TD*%
%TA.AperFunction,SMDPad,CuDef*%
%ADD22RoundRect,0.250000X0.300000X-2.050000X0.300000X2.050000X-0.300000X2.050000X-0.300000X-2.050000X0*%
%TD*%
%TA.AperFunction,SMDPad,CuDef*%
%ADD23RoundRect,0.250000X2.375000X-2.025000X2.375000X2.025000X-2.375000X2.025000X-2.375000X-2.025000X0*%
%TD*%
%TA.AperFunction,SMDPad,CuDef*%
%ADD24RoundRect,0.250002X5.149998X-4.449998X5.149998X4.449998X-5.149998X4.449998X-5.149998X-4.449998X0*%
%TD*%
%TA.AperFunction,ViaPad*%
%ADD25C,0.800000*%
%TD*%
%TA.AperFunction,Conductor*%
%ADD26C,2.540000*%
%TD*%
%TA.AperFunction,Conductor*%
%ADD27C,0.250000*%
%TD*%
%TA.AperFunction,Conductor*%
%ADD28C,0.254000*%
%TD*%
G04 APERTURE END LIST*
D10*
%TO.C,REF\u002A\u002A*%
X165354000Y-59436000D02*
X174752000Y-59436000D01*
X169351960Y-55742840D02*
X169951400Y-56141620D01*
X169753280Y-56042560D02*
X170550840Y-58841640D01*
X170053000Y-52451000D02*
X165354000Y-59436000D01*
X170152060Y-53842920D02*
X170952160Y-56842660D01*
X170550840Y-58841640D02*
X169351960Y-55742840D01*
X170550840Y-58841640D02*
X169951400Y-58143140D01*
X170550840Y-58841640D02*
X170652440Y-57942480D01*
X170952160Y-56842660D02*
X169651680Y-54041040D01*
X170952160Y-56842660D02*
X169753280Y-56042560D01*
X174752000Y-59436000D02*
X170053000Y-52451000D01*
X129794000Y-59436000D02*
X139192000Y-59436000D01*
X133791960Y-55742840D02*
X134391400Y-56141620D01*
X134193280Y-56042560D02*
X134990840Y-58841640D01*
X134493000Y-52451000D02*
X129794000Y-59436000D01*
X134592060Y-53842920D02*
X135392160Y-56842660D01*
X134990840Y-58841640D02*
X133791960Y-55742840D01*
X134990840Y-58841640D02*
X134391400Y-58143140D01*
X134990840Y-58841640D02*
X135092440Y-57942480D01*
X135392160Y-56842660D02*
X134091680Y-54041040D01*
X135392160Y-56842660D02*
X134193280Y-56042560D01*
X139192000Y-59436000D02*
X134493000Y-52451000D01*
%TD*%
D11*
%TO.P,C1,1*%
%TO.N,+12V*%
X144145000Y-103960000D03*
%TO.P,C1,2*%
%TO.N,GND*%
X144145000Y-102235000D03*
%TD*%
D12*
%TO.P,R3,1*%
%TO.N,GND*%
X146097000Y-98806000D03*
%TO.P,R3,2*%
%TO.N,Net-(Q1-G)*%
X144272000Y-98806000D03*
%TD*%
D13*
%TO.P,U2,1,NC*%
%TO.N,GND*%
X142428000Y-101092000D03*
%TO.P,U2,2,Vdd*%
%TO.N,+12V*%
X141478000Y-101092000D03*
%TO.P,U2,3,IN*%
%TO.N,DSCHG_IN*%
X140528000Y-101092000D03*
%TO.P,U2,4,GND*%
%TO.N,GND*%
X140528000Y-98817000D03*
%TO.P,U2,5,OUT*%
%TO.N,Net-(Q1-G)*%
X142428000Y-98817000D03*
%TD*%
D14*
%TO.P,Conn1,2,V+Log*%
%TO.N,/RLY_V+*%
X156337000Y-133922800D03*
%TO.P,Conn1,1,GND*%
%TO.N,/RLY_V-*%
X148463000Y-133922800D03*
%TD*%
D15*
%TO.P,V3,1,1*%
%TO.N,GND*%
X114300000Y-76200000D03*
%TD*%
D16*
%TO.P,K1,1*%
%TO.N,+12V*%
X158754000Y-105740000D03*
%TO.P,K1,2*%
%TO.N,Net-(IC1-DRAIN)*%
X171754000Y-105740000D03*
D17*
%TO.P,K1,3*%
%TO.N,VBUS*%
X173754000Y-123240000D03*
D18*
%TO.P,K1,4*%
%TO.N,/RLY_V+*%
X156754000Y-123240000D03*
%TD*%
D19*
%TO.P,Conn2,3*%
%TO.N,+3V3*%
X163830000Y-139192000D03*
%TO.P,Conn2,2*%
%TO.N,/V_SENSE_OUT*%
X166370000Y-139192000D03*
%TO.P,Conn2,1*%
%TO.N,GND*%
X168910000Y-139192000D03*
%TD*%
D15*
%TO.P,V5,1,1*%
%TO.N,GND*%
X114300000Y-127000000D03*
%TD*%
%TO.P,V2,1,1*%
%TO.N,VBUS*%
X190500000Y-76200000D03*
%TD*%
D19*
%TO.P,Conn3,3*%
%TO.N,RLY_IN*%
X135890000Y-139192000D03*
%TO.P,Conn3,2*%
%TO.N,DSCHG_IN*%
X138430000Y-139192000D03*
%TO.P,Conn3,1*%
%TO.N,+12V*%
X140970000Y-139192000D03*
%TD*%
D15*
%TO.P,V4,1,1*%
%TO.N,VBUS*%
X190500000Y-127000000D03*
%TD*%
D17*
%TO.P,K2,4*%
%TO.N,/RLY_V-*%
X148046000Y-110440000D03*
D18*
%TO.P,K2,3*%
%TO.N,GND*%
X131046000Y-110440000D03*
D20*
%TO.P,K2,2*%
%TO.N,Net-(IC1-DRAIN)*%
X133046000Y-127940000D03*
%TO.P,K2,1*%
%TO.N,+12V*%
X146046000Y-127940000D03*
%TD*%
D21*
%TO.P,V1,1,1*%
%TO.N,/PWRRES*%
X160655000Y-75565000D03*
%TD*%
D22*
%TO.P,Q1,1,G*%
%TO.N,Net-(Q1-G)*%
X144018000Y-95183000D03*
D23*
%TO.P,Q1,2,D*%
%TO.N,/PWRRES*%
X138703000Y-88458000D03*
X144253000Y-88458000D03*
D24*
X141478000Y-86033000D03*
D23*
X138703000Y-83608000D03*
X144253000Y-83608000D03*
D22*
%TO.P,Q1,3,S*%
%TO.N,GND*%
X138938000Y-95183000D03*
%TD*%
D25*
%TO.N,VBUS*%
X176530000Y-116205000D03*
%TO.N,GND*%
X168910000Y-116205000D03*
%TO.N,VBUS*%
X176530000Y-130175000D03*
%TO.N,GND*%
X168910000Y-130175000D03*
X168910000Y-127000000D03*
X168910000Y-123190000D03*
X168910000Y-119380000D03*
X134620000Y-99060000D03*
X128270000Y-99060000D03*
X134620000Y-97155000D03*
X128270000Y-97155000D03*
X155575000Y-99060000D03*
X149225000Y-99060000D03*
X155575000Y-97155000D03*
X149225000Y-97155000D03*
%TO.N,Net-(IC1-DRAIN)*%
X137668000Y-105410000D03*
X164084000Y-101600000D03*
X168275000Y-101600000D03*
%TO.N,GND*%
X164465000Y-93980000D03*
X162560000Y-92075000D03*
X175260000Y-99060000D03*
X175260000Y-97155000D03*
X168910000Y-99060000D03*
X168910000Y-97155000D03*
X129540000Y-135255000D03*
X135947000Y-134305000D03*
X135947000Y-136083000D03*
%TO.N,VBUS*%
X176530000Y-123190000D03*
X176530000Y-127000000D03*
X176530000Y-119380000D03*
%TO.N,/PWRRES*%
X141478000Y-82931000D03*
X141478000Y-89281000D03*
X145288000Y-86106000D03*
X137668000Y-86106000D03*
X141478000Y-86106000D03*
X137668000Y-89281000D03*
X145288000Y-89281000D03*
X145288000Y-82931000D03*
X137668000Y-82931000D03*
%TD*%
D26*
%TO.N,+12V*%
X140970000Y-128905000D02*
X140970000Y-139192000D01*
X141935000Y-127940000D02*
X140970000Y-128905000D01*
X146046000Y-127940000D02*
X141935000Y-127940000D01*
D27*
%TO.N,Net-(IC1-DRAIN)*%
X168275000Y-101600000D02*
X164084000Y-101600000D01*
D28*
X134188000Y-127940000D02*
X133046000Y-127940000D01*
X137668000Y-124460000D02*
X134188000Y-127940000D01*
X137668000Y-105410000D02*
X137668000Y-124460000D01*
D27*
%TO.N,+12V*%
X141478000Y-103505000D02*
X141933000Y-103960000D01*
X141478000Y-101092000D02*
X141478000Y-103505000D01*
X144145000Y-103960000D02*
X141933000Y-103960000D01*
%TO.N,DSCHG_IN*%
X139415500Y-101092000D02*
X140528000Y-101092000D01*
X138430000Y-102077500D02*
X139415500Y-101092000D01*
X138430000Y-139192000D02*
X138430000Y-102077500D01*
%TD*%
%TA.AperFunction,Conductor*%
%TO.N,+12V*%
G36*
X143105621Y-103143685D02*
G01*
X143134682Y-103169637D01*
X143196747Y-103245753D01*
X143354369Y-103374278D01*
X143534637Y-103468442D01*
X143730170Y-103524391D01*
X143849496Y-103535000D01*
X143852239Y-103535000D01*
X144437761Y-103535000D01*
X144440504Y-103535000D01*
X144559830Y-103524391D01*
X144755363Y-103468442D01*
X144935631Y-103374278D01*
X145093253Y-103245753D01*
X145155317Y-103169637D01*
X145212938Y-103130122D01*
X145251418Y-103124000D01*
X164341000Y-103124000D01*
X164408039Y-103143685D01*
X164453794Y-103196489D01*
X164465000Y-103248000D01*
X164465000Y-130813000D01*
X164445315Y-130880039D01*
X164392511Y-130925794D01*
X164341000Y-130937000D01*
X139824000Y-130937000D01*
X139756961Y-130917315D01*
X139711206Y-130864511D01*
X139700000Y-130813000D01*
X139700000Y-126833687D01*
X154441500Y-126833687D01*
X154441501Y-126835848D01*
X154441654Y-126838026D01*
X154441655Y-126838032D01*
X154451799Y-126981724D01*
X154506340Y-127223898D01*
X154599023Y-127454186D01*
X154599024Y-127454188D01*
X154727448Y-127666626D01*
X154801374Y-127753536D01*
X154888285Y-127855714D01*
X154975196Y-127929640D01*
X155077374Y-128016552D01*
X155289812Y-128144976D01*
X155520101Y-128237659D01*
X155762275Y-128292201D01*
X155908151Y-128302500D01*
X157599848Y-128302499D01*
X157745725Y-128292201D01*
X157987899Y-128237659D01*
X158218188Y-128144976D01*
X158430626Y-128016552D01*
X158619714Y-127855714D01*
X158780552Y-127666626D01*
X158908976Y-127454188D01*
X159001659Y-127223899D01*
X159056201Y-126981725D01*
X159066500Y-126835849D01*
X159066499Y-119644152D01*
X159056201Y-119498275D01*
X159001659Y-119256101D01*
X158908976Y-119025812D01*
X158780552Y-118813374D01*
X158693640Y-118711196D01*
X158619714Y-118624285D01*
X158517536Y-118537374D01*
X158430626Y-118463448D01*
X158218188Y-118335024D01*
X158218186Y-118335023D01*
X157987898Y-118242340D01*
X157745725Y-118187799D01*
X157602032Y-118177654D01*
X157602028Y-118177653D01*
X157599849Y-118177500D01*
X157597661Y-118177500D01*
X155910340Y-118177500D01*
X155910311Y-118177500D01*
X155908152Y-118177501D01*
X155905974Y-118177654D01*
X155905967Y-118177655D01*
X155762275Y-118187799D01*
X155520101Y-118242340D01*
X155289813Y-118335023D01*
X155077374Y-118463448D01*
X154888285Y-118624285D01*
X154727448Y-118813374D01*
X154599023Y-119025813D01*
X154506340Y-119256101D01*
X154451799Y-119498274D01*
X154451799Y-119498275D01*
X154441500Y-119644151D01*
X154441500Y-119646337D01*
X154441500Y-119646338D01*
X154441500Y-126833659D01*
X154441500Y-126833687D01*
X139700000Y-126833687D01*
X139700000Y-114033687D01*
X145733500Y-114033687D01*
X145733501Y-114035848D01*
X145733654Y-114038026D01*
X145733655Y-114038032D01*
X145743799Y-114181724D01*
X145798340Y-114423898D01*
X145891023Y-114654186D01*
X145891024Y-114654188D01*
X146019448Y-114866626D01*
X146093374Y-114953536D01*
X146180285Y-115055714D01*
X146267196Y-115129640D01*
X146369374Y-115216552D01*
X146581812Y-115344976D01*
X146812101Y-115437659D01*
X147054275Y-115492201D01*
X147200151Y-115502500D01*
X148891848Y-115502499D01*
X149037725Y-115492201D01*
X149279899Y-115437659D01*
X149510188Y-115344976D01*
X149722626Y-115216552D01*
X149911714Y-115055714D01*
X150072552Y-114866626D01*
X150200976Y-114654188D01*
X150293659Y-114423899D01*
X150348201Y-114181725D01*
X150358500Y-114035849D01*
X150358499Y-106844152D01*
X150348201Y-106698275D01*
X150293659Y-106456101D01*
X150200976Y-106225812D01*
X150072552Y-106013374D01*
X149985640Y-105911196D01*
X149911714Y-105824285D01*
X149809536Y-105737374D01*
X149722626Y-105663448D01*
X149510188Y-105535024D01*
X149510186Y-105535023D01*
X149279898Y-105442340D01*
X149037725Y-105387799D01*
X148894032Y-105377654D01*
X148894028Y-105377653D01*
X148891849Y-105377500D01*
X148889661Y-105377500D01*
X147202340Y-105377500D01*
X147202311Y-105377500D01*
X147200152Y-105377501D01*
X147197974Y-105377654D01*
X147197967Y-105377655D01*
X147054275Y-105387799D01*
X146812101Y-105442340D01*
X146581813Y-105535023D01*
X146369374Y-105663448D01*
X146180285Y-105824285D01*
X146019448Y-106013374D01*
X145891023Y-106225813D01*
X145798340Y-106456101D01*
X145743799Y-106698274D01*
X145743799Y-106698275D01*
X145733500Y-106844151D01*
X145733500Y-106846337D01*
X145733500Y-106846338D01*
X145733500Y-114033659D01*
X145733500Y-114033687D01*
X139700000Y-114033687D01*
X139700000Y-103248000D01*
X139719685Y-103180961D01*
X139772489Y-103135206D01*
X139824000Y-103124000D01*
X143038582Y-103124000D01*
X143105621Y-103143685D01*
G37*
%TD.AperFunction*%
%TD*%
%TA.AperFunction,Conductor*%
%TO.N,VBUS*%
G36*
X177800000Y-130810000D02*
G01*
X170939000Y-130810000D01*
X170871961Y-130790315D01*
X170826206Y-130737511D01*
X170815000Y-130686000D01*
X170815000Y-115694000D01*
X170834685Y-115626961D01*
X170887489Y-115581206D01*
X170939000Y-115570000D01*
X177800000Y-115570000D01*
X177800000Y-130810000D01*
G37*
%TD.AperFunction*%
%TD*%
%TA.AperFunction,Conductor*%
%TO.N,VBUS*%
G36*
X201934853Y-50800881D02*
G01*
X201987001Y-50804986D01*
X202127583Y-50817286D01*
X202145705Y-50820238D01*
X202224476Y-50839149D01*
X202227477Y-50839910D01*
X202332793Y-50868130D01*
X202348150Y-50873343D01*
X202376451Y-50885065D01*
X202428496Y-50906622D01*
X202433376Y-50908770D01*
X202526788Y-50952329D01*
X202539135Y-50958963D01*
X202615163Y-51005553D01*
X202621477Y-51009694D01*
X202704166Y-51067594D01*
X202713551Y-51074860D01*
X202781975Y-51133299D01*
X202789124Y-51139908D01*
X202860090Y-51210874D01*
X202866699Y-51218023D01*
X202925135Y-51286442D01*
X202932414Y-51295844D01*
X202990299Y-51378513D01*
X202994451Y-51384845D01*
X203041028Y-51460852D01*
X203047680Y-51473231D01*
X203091208Y-51566577D01*
X203093388Y-51571531D01*
X203126655Y-51651848D01*
X203131868Y-51667205D01*
X203160067Y-51772442D01*
X203160866Y-51775589D01*
X203179760Y-51854290D01*
X203182714Y-51872429D01*
X203195020Y-52013082D01*
X203199119Y-52065166D01*
X203199500Y-52074871D01*
X203199500Y-151125123D01*
X203199118Y-151134853D01*
X203195020Y-151186916D01*
X203182714Y-151327571D01*
X203179760Y-151345705D01*
X203160866Y-151424408D01*
X203160067Y-151427556D01*
X203131868Y-151532793D01*
X203126655Y-151548150D01*
X203093388Y-151628467D01*
X203091208Y-151633421D01*
X203047680Y-151726767D01*
X203041025Y-151739153D01*
X202994451Y-151815153D01*
X202990299Y-151821485D01*
X202932414Y-151904154D01*
X202925129Y-151913563D01*
X202866699Y-151981975D01*
X202860090Y-151989124D01*
X202789124Y-152060090D01*
X202781975Y-152066699D01*
X202713563Y-152125129D01*
X202704154Y-152132414D01*
X202621485Y-152190299D01*
X202615153Y-152194451D01*
X202539153Y-152241025D01*
X202526767Y-152247680D01*
X202433421Y-152291208D01*
X202428467Y-152293388D01*
X202348150Y-152326655D01*
X202332793Y-152331868D01*
X202227556Y-152360067D01*
X202224409Y-152360866D01*
X202145708Y-152379760D01*
X202127569Y-152382714D01*
X201986917Y-152395020D01*
X201963706Y-152396847D01*
X201934833Y-152399119D01*
X201925129Y-152399500D01*
X177924000Y-152399500D01*
X177856961Y-152379815D01*
X177811206Y-152327011D01*
X177800000Y-152275500D01*
X177800000Y-130810000D01*
X177800000Y-50924500D01*
X177819685Y-50857461D01*
X177872489Y-50811706D01*
X177924000Y-50800500D01*
X201925126Y-50800500D01*
X201934853Y-50800881D01*
G37*
%TD.AperFunction*%
%TD*%
%TA.AperFunction,Conductor*%
%TO.N,/PWRRES*%
G36*
X173747980Y-61978383D02*
G01*
X173809011Y-61990523D01*
X173853709Y-62009037D01*
X173895096Y-62036691D01*
X173929309Y-62070904D01*
X173956962Y-62112291D01*
X173975476Y-62156987D01*
X173987617Y-62218019D01*
X173990000Y-62242212D01*
X173990000Y-88633787D01*
X173987617Y-88657980D01*
X173975476Y-88719012D01*
X173956962Y-88763708D01*
X173929309Y-88805095D01*
X173895095Y-88839309D01*
X173853708Y-88866962D01*
X173809012Y-88885476D01*
X173760989Y-88895029D01*
X173747978Y-88897617D01*
X173723788Y-88900000D01*
X149711209Y-88900000D01*
X149614010Y-88919334D01*
X149531602Y-88974397D01*
X147149033Y-91356966D01*
X147130243Y-91372387D01*
X147078498Y-91406962D01*
X147033799Y-91425477D01*
X146972770Y-91437617D01*
X146948578Y-91440000D01*
X135521212Y-91440000D01*
X135497021Y-91437617D01*
X135480690Y-91434368D01*
X135435987Y-91425476D01*
X135391291Y-91406962D01*
X135349904Y-91379309D01*
X135315691Y-91345096D01*
X135288037Y-91303708D01*
X135269523Y-91259010D01*
X135257383Y-91197978D01*
X135255000Y-91173787D01*
X135255000Y-62242212D01*
X135257383Y-62218021D01*
X135269523Y-62156989D01*
X135288037Y-62112291D01*
X135315693Y-62070900D01*
X135349900Y-62036693D01*
X135391292Y-62009036D01*
X135435989Y-61990523D01*
X135497021Y-61978383D01*
X135521212Y-61976000D01*
X173723788Y-61976000D01*
X173747980Y-61978383D01*
G37*
%TD.AperFunction*%
%TD*%
%TA.AperFunction,Conductor*%
%TO.N,GND*%
G36*
X176290494Y-50802883D02*
G01*
X176349010Y-50814523D01*
X176393706Y-50833036D01*
X176410265Y-50844100D01*
X176435096Y-50860691D01*
X176469309Y-50894904D01*
X176496962Y-50936291D01*
X176515476Y-50980987D01*
X176527617Y-51042019D01*
X176530000Y-51066212D01*
X176530000Y-103742359D01*
X176510315Y-103809398D01*
X176457511Y-103855153D01*
X176388353Y-103865097D01*
X176325659Y-103836812D01*
X176252079Y-103774226D01*
X176180626Y-103713448D01*
X175968188Y-103585024D01*
X175968186Y-103585023D01*
X175737898Y-103492340D01*
X175495725Y-103437799D01*
X175352032Y-103427654D01*
X175352028Y-103427653D01*
X175349849Y-103427500D01*
X175347661Y-103427500D01*
X168160340Y-103427500D01*
X168160311Y-103427500D01*
X168158152Y-103427501D01*
X168155974Y-103427654D01*
X168155967Y-103427655D01*
X168012275Y-103437799D01*
X167770101Y-103492340D01*
X167539813Y-103585023D01*
X167327374Y-103713448D01*
X167138285Y-103874285D01*
X166977448Y-104063374D01*
X166849023Y-104275813D01*
X166756340Y-104506101D01*
X166729906Y-104623474D01*
X166701799Y-104748275D01*
X166691500Y-104894151D01*
X166691500Y-104896337D01*
X166691500Y-104896338D01*
X166691500Y-106583659D01*
X166691500Y-106583687D01*
X166691501Y-106585848D01*
X166691654Y-106588026D01*
X166691655Y-106588032D01*
X166701799Y-106731724D01*
X166756340Y-106973898D01*
X166849023Y-107204186D01*
X166849024Y-107204188D01*
X166977448Y-107416626D01*
X167051374Y-107503536D01*
X167138285Y-107605714D01*
X167215694Y-107671557D01*
X167327374Y-107766552D01*
X167539812Y-107894976D01*
X167770101Y-107987659D01*
X168012275Y-108042201D01*
X168158151Y-108052500D01*
X175349848Y-108052499D01*
X175495725Y-108042201D01*
X175737899Y-107987659D01*
X175968188Y-107894976D01*
X176180626Y-107766552D01*
X176325659Y-107643186D01*
X176389477Y-107614745D01*
X176458542Y-107625321D01*
X176510925Y-107671557D01*
X176530000Y-107737639D01*
X176530000Y-114678500D01*
X176510315Y-114745539D01*
X176457511Y-114791294D01*
X176406000Y-114802500D01*
X170939000Y-114802500D01*
X170935706Y-114802854D01*
X170935690Y-114802855D01*
X170779160Y-114819685D01*
X170779157Y-114819685D01*
X170775850Y-114820041D01*
X170772615Y-114820744D01*
X170772601Y-114820747D01*
X170724339Y-114831247D01*
X170702701Y-114836344D01*
X170702688Y-114836347D01*
X170698664Y-114837296D01*
X170694804Y-114838770D01*
X170694790Y-114838775D01*
X170532198Y-114900893D01*
X170412955Y-114982061D01*
X170384883Y-115001169D01*
X170382165Y-115003524D01*
X170382160Y-115003528D01*
X170333317Y-115045850D01*
X170333290Y-115045874D01*
X170332079Y-115046924D01*
X170330921Y-115048039D01*
X170330911Y-115048049D01*
X170273652Y-115103226D01*
X170167991Y-115246729D01*
X170099691Y-115407392D01*
X170099680Y-115407420D01*
X170098276Y-115410725D01*
X170097264Y-115414169D01*
X170097259Y-115414185D01*
X170078591Y-115477764D01*
X170078162Y-115479342D01*
X170068190Y-115516985D01*
X170068188Y-115517001D01*
X170068188Y-115517002D01*
X170047500Y-115694000D01*
X170047500Y-130686000D01*
X170047854Y-130689294D01*
X170047855Y-130689309D01*
X170060767Y-130809401D01*
X170065041Y-130849150D01*
X170065745Y-130852387D01*
X170065747Y-130852398D01*
X170076247Y-130900661D01*
X170081344Y-130922298D01*
X170081346Y-130922307D01*
X170082296Y-130926336D01*
X170083772Y-130930199D01*
X170083775Y-130930209D01*
X170145893Y-131092801D01*
X170145902Y-131092814D01*
X170246169Y-131240117D01*
X170291924Y-131292921D01*
X170348226Y-131351348D01*
X170491726Y-131457007D01*
X170530044Y-131473296D01*
X170652392Y-131525308D01*
X170652405Y-131525312D01*
X170655725Y-131526724D01*
X170659184Y-131527739D01*
X170659185Y-131527740D01*
X170722764Y-131546409D01*
X170724342Y-131546838D01*
X170761985Y-131556809D01*
X170761995Y-131556810D01*
X170762002Y-131556812D01*
X170939000Y-131577500D01*
X170942599Y-131577500D01*
X176406000Y-131577500D01*
X176473039Y-131597185D01*
X176518794Y-131649989D01*
X176530000Y-131701500D01*
X176530000Y-152133787D01*
X176527617Y-152157980D01*
X176515476Y-152219012D01*
X176496962Y-152263708D01*
X176469309Y-152305095D01*
X176435094Y-152339310D01*
X176393706Y-152366963D01*
X176349012Y-152385476D01*
X176313010Y-152392638D01*
X176290491Y-152397117D01*
X176266302Y-152399500D01*
X102874878Y-152399500D01*
X102865147Y-152399118D01*
X102813112Y-152395022D01*
X102724182Y-152387242D01*
X102674278Y-152382877D01*
X102668885Y-152382285D01*
X102666263Y-152381939D01*
X102653538Y-152379579D01*
X102575564Y-152360859D01*
X102572418Y-152360060D01*
X102467203Y-152331868D01*
X102451844Y-152326654D01*
X102371553Y-152293397D01*
X102366600Y-152291218D01*
X102307605Y-152263708D01*
X102273223Y-152247675D01*
X102260842Y-152241022D01*
X102184846Y-152194450D01*
X102178514Y-152190299D01*
X102095846Y-152132415D01*
X102086437Y-152125130D01*
X102018022Y-152066698D01*
X102010873Y-152060089D01*
X101939909Y-151989125D01*
X101933300Y-151981976D01*
X101874868Y-151913561D01*
X101867588Y-151904158D01*
X101809699Y-151821484D01*
X101805548Y-151815152D01*
X101758976Y-151739156D01*
X101752330Y-151726789D01*
X101708769Y-151633375D01*
X101706612Y-151628470D01*
X101673342Y-151548150D01*
X101668130Y-151532795D01*
X101639938Y-151427580D01*
X101639139Y-151424434D01*
X101620422Y-151346472D01*
X101618056Y-151333706D01*
X101617708Y-151331062D01*
X101617120Y-151325688D01*
X101604977Y-151186887D01*
X101600881Y-151134847D01*
X101600500Y-151125130D01*
X101600500Y-128783687D01*
X127983500Y-128783687D01*
X127983501Y-128785848D01*
X127983654Y-128788026D01*
X127983655Y-128788032D01*
X127993799Y-128931724D01*
X128048340Y-129173898D01*
X128141023Y-129404186D01*
X128141024Y-129404188D01*
X128269448Y-129616626D01*
X128343374Y-129703536D01*
X128430285Y-129805714D01*
X128517196Y-129879640D01*
X128619374Y-129966552D01*
X128831812Y-130094976D01*
X129062101Y-130187659D01*
X129304275Y-130242201D01*
X129450151Y-130252500D01*
X136641848Y-130252499D01*
X136787725Y-130242201D01*
X137029899Y-130187659D01*
X137260188Y-130094976D01*
X137354350Y-130038052D01*
X137421904Y-130020216D01*
X137488378Y-130041733D01*
X137532666Y-130095773D01*
X137542500Y-130144169D01*
X137542500Y-137887981D01*
X137522815Y-137955020D01*
X137499032Y-137982271D01*
X137348679Y-138110684D01*
X137254290Y-138221201D01*
X137195784Y-138259395D01*
X137125916Y-138259894D01*
X137066869Y-138222540D01*
X137065710Y-138221201D01*
X136971318Y-138110681D01*
X136788851Y-137954841D01*
X136679746Y-137887981D01*
X136584249Y-137829460D01*
X136502355Y-137795538D01*
X136362553Y-137737630D01*
X136129223Y-137681613D01*
X135890000Y-137662786D01*
X135650776Y-137681613D01*
X135417446Y-137737630D01*
X135195749Y-137829461D01*
X134991148Y-137954841D01*
X134808681Y-138110681D01*
X134652841Y-138293148D01*
X134527461Y-138497749D01*
X134435630Y-138719446D01*
X134379613Y-138952776D01*
X134360786Y-139192000D01*
X134379613Y-139431223D01*
X134435630Y-139664553D01*
X134493538Y-139804355D01*
X134527460Y-139886249D01*
X134527461Y-139886250D01*
X134652841Y-140090851D01*
X134808681Y-140273318D01*
X134991148Y-140429158D01*
X134991150Y-140429159D01*
X134991151Y-140429160D01*
X135195751Y-140554540D01*
X135323225Y-140607341D01*
X135417446Y-140646369D01*
X135491161Y-140664066D01*
X135650778Y-140702387D01*
X135890000Y-140721214D01*
X136129222Y-140702387D01*
X136362553Y-140646369D01*
X136584249Y-140554540D01*
X136788849Y-140429160D01*
X136971318Y-140273318D01*
X137065711Y-140162796D01*
X137124216Y-140124605D01*
X137194084Y-140124105D01*
X137253130Y-140161459D01*
X137254208Y-140162702D01*
X137348682Y-140273318D01*
X137348685Y-140273321D01*
X137531148Y-140429158D01*
X137531150Y-140429159D01*
X137531151Y-140429160D01*
X137735751Y-140554540D01*
X137863225Y-140607341D01*
X137957446Y-140646369D01*
X138031161Y-140664066D01*
X138190778Y-140702387D01*
X138430000Y-140721214D01*
X138669222Y-140702387D01*
X138902553Y-140646369D01*
X139124249Y-140554540D01*
X139250909Y-140476921D01*
X139318353Y-140458677D01*
X139384956Y-140479793D01*
X139409131Y-140501543D01*
X139409213Y-140501656D01*
X139606671Y-140706130D01*
X139830665Y-140881133D01*
X140076835Y-141023260D01*
X140340389Y-141129742D01*
X140616198Y-141198509D01*
X140620497Y-141198960D01*
X140620498Y-141198961D01*
X140894584Y-141227769D01*
X140898894Y-141228222D01*
X141182973Y-141218302D01*
X141462907Y-141168942D01*
X141733247Y-141081103D01*
X141988731Y-140956495D01*
X142224387Y-140797543D01*
X142435628Y-140607341D01*
X142618342Y-140389591D01*
X142768973Y-140148531D01*
X142884589Y-139888853D01*
X142962940Y-139615612D01*
X143002500Y-139334126D01*
X143002500Y-139192000D01*
X162300786Y-139192000D01*
X162319613Y-139431223D01*
X162375630Y-139664553D01*
X162433538Y-139804355D01*
X162467460Y-139886249D01*
X162467461Y-139886250D01*
X162592841Y-140090851D01*
X162748681Y-140273318D01*
X162931148Y-140429158D01*
X162931150Y-140429159D01*
X162931151Y-140429160D01*
X163135751Y-140554540D01*
X163263225Y-140607341D01*
X163357446Y-140646369D01*
X163431161Y-140664066D01*
X163590778Y-140702387D01*
X163830000Y-140721214D01*
X164069222Y-140702387D01*
X164302553Y-140646369D01*
X164524249Y-140554540D01*
X164728849Y-140429160D01*
X164911318Y-140273318D01*
X165005711Y-140162796D01*
X165064216Y-140124605D01*
X165134084Y-140124105D01*
X165193130Y-140161459D01*
X165194208Y-140162702D01*
X165288682Y-140273318D01*
X165288685Y-140273321D01*
X165471148Y-140429158D01*
X165471150Y-140429159D01*
X165471151Y-140429160D01*
X165675751Y-140554540D01*
X165803225Y-140607341D01*
X165897446Y-140646369D01*
X165971161Y-140664066D01*
X166130778Y-140702387D01*
X166370000Y-140721214D01*
X166609222Y-140702387D01*
X166842553Y-140646369D01*
X167064249Y-140554540D01*
X167268849Y-140429160D01*
X167451318Y-140273318D01*
X167607160Y-140090849D01*
X167732540Y-139886249D01*
X167824369Y-139664553D01*
X167880387Y-139431222D01*
X167899214Y-139192000D01*
X167880387Y-138952778D01*
X167824369Y-138719447D01*
X167732540Y-138497751D01*
X167607160Y-138293151D01*
X167607159Y-138293150D01*
X167607158Y-138293148D01*
X167451318Y-138110681D01*
X167268851Y-137954841D01*
X167159746Y-137887981D01*
X167064249Y-137829460D01*
X166982355Y-137795538D01*
X166842553Y-137737630D01*
X166609223Y-137681613D01*
X166370000Y-137662786D01*
X166130776Y-137681613D01*
X165897446Y-137737630D01*
X165675749Y-137829461D01*
X165471148Y-137954841D01*
X165288681Y-138110681D01*
X165194290Y-138221201D01*
X165135784Y-138259395D01*
X165065916Y-138259894D01*
X165006869Y-138222540D01*
X165005710Y-138221201D01*
X164911318Y-138110681D01*
X164728851Y-137954841D01*
X164619746Y-137887981D01*
X164524249Y-137829460D01*
X164442355Y-137795538D01*
X164302553Y-137737630D01*
X164069223Y-137681613D01*
X163830000Y-137662786D01*
X163590776Y-137681613D01*
X163357446Y-137737630D01*
X163135749Y-137829461D01*
X162931148Y-137954841D01*
X162748681Y-138110681D01*
X162592841Y-138293148D01*
X162467461Y-138497749D01*
X162375630Y-138719446D01*
X162319613Y-138952776D01*
X162300786Y-139192000D01*
X143002500Y-139192000D01*
X143002500Y-131828499D01*
X143022185Y-131761461D01*
X143074989Y-131715706D01*
X143126500Y-131704500D01*
X146266024Y-131704500D01*
X146333063Y-131724185D01*
X146378818Y-131776989D01*
X146388762Y-131846147D01*
X146359737Y-131909703D01*
X146321949Y-131939172D01*
X146261113Y-131969913D01*
X146261103Y-131969918D01*
X146257412Y-131971784D01*
X146254001Y-131974125D01*
X146253995Y-131974129D01*
X146011094Y-132140870D01*
X146011080Y-132140880D01*
X146007677Y-132143217D01*
X146004612Y-132145988D01*
X146004602Y-132145997D01*
X145786095Y-132343626D01*
X145786089Y-132343631D01*
X145783021Y-132346407D01*
X145780352Y-132349562D01*
X145780345Y-132349571D01*
X145590127Y-132574562D01*
X145590121Y-132574569D01*
X145587452Y-132577727D01*
X145585229Y-132581208D01*
X145585221Y-132581220D01*
X145426686Y-132829562D01*
X145426682Y-132829569D01*
X145424460Y-132833050D01*
X145422720Y-132836799D01*
X145422717Y-132836805D01*
X145298698Y-133104058D01*
X145298694Y-133104067D01*
X145296953Y-133107820D01*
X145295727Y-133111770D01*
X145295725Y-133111777D01*
X145208434Y-133393177D01*
X145207207Y-133397133D01*
X145206518Y-133401211D01*
X145206518Y-133401216D01*
X145181461Y-133549770D01*
X145156824Y-133695827D01*
X145156686Y-133699950D01*
X145156685Y-133699962D01*
X145146840Y-133994423D01*
X145146840Y-133994433D01*
X145146702Y-133998571D01*
X145147116Y-134002692D01*
X145147117Y-134002703D01*
X145176607Y-134295829D01*
X145177023Y-134299962D01*
X145177983Y-134303990D01*
X145177985Y-134304002D01*
X145246282Y-134590588D01*
X145247244Y-134594624D01*
X145248732Y-134598488D01*
X145248735Y-134598497D01*
X145354618Y-134873416D01*
X145356113Y-134877297D01*
X145358106Y-134880934D01*
X145358108Y-134880938D01*
X145499694Y-135139299D01*
X145499700Y-135139308D01*
X145501688Y-135142936D01*
X145504144Y-135146269D01*
X145504147Y-135146274D01*
X145678909Y-135383462D01*
X145681370Y-135386802D01*
X145891953Y-135604544D01*
X146129679Y-135792274D01*
X146390306Y-135946644D01*
X146669183Y-136064898D01*
X146961333Y-136144926D01*
X147261543Y-136185300D01*
X147265684Y-136185300D01*
X149586567Y-136185300D01*
X149588649Y-136185300D01*
X149815237Y-136170132D01*
X150112080Y-136109796D01*
X150398233Y-136010433D01*
X150668588Y-135873816D01*
X150918323Y-135702383D01*
X151142979Y-135499193D01*
X151338548Y-135267873D01*
X151501540Y-135012550D01*
X151629047Y-134737780D01*
X151718793Y-134448467D01*
X151769176Y-134149773D01*
X151779298Y-133847029D01*
X151748977Y-133545638D01*
X151678756Y-133250976D01*
X151569887Y-132968303D01*
X151495766Y-132833050D01*
X151426305Y-132706300D01*
X151426302Y-132706295D01*
X151424312Y-132702664D01*
X151244630Y-132458798D01*
X151034047Y-132241056D01*
X150899193Y-132134563D01*
X150799571Y-132055892D01*
X150799566Y-132055888D01*
X150796321Y-132053326D01*
X150792765Y-132051219D01*
X150792761Y-132051217D01*
X150596869Y-131935190D01*
X150549220Y-131884089D01*
X150536762Y-131815338D01*
X150563451Y-131750767D01*
X150620814Y-131710875D01*
X150660062Y-131704500D01*
X154140024Y-131704500D01*
X154207063Y-131724185D01*
X154252818Y-131776989D01*
X154262762Y-131846147D01*
X154233737Y-131909703D01*
X154195949Y-131939172D01*
X154135113Y-131969913D01*
X154135103Y-131969918D01*
X154131412Y-131971784D01*
X154128001Y-131974125D01*
X154127995Y-131974129D01*
X153885094Y-132140870D01*
X153885080Y-132140880D01*
X153881677Y-132143217D01*
X153878612Y-132145988D01*
X153878602Y-132145997D01*
X153660095Y-132343626D01*
X153660089Y-132343631D01*
X153657021Y-132346407D01*
X153654352Y-132349562D01*
X153654345Y-132349571D01*
X153464127Y-132574562D01*
X153464121Y-132574569D01*
X153461452Y-132577727D01*
X153459229Y-132581208D01*
X153459221Y-132581220D01*
X153300686Y-132829562D01*
X153300682Y-132829569D01*
X153298460Y-132833050D01*
X153296720Y-132836799D01*
X153296717Y-132836805D01*
X153172698Y-133104058D01*
X153172694Y-133104067D01*
X153170953Y-133107820D01*
X153169727Y-133111770D01*
X153169725Y-133111777D01*
X153082434Y-133393177D01*
X153081207Y-133397133D01*
X153080518Y-133401211D01*
X153080518Y-133401216D01*
X153055461Y-133549770D01*
X153030824Y-133695827D01*
X153030686Y-133699950D01*
X153030685Y-133699962D01*
X153020840Y-133994423D01*
X153020840Y-133994433D01*
X153020702Y-133998571D01*
X153021116Y-134002692D01*
X153021117Y-134002703D01*
X153050607Y-134295829D01*
X153051023Y-134299962D01*
X153051983Y-134303990D01*
X153051985Y-134304002D01*
X153120282Y-134590588D01*
X153121244Y-134594624D01*
X153122732Y-134598488D01*
X153122735Y-134598497D01*
X153228618Y-134873416D01*
X153230113Y-134877297D01*
X153232106Y-134880934D01*
X153232108Y-134880938D01*
X153373694Y-135139299D01*
X153373700Y-135139308D01*
X153375688Y-135142936D01*
X153378144Y-135146269D01*
X153378147Y-135146274D01*
X153552909Y-135383462D01*
X153555370Y-135386802D01*
X153765953Y-135604544D01*
X154003679Y-135792274D01*
X154264306Y-135946644D01*
X154543183Y-136064898D01*
X154835333Y-136144926D01*
X155135543Y-136185300D01*
X155139684Y-136185300D01*
X157460567Y-136185300D01*
X157462649Y-136185300D01*
X157689237Y-136170132D01*
X157986080Y-136109796D01*
X158272233Y-136010433D01*
X158542588Y-135873816D01*
X158792323Y-135702383D01*
X159016979Y-135499193D01*
X159212548Y-135267873D01*
X159375540Y-135012550D01*
X159503047Y-134737780D01*
X159592793Y-134448467D01*
X159643176Y-134149773D01*
X159653298Y-133847029D01*
X159622977Y-133545638D01*
X159552756Y-133250976D01*
X159443887Y-132968303D01*
X159369766Y-132833050D01*
X159300305Y-132706300D01*
X159300302Y-132706295D01*
X159298312Y-132702664D01*
X159118630Y-132458798D01*
X158908047Y-132241056D01*
X158773193Y-132134563D01*
X158673571Y-132055892D01*
X158673566Y-132055888D01*
X158670321Y-132053326D01*
X158666765Y-132051219D01*
X158666761Y-132051217D01*
X158470869Y-131935190D01*
X158423220Y-131884089D01*
X158410762Y-131815338D01*
X158437451Y-131750767D01*
X158494814Y-131710875D01*
X158534062Y-131704500D01*
X164337676Y-131704500D01*
X164341000Y-131704500D01*
X164504150Y-131686959D01*
X164555661Y-131675753D01*
X164581336Y-131669704D01*
X164678023Y-131632764D01*
X164747801Y-131606106D01*
X164747801Y-131606105D01*
X164747803Y-131606105D01*
X164895117Y-131505831D01*
X164947921Y-131460076D01*
X165006348Y-131403774D01*
X165112007Y-131260274D01*
X165181724Y-131096275D01*
X165201409Y-131029236D01*
X165201838Y-131027658D01*
X165211809Y-130990014D01*
X165211809Y-130990005D01*
X165211812Y-130989998D01*
X165232500Y-130813000D01*
X165232500Y-103248000D01*
X165214959Y-103084850D01*
X165203753Y-103033339D01*
X165197704Y-103007664D01*
X165196224Y-103003790D01*
X165134106Y-102841198D01*
X165080537Y-102762500D01*
X165033831Y-102693883D01*
X165031470Y-102691159D01*
X165029265Y-102688292D01*
X165032715Y-102692518D01*
X165003780Y-102629119D01*
X165013740Y-102559963D01*
X165059507Y-102507169D01*
X165126522Y-102487500D01*
X167474947Y-102487500D01*
X167541986Y-102507185D01*
X167558485Y-102519863D01*
X167571433Y-102531667D01*
X167571435Y-102531668D01*
X167571436Y-102531669D01*
X167754609Y-102645085D01*
X167955504Y-102722912D01*
X168167279Y-102762500D01*
X168167281Y-102762500D01*
X168382719Y-102762500D01*
X168382721Y-102762500D01*
X168594496Y-102722912D01*
X168795391Y-102645085D01*
X168978564Y-102531669D01*
X169137778Y-102386526D01*
X169267612Y-102214599D01*
X169267612Y-102214597D01*
X169267614Y-102214596D01*
X169363643Y-102021742D01*
X169422601Y-101814526D01*
X169428762Y-101748033D01*
X169442480Y-101600000D01*
X169427263Y-101435785D01*
X169422601Y-101385473D01*
X169363643Y-101178257D01*
X169267614Y-100985403D01*
X169137777Y-100813472D01*
X168978566Y-100668332D01*
X168795391Y-100554915D01*
X168795391Y-100554914D01*
X168594496Y-100477088D01*
X168382721Y-100437500D01*
X168167279Y-100437500D01*
X168005313Y-100467777D01*
X167955504Y-100477088D01*
X167754608Y-100554915D01*
X167571433Y-100668332D01*
X167558485Y-100680137D01*
X167495681Y-100710754D01*
X167474947Y-100712500D01*
X164884053Y-100712500D01*
X164817014Y-100692815D01*
X164800515Y-100680137D01*
X164787566Y-100668332D01*
X164604391Y-100554915D01*
X164403496Y-100477088D01*
X164191721Y-100437500D01*
X163976279Y-100437500D01*
X163814313Y-100467777D01*
X163764504Y-100477088D01*
X163563608Y-100554915D01*
X163380433Y-100668332D01*
X163221222Y-100813472D01*
X163091385Y-100985403D01*
X162995356Y-101178257D01*
X162936398Y-101385473D01*
X162916520Y-101600000D01*
X162936398Y-101814526D01*
X162995356Y-102021742D01*
X163072779Y-102177229D01*
X163085040Y-102246014D01*
X163058167Y-102310509D01*
X163000691Y-102350237D01*
X162961779Y-102356500D01*
X145251418Y-102356500D01*
X145248996Y-102356691D01*
X145248982Y-102356692D01*
X145133280Y-102365839D01*
X145133273Y-102365839D01*
X145130829Y-102366033D01*
X145128418Y-102366416D01*
X145128406Y-102366418D01*
X145095579Y-102371641D01*
X145095576Y-102371641D01*
X145092349Y-102372155D01*
X145089202Y-102373002D01*
X145089186Y-102373006D01*
X144936542Y-102414118D01*
X144782057Y-102495480D01*
X144782044Y-102495487D01*
X144778869Y-102497160D01*
X144775908Y-102499190D01*
X144775899Y-102499196D01*
X144721248Y-102536675D01*
X144719915Y-102537628D01*
X144688386Y-102560511D01*
X144614425Y-102632284D01*
X144552605Y-102664844D01*
X144517089Y-102666809D01*
X144443234Y-102660242D01*
X144443217Y-102660241D01*
X144440504Y-102660000D01*
X143849496Y-102660000D01*
X143846783Y-102660241D01*
X143846765Y-102660242D01*
X143776608Y-102666480D01*
X143708088Y-102652809D01*
X143676001Y-102628659D01*
X143647592Y-102598946D01*
X143645900Y-102597176D01*
X143616839Y-102571224D01*
X143561854Y-102531667D01*
X143485857Y-102476993D01*
X143325174Y-102408686D01*
X143325172Y-102408685D01*
X143321857Y-102407276D01*
X143318407Y-102406263D01*
X143318396Y-102406259D01*
X143254818Y-102387591D01*
X143253240Y-102387162D01*
X143215596Y-102377190D01*
X143215580Y-102377188D01*
X143038582Y-102356500D01*
X143034983Y-102356500D01*
X142489500Y-102356500D01*
X142422461Y-102336815D01*
X142376706Y-102284011D01*
X142365500Y-102232500D01*
X142365500Y-102187649D01*
X142385185Y-102120610D01*
X142393136Y-102109611D01*
X142397502Y-102104220D01*
X142484584Y-101933312D01*
X142534230Y-101748033D01*
X142540500Y-101668363D01*
X142540499Y-100575141D01*
X142560184Y-100508103D01*
X142612987Y-100462348D01*
X142682146Y-100452404D01*
X142688669Y-100453520D01*
X142707212Y-100457209D01*
X142739305Y-100461434D01*
X142839481Y-100468000D01*
X142841503Y-100468000D01*
X144854683Y-100468000D01*
X144857309Y-100468000D01*
X144986624Y-100457028D01*
X145027810Y-100449988D01*
X145191333Y-100402898D01*
X145347047Y-100316242D01*
X145403742Y-100275408D01*
X145466983Y-100224574D01*
X145585087Y-100091130D01*
X145669234Y-99934045D01*
X145694853Y-99869042D01*
X145720577Y-99792073D01*
X145747786Y-99615960D01*
X145733647Y-99438319D01*
X145720055Y-99369784D01*
X145719701Y-99368167D01*
X145711115Y-99330211D01*
X145708216Y-99322625D01*
X145647497Y-99163736D01*
X145635815Y-99141372D01*
X145626508Y-99118072D01*
X145619284Y-99092823D01*
X145614500Y-99058714D01*
X145614500Y-98553279D01*
X145619283Y-98519171D01*
X145626504Y-98493931D01*
X145635811Y-98470635D01*
X145646029Y-98451074D01*
X145659834Y-98430126D01*
X145673786Y-98413016D01*
X145691522Y-98395281D01*
X145708627Y-98381333D01*
X145729580Y-98367524D01*
X145830761Y-98314673D01*
X145830760Y-98314672D01*
X145848601Y-98305052D01*
X145993207Y-98200911D01*
X146040110Y-98158042D01*
X146041869Y-98156335D01*
X146083335Y-98115273D01*
X146083343Y-98115261D01*
X146083348Y-98115257D01*
X146189007Y-97971757D01*
X146247201Y-97834864D01*
X146257308Y-97811090D01*
X146257310Y-97811083D01*
X146258724Y-97807758D01*
X146278409Y-97740719D01*
X146278838Y-97739141D01*
X146288809Y-97701497D01*
X146288809Y-97701488D01*
X146288812Y-97701481D01*
X146309500Y-97524483D01*
X146309500Y-92712500D01*
X146291959Y-92549350D01*
X146280753Y-92497839D01*
X146274704Y-92472164D01*
X146257026Y-92425892D01*
X146237871Y-92375754D01*
X146232333Y-92306104D01*
X146265331Y-92244517D01*
X146326386Y-92210547D01*
X146353705Y-92207500D01*
X146947054Y-92207500D01*
X146948578Y-92207500D01*
X147023815Y-92203803D01*
X147048007Y-92201420D01*
X147122509Y-92190368D01*
X147183538Y-92178228D01*
X147327509Y-92134554D01*
X147372208Y-92116039D01*
X147504899Y-92045114D01*
X147556644Y-92010539D01*
X147617148Y-91965666D01*
X147635938Y-91950245D01*
X147691737Y-91899670D01*
X149887588Y-89703818D01*
X149948911Y-89670334D01*
X149975269Y-89667500D01*
X173722264Y-89667500D01*
X173723788Y-89667500D01*
X173799032Y-89663803D01*
X173823222Y-89661420D01*
X173897717Y-89650368D01*
X173958751Y-89638227D01*
X174102726Y-89594552D01*
X174147422Y-89576038D01*
X174280098Y-89505121D01*
X174321485Y-89477468D01*
X174437799Y-89382013D01*
X174472013Y-89347799D01*
X174567468Y-89231485D01*
X174595121Y-89190098D01*
X174666038Y-89057422D01*
X174684552Y-89012726D01*
X174728226Y-88868755D01*
X174740367Y-88807723D01*
X174751421Y-88733214D01*
X174753804Y-88709021D01*
X174757500Y-88633787D01*
X174757500Y-62242212D01*
X174753804Y-62166978D01*
X174751421Y-62142785D01*
X174740367Y-62068276D01*
X174728226Y-62007244D01*
X174684552Y-61863273D01*
X174666038Y-61818577D01*
X174595121Y-61685901D01*
X174567468Y-61644514D01*
X174565536Y-61642160D01*
X174565531Y-61642153D01*
X174473949Y-61530559D01*
X174473948Y-61530558D01*
X174472013Y-61528200D01*
X174437800Y-61493987D01*
X174435452Y-61492060D01*
X174435449Y-61492057D01*
X174323844Y-61400465D01*
X174323842Y-61400463D01*
X174321497Y-61398539D01*
X174280110Y-61370885D01*
X174277416Y-61369445D01*
X174277411Y-61369442D01*
X174150093Y-61301390D01*
X174150087Y-61301387D01*
X174147412Y-61299957D01*
X174144624Y-61298802D01*
X174144611Y-61298796D01*
X174105522Y-61282606D01*
X174105520Y-61282605D01*
X174102714Y-61281443D01*
X174099814Y-61280563D01*
X174099802Y-61280559D01*
X173961654Y-61238653D01*
X173961645Y-61238650D01*
X173958745Y-61237771D01*
X173955774Y-61237180D01*
X173955758Y-61237176D01*
X173899214Y-61225929D01*
X173899199Y-61225926D01*
X173897714Y-61225631D01*
X173896231Y-61225411D01*
X173896208Y-61225407D01*
X173824710Y-61214801D01*
X173824691Y-61214798D01*
X173823217Y-61214580D01*
X173821721Y-61214432D01*
X173821716Y-61214432D01*
X173800541Y-61212346D01*
X173800527Y-61212345D01*
X173799025Y-61212197D01*
X173797523Y-61212123D01*
X173797507Y-61212122D01*
X173725301Y-61208574D01*
X173725287Y-61208573D01*
X173723788Y-61208500D01*
X135521212Y-61208500D01*
X135519713Y-61208573D01*
X135519698Y-61208574D01*
X135447489Y-61212122D01*
X135447470Y-61212123D01*
X135445972Y-61212197D01*
X135444469Y-61212344D01*
X135444456Y-61212346D01*
X135423281Y-61214432D01*
X135423271Y-61214433D01*
X135421781Y-61214580D01*
X135420311Y-61214797D01*
X135420287Y-61214801D01*
X135348777Y-61225409D01*
X135348766Y-61225410D01*
X135347289Y-61225630D01*
X135345839Y-61225918D01*
X135345801Y-61225925D01*
X135289248Y-61237175D01*
X135286257Y-61237770D01*
X135283346Y-61238652D01*
X135283342Y-61238654D01*
X135145215Y-61280552D01*
X135145197Y-61280558D01*
X135142294Y-61281439D01*
X135139486Y-61282601D01*
X135139472Y-61282607D01*
X135100412Y-61298785D01*
X135100394Y-61298793D01*
X135097597Y-61299952D01*
X135094914Y-61301386D01*
X135094912Y-61301387D01*
X134967586Y-61369442D01*
X134967575Y-61369448D01*
X134964895Y-61370881D01*
X134962374Y-61372564D01*
X134962358Y-61372575D01*
X134926031Y-61396848D01*
X134926026Y-61396852D01*
X134923503Y-61398538D01*
X134921163Y-61400458D01*
X134921150Y-61400468D01*
X134809550Y-61492057D01*
X134807196Y-61493989D01*
X134772989Y-61528196D01*
X134771064Y-61530541D01*
X134771060Y-61530546D01*
X134679467Y-61642152D01*
X134679458Y-61642163D01*
X134677536Y-61644506D01*
X134675861Y-61647011D01*
X134675846Y-61647033D01*
X134651574Y-61683360D01*
X134651564Y-61683376D01*
X134649880Y-61685897D01*
X134648447Y-61688577D01*
X134648441Y-61688588D01*
X134580388Y-61815910D01*
X134578957Y-61818588D01*
X134577798Y-61821384D01*
X134577798Y-61821387D01*
X134560443Y-61863286D01*
X134559563Y-61866185D01*
X134559559Y-61866198D01*
X134517654Y-62004342D01*
X134516770Y-62007257D01*
X134516176Y-62010242D01*
X134516174Y-62010251D01*
X134504925Y-62066801D01*
X134504918Y-62066839D01*
X134504630Y-62068289D01*
X134504410Y-62069766D01*
X134504409Y-62069777D01*
X134493801Y-62141287D01*
X134493797Y-62141311D01*
X134493580Y-62142781D01*
X134491197Y-62166972D01*
X134491123Y-62168470D01*
X134491122Y-62168489D01*
X134487574Y-62240698D01*
X134487500Y-62242212D01*
X134487500Y-91173787D01*
X134491197Y-91249027D01*
X134493580Y-91273218D01*
X134504630Y-91347710D01*
X134504919Y-91349166D01*
X134504925Y-91349197D01*
X134516174Y-91405747D01*
X134516770Y-91408742D01*
X134560443Y-91552713D01*
X134578957Y-91597411D01*
X134649880Y-91730102D01*
X134651569Y-91732631D01*
X134651574Y-91732638D01*
X134675844Y-91768962D01*
X134675852Y-91768973D01*
X134677534Y-91771490D01*
X134772987Y-91887800D01*
X134807200Y-91922013D01*
X134809558Y-91923948D01*
X134809559Y-91923949D01*
X134921153Y-92015531D01*
X134921160Y-92015536D01*
X134923514Y-92017468D01*
X134964901Y-92045121D01*
X135097577Y-92116038D01*
X135142273Y-92134552D01*
X135286248Y-92178227D01*
X135347282Y-92190368D01*
X135421781Y-92201420D01*
X135445972Y-92203803D01*
X135521212Y-92207500D01*
X140668080Y-92207500D01*
X140735119Y-92227185D01*
X140780874Y-92279989D01*
X140790818Y-92349147D01*
X140782196Y-92380012D01*
X140762691Y-92425892D01*
X140762680Y-92425920D01*
X140761276Y-92429225D01*
X140760264Y-92432669D01*
X140760259Y-92432685D01*
X140741591Y-92496264D01*
X140741162Y-92497842D01*
X140731190Y-92535485D01*
X140731188Y-92535501D01*
X140731188Y-92535502D01*
X140710500Y-92712500D01*
X140710500Y-97834864D01*
X140710503Y-97837097D01*
X140710936Y-97840716D01*
X140710937Y-97840721D01*
X140726640Y-97971757D01*
X140731706Y-98014033D01*
X140745221Y-98070327D01*
X140745744Y-98072493D01*
X140747013Y-98075917D01*
X140747015Y-98075924D01*
X140792430Y-98198479D01*
X140807665Y-98239591D01*
X140809298Y-98242797D01*
X140810752Y-98246114D01*
X140808358Y-98241058D01*
X140817483Y-98264825D01*
X140818772Y-98269635D01*
X140822999Y-98301732D01*
X140822999Y-99341951D01*
X140821093Y-99363611D01*
X140810782Y-99421732D01*
X140809203Y-99544594D01*
X140788658Y-99611375D01*
X140735271Y-99656447D01*
X140685213Y-99667000D01*
X140316559Y-99667000D01*
X140316533Y-99667000D01*
X140314138Y-99667001D01*
X140311747Y-99667189D01*
X140311725Y-99667190D01*
X140240878Y-99672765D01*
X140234467Y-99673270D01*
X140202144Y-99681931D01*
X140049187Y-99722915D01*
X139878279Y-99809998D01*
X139729211Y-99930711D01*
X139608498Y-100079780D01*
X139581398Y-100132965D01*
X139533423Y-100183760D01*
X139475115Y-100198198D01*
X139475218Y-100200152D01*
X139462203Y-100200834D01*
X139395497Y-100204330D01*
X139389007Y-100204500D01*
X139368985Y-100204500D01*
X139365779Y-100204836D01*
X139365758Y-100204838D01*
X139349067Y-100206593D01*
X139342598Y-100207102D01*
X139275896Y-100210598D01*
X139262683Y-100214138D01*
X139243560Y-100217682D01*
X139229964Y-100219111D01*
X139166427Y-100239755D01*
X139160207Y-100241597D01*
X139095694Y-100258884D01*
X139083510Y-100265092D01*
X139065546Y-100272533D01*
X139052530Y-100276762D01*
X138994680Y-100310161D01*
X138988979Y-100313257D01*
X138929468Y-100343580D01*
X138918838Y-100352188D01*
X138902811Y-100363203D01*
X138890965Y-100370042D01*
X138841322Y-100414740D01*
X138836397Y-100418947D01*
X138823343Y-100429519D01*
X138820833Y-100431552D01*
X138818564Y-100433820D01*
X138818536Y-100433846D01*
X138806662Y-100445721D01*
X138801957Y-100450186D01*
X138752323Y-100494877D01*
X138744281Y-100505945D01*
X138731650Y-100520733D01*
X137858735Y-101393649D01*
X137843943Y-101406284D01*
X137832875Y-101414325D01*
X137788176Y-101463968D01*
X137783714Y-101468669D01*
X137771851Y-101480533D01*
X137771834Y-101480551D01*
X137769552Y-101482834D01*
X137767528Y-101485332D01*
X137767502Y-101485362D01*
X137756945Y-101498398D01*
X137752740Y-101503322D01*
X137708041Y-101552968D01*
X137701199Y-101564817D01*
X137690189Y-101580836D01*
X137681580Y-101591467D01*
X137651259Y-101650976D01*
X137648163Y-101656678D01*
X137614760Y-101714534D01*
X137610533Y-101727543D01*
X137603094Y-101745503D01*
X137596882Y-101757696D01*
X137579590Y-101822229D01*
X137577747Y-101828452D01*
X137557111Y-101891962D01*
X137555681Y-101905566D01*
X137552138Y-101924684D01*
X137548597Y-101937898D01*
X137545102Y-102004598D01*
X137544593Y-102011067D01*
X137542838Y-102027758D01*
X137542836Y-102027779D01*
X137542500Y-102030985D01*
X137542500Y-102034228D01*
X137542500Y-102051006D01*
X137542330Y-102057495D01*
X137538834Y-102124204D01*
X137540973Y-102137709D01*
X137542500Y-102157107D01*
X137542500Y-104147855D01*
X137522815Y-104214894D01*
X137470011Y-104260649D01*
X137441286Y-104269743D01*
X137348508Y-104287086D01*
X137147608Y-104364915D01*
X136964433Y-104478332D01*
X136805222Y-104623472D01*
X136675385Y-104795403D01*
X136579356Y-104988257D01*
X136520398Y-105195473D01*
X136500520Y-105409999D01*
X136520398Y-105624526D01*
X136579356Y-105831742D01*
X136675385Y-106024596D01*
X136753454Y-106127974D01*
X136778146Y-106193335D01*
X136778500Y-106202701D01*
X136778500Y-124040194D01*
X136758815Y-124107233D01*
X136742181Y-124127875D01*
X135278875Y-125591181D01*
X135217552Y-125624666D01*
X135191194Y-125627500D01*
X129452340Y-125627500D01*
X129452311Y-125627500D01*
X129450152Y-125627501D01*
X129447974Y-125627654D01*
X129447967Y-125627655D01*
X129304275Y-125637799D01*
X129062101Y-125692340D01*
X128831813Y-125785023D01*
X128619374Y-125913448D01*
X128430285Y-126074285D01*
X128269448Y-126263374D01*
X128141023Y-126475813D01*
X128048340Y-126706101D01*
X127993799Y-126948274D01*
X127993799Y-126948275D01*
X127983500Y-127094151D01*
X127983500Y-127096337D01*
X127983500Y-127096338D01*
X127983500Y-128783659D01*
X127983500Y-128783687D01*
X101600500Y-128783687D01*
X101600500Y-59451197D01*
X128836204Y-59451197D01*
X128836941Y-59457459D01*
X128837632Y-59478221D01*
X128837313Y-59484514D01*
X128849150Y-59561785D01*
X128849729Y-59566060D01*
X128858869Y-59643687D01*
X128860852Y-59649673D01*
X128865709Y-59669875D01*
X128866663Y-59676105D01*
X128893807Y-59749395D01*
X128895235Y-59753466D01*
X128919817Y-59827673D01*
X128922966Y-59833139D01*
X128931789Y-59851947D01*
X128933980Y-59857860D01*
X128933981Y-59857861D01*
X128975316Y-59924178D01*
X128977534Y-59927878D01*
X129016559Y-59995630D01*
X129020735Y-60000342D01*
X129033168Y-60016996D01*
X129036500Y-60022341D01*
X129036502Y-60022343D01*
X129036504Y-60022346D01*
X129090374Y-60079017D01*
X129093273Y-60082176D01*
X129145123Y-60140671D01*
X129150168Y-60144450D01*
X129165699Y-60158260D01*
X129170039Y-60162825D01*
X129234173Y-60207463D01*
X129237673Y-60209990D01*
X129278276Y-60240401D01*
X129300257Y-60256865D01*
X129305951Y-60259547D01*
X129323949Y-60269949D01*
X129329122Y-60273550D01*
X129400953Y-60304375D01*
X129404839Y-60306123D01*
X129475602Y-60339452D01*
X129481728Y-60340934D01*
X129501449Y-60347500D01*
X129507236Y-60349984D01*
X129583788Y-60365715D01*
X129587990Y-60366656D01*
X129628415Y-60376440D01*
X129663983Y-60385050D01*
X129670278Y-60385269D01*
X129690917Y-60387731D01*
X129697089Y-60389000D01*
X129775241Y-60389000D01*
X129779557Y-60389075D01*
X129857686Y-60391796D01*
X129857686Y-60391795D01*
X129857688Y-60391796D01*
X129863902Y-60390742D01*
X129884620Y-60389000D01*
X139156144Y-60389000D01*
X139164387Y-60389274D01*
X139169007Y-60389581D01*
X139225335Y-60393335D01*
X139302800Y-60382722D01*
X139307077Y-60382212D01*
X139384827Y-60374306D01*
X139390833Y-60372421D01*
X139411118Y-60367883D01*
X139417363Y-60367028D01*
X139491161Y-60341018D01*
X139495141Y-60339693D01*
X139569759Y-60316283D01*
X139575259Y-60313229D01*
X139594221Y-60304698D01*
X139600165Y-60302604D01*
X139667198Y-60262282D01*
X139670863Y-60260164D01*
X139739226Y-60222222D01*
X139743998Y-60218124D01*
X139760864Y-60205945D01*
X139761952Y-60205290D01*
X139766256Y-60202702D01*
X139823817Y-60149696D01*
X139826931Y-60146927D01*
X139886290Y-60095972D01*
X139890140Y-60090997D01*
X139904204Y-60075675D01*
X139908837Y-60071411D01*
X139954532Y-60007928D01*
X139957067Y-60004533D01*
X140004929Y-59942703D01*
X140007703Y-59937045D01*
X140018394Y-59919209D01*
X140022070Y-59914105D01*
X140054045Y-59842738D01*
X140055835Y-59838921D01*
X140090287Y-59768689D01*
X140091866Y-59762589D01*
X140098742Y-59742979D01*
X140101321Y-59737226D01*
X140118271Y-59660897D01*
X140119267Y-59656755D01*
X140138869Y-59581055D01*
X140139188Y-59574765D01*
X140141978Y-59554155D01*
X140143343Y-59548015D01*
X140144582Y-59469857D01*
X140144723Y-59465603D01*
X140145454Y-59451197D01*
X164396204Y-59451197D01*
X164396941Y-59457459D01*
X164397632Y-59478221D01*
X164397313Y-59484514D01*
X164409150Y-59561785D01*
X164409729Y-59566060D01*
X164418869Y-59643687D01*
X164420852Y-59649673D01*
X164425709Y-59669875D01*
X164426663Y-59676105D01*
X164453807Y-59749395D01*
X164455235Y-59753466D01*
X164479817Y-59827673D01*
X164482966Y-59833139D01*
X164491789Y-59851947D01*
X164493980Y-59857860D01*
X164493981Y-59857861D01*
X164535316Y-59924178D01*
X164537534Y-59927878D01*
X164576559Y-59995630D01*
X164580735Y-60000342D01*
X164593168Y-60016996D01*
X164596500Y-60022341D01*
X164596502Y-60022343D01*
X164596504Y-60022346D01*
X164650374Y-60079017D01*
X164653273Y-60082176D01*
X164705123Y-60140671D01*
X164710168Y-60144450D01*
X164725699Y-60158260D01*
X164730039Y-60162825D01*
X164794173Y-60207463D01*
X164797673Y-60209990D01*
X164838276Y-60240401D01*
X164860257Y-60256865D01*
X164865951Y-60259547D01*
X164883949Y-60269949D01*
X164889122Y-60273550D01*
X164960953Y-60304375D01*
X164964839Y-60306123D01*
X165035602Y-60339452D01*
X165041728Y-60340934D01*
X165061449Y-60347500D01*
X165067236Y-60349984D01*
X165143788Y-60365715D01*
X165147990Y-60366656D01*
X165188415Y-60376440D01*
X165223983Y-60385050D01*
X165230278Y-60385269D01*
X165250917Y-60387731D01*
X165257089Y-60389000D01*
X165335241Y-60389000D01*
X165339557Y-60389075D01*
X165417686Y-60391796D01*
X165417686Y-60391795D01*
X165417688Y-60391796D01*
X165423902Y-60390742D01*
X165444620Y-60389000D01*
X174716144Y-60389000D01*
X174724387Y-60389274D01*
X174729007Y-60389581D01*
X174785335Y-60393335D01*
X174862800Y-60382722D01*
X174867077Y-60382212D01*
X174944827Y-60374306D01*
X174950833Y-60372421D01*
X174971118Y-60367883D01*
X174977363Y-60367028D01*
X175051161Y-60341018D01*
X175055141Y-60339693D01*
X175129759Y-60316283D01*
X175135259Y-60313229D01*
X175154221Y-60304698D01*
X175160165Y-60302604D01*
X175227198Y-60262282D01*
X175230863Y-60260164D01*
X175299226Y-60222222D01*
X175303998Y-60218124D01*
X175320864Y-60205945D01*
X175321952Y-60205290D01*
X175326256Y-60202702D01*
X175383817Y-60149696D01*
X175386931Y-60146927D01*
X175446290Y-60095972D01*
X175450140Y-60090997D01*
X175464204Y-60075675D01*
X175468837Y-60071411D01*
X175514532Y-60007928D01*
X175517067Y-60004533D01*
X175564929Y-59942703D01*
X175567703Y-59937045D01*
X175578394Y-59919209D01*
X175582070Y-59914105D01*
X175614045Y-59842738D01*
X175615835Y-59838921D01*
X175650287Y-59768689D01*
X175651866Y-59762589D01*
X175658742Y-59742979D01*
X175661321Y-59737226D01*
X175678271Y-59660897D01*
X175679267Y-59656755D01*
X175698869Y-59581055D01*
X175699188Y-59574765D01*
X175701978Y-59554155D01*
X175703343Y-59548015D01*
X175704582Y-59469857D01*
X175704723Y-59465603D01*
X175708686Y-59387482D01*
X175708685Y-59387481D01*
X175708686Y-59387478D01*
X175707733Y-59381258D01*
X175706318Y-59360502D01*
X175706418Y-59354218D01*
X175706418Y-59354217D01*
X175691894Y-59277385D01*
X175691173Y-59273167D01*
X175688862Y-59258084D01*
X175679336Y-59195896D01*
X175677146Y-59189985D01*
X175671586Y-59169953D01*
X175670418Y-59163770D01*
X175640723Y-59091428D01*
X175639175Y-59087462D01*
X175612020Y-59014140D01*
X175608691Y-59008799D01*
X175599209Y-58990291D01*
X175596819Y-58984467D01*
X175553168Y-58919581D01*
X175550860Y-58916018D01*
X175509496Y-58849654D01*
X175509495Y-58849653D01*
X175509494Y-58849651D01*
X175505154Y-58845085D01*
X175492144Y-58828869D01*
X170864654Y-51950169D01*
X170860089Y-51942844D01*
X170830441Y-51891370D01*
X170777494Y-51831638D01*
X170774932Y-51828653D01*
X170723906Y-51767271D01*
X170723903Y-51767269D01*
X170723902Y-51767267D01*
X170720290Y-51764378D01*
X170704946Y-51749792D01*
X170701875Y-51746328D01*
X170701871Y-51746325D01*
X170637953Y-51698450D01*
X170634843Y-51696042D01*
X170572533Y-51646210D01*
X170568410Y-51644106D01*
X170550457Y-51632916D01*
X170546745Y-51630136D01*
X170474512Y-51596115D01*
X170470979Y-51594382D01*
X170466815Y-51592257D01*
X170451411Y-51584395D01*
X170399897Y-51558103D01*
X170395437Y-51556873D01*
X170375587Y-51549522D01*
X170371397Y-51547548D01*
X170293828Y-51528772D01*
X170290021Y-51527786D01*
X170213057Y-51506550D01*
X170208432Y-51506242D01*
X170187514Y-51503038D01*
X170183018Y-51501950D01*
X170103256Y-51499171D01*
X170099332Y-51498972D01*
X170019662Y-51493664D01*
X170015064Y-51494294D01*
X169993947Y-51495364D01*
X169989316Y-51495203D01*
X169910596Y-51508543D01*
X169906711Y-51509138D01*
X169827638Y-51519971D01*
X169823261Y-51521514D01*
X169802783Y-51526815D01*
X169802147Y-51526923D01*
X169798212Y-51527590D01*
X169723798Y-51556500D01*
X169720112Y-51557865D01*
X169644834Y-51584395D01*
X169640860Y-51586786D01*
X169621865Y-51596103D01*
X169617550Y-51597779D01*
X169550489Y-51641070D01*
X169547153Y-51643150D01*
X169478739Y-51684300D01*
X169475322Y-51687447D01*
X169458605Y-51700387D01*
X169454711Y-51702900D01*
X169397765Y-51758777D01*
X169394917Y-51761485D01*
X169336160Y-51815590D01*
X169333450Y-51819356D01*
X169319676Y-51835401D01*
X169316368Y-51838647D01*
X169271807Y-51904884D01*
X169269563Y-51908108D01*
X169222927Y-51972898D01*
X169221031Y-51977129D01*
X169210764Y-51995624D01*
X164583281Y-58874317D01*
X164578452Y-58881003D01*
X164541070Y-58929297D01*
X164506651Y-58999465D01*
X164504685Y-59003303D01*
X164467835Y-59072250D01*
X164466045Y-59078291D01*
X164458491Y-59097646D01*
X164455713Y-59103308D01*
X164436122Y-59178971D01*
X164434969Y-59183125D01*
X164412751Y-59258084D01*
X164412213Y-59264366D01*
X164408711Y-59284841D01*
X164407131Y-59290943D01*
X164403170Y-59369028D01*
X164402876Y-59373331D01*
X164396204Y-59451197D01*
X140145454Y-59451197D01*
X140148686Y-59387482D01*
X140148685Y-59387481D01*
X140148686Y-59387478D01*
X140147733Y-59381258D01*
X140146318Y-59360502D01*
X140146418Y-59354218D01*
X140146418Y-59354217D01*
X140131894Y-59277385D01*
X140131173Y-59273167D01*
X140128862Y-59258084D01*
X140119336Y-59195896D01*
X140117146Y-59189985D01*
X140111586Y-59169953D01*
X140110418Y-59163770D01*
X140080723Y-59091428D01*
X140079175Y-59087462D01*
X140052020Y-59014140D01*
X140048691Y-59008799D01*
X140039209Y-58990291D01*
X140036819Y-58984467D01*
X139993168Y-58919581D01*
X139990860Y-58916018D01*
X139949496Y-58849654D01*
X139949495Y-58849653D01*
X139949494Y-58849651D01*
X139945154Y-58845085D01*
X139932144Y-58828869D01*
X135304654Y-51950169D01*
X135300089Y-51942844D01*
X135270441Y-51891370D01*
X135217494Y-51831638D01*
X135214932Y-51828653D01*
X135163906Y-51767271D01*
X135163903Y-51767269D01*
X135163902Y-51767267D01*
X135160290Y-51764378D01*
X135144946Y-51749792D01*
X135141875Y-51746328D01*
X135141871Y-51746325D01*
X135077953Y-51698450D01*
X135074843Y-51696042D01*
X135012533Y-51646210D01*
X135008410Y-51644106D01*
X134990457Y-51632916D01*
X134986745Y-51630136D01*
X134914512Y-51596115D01*
X134910979Y-51594382D01*
X134906815Y-51592257D01*
X134891411Y-51584395D01*
X134839897Y-51558103D01*
X134835437Y-51556873D01*
X134815587Y-51549522D01*
X134811397Y-51547548D01*
X134733828Y-51528772D01*
X134730021Y-51527786D01*
X134653057Y-51506550D01*
X134648432Y-51506242D01*
X134627514Y-51503038D01*
X134623018Y-51501950D01*
X134543256Y-51499171D01*
X134539332Y-51498972D01*
X134459662Y-51493664D01*
X134455064Y-51494294D01*
X134433947Y-51495364D01*
X134429316Y-51495203D01*
X134350596Y-51508543D01*
X134346711Y-51509138D01*
X134267638Y-51519971D01*
X134263261Y-51521514D01*
X134242783Y-51526815D01*
X134242147Y-51526923D01*
X134238212Y-51527590D01*
X134163798Y-51556500D01*
X134160112Y-51557865D01*
X134084834Y-51584395D01*
X134080860Y-51586786D01*
X134061865Y-51596103D01*
X134057550Y-51597779D01*
X133990489Y-51641070D01*
X133987153Y-51643150D01*
X133918739Y-51684300D01*
X133915322Y-51687447D01*
X133898605Y-51700387D01*
X133894711Y-51702900D01*
X133837765Y-51758777D01*
X133834917Y-51761485D01*
X133776160Y-51815590D01*
X133773450Y-51819356D01*
X133759676Y-51835401D01*
X133756368Y-51838647D01*
X133711807Y-51904884D01*
X133709563Y-51908108D01*
X133662927Y-51972898D01*
X133661031Y-51977129D01*
X133650764Y-51995624D01*
X129023281Y-58874317D01*
X129018452Y-58881003D01*
X128981070Y-58929297D01*
X128946651Y-58999465D01*
X128944685Y-59003303D01*
X128907835Y-59072250D01*
X128906045Y-59078291D01*
X128898491Y-59097646D01*
X128895713Y-59103308D01*
X128876122Y-59178971D01*
X128874969Y-59183125D01*
X128852751Y-59258084D01*
X128852213Y-59264366D01*
X128848711Y-59284841D01*
X128847131Y-59290943D01*
X128843170Y-59369028D01*
X128842876Y-59373331D01*
X128836204Y-59451197D01*
X101600500Y-59451197D01*
X101600500Y-52074872D01*
X101600882Y-52065144D01*
X101604977Y-52013107D01*
X101617123Y-51874272D01*
X101617704Y-51868969D01*
X101617760Y-51868540D01*
X101618053Y-51866314D01*
X101620415Y-51853555D01*
X101639155Y-51775498D01*
X101639925Y-51772466D01*
X101668134Y-51667190D01*
X101673339Y-51651858D01*
X101706626Y-51571495D01*
X101708754Y-51566658D01*
X101752337Y-51473195D01*
X101758966Y-51460860D01*
X101805548Y-51384844D01*
X101809683Y-51378538D01*
X101867602Y-51295820D01*
X101874849Y-51286461D01*
X101933322Y-51217997D01*
X101939884Y-51210899D01*
X102010899Y-51139884D01*
X102017997Y-51133322D01*
X102086461Y-51074849D01*
X102095820Y-51067602D01*
X102178538Y-51009683D01*
X102184846Y-51005548D01*
X102260860Y-50958966D01*
X102273195Y-50952337D01*
X102366658Y-50908754D01*
X102371495Y-50906626D01*
X102451858Y-50873339D01*
X102467190Y-50868134D01*
X102572466Y-50839925D01*
X102575498Y-50839155D01*
X102653555Y-50820415D01*
X102666291Y-50818056D01*
X102668986Y-50817701D01*
X102674282Y-50817122D01*
X102813048Y-50804982D01*
X102865166Y-50800880D01*
X102874869Y-50800500D01*
X176266302Y-50800500D01*
X176290494Y-50802883D01*
G37*
%TD.AperFunction*%
%TD*%
%TA.AperFunction,Conductor*%
%TO.N,Net-(Q1-G)*%
G36*
X145485039Y-92608185D02*
G01*
X145530794Y-92660989D01*
X145542000Y-92712500D01*
X145542000Y-97524483D01*
X145522315Y-97591522D01*
X145475412Y-97634391D01*
X145293871Y-97729220D01*
X145136247Y-97857747D01*
X145007723Y-98015368D01*
X144913557Y-98195637D01*
X144857609Y-98391170D01*
X144847242Y-98507768D01*
X144847241Y-98507780D01*
X144847000Y-98510496D01*
X144847000Y-99101504D01*
X144847241Y-99104220D01*
X144847242Y-99104231D01*
X144857609Y-99220829D01*
X144913559Y-99416366D01*
X144967217Y-99519088D01*
X144980809Y-99587623D01*
X144955190Y-99652626D01*
X144898495Y-99693460D01*
X144857309Y-99700500D01*
X142839481Y-99700500D01*
X142807388Y-99696275D01*
X142721533Y-99673270D01*
X142711938Y-99672514D01*
X142644297Y-99667191D01*
X142644282Y-99667190D01*
X142641863Y-99667000D01*
X142639417Y-99667000D01*
X142216559Y-99667000D01*
X142216533Y-99667000D01*
X142214138Y-99667001D01*
X142211747Y-99667189D01*
X142211725Y-99667190D01*
X142134466Y-99673270D01*
X142048611Y-99696275D01*
X142016518Y-99700500D01*
X141889482Y-99700500D01*
X141857389Y-99696275D01*
X141771533Y-99673270D01*
X141765333Y-99672782D01*
X141694276Y-99667189D01*
X141694253Y-99667188D01*
X141691863Y-99667000D01*
X141689448Y-99667000D01*
X141688963Y-99666981D01*
X141622749Y-99644678D01*
X141579104Y-99590117D01*
X141571885Y-99520621D01*
X141574057Y-99510998D01*
X141584230Y-99473033D01*
X141590500Y-99393363D01*
X141590499Y-98240638D01*
X141584230Y-98160967D01*
X141534584Y-97975688D01*
X141534583Y-97975687D01*
X141534583Y-97975685D01*
X141491515Y-97891158D01*
X141478000Y-97834864D01*
X141478000Y-92712500D01*
X141497685Y-92645461D01*
X141550489Y-92599706D01*
X141602000Y-92588500D01*
X145418000Y-92588500D01*
X145485039Y-92608185D01*
G37*
%TD.AperFunction*%
%TD*%
M02*
