%TF.GenerationSoftware,KiCad,Pcbnew,7.0.2*%
%TF.CreationDate,2024-03-28T21:29:17-05:00*%
%TF.ProjectId,Relay_board_hardware,52656c61-795f-4626-9f61-72645f686172,rev?*%
%TF.SameCoordinates,Original*%
%TF.FileFunction,Drillmap*%
%TF.FilePolarity,Positive*%
%FSLAX45Y45*%
G04 Gerber Fmt 4.5, Leading zero omitted, Abs format (unit mm)*
G04 Created by KiCad (PCBNEW 7.0.2) date 2024-03-28 21:29:17*
%MOMM*%
%LPD*%
G01*
G04 APERTURE LIST*
%ADD10C,0.100000*%
%ADD11C,0.200000*%
%ADD12C,0.040000*%
%ADD13C,0.076200*%
%ADD14C,0.090000*%
%ADD15C,0.110000*%
%ADD16C,0.914400*%
G04 APERTURE END LIST*
D10*
X10160000Y-5207000D02*
X10160000Y-15113000D01*
X10287000Y-15240000D02*
X20193000Y-15240000D01*
X10160000Y-15113000D02*
G75*
G03*
X10287000Y-15240000I127000J0D01*
G01*
X10287000Y-5080000D02*
X20193000Y-5080000D01*
X20193000Y-15240000D02*
G75*
G03*
X20320000Y-15113000I0J127000D01*
G01*
X20320000Y-15113000D02*
X20320000Y-5207000D01*
X20320000Y-5207000D02*
G75*
G03*
X20193000Y-5080000I-127000J0D01*
G01*
X10287000Y-5080000D02*
G75*
G03*
X10160000Y-5207000I0J-127000D01*
G01*
D11*
D12*
X12807000Y-9695500D02*
X12847000Y-9735500D01*
X12847000Y-9695500D02*
X12807000Y-9735500D01*
X12807000Y-9886000D02*
X12847000Y-9926000D01*
X12847000Y-9886000D02*
X12807000Y-9926000D01*
X12934000Y-13505500D02*
X12974000Y-13545500D01*
X12974000Y-13505500D02*
X12934000Y-13545500D01*
X13442000Y-9695500D02*
X13482000Y-9735500D01*
X13482000Y-9695500D02*
X13442000Y-9735500D01*
X13442000Y-9886000D02*
X13482000Y-9926000D01*
X13482000Y-9886000D02*
X13442000Y-9926000D01*
X13574700Y-13410500D02*
X13614700Y-13450500D01*
X13614700Y-13410500D02*
X13574700Y-13450500D01*
X13574700Y-13588300D02*
X13614700Y-13628300D01*
X13614700Y-13588300D02*
X13574700Y-13628300D01*
X13746800Y-8273100D02*
X13786800Y-8313100D01*
X13786800Y-8273100D02*
X13746800Y-8313100D01*
X13746800Y-8590600D02*
X13786800Y-8630600D01*
X13786800Y-8590600D02*
X13746800Y-8630600D01*
X13746800Y-8908100D02*
X13786800Y-8948100D01*
X13786800Y-8908100D02*
X13746800Y-8948100D01*
X13746800Y-10521000D02*
X13786800Y-10561000D01*
X13786800Y-10521000D02*
X13746800Y-10561000D01*
X14127800Y-8273100D02*
X14167800Y-8313100D01*
X14167800Y-8273100D02*
X14127800Y-8313100D01*
X14127800Y-8590600D02*
X14167800Y-8630600D01*
X14167800Y-8590600D02*
X14127800Y-8630600D01*
X14127800Y-8908100D02*
X14167800Y-8948100D01*
X14167800Y-8908100D02*
X14127800Y-8948100D01*
X14508800Y-8273100D02*
X14548800Y-8313100D01*
X14548800Y-8273100D02*
X14508800Y-8313100D01*
X14508800Y-8590600D02*
X14548800Y-8630600D01*
X14548800Y-8590600D02*
X14508800Y-8630600D01*
X14508800Y-8908100D02*
X14548800Y-8948100D01*
X14548800Y-8908100D02*
X14508800Y-8948100D01*
X14902500Y-9695500D02*
X14942500Y-9735500D01*
X14942500Y-9695500D02*
X14902500Y-9735500D01*
X14902500Y-9886000D02*
X14942500Y-9926000D01*
X14942500Y-9886000D02*
X14902500Y-9926000D01*
X15537500Y-9695500D02*
X15577500Y-9735500D01*
X15577500Y-9695500D02*
X15537500Y-9735500D01*
X15537500Y-9886000D02*
X15577500Y-9926000D01*
X15577500Y-9886000D02*
X15537500Y-9926000D01*
X16236000Y-9187500D02*
X16276000Y-9227500D01*
X16276000Y-9187500D02*
X16236000Y-9227500D01*
X16388400Y-10140000D02*
X16428400Y-10180000D01*
X16428400Y-10140000D02*
X16388400Y-10180000D01*
X16426500Y-9378000D02*
X16466500Y-9418000D01*
X16466500Y-9378000D02*
X16426500Y-9418000D01*
X16807500Y-10140000D02*
X16847500Y-10180000D01*
X16847500Y-10140000D02*
X16807500Y-10180000D01*
X16871000Y-9695500D02*
X16911000Y-9735500D01*
X16911000Y-9695500D02*
X16871000Y-9735500D01*
X16871000Y-9886000D02*
X16911000Y-9926000D01*
X16911000Y-9886000D02*
X16871000Y-9926000D01*
X16871000Y-11600500D02*
X16911000Y-11640500D01*
X16911000Y-11600500D02*
X16871000Y-11640500D01*
X16871000Y-11918000D02*
X16911000Y-11958000D01*
X16911000Y-11918000D02*
X16871000Y-11958000D01*
X16871000Y-12299000D02*
X16911000Y-12339000D01*
X16911000Y-12299000D02*
X16871000Y-12339000D01*
X16871000Y-12680000D02*
X16911000Y-12720000D01*
X16911000Y-12680000D02*
X16871000Y-12720000D01*
X16871000Y-12997500D02*
X16911000Y-13037500D01*
X16911000Y-12997500D02*
X16871000Y-13037500D01*
X17506000Y-9695500D02*
X17546000Y-9735500D01*
X17546000Y-9695500D02*
X17506000Y-9735500D01*
X17506000Y-9886000D02*
X17546000Y-9926000D01*
X17546000Y-9886000D02*
X17506000Y-9926000D01*
X17633000Y-11600500D02*
X17673000Y-11640500D01*
X17673000Y-11600500D02*
X17633000Y-11640500D01*
X17633000Y-11918000D02*
X17673000Y-11958000D01*
X17673000Y-11918000D02*
X17633000Y-11958000D01*
X17633000Y-12299000D02*
X17673000Y-12339000D01*
X17673000Y-12299000D02*
X17633000Y-12339000D01*
X17633000Y-12680000D02*
X17673000Y-12720000D01*
X17673000Y-12680000D02*
X17633000Y-12720000D01*
X17633000Y-12997500D02*
X17673000Y-13037500D01*
X17673000Y-12997500D02*
X17633000Y-13037500D01*
D13*
X13627100Y-13919200D02*
G75*
G03*
X13627100Y-13919200I-38100J0D01*
G01*
X16421100Y-13919200D02*
G75*
G03*
X16421100Y-13919200I-38100J0D01*
G01*
D14*
X13843000Y-13874200D02*
X13843000Y-13964200D01*
X13798000Y-13919200D02*
X13888000Y-13919200D01*
X14097000Y-13874200D02*
X14097000Y-13964200D01*
X14052000Y-13919200D02*
X14142000Y-13919200D01*
X16637000Y-13874200D02*
X16637000Y-13964200D01*
X16592000Y-13919200D02*
X16682000Y-13919200D01*
X16891000Y-13874200D02*
X16891000Y-13964200D01*
X16846000Y-13919200D02*
X16936000Y-13919200D01*
D15*
X13143491Y-11082891D02*
X13143491Y-11005109D01*
X13065709Y-11005109D01*
X13065709Y-11082891D01*
X13143491Y-11082891D01*
D11*
X13049600Y-10769000D02*
X13049600Y-11319000D01*
X13049600Y-11319000D02*
G75*
G03*
X13159600Y-11319000I55000J0D01*
G01*
X13159600Y-11319000D02*
X13159600Y-10769000D01*
X13159600Y-10769000D02*
G75*
G03*
X13049600Y-10769000I-55000J0D01*
G01*
D15*
X13343491Y-12832891D02*
X13343491Y-12755109D01*
X13265709Y-12755109D01*
X13265709Y-12832891D01*
X13343491Y-12832891D01*
D11*
X13029600Y-12849000D02*
X13579600Y-12849000D01*
X13579600Y-12849000D02*
G75*
G03*
X13579600Y-12739000I0J55000D01*
G01*
X13579600Y-12739000D02*
X13029600Y-12739000D01*
X13029600Y-12739000D02*
G75*
G03*
X13029600Y-12849000I0J-55000D01*
G01*
D15*
X14643491Y-12832891D02*
X14643491Y-12755109D01*
X14565709Y-12755109D01*
X14565709Y-12832891D01*
X14643491Y-12832891D01*
D11*
X14329600Y-12849000D02*
X14879600Y-12849000D01*
X14879600Y-12849000D02*
G75*
G03*
X14879600Y-12739000I0J55000D01*
G01*
X14879600Y-12739000D02*
X14329600Y-12739000D01*
X14329600Y-12739000D02*
G75*
G03*
X14329600Y-12849000I0J-55000D01*
G01*
D15*
X14843491Y-11082891D02*
X14843491Y-11005109D01*
X14765709Y-11005109D01*
X14765709Y-11082891D01*
X14843491Y-11082891D01*
D11*
X14859600Y-11319000D02*
X14859600Y-10769000D01*
X14859600Y-10769000D02*
G75*
G03*
X14749600Y-10769000I-55000J0D01*
G01*
X14749600Y-10769000D02*
X14749600Y-11319000D01*
X14749600Y-11319000D02*
G75*
G03*
X14859600Y-11319000I55000J0D01*
G01*
D15*
X15714291Y-12362891D02*
X15714291Y-12285109D01*
X15636509Y-12285109D01*
X15636509Y-12362891D01*
X15714291Y-12362891D01*
D11*
X15620400Y-12049000D02*
X15620400Y-12599000D01*
X15620400Y-12599000D02*
G75*
G03*
X15730400Y-12599000I55000J0D01*
G01*
X15730400Y-12599000D02*
X15730400Y-12049000D01*
X15730400Y-12049000D02*
G75*
G03*
X15620400Y-12049000I-55000J0D01*
G01*
D15*
X15914291Y-10612891D02*
X15914291Y-10535109D01*
X15836509Y-10535109D01*
X15836509Y-10612891D01*
X15914291Y-10612891D01*
D11*
X16150400Y-10519000D02*
X15600400Y-10519000D01*
X15600400Y-10519000D02*
G75*
G03*
X15600400Y-10629000I0J-55000D01*
G01*
X15600400Y-10629000D02*
X16150400Y-10629000D01*
X16150400Y-10629000D02*
G75*
G03*
X16150400Y-10519000I0J55000D01*
G01*
D15*
X17214291Y-10612891D02*
X17214291Y-10535109D01*
X17136509Y-10535109D01*
X17136509Y-10612891D01*
X17214291Y-10612891D01*
D11*
X17450400Y-10519000D02*
X16900400Y-10519000D01*
X16900400Y-10519000D02*
G75*
G03*
X16900400Y-10629000I0J-55000D01*
G01*
X16900400Y-10629000D02*
X17450400Y-10629000D01*
X17450400Y-10629000D02*
G75*
G03*
X17450400Y-10519000I0J55000D01*
G01*
D15*
X17414291Y-12362891D02*
X17414291Y-12285109D01*
X17336509Y-12285109D01*
X17336509Y-12362891D01*
X17414291Y-12362891D01*
D11*
X17430400Y-12599000D02*
X17430400Y-12049000D01*
X17430400Y-12049000D02*
G75*
G03*
X17320400Y-12049000I-55000J0D01*
G01*
X17320400Y-12049000D02*
X17320400Y-12599000D01*
X17320400Y-12599000D02*
G75*
G03*
X17430400Y-12599000I55000J0D01*
G01*
X14846300Y-13492280D02*
X14946300Y-13392280D01*
X14846300Y-13292280D01*
X14746300Y-13392280D01*
X14846300Y-13492280D01*
X14741300Y-13492280D02*
X14951300Y-13492280D01*
X14951300Y-13492280D02*
G75*
G03*
X14951300Y-13292280I0J100000D01*
G01*
X14951300Y-13292280D02*
X14741300Y-13292280D01*
X14741300Y-13292280D02*
G75*
G03*
X14741300Y-13492280I0J-100000D01*
G01*
X15633700Y-13492280D02*
X15733700Y-13392280D01*
X15633700Y-13292280D01*
X15533700Y-13392280D01*
X15633700Y-13492280D01*
X15528700Y-13492280D02*
X15738700Y-13492280D01*
X15738700Y-13492280D02*
G75*
G03*
X15738700Y-13292280I0J100000D01*
G01*
X15738700Y-13292280D02*
X15528700Y-13292280D01*
X15528700Y-13292280D02*
G75*
G03*
X15528700Y-13492280I0J-100000D01*
G01*
D16*
X10972800Y-7162800D02*
X11887200Y-8077200D01*
X11887200Y-7162800D02*
X10972800Y-8077200D01*
X11887200Y-7620000D02*
G75*
G03*
X11887200Y-7620000I-457200J0D01*
G01*
X10972800Y-12242800D02*
X11887200Y-13157200D01*
X11887200Y-12242800D02*
X10972800Y-13157200D01*
X11887200Y-12700000D02*
G75*
G03*
X11887200Y-12700000I-457200J0D01*
G01*
X15608300Y-7099300D02*
X16522700Y-8013700D01*
X16522700Y-7099300D02*
X15608300Y-8013700D01*
X16522700Y-7556500D02*
G75*
G03*
X16522700Y-7556500I-457200J0D01*
G01*
X18592800Y-7162800D02*
X19507200Y-8077200D01*
X19507200Y-7162800D02*
X18592800Y-8077200D01*
X19507200Y-7620000D02*
G75*
G03*
X19507200Y-7620000I-457200J0D01*
G01*
X18592800Y-12242800D02*
X19507200Y-13157200D01*
X19507200Y-12242800D02*
X18592800Y-13157200D01*
X19507200Y-12700000D02*
G75*
G03*
X19507200Y-12700000I-457200J0D01*
G01*
D11*
X10402619Y-15557524D02*
X10402619Y-15357524D01*
X10402619Y-15357524D02*
X10450238Y-15357524D01*
X10450238Y-15357524D02*
X10478810Y-15367048D01*
X10478810Y-15367048D02*
X10497857Y-15386095D01*
X10497857Y-15386095D02*
X10507381Y-15405143D01*
X10507381Y-15405143D02*
X10516905Y-15443238D01*
X10516905Y-15443238D02*
X10516905Y-15471809D01*
X10516905Y-15471809D02*
X10507381Y-15509905D01*
X10507381Y-15509905D02*
X10497857Y-15528952D01*
X10497857Y-15528952D02*
X10478810Y-15548000D01*
X10478810Y-15548000D02*
X10450238Y-15557524D01*
X10450238Y-15557524D02*
X10402619Y-15557524D01*
X10602619Y-15557524D02*
X10602619Y-15424190D01*
X10602619Y-15462286D02*
X10612143Y-15443238D01*
X10612143Y-15443238D02*
X10621667Y-15433714D01*
X10621667Y-15433714D02*
X10640714Y-15424190D01*
X10640714Y-15424190D02*
X10659762Y-15424190D01*
X10726429Y-15557524D02*
X10726429Y-15424190D01*
X10726429Y-15357524D02*
X10716905Y-15367048D01*
X10716905Y-15367048D02*
X10726429Y-15376571D01*
X10726429Y-15376571D02*
X10735952Y-15367048D01*
X10735952Y-15367048D02*
X10726429Y-15357524D01*
X10726429Y-15357524D02*
X10726429Y-15376571D01*
X10850238Y-15557524D02*
X10831190Y-15548000D01*
X10831190Y-15548000D02*
X10821667Y-15528952D01*
X10821667Y-15528952D02*
X10821667Y-15357524D01*
X10955000Y-15557524D02*
X10935952Y-15548000D01*
X10935952Y-15548000D02*
X10926429Y-15528952D01*
X10926429Y-15528952D02*
X10926429Y-15357524D01*
X11183571Y-15557524D02*
X11183571Y-15357524D01*
X11183571Y-15357524D02*
X11250238Y-15500381D01*
X11250238Y-15500381D02*
X11316905Y-15357524D01*
X11316905Y-15357524D02*
X11316905Y-15557524D01*
X11497857Y-15557524D02*
X11497857Y-15452762D01*
X11497857Y-15452762D02*
X11488333Y-15433714D01*
X11488333Y-15433714D02*
X11469286Y-15424190D01*
X11469286Y-15424190D02*
X11431190Y-15424190D01*
X11431190Y-15424190D02*
X11412143Y-15433714D01*
X11497857Y-15548000D02*
X11478809Y-15557524D01*
X11478809Y-15557524D02*
X11431190Y-15557524D01*
X11431190Y-15557524D02*
X11412143Y-15548000D01*
X11412143Y-15548000D02*
X11402619Y-15528952D01*
X11402619Y-15528952D02*
X11402619Y-15509905D01*
X11402619Y-15509905D02*
X11412143Y-15490857D01*
X11412143Y-15490857D02*
X11431190Y-15481333D01*
X11431190Y-15481333D02*
X11478809Y-15481333D01*
X11478809Y-15481333D02*
X11497857Y-15471809D01*
X11593095Y-15424190D02*
X11593095Y-15624190D01*
X11593095Y-15433714D02*
X11612143Y-15424190D01*
X11612143Y-15424190D02*
X11650238Y-15424190D01*
X11650238Y-15424190D02*
X11669286Y-15433714D01*
X11669286Y-15433714D02*
X11678809Y-15443238D01*
X11678809Y-15443238D02*
X11688333Y-15462286D01*
X11688333Y-15462286D02*
X11688333Y-15519428D01*
X11688333Y-15519428D02*
X11678809Y-15538476D01*
X11678809Y-15538476D02*
X11669286Y-15548000D01*
X11669286Y-15548000D02*
X11650238Y-15557524D01*
X11650238Y-15557524D02*
X11612143Y-15557524D01*
X11612143Y-15557524D02*
X11593095Y-15548000D01*
X11774048Y-15538476D02*
X11783571Y-15548000D01*
X11783571Y-15548000D02*
X11774048Y-15557524D01*
X11774048Y-15557524D02*
X11764524Y-15548000D01*
X11764524Y-15548000D02*
X11774048Y-15538476D01*
X11774048Y-15538476D02*
X11774048Y-15557524D01*
X11774048Y-15433714D02*
X11783571Y-15443238D01*
X11783571Y-15443238D02*
X11774048Y-15452762D01*
X11774048Y-15452762D02*
X11764524Y-15443238D01*
X11764524Y-15443238D02*
X11774048Y-15433714D01*
X11774048Y-15433714D02*
X11774048Y-15452762D01*
D12*
X10115000Y-15865000D02*
X10155000Y-15905000D01*
X10155000Y-15865000D02*
X10115000Y-15905000D01*
D11*
X10440714Y-15777524D02*
X10459762Y-15777524D01*
X10459762Y-15777524D02*
X10478810Y-15787048D01*
X10478810Y-15787048D02*
X10488333Y-15796571D01*
X10488333Y-15796571D02*
X10497857Y-15815619D01*
X10497857Y-15815619D02*
X10507381Y-15853714D01*
X10507381Y-15853714D02*
X10507381Y-15901333D01*
X10507381Y-15901333D02*
X10497857Y-15939428D01*
X10497857Y-15939428D02*
X10488333Y-15958476D01*
X10488333Y-15958476D02*
X10478810Y-15968000D01*
X10478810Y-15968000D02*
X10459762Y-15977524D01*
X10459762Y-15977524D02*
X10440714Y-15977524D01*
X10440714Y-15977524D02*
X10421667Y-15968000D01*
X10421667Y-15968000D02*
X10412143Y-15958476D01*
X10412143Y-15958476D02*
X10402619Y-15939428D01*
X10402619Y-15939428D02*
X10393095Y-15901333D01*
X10393095Y-15901333D02*
X10393095Y-15853714D01*
X10393095Y-15853714D02*
X10402619Y-15815619D01*
X10402619Y-15815619D02*
X10412143Y-15796571D01*
X10412143Y-15796571D02*
X10421667Y-15787048D01*
X10421667Y-15787048D02*
X10440714Y-15777524D01*
X10593095Y-15958476D02*
X10602619Y-15968000D01*
X10602619Y-15968000D02*
X10593095Y-15977524D01*
X10593095Y-15977524D02*
X10583571Y-15968000D01*
X10583571Y-15968000D02*
X10593095Y-15958476D01*
X10593095Y-15958476D02*
X10593095Y-15977524D01*
X10774048Y-15844190D02*
X10774048Y-15977524D01*
X10726429Y-15768000D02*
X10678810Y-15910857D01*
X10678810Y-15910857D02*
X10802619Y-15910857D01*
X10916905Y-15777524D02*
X10935952Y-15777524D01*
X10935952Y-15777524D02*
X10955000Y-15787048D01*
X10955000Y-15787048D02*
X10964524Y-15796571D01*
X10964524Y-15796571D02*
X10974048Y-15815619D01*
X10974048Y-15815619D02*
X10983571Y-15853714D01*
X10983571Y-15853714D02*
X10983571Y-15901333D01*
X10983571Y-15901333D02*
X10974048Y-15939428D01*
X10974048Y-15939428D02*
X10964524Y-15958476D01*
X10964524Y-15958476D02*
X10955000Y-15968000D01*
X10955000Y-15968000D02*
X10935952Y-15977524D01*
X10935952Y-15977524D02*
X10916905Y-15977524D01*
X10916905Y-15977524D02*
X10897857Y-15968000D01*
X10897857Y-15968000D02*
X10888333Y-15958476D01*
X10888333Y-15958476D02*
X10878810Y-15939428D01*
X10878810Y-15939428D02*
X10869286Y-15901333D01*
X10869286Y-15901333D02*
X10869286Y-15853714D01*
X10869286Y-15853714D02*
X10878810Y-15815619D01*
X10878810Y-15815619D02*
X10888333Y-15796571D01*
X10888333Y-15796571D02*
X10897857Y-15787048D01*
X10897857Y-15787048D02*
X10916905Y-15777524D01*
X11107381Y-15777524D02*
X11126429Y-15777524D01*
X11126429Y-15777524D02*
X11145476Y-15787048D01*
X11145476Y-15787048D02*
X11155000Y-15796571D01*
X11155000Y-15796571D02*
X11164524Y-15815619D01*
X11164524Y-15815619D02*
X11174048Y-15853714D01*
X11174048Y-15853714D02*
X11174048Y-15901333D01*
X11174048Y-15901333D02*
X11164524Y-15939428D01*
X11164524Y-15939428D02*
X11155000Y-15958476D01*
X11155000Y-15958476D02*
X11145476Y-15968000D01*
X11145476Y-15968000D02*
X11126429Y-15977524D01*
X11126429Y-15977524D02*
X11107381Y-15977524D01*
X11107381Y-15977524D02*
X11088333Y-15968000D01*
X11088333Y-15968000D02*
X11078810Y-15958476D01*
X11078810Y-15958476D02*
X11069286Y-15939428D01*
X11069286Y-15939428D02*
X11059762Y-15901333D01*
X11059762Y-15901333D02*
X11059762Y-15853714D01*
X11059762Y-15853714D02*
X11069286Y-15815619D01*
X11069286Y-15815619D02*
X11078810Y-15796571D01*
X11078810Y-15796571D02*
X11088333Y-15787048D01*
X11088333Y-15787048D02*
X11107381Y-15777524D01*
X11259762Y-15977524D02*
X11259762Y-15844190D01*
X11259762Y-15863238D02*
X11269286Y-15853714D01*
X11269286Y-15853714D02*
X11288333Y-15844190D01*
X11288333Y-15844190D02*
X11316905Y-15844190D01*
X11316905Y-15844190D02*
X11335952Y-15853714D01*
X11335952Y-15853714D02*
X11345476Y-15872762D01*
X11345476Y-15872762D02*
X11345476Y-15977524D01*
X11345476Y-15872762D02*
X11355000Y-15853714D01*
X11355000Y-15853714D02*
X11374048Y-15844190D01*
X11374048Y-15844190D02*
X11402619Y-15844190D01*
X11402619Y-15844190D02*
X11421667Y-15853714D01*
X11421667Y-15853714D02*
X11431190Y-15872762D01*
X11431190Y-15872762D02*
X11431190Y-15977524D01*
X11526429Y-15977524D02*
X11526429Y-15844190D01*
X11526429Y-15863238D02*
X11535952Y-15853714D01*
X11535952Y-15853714D02*
X11555000Y-15844190D01*
X11555000Y-15844190D02*
X11583571Y-15844190D01*
X11583571Y-15844190D02*
X11602619Y-15853714D01*
X11602619Y-15853714D02*
X11612143Y-15872762D01*
X11612143Y-15872762D02*
X11612143Y-15977524D01*
X11612143Y-15872762D02*
X11621667Y-15853714D01*
X11621667Y-15853714D02*
X11640714Y-15844190D01*
X11640714Y-15844190D02*
X11669286Y-15844190D01*
X11669286Y-15844190D02*
X11688333Y-15853714D01*
X11688333Y-15853714D02*
X11697857Y-15872762D01*
X11697857Y-15872762D02*
X11697857Y-15977524D01*
X12088333Y-15768000D02*
X11916905Y-16025143D01*
X12345476Y-15777524D02*
X12364524Y-15777524D01*
X12364524Y-15777524D02*
X12383572Y-15787048D01*
X12383572Y-15787048D02*
X12393095Y-15796571D01*
X12393095Y-15796571D02*
X12402619Y-15815619D01*
X12402619Y-15815619D02*
X12412143Y-15853714D01*
X12412143Y-15853714D02*
X12412143Y-15901333D01*
X12412143Y-15901333D02*
X12402619Y-15939428D01*
X12402619Y-15939428D02*
X12393095Y-15958476D01*
X12393095Y-15958476D02*
X12383572Y-15968000D01*
X12383572Y-15968000D02*
X12364524Y-15977524D01*
X12364524Y-15977524D02*
X12345476Y-15977524D01*
X12345476Y-15977524D02*
X12326429Y-15968000D01*
X12326429Y-15968000D02*
X12316905Y-15958476D01*
X12316905Y-15958476D02*
X12307381Y-15939428D01*
X12307381Y-15939428D02*
X12297857Y-15901333D01*
X12297857Y-15901333D02*
X12297857Y-15853714D01*
X12297857Y-15853714D02*
X12307381Y-15815619D01*
X12307381Y-15815619D02*
X12316905Y-15796571D01*
X12316905Y-15796571D02*
X12326429Y-15787048D01*
X12326429Y-15787048D02*
X12345476Y-15777524D01*
X12497857Y-15958476D02*
X12507381Y-15968000D01*
X12507381Y-15968000D02*
X12497857Y-15977524D01*
X12497857Y-15977524D02*
X12488333Y-15968000D01*
X12488333Y-15968000D02*
X12497857Y-15958476D01*
X12497857Y-15958476D02*
X12497857Y-15977524D01*
X12631191Y-15777524D02*
X12650238Y-15777524D01*
X12650238Y-15777524D02*
X12669286Y-15787048D01*
X12669286Y-15787048D02*
X12678810Y-15796571D01*
X12678810Y-15796571D02*
X12688333Y-15815619D01*
X12688333Y-15815619D02*
X12697857Y-15853714D01*
X12697857Y-15853714D02*
X12697857Y-15901333D01*
X12697857Y-15901333D02*
X12688333Y-15939428D01*
X12688333Y-15939428D02*
X12678810Y-15958476D01*
X12678810Y-15958476D02*
X12669286Y-15968000D01*
X12669286Y-15968000D02*
X12650238Y-15977524D01*
X12650238Y-15977524D02*
X12631191Y-15977524D01*
X12631191Y-15977524D02*
X12612143Y-15968000D01*
X12612143Y-15968000D02*
X12602619Y-15958476D01*
X12602619Y-15958476D02*
X12593095Y-15939428D01*
X12593095Y-15939428D02*
X12583572Y-15901333D01*
X12583572Y-15901333D02*
X12583572Y-15853714D01*
X12583572Y-15853714D02*
X12593095Y-15815619D01*
X12593095Y-15815619D02*
X12602619Y-15796571D01*
X12602619Y-15796571D02*
X12612143Y-15787048D01*
X12612143Y-15787048D02*
X12631191Y-15777524D01*
X12888333Y-15977524D02*
X12774048Y-15977524D01*
X12831191Y-15977524D02*
X12831191Y-15777524D01*
X12831191Y-15777524D02*
X12812143Y-15806095D01*
X12812143Y-15806095D02*
X12793095Y-15825143D01*
X12793095Y-15825143D02*
X12774048Y-15834667D01*
X13069286Y-15777524D02*
X12974048Y-15777524D01*
X12974048Y-15777524D02*
X12964524Y-15872762D01*
X12964524Y-15872762D02*
X12974048Y-15863238D01*
X12974048Y-15863238D02*
X12993095Y-15853714D01*
X12993095Y-15853714D02*
X13040714Y-15853714D01*
X13040714Y-15853714D02*
X13059762Y-15863238D01*
X13059762Y-15863238D02*
X13069286Y-15872762D01*
X13069286Y-15872762D02*
X13078810Y-15891809D01*
X13078810Y-15891809D02*
X13078810Y-15939428D01*
X13078810Y-15939428D02*
X13069286Y-15958476D01*
X13069286Y-15958476D02*
X13059762Y-15968000D01*
X13059762Y-15968000D02*
X13040714Y-15977524D01*
X13040714Y-15977524D02*
X12993095Y-15977524D01*
X12993095Y-15977524D02*
X12974048Y-15968000D01*
X12974048Y-15968000D02*
X12964524Y-15958476D01*
X13145476Y-15777524D02*
X13278810Y-15777524D01*
X13278810Y-15777524D02*
X13193095Y-15977524D01*
X13345476Y-15777524D02*
X13345476Y-15815619D01*
X13421667Y-15777524D02*
X13421667Y-15815619D01*
X13716905Y-16053714D02*
X13707381Y-16044190D01*
X13707381Y-16044190D02*
X13688334Y-16015619D01*
X13688334Y-16015619D02*
X13678810Y-15996571D01*
X13678810Y-15996571D02*
X13669286Y-15968000D01*
X13669286Y-15968000D02*
X13659762Y-15920381D01*
X13659762Y-15920381D02*
X13659762Y-15882286D01*
X13659762Y-15882286D02*
X13669286Y-15834667D01*
X13669286Y-15834667D02*
X13678810Y-15806095D01*
X13678810Y-15806095D02*
X13688334Y-15787048D01*
X13688334Y-15787048D02*
X13707381Y-15758476D01*
X13707381Y-15758476D02*
X13716905Y-15748952D01*
X13774048Y-15777524D02*
X13897857Y-15777524D01*
X13897857Y-15777524D02*
X13831191Y-15853714D01*
X13831191Y-15853714D02*
X13859762Y-15853714D01*
X13859762Y-15853714D02*
X13878810Y-15863238D01*
X13878810Y-15863238D02*
X13888334Y-15872762D01*
X13888334Y-15872762D02*
X13897857Y-15891809D01*
X13897857Y-15891809D02*
X13897857Y-15939428D01*
X13897857Y-15939428D02*
X13888334Y-15958476D01*
X13888334Y-15958476D02*
X13878810Y-15968000D01*
X13878810Y-15968000D02*
X13859762Y-15977524D01*
X13859762Y-15977524D02*
X13802619Y-15977524D01*
X13802619Y-15977524D02*
X13783572Y-15968000D01*
X13783572Y-15968000D02*
X13774048Y-15958476D01*
X13993095Y-15977524D02*
X14031191Y-15977524D01*
X14031191Y-15977524D02*
X14050238Y-15968000D01*
X14050238Y-15968000D02*
X14059762Y-15958476D01*
X14059762Y-15958476D02*
X14078810Y-15929905D01*
X14078810Y-15929905D02*
X14088334Y-15891809D01*
X14088334Y-15891809D02*
X14088334Y-15815619D01*
X14088334Y-15815619D02*
X14078810Y-15796571D01*
X14078810Y-15796571D02*
X14069286Y-15787048D01*
X14069286Y-15787048D02*
X14050238Y-15777524D01*
X14050238Y-15777524D02*
X14012143Y-15777524D01*
X14012143Y-15777524D02*
X13993095Y-15787048D01*
X13993095Y-15787048D02*
X13983572Y-15796571D01*
X13983572Y-15796571D02*
X13974048Y-15815619D01*
X13974048Y-15815619D02*
X13974048Y-15863238D01*
X13974048Y-15863238D02*
X13983572Y-15882286D01*
X13983572Y-15882286D02*
X13993095Y-15891809D01*
X13993095Y-15891809D02*
X14012143Y-15901333D01*
X14012143Y-15901333D02*
X14050238Y-15901333D01*
X14050238Y-15901333D02*
X14069286Y-15891809D01*
X14069286Y-15891809D02*
X14078810Y-15882286D01*
X14078810Y-15882286D02*
X14088334Y-15863238D01*
X14326429Y-15977524D02*
X14326429Y-15777524D01*
X14412143Y-15977524D02*
X14412143Y-15872762D01*
X14412143Y-15872762D02*
X14402619Y-15853714D01*
X14402619Y-15853714D02*
X14383572Y-15844190D01*
X14383572Y-15844190D02*
X14355000Y-15844190D01*
X14355000Y-15844190D02*
X14335953Y-15853714D01*
X14335953Y-15853714D02*
X14326429Y-15863238D01*
X14535953Y-15977524D02*
X14516905Y-15968000D01*
X14516905Y-15968000D02*
X14507381Y-15958476D01*
X14507381Y-15958476D02*
X14497857Y-15939428D01*
X14497857Y-15939428D02*
X14497857Y-15882286D01*
X14497857Y-15882286D02*
X14507381Y-15863238D01*
X14507381Y-15863238D02*
X14516905Y-15853714D01*
X14516905Y-15853714D02*
X14535953Y-15844190D01*
X14535953Y-15844190D02*
X14564524Y-15844190D01*
X14564524Y-15844190D02*
X14583572Y-15853714D01*
X14583572Y-15853714D02*
X14593096Y-15863238D01*
X14593096Y-15863238D02*
X14602619Y-15882286D01*
X14602619Y-15882286D02*
X14602619Y-15939428D01*
X14602619Y-15939428D02*
X14593096Y-15958476D01*
X14593096Y-15958476D02*
X14583572Y-15968000D01*
X14583572Y-15968000D02*
X14564524Y-15977524D01*
X14564524Y-15977524D02*
X14535953Y-15977524D01*
X14716905Y-15977524D02*
X14697857Y-15968000D01*
X14697857Y-15968000D02*
X14688334Y-15948952D01*
X14688334Y-15948952D02*
X14688334Y-15777524D01*
X14869286Y-15968000D02*
X14850238Y-15977524D01*
X14850238Y-15977524D02*
X14812143Y-15977524D01*
X14812143Y-15977524D02*
X14793096Y-15968000D01*
X14793096Y-15968000D02*
X14783572Y-15948952D01*
X14783572Y-15948952D02*
X14783572Y-15872762D01*
X14783572Y-15872762D02*
X14793096Y-15853714D01*
X14793096Y-15853714D02*
X14812143Y-15844190D01*
X14812143Y-15844190D02*
X14850238Y-15844190D01*
X14850238Y-15844190D02*
X14869286Y-15853714D01*
X14869286Y-15853714D02*
X14878810Y-15872762D01*
X14878810Y-15872762D02*
X14878810Y-15891809D01*
X14878810Y-15891809D02*
X14783572Y-15910857D01*
X14955000Y-15968000D02*
X14974048Y-15977524D01*
X14974048Y-15977524D02*
X15012143Y-15977524D01*
X15012143Y-15977524D02*
X15031191Y-15968000D01*
X15031191Y-15968000D02*
X15040715Y-15948952D01*
X15040715Y-15948952D02*
X15040715Y-15939428D01*
X15040715Y-15939428D02*
X15031191Y-15920381D01*
X15031191Y-15920381D02*
X15012143Y-15910857D01*
X15012143Y-15910857D02*
X14983572Y-15910857D01*
X14983572Y-15910857D02*
X14964524Y-15901333D01*
X14964524Y-15901333D02*
X14955000Y-15882286D01*
X14955000Y-15882286D02*
X14955000Y-15872762D01*
X14955000Y-15872762D02*
X14964524Y-15853714D01*
X14964524Y-15853714D02*
X14983572Y-15844190D01*
X14983572Y-15844190D02*
X15012143Y-15844190D01*
X15012143Y-15844190D02*
X15031191Y-15853714D01*
X15107381Y-16053714D02*
X15116905Y-16044190D01*
X15116905Y-16044190D02*
X15135953Y-16015619D01*
X15135953Y-16015619D02*
X15145477Y-15996571D01*
X15145477Y-15996571D02*
X15155000Y-15968000D01*
X15155000Y-15968000D02*
X15164524Y-15920381D01*
X15164524Y-15920381D02*
X15164524Y-15882286D01*
X15164524Y-15882286D02*
X15155000Y-15834667D01*
X15155000Y-15834667D02*
X15145477Y-15806095D01*
X15145477Y-15806095D02*
X15135953Y-15787048D01*
X15135953Y-15787048D02*
X15116905Y-15758476D01*
X15116905Y-15758476D02*
X15107381Y-15748952D01*
D13*
X10155000Y-16149000D02*
G75*
G03*
X10155000Y-16149000I-38100J0D01*
G01*
D11*
X10440714Y-16041524D02*
X10459762Y-16041524D01*
X10459762Y-16041524D02*
X10478810Y-16051048D01*
X10478810Y-16051048D02*
X10488333Y-16060571D01*
X10488333Y-16060571D02*
X10497857Y-16079619D01*
X10497857Y-16079619D02*
X10507381Y-16117714D01*
X10507381Y-16117714D02*
X10507381Y-16165333D01*
X10507381Y-16165333D02*
X10497857Y-16203428D01*
X10497857Y-16203428D02*
X10488333Y-16222476D01*
X10488333Y-16222476D02*
X10478810Y-16232000D01*
X10478810Y-16232000D02*
X10459762Y-16241524D01*
X10459762Y-16241524D02*
X10440714Y-16241524D01*
X10440714Y-16241524D02*
X10421667Y-16232000D01*
X10421667Y-16232000D02*
X10412143Y-16222476D01*
X10412143Y-16222476D02*
X10402619Y-16203428D01*
X10402619Y-16203428D02*
X10393095Y-16165333D01*
X10393095Y-16165333D02*
X10393095Y-16117714D01*
X10393095Y-16117714D02*
X10402619Y-16079619D01*
X10402619Y-16079619D02*
X10412143Y-16060571D01*
X10412143Y-16060571D02*
X10421667Y-16051048D01*
X10421667Y-16051048D02*
X10440714Y-16041524D01*
X10593095Y-16222476D02*
X10602619Y-16232000D01*
X10602619Y-16232000D02*
X10593095Y-16241524D01*
X10593095Y-16241524D02*
X10583571Y-16232000D01*
X10583571Y-16232000D02*
X10593095Y-16222476D01*
X10593095Y-16222476D02*
X10593095Y-16241524D01*
X10669286Y-16041524D02*
X10802619Y-16041524D01*
X10802619Y-16041524D02*
X10716905Y-16241524D01*
X10964524Y-16041524D02*
X10926429Y-16041524D01*
X10926429Y-16041524D02*
X10907381Y-16051048D01*
X10907381Y-16051048D02*
X10897857Y-16060571D01*
X10897857Y-16060571D02*
X10878810Y-16089143D01*
X10878810Y-16089143D02*
X10869286Y-16127238D01*
X10869286Y-16127238D02*
X10869286Y-16203428D01*
X10869286Y-16203428D02*
X10878810Y-16222476D01*
X10878810Y-16222476D02*
X10888333Y-16232000D01*
X10888333Y-16232000D02*
X10907381Y-16241524D01*
X10907381Y-16241524D02*
X10945476Y-16241524D01*
X10945476Y-16241524D02*
X10964524Y-16232000D01*
X10964524Y-16232000D02*
X10974048Y-16222476D01*
X10974048Y-16222476D02*
X10983571Y-16203428D01*
X10983571Y-16203428D02*
X10983571Y-16155809D01*
X10983571Y-16155809D02*
X10974048Y-16136762D01*
X10974048Y-16136762D02*
X10964524Y-16127238D01*
X10964524Y-16127238D02*
X10945476Y-16117714D01*
X10945476Y-16117714D02*
X10907381Y-16117714D01*
X10907381Y-16117714D02*
X10888333Y-16127238D01*
X10888333Y-16127238D02*
X10878810Y-16136762D01*
X10878810Y-16136762D02*
X10869286Y-16155809D01*
X11059762Y-16060571D02*
X11069286Y-16051048D01*
X11069286Y-16051048D02*
X11088333Y-16041524D01*
X11088333Y-16041524D02*
X11135952Y-16041524D01*
X11135952Y-16041524D02*
X11155000Y-16051048D01*
X11155000Y-16051048D02*
X11164524Y-16060571D01*
X11164524Y-16060571D02*
X11174048Y-16079619D01*
X11174048Y-16079619D02*
X11174048Y-16098667D01*
X11174048Y-16098667D02*
X11164524Y-16127238D01*
X11164524Y-16127238D02*
X11050238Y-16241524D01*
X11050238Y-16241524D02*
X11174048Y-16241524D01*
X11259762Y-16241524D02*
X11259762Y-16108190D01*
X11259762Y-16127238D02*
X11269286Y-16117714D01*
X11269286Y-16117714D02*
X11288333Y-16108190D01*
X11288333Y-16108190D02*
X11316905Y-16108190D01*
X11316905Y-16108190D02*
X11335952Y-16117714D01*
X11335952Y-16117714D02*
X11345476Y-16136762D01*
X11345476Y-16136762D02*
X11345476Y-16241524D01*
X11345476Y-16136762D02*
X11355000Y-16117714D01*
X11355000Y-16117714D02*
X11374048Y-16108190D01*
X11374048Y-16108190D02*
X11402619Y-16108190D01*
X11402619Y-16108190D02*
X11421667Y-16117714D01*
X11421667Y-16117714D02*
X11431190Y-16136762D01*
X11431190Y-16136762D02*
X11431190Y-16241524D01*
X11526429Y-16241524D02*
X11526429Y-16108190D01*
X11526429Y-16127238D02*
X11535952Y-16117714D01*
X11535952Y-16117714D02*
X11555000Y-16108190D01*
X11555000Y-16108190D02*
X11583571Y-16108190D01*
X11583571Y-16108190D02*
X11602619Y-16117714D01*
X11602619Y-16117714D02*
X11612143Y-16136762D01*
X11612143Y-16136762D02*
X11612143Y-16241524D01*
X11612143Y-16136762D02*
X11621667Y-16117714D01*
X11621667Y-16117714D02*
X11640714Y-16108190D01*
X11640714Y-16108190D02*
X11669286Y-16108190D01*
X11669286Y-16108190D02*
X11688333Y-16117714D01*
X11688333Y-16117714D02*
X11697857Y-16136762D01*
X11697857Y-16136762D02*
X11697857Y-16241524D01*
X12088333Y-16032000D02*
X11916905Y-16289143D01*
X12345476Y-16041524D02*
X12364524Y-16041524D01*
X12364524Y-16041524D02*
X12383572Y-16051048D01*
X12383572Y-16051048D02*
X12393095Y-16060571D01*
X12393095Y-16060571D02*
X12402619Y-16079619D01*
X12402619Y-16079619D02*
X12412143Y-16117714D01*
X12412143Y-16117714D02*
X12412143Y-16165333D01*
X12412143Y-16165333D02*
X12402619Y-16203428D01*
X12402619Y-16203428D02*
X12393095Y-16222476D01*
X12393095Y-16222476D02*
X12383572Y-16232000D01*
X12383572Y-16232000D02*
X12364524Y-16241524D01*
X12364524Y-16241524D02*
X12345476Y-16241524D01*
X12345476Y-16241524D02*
X12326429Y-16232000D01*
X12326429Y-16232000D02*
X12316905Y-16222476D01*
X12316905Y-16222476D02*
X12307381Y-16203428D01*
X12307381Y-16203428D02*
X12297857Y-16165333D01*
X12297857Y-16165333D02*
X12297857Y-16117714D01*
X12297857Y-16117714D02*
X12307381Y-16079619D01*
X12307381Y-16079619D02*
X12316905Y-16060571D01*
X12316905Y-16060571D02*
X12326429Y-16051048D01*
X12326429Y-16051048D02*
X12345476Y-16041524D01*
X12497857Y-16222476D02*
X12507381Y-16232000D01*
X12507381Y-16232000D02*
X12497857Y-16241524D01*
X12497857Y-16241524D02*
X12488333Y-16232000D01*
X12488333Y-16232000D02*
X12497857Y-16222476D01*
X12497857Y-16222476D02*
X12497857Y-16241524D01*
X12631191Y-16041524D02*
X12650238Y-16041524D01*
X12650238Y-16041524D02*
X12669286Y-16051048D01*
X12669286Y-16051048D02*
X12678810Y-16060571D01*
X12678810Y-16060571D02*
X12688333Y-16079619D01*
X12688333Y-16079619D02*
X12697857Y-16117714D01*
X12697857Y-16117714D02*
X12697857Y-16165333D01*
X12697857Y-16165333D02*
X12688333Y-16203428D01*
X12688333Y-16203428D02*
X12678810Y-16222476D01*
X12678810Y-16222476D02*
X12669286Y-16232000D01*
X12669286Y-16232000D02*
X12650238Y-16241524D01*
X12650238Y-16241524D02*
X12631191Y-16241524D01*
X12631191Y-16241524D02*
X12612143Y-16232000D01*
X12612143Y-16232000D02*
X12602619Y-16222476D01*
X12602619Y-16222476D02*
X12593095Y-16203428D01*
X12593095Y-16203428D02*
X12583572Y-16165333D01*
X12583572Y-16165333D02*
X12583572Y-16117714D01*
X12583572Y-16117714D02*
X12593095Y-16079619D01*
X12593095Y-16079619D02*
X12602619Y-16060571D01*
X12602619Y-16060571D02*
X12612143Y-16051048D01*
X12612143Y-16051048D02*
X12631191Y-16041524D01*
X12764524Y-16041524D02*
X12888333Y-16041524D01*
X12888333Y-16041524D02*
X12821667Y-16117714D01*
X12821667Y-16117714D02*
X12850238Y-16117714D01*
X12850238Y-16117714D02*
X12869286Y-16127238D01*
X12869286Y-16127238D02*
X12878810Y-16136762D01*
X12878810Y-16136762D02*
X12888333Y-16155809D01*
X12888333Y-16155809D02*
X12888333Y-16203428D01*
X12888333Y-16203428D02*
X12878810Y-16222476D01*
X12878810Y-16222476D02*
X12869286Y-16232000D01*
X12869286Y-16232000D02*
X12850238Y-16241524D01*
X12850238Y-16241524D02*
X12793095Y-16241524D01*
X12793095Y-16241524D02*
X12774048Y-16232000D01*
X12774048Y-16232000D02*
X12764524Y-16222476D01*
X13012143Y-16041524D02*
X13031191Y-16041524D01*
X13031191Y-16041524D02*
X13050238Y-16051048D01*
X13050238Y-16051048D02*
X13059762Y-16060571D01*
X13059762Y-16060571D02*
X13069286Y-16079619D01*
X13069286Y-16079619D02*
X13078810Y-16117714D01*
X13078810Y-16117714D02*
X13078810Y-16165333D01*
X13078810Y-16165333D02*
X13069286Y-16203428D01*
X13069286Y-16203428D02*
X13059762Y-16222476D01*
X13059762Y-16222476D02*
X13050238Y-16232000D01*
X13050238Y-16232000D02*
X13031191Y-16241524D01*
X13031191Y-16241524D02*
X13012143Y-16241524D01*
X13012143Y-16241524D02*
X12993095Y-16232000D01*
X12993095Y-16232000D02*
X12983572Y-16222476D01*
X12983572Y-16222476D02*
X12974048Y-16203428D01*
X12974048Y-16203428D02*
X12964524Y-16165333D01*
X12964524Y-16165333D02*
X12964524Y-16117714D01*
X12964524Y-16117714D02*
X12974048Y-16079619D01*
X12974048Y-16079619D02*
X12983572Y-16060571D01*
X12983572Y-16060571D02*
X12993095Y-16051048D01*
X12993095Y-16051048D02*
X13012143Y-16041524D01*
X13202619Y-16041524D02*
X13221667Y-16041524D01*
X13221667Y-16041524D02*
X13240714Y-16051048D01*
X13240714Y-16051048D02*
X13250238Y-16060571D01*
X13250238Y-16060571D02*
X13259762Y-16079619D01*
X13259762Y-16079619D02*
X13269286Y-16117714D01*
X13269286Y-16117714D02*
X13269286Y-16165333D01*
X13269286Y-16165333D02*
X13259762Y-16203428D01*
X13259762Y-16203428D02*
X13250238Y-16222476D01*
X13250238Y-16222476D02*
X13240714Y-16232000D01*
X13240714Y-16232000D02*
X13221667Y-16241524D01*
X13221667Y-16241524D02*
X13202619Y-16241524D01*
X13202619Y-16241524D02*
X13183572Y-16232000D01*
X13183572Y-16232000D02*
X13174048Y-16222476D01*
X13174048Y-16222476D02*
X13164524Y-16203428D01*
X13164524Y-16203428D02*
X13155000Y-16165333D01*
X13155000Y-16165333D02*
X13155000Y-16117714D01*
X13155000Y-16117714D02*
X13164524Y-16079619D01*
X13164524Y-16079619D02*
X13174048Y-16060571D01*
X13174048Y-16060571D02*
X13183572Y-16051048D01*
X13183572Y-16051048D02*
X13202619Y-16041524D01*
X13345476Y-16041524D02*
X13345476Y-16079619D01*
X13421667Y-16041524D02*
X13421667Y-16079619D01*
X13716905Y-16317714D02*
X13707381Y-16308190D01*
X13707381Y-16308190D02*
X13688334Y-16279619D01*
X13688334Y-16279619D02*
X13678810Y-16260571D01*
X13678810Y-16260571D02*
X13669286Y-16232000D01*
X13669286Y-16232000D02*
X13659762Y-16184381D01*
X13659762Y-16184381D02*
X13659762Y-16146286D01*
X13659762Y-16146286D02*
X13669286Y-16098667D01*
X13669286Y-16098667D02*
X13678810Y-16070095D01*
X13678810Y-16070095D02*
X13688334Y-16051048D01*
X13688334Y-16051048D02*
X13707381Y-16022476D01*
X13707381Y-16022476D02*
X13716905Y-16012952D01*
X13783572Y-16060571D02*
X13793095Y-16051048D01*
X13793095Y-16051048D02*
X13812143Y-16041524D01*
X13812143Y-16041524D02*
X13859762Y-16041524D01*
X13859762Y-16041524D02*
X13878810Y-16051048D01*
X13878810Y-16051048D02*
X13888334Y-16060571D01*
X13888334Y-16060571D02*
X13897857Y-16079619D01*
X13897857Y-16079619D02*
X13897857Y-16098667D01*
X13897857Y-16098667D02*
X13888334Y-16127238D01*
X13888334Y-16127238D02*
X13774048Y-16241524D01*
X13774048Y-16241524D02*
X13897857Y-16241524D01*
X14135953Y-16241524D02*
X14135953Y-16041524D01*
X14221667Y-16241524D02*
X14221667Y-16136762D01*
X14221667Y-16136762D02*
X14212143Y-16117714D01*
X14212143Y-16117714D02*
X14193096Y-16108190D01*
X14193096Y-16108190D02*
X14164524Y-16108190D01*
X14164524Y-16108190D02*
X14145476Y-16117714D01*
X14145476Y-16117714D02*
X14135953Y-16127238D01*
X14345476Y-16241524D02*
X14326429Y-16232000D01*
X14326429Y-16232000D02*
X14316905Y-16222476D01*
X14316905Y-16222476D02*
X14307381Y-16203428D01*
X14307381Y-16203428D02*
X14307381Y-16146286D01*
X14307381Y-16146286D02*
X14316905Y-16127238D01*
X14316905Y-16127238D02*
X14326429Y-16117714D01*
X14326429Y-16117714D02*
X14345476Y-16108190D01*
X14345476Y-16108190D02*
X14374048Y-16108190D01*
X14374048Y-16108190D02*
X14393096Y-16117714D01*
X14393096Y-16117714D02*
X14402619Y-16127238D01*
X14402619Y-16127238D02*
X14412143Y-16146286D01*
X14412143Y-16146286D02*
X14412143Y-16203428D01*
X14412143Y-16203428D02*
X14402619Y-16222476D01*
X14402619Y-16222476D02*
X14393096Y-16232000D01*
X14393096Y-16232000D02*
X14374048Y-16241524D01*
X14374048Y-16241524D02*
X14345476Y-16241524D01*
X14526429Y-16241524D02*
X14507381Y-16232000D01*
X14507381Y-16232000D02*
X14497857Y-16212952D01*
X14497857Y-16212952D02*
X14497857Y-16041524D01*
X14678810Y-16232000D02*
X14659762Y-16241524D01*
X14659762Y-16241524D02*
X14621667Y-16241524D01*
X14621667Y-16241524D02*
X14602619Y-16232000D01*
X14602619Y-16232000D02*
X14593096Y-16212952D01*
X14593096Y-16212952D02*
X14593096Y-16136762D01*
X14593096Y-16136762D02*
X14602619Y-16117714D01*
X14602619Y-16117714D02*
X14621667Y-16108190D01*
X14621667Y-16108190D02*
X14659762Y-16108190D01*
X14659762Y-16108190D02*
X14678810Y-16117714D01*
X14678810Y-16117714D02*
X14688334Y-16136762D01*
X14688334Y-16136762D02*
X14688334Y-16155809D01*
X14688334Y-16155809D02*
X14593096Y-16174857D01*
X14764524Y-16232000D02*
X14783572Y-16241524D01*
X14783572Y-16241524D02*
X14821667Y-16241524D01*
X14821667Y-16241524D02*
X14840715Y-16232000D01*
X14840715Y-16232000D02*
X14850238Y-16212952D01*
X14850238Y-16212952D02*
X14850238Y-16203428D01*
X14850238Y-16203428D02*
X14840715Y-16184381D01*
X14840715Y-16184381D02*
X14821667Y-16174857D01*
X14821667Y-16174857D02*
X14793096Y-16174857D01*
X14793096Y-16174857D02*
X14774048Y-16165333D01*
X14774048Y-16165333D02*
X14764524Y-16146286D01*
X14764524Y-16146286D02*
X14764524Y-16136762D01*
X14764524Y-16136762D02*
X14774048Y-16117714D01*
X14774048Y-16117714D02*
X14793096Y-16108190D01*
X14793096Y-16108190D02*
X14821667Y-16108190D01*
X14821667Y-16108190D02*
X14840715Y-16117714D01*
X14916905Y-16317714D02*
X14926429Y-16308190D01*
X14926429Y-16308190D02*
X14945477Y-16279619D01*
X14945477Y-16279619D02*
X14955000Y-16260571D01*
X14955000Y-16260571D02*
X14964524Y-16232000D01*
X14964524Y-16232000D02*
X14974048Y-16184381D01*
X14974048Y-16184381D02*
X14974048Y-16146286D01*
X14974048Y-16146286D02*
X14964524Y-16098667D01*
X14964524Y-16098667D02*
X14955000Y-16070095D01*
X14955000Y-16070095D02*
X14945477Y-16051048D01*
X14945477Y-16051048D02*
X14926429Y-16022476D01*
X14926429Y-16022476D02*
X14916905Y-16012952D01*
D14*
X10110000Y-16368000D02*
X10110000Y-16458000D01*
X10065000Y-16413000D02*
X10155000Y-16413000D01*
D11*
X10440714Y-16305524D02*
X10459762Y-16305524D01*
X10459762Y-16305524D02*
X10478810Y-16315048D01*
X10478810Y-16315048D02*
X10488333Y-16324571D01*
X10488333Y-16324571D02*
X10497857Y-16343619D01*
X10497857Y-16343619D02*
X10507381Y-16381714D01*
X10507381Y-16381714D02*
X10507381Y-16429333D01*
X10507381Y-16429333D02*
X10497857Y-16467428D01*
X10497857Y-16467428D02*
X10488333Y-16486476D01*
X10488333Y-16486476D02*
X10478810Y-16496000D01*
X10478810Y-16496000D02*
X10459762Y-16505524D01*
X10459762Y-16505524D02*
X10440714Y-16505524D01*
X10440714Y-16505524D02*
X10421667Y-16496000D01*
X10421667Y-16496000D02*
X10412143Y-16486476D01*
X10412143Y-16486476D02*
X10402619Y-16467428D01*
X10402619Y-16467428D02*
X10393095Y-16429333D01*
X10393095Y-16429333D02*
X10393095Y-16381714D01*
X10393095Y-16381714D02*
X10402619Y-16343619D01*
X10402619Y-16343619D02*
X10412143Y-16324571D01*
X10412143Y-16324571D02*
X10421667Y-16315048D01*
X10421667Y-16315048D02*
X10440714Y-16305524D01*
X10593095Y-16486476D02*
X10602619Y-16496000D01*
X10602619Y-16496000D02*
X10593095Y-16505524D01*
X10593095Y-16505524D02*
X10583571Y-16496000D01*
X10583571Y-16496000D02*
X10593095Y-16486476D01*
X10593095Y-16486476D02*
X10593095Y-16505524D01*
X10697857Y-16505524D02*
X10735952Y-16505524D01*
X10735952Y-16505524D02*
X10755000Y-16496000D01*
X10755000Y-16496000D02*
X10764524Y-16486476D01*
X10764524Y-16486476D02*
X10783571Y-16457905D01*
X10783571Y-16457905D02*
X10793095Y-16419809D01*
X10793095Y-16419809D02*
X10793095Y-16343619D01*
X10793095Y-16343619D02*
X10783571Y-16324571D01*
X10783571Y-16324571D02*
X10774048Y-16315048D01*
X10774048Y-16315048D02*
X10755000Y-16305524D01*
X10755000Y-16305524D02*
X10716905Y-16305524D01*
X10716905Y-16305524D02*
X10697857Y-16315048D01*
X10697857Y-16315048D02*
X10688333Y-16324571D01*
X10688333Y-16324571D02*
X10678810Y-16343619D01*
X10678810Y-16343619D02*
X10678810Y-16391238D01*
X10678810Y-16391238D02*
X10688333Y-16410286D01*
X10688333Y-16410286D02*
X10697857Y-16419809D01*
X10697857Y-16419809D02*
X10716905Y-16429333D01*
X10716905Y-16429333D02*
X10755000Y-16429333D01*
X10755000Y-16429333D02*
X10774048Y-16419809D01*
X10774048Y-16419809D02*
X10783571Y-16410286D01*
X10783571Y-16410286D02*
X10793095Y-16391238D01*
X10916905Y-16305524D02*
X10935952Y-16305524D01*
X10935952Y-16305524D02*
X10955000Y-16315048D01*
X10955000Y-16315048D02*
X10964524Y-16324571D01*
X10964524Y-16324571D02*
X10974048Y-16343619D01*
X10974048Y-16343619D02*
X10983571Y-16381714D01*
X10983571Y-16381714D02*
X10983571Y-16429333D01*
X10983571Y-16429333D02*
X10974048Y-16467428D01*
X10974048Y-16467428D02*
X10964524Y-16486476D01*
X10964524Y-16486476D02*
X10955000Y-16496000D01*
X10955000Y-16496000D02*
X10935952Y-16505524D01*
X10935952Y-16505524D02*
X10916905Y-16505524D01*
X10916905Y-16505524D02*
X10897857Y-16496000D01*
X10897857Y-16496000D02*
X10888333Y-16486476D01*
X10888333Y-16486476D02*
X10878810Y-16467428D01*
X10878810Y-16467428D02*
X10869286Y-16429333D01*
X10869286Y-16429333D02*
X10869286Y-16381714D01*
X10869286Y-16381714D02*
X10878810Y-16343619D01*
X10878810Y-16343619D02*
X10888333Y-16324571D01*
X10888333Y-16324571D02*
X10897857Y-16315048D01*
X10897857Y-16315048D02*
X10916905Y-16305524D01*
X11107381Y-16305524D02*
X11126429Y-16305524D01*
X11126429Y-16305524D02*
X11145476Y-16315048D01*
X11145476Y-16315048D02*
X11155000Y-16324571D01*
X11155000Y-16324571D02*
X11164524Y-16343619D01*
X11164524Y-16343619D02*
X11174048Y-16381714D01*
X11174048Y-16381714D02*
X11174048Y-16429333D01*
X11174048Y-16429333D02*
X11164524Y-16467428D01*
X11164524Y-16467428D02*
X11155000Y-16486476D01*
X11155000Y-16486476D02*
X11145476Y-16496000D01*
X11145476Y-16496000D02*
X11126429Y-16505524D01*
X11126429Y-16505524D02*
X11107381Y-16505524D01*
X11107381Y-16505524D02*
X11088333Y-16496000D01*
X11088333Y-16496000D02*
X11078810Y-16486476D01*
X11078810Y-16486476D02*
X11069286Y-16467428D01*
X11069286Y-16467428D02*
X11059762Y-16429333D01*
X11059762Y-16429333D02*
X11059762Y-16381714D01*
X11059762Y-16381714D02*
X11069286Y-16343619D01*
X11069286Y-16343619D02*
X11078810Y-16324571D01*
X11078810Y-16324571D02*
X11088333Y-16315048D01*
X11088333Y-16315048D02*
X11107381Y-16305524D01*
X11259762Y-16505524D02*
X11259762Y-16372190D01*
X11259762Y-16391238D02*
X11269286Y-16381714D01*
X11269286Y-16381714D02*
X11288333Y-16372190D01*
X11288333Y-16372190D02*
X11316905Y-16372190D01*
X11316905Y-16372190D02*
X11335952Y-16381714D01*
X11335952Y-16381714D02*
X11345476Y-16400762D01*
X11345476Y-16400762D02*
X11345476Y-16505524D01*
X11345476Y-16400762D02*
X11355000Y-16381714D01*
X11355000Y-16381714D02*
X11374048Y-16372190D01*
X11374048Y-16372190D02*
X11402619Y-16372190D01*
X11402619Y-16372190D02*
X11421667Y-16381714D01*
X11421667Y-16381714D02*
X11431190Y-16400762D01*
X11431190Y-16400762D02*
X11431190Y-16505524D01*
X11526429Y-16505524D02*
X11526429Y-16372190D01*
X11526429Y-16391238D02*
X11535952Y-16381714D01*
X11535952Y-16381714D02*
X11555000Y-16372190D01*
X11555000Y-16372190D02*
X11583571Y-16372190D01*
X11583571Y-16372190D02*
X11602619Y-16381714D01*
X11602619Y-16381714D02*
X11612143Y-16400762D01*
X11612143Y-16400762D02*
X11612143Y-16505524D01*
X11612143Y-16400762D02*
X11621667Y-16381714D01*
X11621667Y-16381714D02*
X11640714Y-16372190D01*
X11640714Y-16372190D02*
X11669286Y-16372190D01*
X11669286Y-16372190D02*
X11688333Y-16381714D01*
X11688333Y-16381714D02*
X11697857Y-16400762D01*
X11697857Y-16400762D02*
X11697857Y-16505524D01*
X12088333Y-16296000D02*
X11916905Y-16553143D01*
X12345476Y-16305524D02*
X12364524Y-16305524D01*
X12364524Y-16305524D02*
X12383572Y-16315048D01*
X12383572Y-16315048D02*
X12393095Y-16324571D01*
X12393095Y-16324571D02*
X12402619Y-16343619D01*
X12402619Y-16343619D02*
X12412143Y-16381714D01*
X12412143Y-16381714D02*
X12412143Y-16429333D01*
X12412143Y-16429333D02*
X12402619Y-16467428D01*
X12402619Y-16467428D02*
X12393095Y-16486476D01*
X12393095Y-16486476D02*
X12383572Y-16496000D01*
X12383572Y-16496000D02*
X12364524Y-16505524D01*
X12364524Y-16505524D02*
X12345476Y-16505524D01*
X12345476Y-16505524D02*
X12326429Y-16496000D01*
X12326429Y-16496000D02*
X12316905Y-16486476D01*
X12316905Y-16486476D02*
X12307381Y-16467428D01*
X12307381Y-16467428D02*
X12297857Y-16429333D01*
X12297857Y-16429333D02*
X12297857Y-16381714D01*
X12297857Y-16381714D02*
X12307381Y-16343619D01*
X12307381Y-16343619D02*
X12316905Y-16324571D01*
X12316905Y-16324571D02*
X12326429Y-16315048D01*
X12326429Y-16315048D02*
X12345476Y-16305524D01*
X12497857Y-16486476D02*
X12507381Y-16496000D01*
X12507381Y-16496000D02*
X12497857Y-16505524D01*
X12497857Y-16505524D02*
X12488333Y-16496000D01*
X12488333Y-16496000D02*
X12497857Y-16486476D01*
X12497857Y-16486476D02*
X12497857Y-16505524D01*
X12631191Y-16305524D02*
X12650238Y-16305524D01*
X12650238Y-16305524D02*
X12669286Y-16315048D01*
X12669286Y-16315048D02*
X12678810Y-16324571D01*
X12678810Y-16324571D02*
X12688333Y-16343619D01*
X12688333Y-16343619D02*
X12697857Y-16381714D01*
X12697857Y-16381714D02*
X12697857Y-16429333D01*
X12697857Y-16429333D02*
X12688333Y-16467428D01*
X12688333Y-16467428D02*
X12678810Y-16486476D01*
X12678810Y-16486476D02*
X12669286Y-16496000D01*
X12669286Y-16496000D02*
X12650238Y-16505524D01*
X12650238Y-16505524D02*
X12631191Y-16505524D01*
X12631191Y-16505524D02*
X12612143Y-16496000D01*
X12612143Y-16496000D02*
X12602619Y-16486476D01*
X12602619Y-16486476D02*
X12593095Y-16467428D01*
X12593095Y-16467428D02*
X12583572Y-16429333D01*
X12583572Y-16429333D02*
X12583572Y-16381714D01*
X12583572Y-16381714D02*
X12593095Y-16343619D01*
X12593095Y-16343619D02*
X12602619Y-16324571D01*
X12602619Y-16324571D02*
X12612143Y-16315048D01*
X12612143Y-16315048D02*
X12631191Y-16305524D01*
X12764524Y-16305524D02*
X12888333Y-16305524D01*
X12888333Y-16305524D02*
X12821667Y-16381714D01*
X12821667Y-16381714D02*
X12850238Y-16381714D01*
X12850238Y-16381714D02*
X12869286Y-16391238D01*
X12869286Y-16391238D02*
X12878810Y-16400762D01*
X12878810Y-16400762D02*
X12888333Y-16419809D01*
X12888333Y-16419809D02*
X12888333Y-16467428D01*
X12888333Y-16467428D02*
X12878810Y-16486476D01*
X12878810Y-16486476D02*
X12869286Y-16496000D01*
X12869286Y-16496000D02*
X12850238Y-16505524D01*
X12850238Y-16505524D02*
X12793095Y-16505524D01*
X12793095Y-16505524D02*
X12774048Y-16496000D01*
X12774048Y-16496000D02*
X12764524Y-16486476D01*
X13069286Y-16305524D02*
X12974048Y-16305524D01*
X12974048Y-16305524D02*
X12964524Y-16400762D01*
X12964524Y-16400762D02*
X12974048Y-16391238D01*
X12974048Y-16391238D02*
X12993095Y-16381714D01*
X12993095Y-16381714D02*
X13040714Y-16381714D01*
X13040714Y-16381714D02*
X13059762Y-16391238D01*
X13059762Y-16391238D02*
X13069286Y-16400762D01*
X13069286Y-16400762D02*
X13078810Y-16419809D01*
X13078810Y-16419809D02*
X13078810Y-16467428D01*
X13078810Y-16467428D02*
X13069286Y-16486476D01*
X13069286Y-16486476D02*
X13059762Y-16496000D01*
X13059762Y-16496000D02*
X13040714Y-16505524D01*
X13040714Y-16505524D02*
X12993095Y-16505524D01*
X12993095Y-16505524D02*
X12974048Y-16496000D01*
X12974048Y-16496000D02*
X12964524Y-16486476D01*
X13250238Y-16372190D02*
X13250238Y-16505524D01*
X13202619Y-16296000D02*
X13155000Y-16438857D01*
X13155000Y-16438857D02*
X13278810Y-16438857D01*
X13345476Y-16305524D02*
X13345476Y-16343619D01*
X13421667Y-16305524D02*
X13421667Y-16343619D01*
X13716905Y-16581714D02*
X13707381Y-16572190D01*
X13707381Y-16572190D02*
X13688334Y-16543619D01*
X13688334Y-16543619D02*
X13678810Y-16524571D01*
X13678810Y-16524571D02*
X13669286Y-16496000D01*
X13669286Y-16496000D02*
X13659762Y-16448381D01*
X13659762Y-16448381D02*
X13659762Y-16410286D01*
X13659762Y-16410286D02*
X13669286Y-16362667D01*
X13669286Y-16362667D02*
X13678810Y-16334095D01*
X13678810Y-16334095D02*
X13688334Y-16315048D01*
X13688334Y-16315048D02*
X13707381Y-16286476D01*
X13707381Y-16286476D02*
X13716905Y-16276952D01*
X13878810Y-16372190D02*
X13878810Y-16505524D01*
X13831191Y-16296000D02*
X13783572Y-16438857D01*
X13783572Y-16438857D02*
X13907381Y-16438857D01*
X14135953Y-16505524D02*
X14135953Y-16305524D01*
X14221667Y-16505524D02*
X14221667Y-16400762D01*
X14221667Y-16400762D02*
X14212143Y-16381714D01*
X14212143Y-16381714D02*
X14193096Y-16372190D01*
X14193096Y-16372190D02*
X14164524Y-16372190D01*
X14164524Y-16372190D02*
X14145476Y-16381714D01*
X14145476Y-16381714D02*
X14135953Y-16391238D01*
X14345476Y-16505524D02*
X14326429Y-16496000D01*
X14326429Y-16496000D02*
X14316905Y-16486476D01*
X14316905Y-16486476D02*
X14307381Y-16467428D01*
X14307381Y-16467428D02*
X14307381Y-16410286D01*
X14307381Y-16410286D02*
X14316905Y-16391238D01*
X14316905Y-16391238D02*
X14326429Y-16381714D01*
X14326429Y-16381714D02*
X14345476Y-16372190D01*
X14345476Y-16372190D02*
X14374048Y-16372190D01*
X14374048Y-16372190D02*
X14393096Y-16381714D01*
X14393096Y-16381714D02*
X14402619Y-16391238D01*
X14402619Y-16391238D02*
X14412143Y-16410286D01*
X14412143Y-16410286D02*
X14412143Y-16467428D01*
X14412143Y-16467428D02*
X14402619Y-16486476D01*
X14402619Y-16486476D02*
X14393096Y-16496000D01*
X14393096Y-16496000D02*
X14374048Y-16505524D01*
X14374048Y-16505524D02*
X14345476Y-16505524D01*
X14526429Y-16505524D02*
X14507381Y-16496000D01*
X14507381Y-16496000D02*
X14497857Y-16476952D01*
X14497857Y-16476952D02*
X14497857Y-16305524D01*
X14678810Y-16496000D02*
X14659762Y-16505524D01*
X14659762Y-16505524D02*
X14621667Y-16505524D01*
X14621667Y-16505524D02*
X14602619Y-16496000D01*
X14602619Y-16496000D02*
X14593096Y-16476952D01*
X14593096Y-16476952D02*
X14593096Y-16400762D01*
X14593096Y-16400762D02*
X14602619Y-16381714D01*
X14602619Y-16381714D02*
X14621667Y-16372190D01*
X14621667Y-16372190D02*
X14659762Y-16372190D01*
X14659762Y-16372190D02*
X14678810Y-16381714D01*
X14678810Y-16381714D02*
X14688334Y-16400762D01*
X14688334Y-16400762D02*
X14688334Y-16419809D01*
X14688334Y-16419809D02*
X14593096Y-16438857D01*
X14764524Y-16496000D02*
X14783572Y-16505524D01*
X14783572Y-16505524D02*
X14821667Y-16505524D01*
X14821667Y-16505524D02*
X14840715Y-16496000D01*
X14840715Y-16496000D02*
X14850238Y-16476952D01*
X14850238Y-16476952D02*
X14850238Y-16467428D01*
X14850238Y-16467428D02*
X14840715Y-16448381D01*
X14840715Y-16448381D02*
X14821667Y-16438857D01*
X14821667Y-16438857D02*
X14793096Y-16438857D01*
X14793096Y-16438857D02*
X14774048Y-16429333D01*
X14774048Y-16429333D02*
X14764524Y-16410286D01*
X14764524Y-16410286D02*
X14764524Y-16400762D01*
X14764524Y-16400762D02*
X14774048Y-16381714D01*
X14774048Y-16381714D02*
X14793096Y-16372190D01*
X14793096Y-16372190D02*
X14821667Y-16372190D01*
X14821667Y-16372190D02*
X14840715Y-16381714D01*
X14916905Y-16581714D02*
X14926429Y-16572190D01*
X14926429Y-16572190D02*
X14945477Y-16543619D01*
X14945477Y-16543619D02*
X14955000Y-16524571D01*
X14955000Y-16524571D02*
X14964524Y-16496000D01*
X14964524Y-16496000D02*
X14974048Y-16448381D01*
X14974048Y-16448381D02*
X14974048Y-16410286D01*
X14974048Y-16410286D02*
X14964524Y-16362667D01*
X14964524Y-16362667D02*
X14955000Y-16334095D01*
X14955000Y-16334095D02*
X14945477Y-16315048D01*
X14945477Y-16315048D02*
X14926429Y-16286476D01*
X14926429Y-16286476D02*
X14916905Y-16276952D01*
D15*
X10138891Y-16715891D02*
X10138891Y-16638109D01*
X10061109Y-16638109D01*
X10061109Y-16715891D01*
X10138891Y-16715891D01*
D11*
X10507381Y-16769524D02*
X10393095Y-16769524D01*
X10450238Y-16769524D02*
X10450238Y-16569524D01*
X10450238Y-16569524D02*
X10431190Y-16598095D01*
X10431190Y-16598095D02*
X10412143Y-16617143D01*
X10412143Y-16617143D02*
X10393095Y-16626667D01*
X10593095Y-16750476D02*
X10602619Y-16760000D01*
X10602619Y-16760000D02*
X10593095Y-16769524D01*
X10593095Y-16769524D02*
X10583571Y-16760000D01*
X10583571Y-16760000D02*
X10593095Y-16750476D01*
X10593095Y-16750476D02*
X10593095Y-16769524D01*
X10793095Y-16769524D02*
X10678810Y-16769524D01*
X10735952Y-16769524D02*
X10735952Y-16569524D01*
X10735952Y-16569524D02*
X10716905Y-16598095D01*
X10716905Y-16598095D02*
X10697857Y-16617143D01*
X10697857Y-16617143D02*
X10678810Y-16626667D01*
X10916905Y-16569524D02*
X10935952Y-16569524D01*
X10935952Y-16569524D02*
X10955000Y-16579048D01*
X10955000Y-16579048D02*
X10964524Y-16588571D01*
X10964524Y-16588571D02*
X10974048Y-16607619D01*
X10974048Y-16607619D02*
X10983571Y-16645714D01*
X10983571Y-16645714D02*
X10983571Y-16693333D01*
X10983571Y-16693333D02*
X10974048Y-16731428D01*
X10974048Y-16731428D02*
X10964524Y-16750476D01*
X10964524Y-16750476D02*
X10955000Y-16760000D01*
X10955000Y-16760000D02*
X10935952Y-16769524D01*
X10935952Y-16769524D02*
X10916905Y-16769524D01*
X10916905Y-16769524D02*
X10897857Y-16760000D01*
X10897857Y-16760000D02*
X10888333Y-16750476D01*
X10888333Y-16750476D02*
X10878810Y-16731428D01*
X10878810Y-16731428D02*
X10869286Y-16693333D01*
X10869286Y-16693333D02*
X10869286Y-16645714D01*
X10869286Y-16645714D02*
X10878810Y-16607619D01*
X10878810Y-16607619D02*
X10888333Y-16588571D01*
X10888333Y-16588571D02*
X10897857Y-16579048D01*
X10897857Y-16579048D02*
X10916905Y-16569524D01*
X11107381Y-16569524D02*
X11126429Y-16569524D01*
X11126429Y-16569524D02*
X11145476Y-16579048D01*
X11145476Y-16579048D02*
X11155000Y-16588571D01*
X11155000Y-16588571D02*
X11164524Y-16607619D01*
X11164524Y-16607619D02*
X11174048Y-16645714D01*
X11174048Y-16645714D02*
X11174048Y-16693333D01*
X11174048Y-16693333D02*
X11164524Y-16731428D01*
X11164524Y-16731428D02*
X11155000Y-16750476D01*
X11155000Y-16750476D02*
X11145476Y-16760000D01*
X11145476Y-16760000D02*
X11126429Y-16769524D01*
X11126429Y-16769524D02*
X11107381Y-16769524D01*
X11107381Y-16769524D02*
X11088333Y-16760000D01*
X11088333Y-16760000D02*
X11078810Y-16750476D01*
X11078810Y-16750476D02*
X11069286Y-16731428D01*
X11069286Y-16731428D02*
X11059762Y-16693333D01*
X11059762Y-16693333D02*
X11059762Y-16645714D01*
X11059762Y-16645714D02*
X11069286Y-16607619D01*
X11069286Y-16607619D02*
X11078810Y-16588571D01*
X11078810Y-16588571D02*
X11088333Y-16579048D01*
X11088333Y-16579048D02*
X11107381Y-16569524D01*
X11259762Y-16769524D02*
X11259762Y-16636190D01*
X11259762Y-16655238D02*
X11269286Y-16645714D01*
X11269286Y-16645714D02*
X11288333Y-16636190D01*
X11288333Y-16636190D02*
X11316905Y-16636190D01*
X11316905Y-16636190D02*
X11335952Y-16645714D01*
X11335952Y-16645714D02*
X11345476Y-16664762D01*
X11345476Y-16664762D02*
X11345476Y-16769524D01*
X11345476Y-16664762D02*
X11355000Y-16645714D01*
X11355000Y-16645714D02*
X11374048Y-16636190D01*
X11374048Y-16636190D02*
X11402619Y-16636190D01*
X11402619Y-16636190D02*
X11421667Y-16645714D01*
X11421667Y-16645714D02*
X11431190Y-16664762D01*
X11431190Y-16664762D02*
X11431190Y-16769524D01*
X11526429Y-16769524D02*
X11526429Y-16636190D01*
X11526429Y-16655238D02*
X11535952Y-16645714D01*
X11535952Y-16645714D02*
X11555000Y-16636190D01*
X11555000Y-16636190D02*
X11583571Y-16636190D01*
X11583571Y-16636190D02*
X11602619Y-16645714D01*
X11602619Y-16645714D02*
X11612143Y-16664762D01*
X11612143Y-16664762D02*
X11612143Y-16769524D01*
X11612143Y-16664762D02*
X11621667Y-16645714D01*
X11621667Y-16645714D02*
X11640714Y-16636190D01*
X11640714Y-16636190D02*
X11669286Y-16636190D01*
X11669286Y-16636190D02*
X11688333Y-16645714D01*
X11688333Y-16645714D02*
X11697857Y-16664762D01*
X11697857Y-16664762D02*
X11697857Y-16769524D01*
X12088333Y-16560000D02*
X11916905Y-16817143D01*
X12345476Y-16569524D02*
X12364524Y-16569524D01*
X12364524Y-16569524D02*
X12383572Y-16579048D01*
X12383572Y-16579048D02*
X12393095Y-16588571D01*
X12393095Y-16588571D02*
X12402619Y-16607619D01*
X12402619Y-16607619D02*
X12412143Y-16645714D01*
X12412143Y-16645714D02*
X12412143Y-16693333D01*
X12412143Y-16693333D02*
X12402619Y-16731428D01*
X12402619Y-16731428D02*
X12393095Y-16750476D01*
X12393095Y-16750476D02*
X12383572Y-16760000D01*
X12383572Y-16760000D02*
X12364524Y-16769524D01*
X12364524Y-16769524D02*
X12345476Y-16769524D01*
X12345476Y-16769524D02*
X12326429Y-16760000D01*
X12326429Y-16760000D02*
X12316905Y-16750476D01*
X12316905Y-16750476D02*
X12307381Y-16731428D01*
X12307381Y-16731428D02*
X12297857Y-16693333D01*
X12297857Y-16693333D02*
X12297857Y-16645714D01*
X12297857Y-16645714D02*
X12307381Y-16607619D01*
X12307381Y-16607619D02*
X12316905Y-16588571D01*
X12316905Y-16588571D02*
X12326429Y-16579048D01*
X12326429Y-16579048D02*
X12345476Y-16569524D01*
X12497857Y-16750476D02*
X12507381Y-16760000D01*
X12507381Y-16760000D02*
X12497857Y-16769524D01*
X12497857Y-16769524D02*
X12488333Y-16760000D01*
X12488333Y-16760000D02*
X12497857Y-16750476D01*
X12497857Y-16750476D02*
X12497857Y-16769524D01*
X12631191Y-16569524D02*
X12650238Y-16569524D01*
X12650238Y-16569524D02*
X12669286Y-16579048D01*
X12669286Y-16579048D02*
X12678810Y-16588571D01*
X12678810Y-16588571D02*
X12688333Y-16607619D01*
X12688333Y-16607619D02*
X12697857Y-16645714D01*
X12697857Y-16645714D02*
X12697857Y-16693333D01*
X12697857Y-16693333D02*
X12688333Y-16731428D01*
X12688333Y-16731428D02*
X12678810Y-16750476D01*
X12678810Y-16750476D02*
X12669286Y-16760000D01*
X12669286Y-16760000D02*
X12650238Y-16769524D01*
X12650238Y-16769524D02*
X12631191Y-16769524D01*
X12631191Y-16769524D02*
X12612143Y-16760000D01*
X12612143Y-16760000D02*
X12602619Y-16750476D01*
X12602619Y-16750476D02*
X12593095Y-16731428D01*
X12593095Y-16731428D02*
X12583572Y-16693333D01*
X12583572Y-16693333D02*
X12583572Y-16645714D01*
X12583572Y-16645714D02*
X12593095Y-16607619D01*
X12593095Y-16607619D02*
X12602619Y-16588571D01*
X12602619Y-16588571D02*
X12612143Y-16579048D01*
X12612143Y-16579048D02*
X12631191Y-16569524D01*
X12869286Y-16636190D02*
X12869286Y-16769524D01*
X12821667Y-16560000D02*
X12774048Y-16702857D01*
X12774048Y-16702857D02*
X12897857Y-16702857D01*
X12955000Y-16569524D02*
X13078810Y-16569524D01*
X13078810Y-16569524D02*
X13012143Y-16645714D01*
X13012143Y-16645714D02*
X13040714Y-16645714D01*
X13040714Y-16645714D02*
X13059762Y-16655238D01*
X13059762Y-16655238D02*
X13069286Y-16664762D01*
X13069286Y-16664762D02*
X13078810Y-16683809D01*
X13078810Y-16683809D02*
X13078810Y-16731428D01*
X13078810Y-16731428D02*
X13069286Y-16750476D01*
X13069286Y-16750476D02*
X13059762Y-16760000D01*
X13059762Y-16760000D02*
X13040714Y-16769524D01*
X13040714Y-16769524D02*
X12983572Y-16769524D01*
X12983572Y-16769524D02*
X12964524Y-16760000D01*
X12964524Y-16760000D02*
X12955000Y-16750476D01*
X13145476Y-16569524D02*
X13269286Y-16569524D01*
X13269286Y-16569524D02*
X13202619Y-16645714D01*
X13202619Y-16645714D02*
X13231191Y-16645714D01*
X13231191Y-16645714D02*
X13250238Y-16655238D01*
X13250238Y-16655238D02*
X13259762Y-16664762D01*
X13259762Y-16664762D02*
X13269286Y-16683809D01*
X13269286Y-16683809D02*
X13269286Y-16731428D01*
X13269286Y-16731428D02*
X13259762Y-16750476D01*
X13259762Y-16750476D02*
X13250238Y-16760000D01*
X13250238Y-16760000D02*
X13231191Y-16769524D01*
X13231191Y-16769524D02*
X13174048Y-16769524D01*
X13174048Y-16769524D02*
X13155000Y-16760000D01*
X13155000Y-16760000D02*
X13145476Y-16750476D01*
X13345476Y-16569524D02*
X13345476Y-16607619D01*
X13421667Y-16569524D02*
X13421667Y-16607619D01*
X13716905Y-16845714D02*
X13707381Y-16836190D01*
X13707381Y-16836190D02*
X13688334Y-16807619D01*
X13688334Y-16807619D02*
X13678810Y-16788571D01*
X13678810Y-16788571D02*
X13669286Y-16760000D01*
X13669286Y-16760000D02*
X13659762Y-16712381D01*
X13659762Y-16712381D02*
X13659762Y-16674286D01*
X13659762Y-16674286D02*
X13669286Y-16626667D01*
X13669286Y-16626667D02*
X13678810Y-16598095D01*
X13678810Y-16598095D02*
X13688334Y-16579048D01*
X13688334Y-16579048D02*
X13707381Y-16550476D01*
X13707381Y-16550476D02*
X13716905Y-16540952D01*
X13831191Y-16569524D02*
X13850238Y-16569524D01*
X13850238Y-16569524D02*
X13869286Y-16579048D01*
X13869286Y-16579048D02*
X13878810Y-16588571D01*
X13878810Y-16588571D02*
X13888334Y-16607619D01*
X13888334Y-16607619D02*
X13897857Y-16645714D01*
X13897857Y-16645714D02*
X13897857Y-16693333D01*
X13897857Y-16693333D02*
X13888334Y-16731428D01*
X13888334Y-16731428D02*
X13878810Y-16750476D01*
X13878810Y-16750476D02*
X13869286Y-16760000D01*
X13869286Y-16760000D02*
X13850238Y-16769524D01*
X13850238Y-16769524D02*
X13831191Y-16769524D01*
X13831191Y-16769524D02*
X13812143Y-16760000D01*
X13812143Y-16760000D02*
X13802619Y-16750476D01*
X13802619Y-16750476D02*
X13793095Y-16731428D01*
X13793095Y-16731428D02*
X13783572Y-16693333D01*
X13783572Y-16693333D02*
X13783572Y-16645714D01*
X13783572Y-16645714D02*
X13793095Y-16607619D01*
X13793095Y-16607619D02*
X13802619Y-16588571D01*
X13802619Y-16588571D02*
X13812143Y-16579048D01*
X13812143Y-16579048D02*
X13831191Y-16569524D01*
X14135953Y-16769524D02*
X14135953Y-16569524D01*
X14221667Y-16769524D02*
X14221667Y-16664762D01*
X14221667Y-16664762D02*
X14212143Y-16645714D01*
X14212143Y-16645714D02*
X14193096Y-16636190D01*
X14193096Y-16636190D02*
X14164524Y-16636190D01*
X14164524Y-16636190D02*
X14145476Y-16645714D01*
X14145476Y-16645714D02*
X14135953Y-16655238D01*
X14345476Y-16769524D02*
X14326429Y-16760000D01*
X14326429Y-16760000D02*
X14316905Y-16750476D01*
X14316905Y-16750476D02*
X14307381Y-16731428D01*
X14307381Y-16731428D02*
X14307381Y-16674286D01*
X14307381Y-16674286D02*
X14316905Y-16655238D01*
X14316905Y-16655238D02*
X14326429Y-16645714D01*
X14326429Y-16645714D02*
X14345476Y-16636190D01*
X14345476Y-16636190D02*
X14374048Y-16636190D01*
X14374048Y-16636190D02*
X14393096Y-16645714D01*
X14393096Y-16645714D02*
X14402619Y-16655238D01*
X14402619Y-16655238D02*
X14412143Y-16674286D01*
X14412143Y-16674286D02*
X14412143Y-16731428D01*
X14412143Y-16731428D02*
X14402619Y-16750476D01*
X14402619Y-16750476D02*
X14393096Y-16760000D01*
X14393096Y-16760000D02*
X14374048Y-16769524D01*
X14374048Y-16769524D02*
X14345476Y-16769524D01*
X14526429Y-16769524D02*
X14507381Y-16760000D01*
X14507381Y-16760000D02*
X14497857Y-16740952D01*
X14497857Y-16740952D02*
X14497857Y-16569524D01*
X14678810Y-16760000D02*
X14659762Y-16769524D01*
X14659762Y-16769524D02*
X14621667Y-16769524D01*
X14621667Y-16769524D02*
X14602619Y-16760000D01*
X14602619Y-16760000D02*
X14593096Y-16740952D01*
X14593096Y-16740952D02*
X14593096Y-16664762D01*
X14593096Y-16664762D02*
X14602619Y-16645714D01*
X14602619Y-16645714D02*
X14621667Y-16636190D01*
X14621667Y-16636190D02*
X14659762Y-16636190D01*
X14659762Y-16636190D02*
X14678810Y-16645714D01*
X14678810Y-16645714D02*
X14688334Y-16664762D01*
X14688334Y-16664762D02*
X14688334Y-16683809D01*
X14688334Y-16683809D02*
X14593096Y-16702857D01*
X14764524Y-16760000D02*
X14783572Y-16769524D01*
X14783572Y-16769524D02*
X14821667Y-16769524D01*
X14821667Y-16769524D02*
X14840715Y-16760000D01*
X14840715Y-16760000D02*
X14850238Y-16740952D01*
X14850238Y-16740952D02*
X14850238Y-16731428D01*
X14850238Y-16731428D02*
X14840715Y-16712381D01*
X14840715Y-16712381D02*
X14821667Y-16702857D01*
X14821667Y-16702857D02*
X14793096Y-16702857D01*
X14793096Y-16702857D02*
X14774048Y-16693333D01*
X14774048Y-16693333D02*
X14764524Y-16674286D01*
X14764524Y-16674286D02*
X14764524Y-16664762D01*
X14764524Y-16664762D02*
X14774048Y-16645714D01*
X14774048Y-16645714D02*
X14793096Y-16636190D01*
X14793096Y-16636190D02*
X14821667Y-16636190D01*
X14821667Y-16636190D02*
X14840715Y-16645714D01*
X15088334Y-16693333D02*
X15240715Y-16693333D01*
X15164524Y-16769524D02*
X15164524Y-16617143D01*
X15516905Y-16655238D02*
X15497858Y-16645714D01*
X15497858Y-16645714D02*
X15488334Y-16636190D01*
X15488334Y-16636190D02*
X15478810Y-16617143D01*
X15478810Y-16617143D02*
X15478810Y-16607619D01*
X15478810Y-16607619D02*
X15488334Y-16588571D01*
X15488334Y-16588571D02*
X15497858Y-16579048D01*
X15497858Y-16579048D02*
X15516905Y-16569524D01*
X15516905Y-16569524D02*
X15555000Y-16569524D01*
X15555000Y-16569524D02*
X15574048Y-16579048D01*
X15574048Y-16579048D02*
X15583572Y-16588571D01*
X15583572Y-16588571D02*
X15593096Y-16607619D01*
X15593096Y-16607619D02*
X15593096Y-16617143D01*
X15593096Y-16617143D02*
X15583572Y-16636190D01*
X15583572Y-16636190D02*
X15574048Y-16645714D01*
X15574048Y-16645714D02*
X15555000Y-16655238D01*
X15555000Y-16655238D02*
X15516905Y-16655238D01*
X15516905Y-16655238D02*
X15497858Y-16664762D01*
X15497858Y-16664762D02*
X15488334Y-16674286D01*
X15488334Y-16674286D02*
X15478810Y-16693333D01*
X15478810Y-16693333D02*
X15478810Y-16731428D01*
X15478810Y-16731428D02*
X15488334Y-16750476D01*
X15488334Y-16750476D02*
X15497858Y-16760000D01*
X15497858Y-16760000D02*
X15516905Y-16769524D01*
X15516905Y-16769524D02*
X15555000Y-16769524D01*
X15555000Y-16769524D02*
X15574048Y-16760000D01*
X15574048Y-16760000D02*
X15583572Y-16750476D01*
X15583572Y-16750476D02*
X15593096Y-16731428D01*
X15593096Y-16731428D02*
X15593096Y-16693333D01*
X15593096Y-16693333D02*
X15583572Y-16674286D01*
X15583572Y-16674286D02*
X15574048Y-16664762D01*
X15574048Y-16664762D02*
X15555000Y-16655238D01*
X15821667Y-16760000D02*
X15840715Y-16769524D01*
X15840715Y-16769524D02*
X15878810Y-16769524D01*
X15878810Y-16769524D02*
X15897858Y-16760000D01*
X15897858Y-16760000D02*
X15907381Y-16740952D01*
X15907381Y-16740952D02*
X15907381Y-16731428D01*
X15907381Y-16731428D02*
X15897858Y-16712381D01*
X15897858Y-16712381D02*
X15878810Y-16702857D01*
X15878810Y-16702857D02*
X15850239Y-16702857D01*
X15850239Y-16702857D02*
X15831191Y-16693333D01*
X15831191Y-16693333D02*
X15821667Y-16674286D01*
X15821667Y-16674286D02*
X15821667Y-16664762D01*
X15821667Y-16664762D02*
X15831191Y-16645714D01*
X15831191Y-16645714D02*
X15850239Y-16636190D01*
X15850239Y-16636190D02*
X15878810Y-16636190D01*
X15878810Y-16636190D02*
X15897858Y-16645714D01*
X16021667Y-16769524D02*
X16002620Y-16760000D01*
X16002620Y-16760000D02*
X15993096Y-16740952D01*
X15993096Y-16740952D02*
X15993096Y-16569524D01*
X16126429Y-16769524D02*
X16107381Y-16760000D01*
X16107381Y-16760000D02*
X16097858Y-16750476D01*
X16097858Y-16750476D02*
X16088334Y-16731428D01*
X16088334Y-16731428D02*
X16088334Y-16674286D01*
X16088334Y-16674286D02*
X16097858Y-16655238D01*
X16097858Y-16655238D02*
X16107381Y-16645714D01*
X16107381Y-16645714D02*
X16126429Y-16636190D01*
X16126429Y-16636190D02*
X16155001Y-16636190D01*
X16155001Y-16636190D02*
X16174048Y-16645714D01*
X16174048Y-16645714D02*
X16183572Y-16655238D01*
X16183572Y-16655238D02*
X16193096Y-16674286D01*
X16193096Y-16674286D02*
X16193096Y-16731428D01*
X16193096Y-16731428D02*
X16183572Y-16750476D01*
X16183572Y-16750476D02*
X16174048Y-16760000D01*
X16174048Y-16760000D02*
X16155001Y-16769524D01*
X16155001Y-16769524D02*
X16126429Y-16769524D01*
X16250239Y-16636190D02*
X16326429Y-16636190D01*
X16278810Y-16569524D02*
X16278810Y-16740952D01*
X16278810Y-16740952D02*
X16288334Y-16760000D01*
X16288334Y-16760000D02*
X16307381Y-16769524D01*
X16307381Y-16769524D02*
X16326429Y-16769524D01*
X16383572Y-16760000D02*
X16402620Y-16769524D01*
X16402620Y-16769524D02*
X16440715Y-16769524D01*
X16440715Y-16769524D02*
X16459762Y-16760000D01*
X16459762Y-16760000D02*
X16469286Y-16740952D01*
X16469286Y-16740952D02*
X16469286Y-16731428D01*
X16469286Y-16731428D02*
X16459762Y-16712381D01*
X16459762Y-16712381D02*
X16440715Y-16702857D01*
X16440715Y-16702857D02*
X16412143Y-16702857D01*
X16412143Y-16702857D02*
X16393096Y-16693333D01*
X16393096Y-16693333D02*
X16383572Y-16674286D01*
X16383572Y-16674286D02*
X16383572Y-16664762D01*
X16383572Y-16664762D02*
X16393096Y-16645714D01*
X16393096Y-16645714D02*
X16412143Y-16636190D01*
X16412143Y-16636190D02*
X16440715Y-16636190D01*
X16440715Y-16636190D02*
X16459762Y-16645714D01*
X16535953Y-16845714D02*
X16545477Y-16836190D01*
X16545477Y-16836190D02*
X16564524Y-16807619D01*
X16564524Y-16807619D02*
X16574048Y-16788571D01*
X16574048Y-16788571D02*
X16583572Y-16760000D01*
X16583572Y-16760000D02*
X16593096Y-16712381D01*
X16593096Y-16712381D02*
X16593096Y-16674286D01*
X16593096Y-16674286D02*
X16583572Y-16626667D01*
X16583572Y-16626667D02*
X16574048Y-16598095D01*
X16574048Y-16598095D02*
X16564524Y-16579048D01*
X16564524Y-16579048D02*
X16545477Y-16550476D01*
X16545477Y-16550476D02*
X16535953Y-16540952D01*
X10055000Y-17041000D02*
X10155000Y-16941000D01*
X10055000Y-16841000D01*
X9955000Y-16941000D01*
X10055000Y-17041000D01*
X10393095Y-16852571D02*
X10402619Y-16843048D01*
X10402619Y-16843048D02*
X10421667Y-16833524D01*
X10421667Y-16833524D02*
X10469286Y-16833524D01*
X10469286Y-16833524D02*
X10488333Y-16843048D01*
X10488333Y-16843048D02*
X10497857Y-16852571D01*
X10497857Y-16852571D02*
X10507381Y-16871619D01*
X10507381Y-16871619D02*
X10507381Y-16890667D01*
X10507381Y-16890667D02*
X10497857Y-16919238D01*
X10497857Y-16919238D02*
X10383571Y-17033524D01*
X10383571Y-17033524D02*
X10507381Y-17033524D01*
X10593095Y-17014476D02*
X10602619Y-17024000D01*
X10602619Y-17024000D02*
X10593095Y-17033524D01*
X10593095Y-17033524D02*
X10583571Y-17024000D01*
X10583571Y-17024000D02*
X10593095Y-17014476D01*
X10593095Y-17014476D02*
X10593095Y-17033524D01*
X10726429Y-16833524D02*
X10745476Y-16833524D01*
X10745476Y-16833524D02*
X10764524Y-16843048D01*
X10764524Y-16843048D02*
X10774048Y-16852571D01*
X10774048Y-16852571D02*
X10783571Y-16871619D01*
X10783571Y-16871619D02*
X10793095Y-16909714D01*
X10793095Y-16909714D02*
X10793095Y-16957333D01*
X10793095Y-16957333D02*
X10783571Y-16995429D01*
X10783571Y-16995429D02*
X10774048Y-17014476D01*
X10774048Y-17014476D02*
X10764524Y-17024000D01*
X10764524Y-17024000D02*
X10745476Y-17033524D01*
X10745476Y-17033524D02*
X10726429Y-17033524D01*
X10726429Y-17033524D02*
X10707381Y-17024000D01*
X10707381Y-17024000D02*
X10697857Y-17014476D01*
X10697857Y-17014476D02*
X10688333Y-16995429D01*
X10688333Y-16995429D02*
X10678810Y-16957333D01*
X10678810Y-16957333D02*
X10678810Y-16909714D01*
X10678810Y-16909714D02*
X10688333Y-16871619D01*
X10688333Y-16871619D02*
X10697857Y-16852571D01*
X10697857Y-16852571D02*
X10707381Y-16843048D01*
X10707381Y-16843048D02*
X10726429Y-16833524D01*
X10916905Y-16833524D02*
X10935952Y-16833524D01*
X10935952Y-16833524D02*
X10955000Y-16843048D01*
X10955000Y-16843048D02*
X10964524Y-16852571D01*
X10964524Y-16852571D02*
X10974048Y-16871619D01*
X10974048Y-16871619D02*
X10983571Y-16909714D01*
X10983571Y-16909714D02*
X10983571Y-16957333D01*
X10983571Y-16957333D02*
X10974048Y-16995429D01*
X10974048Y-16995429D02*
X10964524Y-17014476D01*
X10964524Y-17014476D02*
X10955000Y-17024000D01*
X10955000Y-17024000D02*
X10935952Y-17033524D01*
X10935952Y-17033524D02*
X10916905Y-17033524D01*
X10916905Y-17033524D02*
X10897857Y-17024000D01*
X10897857Y-17024000D02*
X10888333Y-17014476D01*
X10888333Y-17014476D02*
X10878810Y-16995429D01*
X10878810Y-16995429D02*
X10869286Y-16957333D01*
X10869286Y-16957333D02*
X10869286Y-16909714D01*
X10869286Y-16909714D02*
X10878810Y-16871619D01*
X10878810Y-16871619D02*
X10888333Y-16852571D01*
X10888333Y-16852571D02*
X10897857Y-16843048D01*
X10897857Y-16843048D02*
X10916905Y-16833524D01*
X11107381Y-16833524D02*
X11126429Y-16833524D01*
X11126429Y-16833524D02*
X11145476Y-16843048D01*
X11145476Y-16843048D02*
X11155000Y-16852571D01*
X11155000Y-16852571D02*
X11164524Y-16871619D01*
X11164524Y-16871619D02*
X11174048Y-16909714D01*
X11174048Y-16909714D02*
X11174048Y-16957333D01*
X11174048Y-16957333D02*
X11164524Y-16995429D01*
X11164524Y-16995429D02*
X11155000Y-17014476D01*
X11155000Y-17014476D02*
X11145476Y-17024000D01*
X11145476Y-17024000D02*
X11126429Y-17033524D01*
X11126429Y-17033524D02*
X11107381Y-17033524D01*
X11107381Y-17033524D02*
X11088333Y-17024000D01*
X11088333Y-17024000D02*
X11078810Y-17014476D01*
X11078810Y-17014476D02*
X11069286Y-16995429D01*
X11069286Y-16995429D02*
X11059762Y-16957333D01*
X11059762Y-16957333D02*
X11059762Y-16909714D01*
X11059762Y-16909714D02*
X11069286Y-16871619D01*
X11069286Y-16871619D02*
X11078810Y-16852571D01*
X11078810Y-16852571D02*
X11088333Y-16843048D01*
X11088333Y-16843048D02*
X11107381Y-16833524D01*
X11259762Y-17033524D02*
X11259762Y-16900190D01*
X11259762Y-16919238D02*
X11269286Y-16909714D01*
X11269286Y-16909714D02*
X11288333Y-16900190D01*
X11288333Y-16900190D02*
X11316905Y-16900190D01*
X11316905Y-16900190D02*
X11335952Y-16909714D01*
X11335952Y-16909714D02*
X11345476Y-16928762D01*
X11345476Y-16928762D02*
X11345476Y-17033524D01*
X11345476Y-16928762D02*
X11355000Y-16909714D01*
X11355000Y-16909714D02*
X11374048Y-16900190D01*
X11374048Y-16900190D02*
X11402619Y-16900190D01*
X11402619Y-16900190D02*
X11421667Y-16909714D01*
X11421667Y-16909714D02*
X11431190Y-16928762D01*
X11431190Y-16928762D02*
X11431190Y-17033524D01*
X11526429Y-17033524D02*
X11526429Y-16900190D01*
X11526429Y-16919238D02*
X11535952Y-16909714D01*
X11535952Y-16909714D02*
X11555000Y-16900190D01*
X11555000Y-16900190D02*
X11583571Y-16900190D01*
X11583571Y-16900190D02*
X11602619Y-16909714D01*
X11602619Y-16909714D02*
X11612143Y-16928762D01*
X11612143Y-16928762D02*
X11612143Y-17033524D01*
X11612143Y-16928762D02*
X11621667Y-16909714D01*
X11621667Y-16909714D02*
X11640714Y-16900190D01*
X11640714Y-16900190D02*
X11669286Y-16900190D01*
X11669286Y-16900190D02*
X11688333Y-16909714D01*
X11688333Y-16909714D02*
X11697857Y-16928762D01*
X11697857Y-16928762D02*
X11697857Y-17033524D01*
X12088333Y-16824000D02*
X11916905Y-17081143D01*
X12345476Y-16833524D02*
X12364524Y-16833524D01*
X12364524Y-16833524D02*
X12383572Y-16843048D01*
X12383572Y-16843048D02*
X12393095Y-16852571D01*
X12393095Y-16852571D02*
X12402619Y-16871619D01*
X12402619Y-16871619D02*
X12412143Y-16909714D01*
X12412143Y-16909714D02*
X12412143Y-16957333D01*
X12412143Y-16957333D02*
X12402619Y-16995429D01*
X12402619Y-16995429D02*
X12393095Y-17014476D01*
X12393095Y-17014476D02*
X12383572Y-17024000D01*
X12383572Y-17024000D02*
X12364524Y-17033524D01*
X12364524Y-17033524D02*
X12345476Y-17033524D01*
X12345476Y-17033524D02*
X12326429Y-17024000D01*
X12326429Y-17024000D02*
X12316905Y-17014476D01*
X12316905Y-17014476D02*
X12307381Y-16995429D01*
X12307381Y-16995429D02*
X12297857Y-16957333D01*
X12297857Y-16957333D02*
X12297857Y-16909714D01*
X12297857Y-16909714D02*
X12307381Y-16871619D01*
X12307381Y-16871619D02*
X12316905Y-16852571D01*
X12316905Y-16852571D02*
X12326429Y-16843048D01*
X12326429Y-16843048D02*
X12345476Y-16833524D01*
X12497857Y-17014476D02*
X12507381Y-17024000D01*
X12507381Y-17024000D02*
X12497857Y-17033524D01*
X12497857Y-17033524D02*
X12488333Y-17024000D01*
X12488333Y-17024000D02*
X12497857Y-17014476D01*
X12497857Y-17014476D02*
X12497857Y-17033524D01*
X12631191Y-16833524D02*
X12650238Y-16833524D01*
X12650238Y-16833524D02*
X12669286Y-16843048D01*
X12669286Y-16843048D02*
X12678810Y-16852571D01*
X12678810Y-16852571D02*
X12688333Y-16871619D01*
X12688333Y-16871619D02*
X12697857Y-16909714D01*
X12697857Y-16909714D02*
X12697857Y-16957333D01*
X12697857Y-16957333D02*
X12688333Y-16995429D01*
X12688333Y-16995429D02*
X12678810Y-17014476D01*
X12678810Y-17014476D02*
X12669286Y-17024000D01*
X12669286Y-17024000D02*
X12650238Y-17033524D01*
X12650238Y-17033524D02*
X12631191Y-17033524D01*
X12631191Y-17033524D02*
X12612143Y-17024000D01*
X12612143Y-17024000D02*
X12602619Y-17014476D01*
X12602619Y-17014476D02*
X12593095Y-16995429D01*
X12593095Y-16995429D02*
X12583572Y-16957333D01*
X12583572Y-16957333D02*
X12583572Y-16909714D01*
X12583572Y-16909714D02*
X12593095Y-16871619D01*
X12593095Y-16871619D02*
X12602619Y-16852571D01*
X12602619Y-16852571D02*
X12612143Y-16843048D01*
X12612143Y-16843048D02*
X12631191Y-16833524D01*
X12764524Y-16833524D02*
X12897857Y-16833524D01*
X12897857Y-16833524D02*
X12812143Y-17033524D01*
X13002619Y-16919238D02*
X12983572Y-16909714D01*
X12983572Y-16909714D02*
X12974048Y-16900190D01*
X12974048Y-16900190D02*
X12964524Y-16881143D01*
X12964524Y-16881143D02*
X12964524Y-16871619D01*
X12964524Y-16871619D02*
X12974048Y-16852571D01*
X12974048Y-16852571D02*
X12983572Y-16843048D01*
X12983572Y-16843048D02*
X13002619Y-16833524D01*
X13002619Y-16833524D02*
X13040714Y-16833524D01*
X13040714Y-16833524D02*
X13059762Y-16843048D01*
X13059762Y-16843048D02*
X13069286Y-16852571D01*
X13069286Y-16852571D02*
X13078810Y-16871619D01*
X13078810Y-16871619D02*
X13078810Y-16881143D01*
X13078810Y-16881143D02*
X13069286Y-16900190D01*
X13069286Y-16900190D02*
X13059762Y-16909714D01*
X13059762Y-16909714D02*
X13040714Y-16919238D01*
X13040714Y-16919238D02*
X13002619Y-16919238D01*
X13002619Y-16919238D02*
X12983572Y-16928762D01*
X12983572Y-16928762D02*
X12974048Y-16938286D01*
X12974048Y-16938286D02*
X12964524Y-16957333D01*
X12964524Y-16957333D02*
X12964524Y-16995429D01*
X12964524Y-16995429D02*
X12974048Y-17014476D01*
X12974048Y-17014476D02*
X12983572Y-17024000D01*
X12983572Y-17024000D02*
X13002619Y-17033524D01*
X13002619Y-17033524D02*
X13040714Y-17033524D01*
X13040714Y-17033524D02*
X13059762Y-17024000D01*
X13059762Y-17024000D02*
X13069286Y-17014476D01*
X13069286Y-17014476D02*
X13078810Y-16995429D01*
X13078810Y-16995429D02*
X13078810Y-16957333D01*
X13078810Y-16957333D02*
X13069286Y-16938286D01*
X13069286Y-16938286D02*
X13059762Y-16928762D01*
X13059762Y-16928762D02*
X13040714Y-16919238D01*
X13145476Y-16833524D02*
X13278810Y-16833524D01*
X13278810Y-16833524D02*
X13193095Y-17033524D01*
X13345476Y-16833524D02*
X13345476Y-16871619D01*
X13421667Y-16833524D02*
X13421667Y-16871619D01*
X13716905Y-17109714D02*
X13707381Y-17100190D01*
X13707381Y-17100190D02*
X13688334Y-17071619D01*
X13688334Y-17071619D02*
X13678810Y-17052571D01*
X13678810Y-17052571D02*
X13669286Y-17024000D01*
X13669286Y-17024000D02*
X13659762Y-16976381D01*
X13659762Y-16976381D02*
X13659762Y-16938286D01*
X13659762Y-16938286D02*
X13669286Y-16890667D01*
X13669286Y-16890667D02*
X13678810Y-16862095D01*
X13678810Y-16862095D02*
X13688334Y-16843048D01*
X13688334Y-16843048D02*
X13707381Y-16814476D01*
X13707381Y-16814476D02*
X13716905Y-16804952D01*
X13831191Y-16833524D02*
X13850238Y-16833524D01*
X13850238Y-16833524D02*
X13869286Y-16843048D01*
X13869286Y-16843048D02*
X13878810Y-16852571D01*
X13878810Y-16852571D02*
X13888334Y-16871619D01*
X13888334Y-16871619D02*
X13897857Y-16909714D01*
X13897857Y-16909714D02*
X13897857Y-16957333D01*
X13897857Y-16957333D02*
X13888334Y-16995429D01*
X13888334Y-16995429D02*
X13878810Y-17014476D01*
X13878810Y-17014476D02*
X13869286Y-17024000D01*
X13869286Y-17024000D02*
X13850238Y-17033524D01*
X13850238Y-17033524D02*
X13831191Y-17033524D01*
X13831191Y-17033524D02*
X13812143Y-17024000D01*
X13812143Y-17024000D02*
X13802619Y-17014476D01*
X13802619Y-17014476D02*
X13793095Y-16995429D01*
X13793095Y-16995429D02*
X13783572Y-16957333D01*
X13783572Y-16957333D02*
X13783572Y-16909714D01*
X13783572Y-16909714D02*
X13793095Y-16871619D01*
X13793095Y-16871619D02*
X13802619Y-16852571D01*
X13802619Y-16852571D02*
X13812143Y-16843048D01*
X13812143Y-16843048D02*
X13831191Y-16833524D01*
X14135953Y-17033524D02*
X14135953Y-16833524D01*
X14221667Y-17033524D02*
X14221667Y-16928762D01*
X14221667Y-16928762D02*
X14212143Y-16909714D01*
X14212143Y-16909714D02*
X14193096Y-16900190D01*
X14193096Y-16900190D02*
X14164524Y-16900190D01*
X14164524Y-16900190D02*
X14145476Y-16909714D01*
X14145476Y-16909714D02*
X14135953Y-16919238D01*
X14345476Y-17033524D02*
X14326429Y-17024000D01*
X14326429Y-17024000D02*
X14316905Y-17014476D01*
X14316905Y-17014476D02*
X14307381Y-16995429D01*
X14307381Y-16995429D02*
X14307381Y-16938286D01*
X14307381Y-16938286D02*
X14316905Y-16919238D01*
X14316905Y-16919238D02*
X14326429Y-16909714D01*
X14326429Y-16909714D02*
X14345476Y-16900190D01*
X14345476Y-16900190D02*
X14374048Y-16900190D01*
X14374048Y-16900190D02*
X14393096Y-16909714D01*
X14393096Y-16909714D02*
X14402619Y-16919238D01*
X14402619Y-16919238D02*
X14412143Y-16938286D01*
X14412143Y-16938286D02*
X14412143Y-16995429D01*
X14412143Y-16995429D02*
X14402619Y-17014476D01*
X14402619Y-17014476D02*
X14393096Y-17024000D01*
X14393096Y-17024000D02*
X14374048Y-17033524D01*
X14374048Y-17033524D02*
X14345476Y-17033524D01*
X14526429Y-17033524D02*
X14507381Y-17024000D01*
X14507381Y-17024000D02*
X14497857Y-17004952D01*
X14497857Y-17004952D02*
X14497857Y-16833524D01*
X14678810Y-17024000D02*
X14659762Y-17033524D01*
X14659762Y-17033524D02*
X14621667Y-17033524D01*
X14621667Y-17033524D02*
X14602619Y-17024000D01*
X14602619Y-17024000D02*
X14593096Y-17004952D01*
X14593096Y-17004952D02*
X14593096Y-16928762D01*
X14593096Y-16928762D02*
X14602619Y-16909714D01*
X14602619Y-16909714D02*
X14621667Y-16900190D01*
X14621667Y-16900190D02*
X14659762Y-16900190D01*
X14659762Y-16900190D02*
X14678810Y-16909714D01*
X14678810Y-16909714D02*
X14688334Y-16928762D01*
X14688334Y-16928762D02*
X14688334Y-16947810D01*
X14688334Y-16947810D02*
X14593096Y-16966857D01*
X14764524Y-17024000D02*
X14783572Y-17033524D01*
X14783572Y-17033524D02*
X14821667Y-17033524D01*
X14821667Y-17033524D02*
X14840715Y-17024000D01*
X14840715Y-17024000D02*
X14850238Y-17004952D01*
X14850238Y-17004952D02*
X14850238Y-16995429D01*
X14850238Y-16995429D02*
X14840715Y-16976381D01*
X14840715Y-16976381D02*
X14821667Y-16966857D01*
X14821667Y-16966857D02*
X14793096Y-16966857D01*
X14793096Y-16966857D02*
X14774048Y-16957333D01*
X14774048Y-16957333D02*
X14764524Y-16938286D01*
X14764524Y-16938286D02*
X14764524Y-16928762D01*
X14764524Y-16928762D02*
X14774048Y-16909714D01*
X14774048Y-16909714D02*
X14793096Y-16900190D01*
X14793096Y-16900190D02*
X14821667Y-16900190D01*
X14821667Y-16900190D02*
X14840715Y-16909714D01*
X15088334Y-16957333D02*
X15240715Y-16957333D01*
X15164524Y-17033524D02*
X15164524Y-16881143D01*
X15478810Y-16852571D02*
X15488334Y-16843048D01*
X15488334Y-16843048D02*
X15507381Y-16833524D01*
X15507381Y-16833524D02*
X15555000Y-16833524D01*
X15555000Y-16833524D02*
X15574048Y-16843048D01*
X15574048Y-16843048D02*
X15583572Y-16852571D01*
X15583572Y-16852571D02*
X15593096Y-16871619D01*
X15593096Y-16871619D02*
X15593096Y-16890667D01*
X15593096Y-16890667D02*
X15583572Y-16919238D01*
X15583572Y-16919238D02*
X15469286Y-17033524D01*
X15469286Y-17033524D02*
X15593096Y-17033524D01*
X15821667Y-17024000D02*
X15840715Y-17033524D01*
X15840715Y-17033524D02*
X15878810Y-17033524D01*
X15878810Y-17033524D02*
X15897858Y-17024000D01*
X15897858Y-17024000D02*
X15907381Y-17004952D01*
X15907381Y-17004952D02*
X15907381Y-16995429D01*
X15907381Y-16995429D02*
X15897858Y-16976381D01*
X15897858Y-16976381D02*
X15878810Y-16966857D01*
X15878810Y-16966857D02*
X15850239Y-16966857D01*
X15850239Y-16966857D02*
X15831191Y-16957333D01*
X15831191Y-16957333D02*
X15821667Y-16938286D01*
X15821667Y-16938286D02*
X15821667Y-16928762D01*
X15821667Y-16928762D02*
X15831191Y-16909714D01*
X15831191Y-16909714D02*
X15850239Y-16900190D01*
X15850239Y-16900190D02*
X15878810Y-16900190D01*
X15878810Y-16900190D02*
X15897858Y-16909714D01*
X16021667Y-17033524D02*
X16002620Y-17024000D01*
X16002620Y-17024000D02*
X15993096Y-17004952D01*
X15993096Y-17004952D02*
X15993096Y-16833524D01*
X16126429Y-17033524D02*
X16107381Y-17024000D01*
X16107381Y-17024000D02*
X16097858Y-17014476D01*
X16097858Y-17014476D02*
X16088334Y-16995429D01*
X16088334Y-16995429D02*
X16088334Y-16938286D01*
X16088334Y-16938286D02*
X16097858Y-16919238D01*
X16097858Y-16919238D02*
X16107381Y-16909714D01*
X16107381Y-16909714D02*
X16126429Y-16900190D01*
X16126429Y-16900190D02*
X16155001Y-16900190D01*
X16155001Y-16900190D02*
X16174048Y-16909714D01*
X16174048Y-16909714D02*
X16183572Y-16919238D01*
X16183572Y-16919238D02*
X16193096Y-16938286D01*
X16193096Y-16938286D02*
X16193096Y-16995429D01*
X16193096Y-16995429D02*
X16183572Y-17014476D01*
X16183572Y-17014476D02*
X16174048Y-17024000D01*
X16174048Y-17024000D02*
X16155001Y-17033524D01*
X16155001Y-17033524D02*
X16126429Y-17033524D01*
X16250239Y-16900190D02*
X16326429Y-16900190D01*
X16278810Y-16833524D02*
X16278810Y-17004952D01*
X16278810Y-17004952D02*
X16288334Y-17024000D01*
X16288334Y-17024000D02*
X16307381Y-17033524D01*
X16307381Y-17033524D02*
X16326429Y-17033524D01*
X16383572Y-17024000D02*
X16402620Y-17033524D01*
X16402620Y-17033524D02*
X16440715Y-17033524D01*
X16440715Y-17033524D02*
X16459762Y-17024000D01*
X16459762Y-17024000D02*
X16469286Y-17004952D01*
X16469286Y-17004952D02*
X16469286Y-16995429D01*
X16469286Y-16995429D02*
X16459762Y-16976381D01*
X16459762Y-16976381D02*
X16440715Y-16966857D01*
X16440715Y-16966857D02*
X16412143Y-16966857D01*
X16412143Y-16966857D02*
X16393096Y-16957333D01*
X16393096Y-16957333D02*
X16383572Y-16938286D01*
X16383572Y-16938286D02*
X16383572Y-16928762D01*
X16383572Y-16928762D02*
X16393096Y-16909714D01*
X16393096Y-16909714D02*
X16412143Y-16900190D01*
X16412143Y-16900190D02*
X16440715Y-16900190D01*
X16440715Y-16900190D02*
X16459762Y-16909714D01*
X16535953Y-17109714D02*
X16545477Y-17100190D01*
X16545477Y-17100190D02*
X16564524Y-17071619D01*
X16564524Y-17071619D02*
X16574048Y-17052571D01*
X16574048Y-17052571D02*
X16583572Y-17024000D01*
X16583572Y-17024000D02*
X16593096Y-16976381D01*
X16593096Y-16976381D02*
X16593096Y-16938286D01*
X16593096Y-16938286D02*
X16583572Y-16890667D01*
X16583572Y-16890667D02*
X16574048Y-16862095D01*
X16574048Y-16862095D02*
X16564524Y-16843048D01*
X16564524Y-16843048D02*
X16545477Y-16814476D01*
X16545477Y-16814476D02*
X16535953Y-16804952D01*
X9955000Y-17161000D02*
X10155000Y-17361000D01*
X10155000Y-17161000D02*
X9955000Y-17361000D01*
X10155000Y-17261000D02*
G75*
G03*
X10155000Y-17261000I-100000J0D01*
G01*
X10412143Y-17353524D02*
X10450238Y-17353524D01*
X10450238Y-17353524D02*
X10469286Y-17344000D01*
X10469286Y-17344000D02*
X10478810Y-17334476D01*
X10478810Y-17334476D02*
X10497857Y-17305905D01*
X10497857Y-17305905D02*
X10507381Y-17267810D01*
X10507381Y-17267810D02*
X10507381Y-17191619D01*
X10507381Y-17191619D02*
X10497857Y-17172571D01*
X10497857Y-17172571D02*
X10488333Y-17163048D01*
X10488333Y-17163048D02*
X10469286Y-17153524D01*
X10469286Y-17153524D02*
X10431190Y-17153524D01*
X10431190Y-17153524D02*
X10412143Y-17163048D01*
X10412143Y-17163048D02*
X10402619Y-17172571D01*
X10402619Y-17172571D02*
X10393095Y-17191619D01*
X10393095Y-17191619D02*
X10393095Y-17239238D01*
X10393095Y-17239238D02*
X10402619Y-17258286D01*
X10402619Y-17258286D02*
X10412143Y-17267810D01*
X10412143Y-17267810D02*
X10431190Y-17277333D01*
X10431190Y-17277333D02*
X10469286Y-17277333D01*
X10469286Y-17277333D02*
X10488333Y-17267810D01*
X10488333Y-17267810D02*
X10497857Y-17258286D01*
X10497857Y-17258286D02*
X10507381Y-17239238D01*
X10593095Y-17334476D02*
X10602619Y-17344000D01*
X10602619Y-17344000D02*
X10593095Y-17353524D01*
X10593095Y-17353524D02*
X10583571Y-17344000D01*
X10583571Y-17344000D02*
X10593095Y-17334476D01*
X10593095Y-17334476D02*
X10593095Y-17353524D01*
X10793095Y-17353524D02*
X10678810Y-17353524D01*
X10735952Y-17353524D02*
X10735952Y-17153524D01*
X10735952Y-17153524D02*
X10716905Y-17182095D01*
X10716905Y-17182095D02*
X10697857Y-17201143D01*
X10697857Y-17201143D02*
X10678810Y-17210667D01*
X10964524Y-17220190D02*
X10964524Y-17353524D01*
X10916905Y-17144000D02*
X10869286Y-17286857D01*
X10869286Y-17286857D02*
X10993095Y-17286857D01*
X11155000Y-17220190D02*
X11155000Y-17353524D01*
X11107381Y-17144000D02*
X11059762Y-17286857D01*
X11059762Y-17286857D02*
X11183571Y-17286857D01*
X11259762Y-17353524D02*
X11259762Y-17220190D01*
X11259762Y-17239238D02*
X11269286Y-17229714D01*
X11269286Y-17229714D02*
X11288333Y-17220190D01*
X11288333Y-17220190D02*
X11316905Y-17220190D01*
X11316905Y-17220190D02*
X11335952Y-17229714D01*
X11335952Y-17229714D02*
X11345476Y-17248762D01*
X11345476Y-17248762D02*
X11345476Y-17353524D01*
X11345476Y-17248762D02*
X11355000Y-17229714D01*
X11355000Y-17229714D02*
X11374048Y-17220190D01*
X11374048Y-17220190D02*
X11402619Y-17220190D01*
X11402619Y-17220190D02*
X11421667Y-17229714D01*
X11421667Y-17229714D02*
X11431190Y-17248762D01*
X11431190Y-17248762D02*
X11431190Y-17353524D01*
X11526429Y-17353524D02*
X11526429Y-17220190D01*
X11526429Y-17239238D02*
X11535952Y-17229714D01*
X11535952Y-17229714D02*
X11555000Y-17220190D01*
X11555000Y-17220190D02*
X11583571Y-17220190D01*
X11583571Y-17220190D02*
X11602619Y-17229714D01*
X11602619Y-17229714D02*
X11612143Y-17248762D01*
X11612143Y-17248762D02*
X11612143Y-17353524D01*
X11612143Y-17248762D02*
X11621667Y-17229714D01*
X11621667Y-17229714D02*
X11640714Y-17220190D01*
X11640714Y-17220190D02*
X11669286Y-17220190D01*
X11669286Y-17220190D02*
X11688333Y-17229714D01*
X11688333Y-17229714D02*
X11697857Y-17248762D01*
X11697857Y-17248762D02*
X11697857Y-17353524D01*
X12088333Y-17144000D02*
X11916905Y-17401143D01*
X12345476Y-17153524D02*
X12364524Y-17153524D01*
X12364524Y-17153524D02*
X12383572Y-17163048D01*
X12383572Y-17163048D02*
X12393095Y-17172571D01*
X12393095Y-17172571D02*
X12402619Y-17191619D01*
X12402619Y-17191619D02*
X12412143Y-17229714D01*
X12412143Y-17229714D02*
X12412143Y-17277333D01*
X12412143Y-17277333D02*
X12402619Y-17315429D01*
X12402619Y-17315429D02*
X12393095Y-17334476D01*
X12393095Y-17334476D02*
X12383572Y-17344000D01*
X12383572Y-17344000D02*
X12364524Y-17353524D01*
X12364524Y-17353524D02*
X12345476Y-17353524D01*
X12345476Y-17353524D02*
X12326429Y-17344000D01*
X12326429Y-17344000D02*
X12316905Y-17334476D01*
X12316905Y-17334476D02*
X12307381Y-17315429D01*
X12307381Y-17315429D02*
X12297857Y-17277333D01*
X12297857Y-17277333D02*
X12297857Y-17229714D01*
X12297857Y-17229714D02*
X12307381Y-17191619D01*
X12307381Y-17191619D02*
X12316905Y-17172571D01*
X12316905Y-17172571D02*
X12326429Y-17163048D01*
X12326429Y-17163048D02*
X12345476Y-17153524D01*
X12497857Y-17334476D02*
X12507381Y-17344000D01*
X12507381Y-17344000D02*
X12497857Y-17353524D01*
X12497857Y-17353524D02*
X12488333Y-17344000D01*
X12488333Y-17344000D02*
X12497857Y-17334476D01*
X12497857Y-17334476D02*
X12497857Y-17353524D01*
X12574048Y-17153524D02*
X12697857Y-17153524D01*
X12697857Y-17153524D02*
X12631191Y-17229714D01*
X12631191Y-17229714D02*
X12659762Y-17229714D01*
X12659762Y-17229714D02*
X12678810Y-17239238D01*
X12678810Y-17239238D02*
X12688333Y-17248762D01*
X12688333Y-17248762D02*
X12697857Y-17267810D01*
X12697857Y-17267810D02*
X12697857Y-17315429D01*
X12697857Y-17315429D02*
X12688333Y-17334476D01*
X12688333Y-17334476D02*
X12678810Y-17344000D01*
X12678810Y-17344000D02*
X12659762Y-17353524D01*
X12659762Y-17353524D02*
X12602619Y-17353524D01*
X12602619Y-17353524D02*
X12583572Y-17344000D01*
X12583572Y-17344000D02*
X12574048Y-17334476D01*
X12869286Y-17153524D02*
X12831191Y-17153524D01*
X12831191Y-17153524D02*
X12812143Y-17163048D01*
X12812143Y-17163048D02*
X12802619Y-17172571D01*
X12802619Y-17172571D02*
X12783572Y-17201143D01*
X12783572Y-17201143D02*
X12774048Y-17239238D01*
X12774048Y-17239238D02*
X12774048Y-17315429D01*
X12774048Y-17315429D02*
X12783572Y-17334476D01*
X12783572Y-17334476D02*
X12793095Y-17344000D01*
X12793095Y-17344000D02*
X12812143Y-17353524D01*
X12812143Y-17353524D02*
X12850238Y-17353524D01*
X12850238Y-17353524D02*
X12869286Y-17344000D01*
X12869286Y-17344000D02*
X12878810Y-17334476D01*
X12878810Y-17334476D02*
X12888333Y-17315429D01*
X12888333Y-17315429D02*
X12888333Y-17267810D01*
X12888333Y-17267810D02*
X12878810Y-17248762D01*
X12878810Y-17248762D02*
X12869286Y-17239238D01*
X12869286Y-17239238D02*
X12850238Y-17229714D01*
X12850238Y-17229714D02*
X12812143Y-17229714D01*
X12812143Y-17229714D02*
X12793095Y-17239238D01*
X12793095Y-17239238D02*
X12783572Y-17248762D01*
X12783572Y-17248762D02*
X12774048Y-17267810D01*
X13012143Y-17153524D02*
X13031191Y-17153524D01*
X13031191Y-17153524D02*
X13050238Y-17163048D01*
X13050238Y-17163048D02*
X13059762Y-17172571D01*
X13059762Y-17172571D02*
X13069286Y-17191619D01*
X13069286Y-17191619D02*
X13078810Y-17229714D01*
X13078810Y-17229714D02*
X13078810Y-17277333D01*
X13078810Y-17277333D02*
X13069286Y-17315429D01*
X13069286Y-17315429D02*
X13059762Y-17334476D01*
X13059762Y-17334476D02*
X13050238Y-17344000D01*
X13050238Y-17344000D02*
X13031191Y-17353524D01*
X13031191Y-17353524D02*
X13012143Y-17353524D01*
X13012143Y-17353524D02*
X12993095Y-17344000D01*
X12993095Y-17344000D02*
X12983572Y-17334476D01*
X12983572Y-17334476D02*
X12974048Y-17315429D01*
X12974048Y-17315429D02*
X12964524Y-17277333D01*
X12964524Y-17277333D02*
X12964524Y-17229714D01*
X12964524Y-17229714D02*
X12974048Y-17191619D01*
X12974048Y-17191619D02*
X12983572Y-17172571D01*
X12983572Y-17172571D02*
X12993095Y-17163048D01*
X12993095Y-17163048D02*
X13012143Y-17153524D01*
X13202619Y-17153524D02*
X13221667Y-17153524D01*
X13221667Y-17153524D02*
X13240714Y-17163048D01*
X13240714Y-17163048D02*
X13250238Y-17172571D01*
X13250238Y-17172571D02*
X13259762Y-17191619D01*
X13259762Y-17191619D02*
X13269286Y-17229714D01*
X13269286Y-17229714D02*
X13269286Y-17277333D01*
X13269286Y-17277333D02*
X13259762Y-17315429D01*
X13259762Y-17315429D02*
X13250238Y-17334476D01*
X13250238Y-17334476D02*
X13240714Y-17344000D01*
X13240714Y-17344000D02*
X13221667Y-17353524D01*
X13221667Y-17353524D02*
X13202619Y-17353524D01*
X13202619Y-17353524D02*
X13183572Y-17344000D01*
X13183572Y-17344000D02*
X13174048Y-17334476D01*
X13174048Y-17334476D02*
X13164524Y-17315429D01*
X13164524Y-17315429D02*
X13155000Y-17277333D01*
X13155000Y-17277333D02*
X13155000Y-17229714D01*
X13155000Y-17229714D02*
X13164524Y-17191619D01*
X13164524Y-17191619D02*
X13174048Y-17172571D01*
X13174048Y-17172571D02*
X13183572Y-17163048D01*
X13183572Y-17163048D02*
X13202619Y-17153524D01*
X13345476Y-17153524D02*
X13345476Y-17191619D01*
X13421667Y-17153524D02*
X13421667Y-17191619D01*
X13716905Y-17429714D02*
X13707381Y-17420190D01*
X13707381Y-17420190D02*
X13688334Y-17391619D01*
X13688334Y-17391619D02*
X13678810Y-17372571D01*
X13678810Y-17372571D02*
X13669286Y-17344000D01*
X13669286Y-17344000D02*
X13659762Y-17296381D01*
X13659762Y-17296381D02*
X13659762Y-17258286D01*
X13659762Y-17258286D02*
X13669286Y-17210667D01*
X13669286Y-17210667D02*
X13678810Y-17182095D01*
X13678810Y-17182095D02*
X13688334Y-17163048D01*
X13688334Y-17163048D02*
X13707381Y-17134476D01*
X13707381Y-17134476D02*
X13716905Y-17124952D01*
X13888334Y-17153524D02*
X13793095Y-17153524D01*
X13793095Y-17153524D02*
X13783572Y-17248762D01*
X13783572Y-17248762D02*
X13793095Y-17239238D01*
X13793095Y-17239238D02*
X13812143Y-17229714D01*
X13812143Y-17229714D02*
X13859762Y-17229714D01*
X13859762Y-17229714D02*
X13878810Y-17239238D01*
X13878810Y-17239238D02*
X13888334Y-17248762D01*
X13888334Y-17248762D02*
X13897857Y-17267810D01*
X13897857Y-17267810D02*
X13897857Y-17315429D01*
X13897857Y-17315429D02*
X13888334Y-17334476D01*
X13888334Y-17334476D02*
X13878810Y-17344000D01*
X13878810Y-17344000D02*
X13859762Y-17353524D01*
X13859762Y-17353524D02*
X13812143Y-17353524D01*
X13812143Y-17353524D02*
X13793095Y-17344000D01*
X13793095Y-17344000D02*
X13783572Y-17334476D01*
X14135953Y-17353524D02*
X14135953Y-17153524D01*
X14221667Y-17353524D02*
X14221667Y-17248762D01*
X14221667Y-17248762D02*
X14212143Y-17229714D01*
X14212143Y-17229714D02*
X14193096Y-17220190D01*
X14193096Y-17220190D02*
X14164524Y-17220190D01*
X14164524Y-17220190D02*
X14145476Y-17229714D01*
X14145476Y-17229714D02*
X14135953Y-17239238D01*
X14345476Y-17353524D02*
X14326429Y-17344000D01*
X14326429Y-17344000D02*
X14316905Y-17334476D01*
X14316905Y-17334476D02*
X14307381Y-17315429D01*
X14307381Y-17315429D02*
X14307381Y-17258286D01*
X14307381Y-17258286D02*
X14316905Y-17239238D01*
X14316905Y-17239238D02*
X14326429Y-17229714D01*
X14326429Y-17229714D02*
X14345476Y-17220190D01*
X14345476Y-17220190D02*
X14374048Y-17220190D01*
X14374048Y-17220190D02*
X14393096Y-17229714D01*
X14393096Y-17229714D02*
X14402619Y-17239238D01*
X14402619Y-17239238D02*
X14412143Y-17258286D01*
X14412143Y-17258286D02*
X14412143Y-17315429D01*
X14412143Y-17315429D02*
X14402619Y-17334476D01*
X14402619Y-17334476D02*
X14393096Y-17344000D01*
X14393096Y-17344000D02*
X14374048Y-17353524D01*
X14374048Y-17353524D02*
X14345476Y-17353524D01*
X14526429Y-17353524D02*
X14507381Y-17344000D01*
X14507381Y-17344000D02*
X14497857Y-17324952D01*
X14497857Y-17324952D02*
X14497857Y-17153524D01*
X14678810Y-17344000D02*
X14659762Y-17353524D01*
X14659762Y-17353524D02*
X14621667Y-17353524D01*
X14621667Y-17353524D02*
X14602619Y-17344000D01*
X14602619Y-17344000D02*
X14593096Y-17324952D01*
X14593096Y-17324952D02*
X14593096Y-17248762D01*
X14593096Y-17248762D02*
X14602619Y-17229714D01*
X14602619Y-17229714D02*
X14621667Y-17220190D01*
X14621667Y-17220190D02*
X14659762Y-17220190D01*
X14659762Y-17220190D02*
X14678810Y-17229714D01*
X14678810Y-17229714D02*
X14688334Y-17248762D01*
X14688334Y-17248762D02*
X14688334Y-17267810D01*
X14688334Y-17267810D02*
X14593096Y-17286857D01*
X14764524Y-17344000D02*
X14783572Y-17353524D01*
X14783572Y-17353524D02*
X14821667Y-17353524D01*
X14821667Y-17353524D02*
X14840715Y-17344000D01*
X14840715Y-17344000D02*
X14850238Y-17324952D01*
X14850238Y-17324952D02*
X14850238Y-17315429D01*
X14850238Y-17315429D02*
X14840715Y-17296381D01*
X14840715Y-17296381D02*
X14821667Y-17286857D01*
X14821667Y-17286857D02*
X14793096Y-17286857D01*
X14793096Y-17286857D02*
X14774048Y-17277333D01*
X14774048Y-17277333D02*
X14764524Y-17258286D01*
X14764524Y-17258286D02*
X14764524Y-17248762D01*
X14764524Y-17248762D02*
X14774048Y-17229714D01*
X14774048Y-17229714D02*
X14793096Y-17220190D01*
X14793096Y-17220190D02*
X14821667Y-17220190D01*
X14821667Y-17220190D02*
X14840715Y-17229714D01*
X14916905Y-17429714D02*
X14926429Y-17420190D01*
X14926429Y-17420190D02*
X14945477Y-17391619D01*
X14945477Y-17391619D02*
X14955000Y-17372571D01*
X14955000Y-17372571D02*
X14964524Y-17344000D01*
X14964524Y-17344000D02*
X14974048Y-17296381D01*
X14974048Y-17296381D02*
X14974048Y-17258286D01*
X14974048Y-17258286D02*
X14964524Y-17210667D01*
X14964524Y-17210667D02*
X14955000Y-17182095D01*
X14955000Y-17182095D02*
X14945477Y-17163048D01*
X14945477Y-17163048D02*
X14926429Y-17134476D01*
X14926429Y-17134476D02*
X14916905Y-17124952D01*
M02*
