%TF.GenerationSoftware,KiCad,Pcbnew,7.0.2*%
%TF.CreationDate,2024-03-28T21:29:17-05:00*%
%TF.ProjectId,Relay_board_hardware,52656c61-795f-4626-9f61-72645f686172,rev?*%
%TF.SameCoordinates,Original*%
%TF.FileFunction,Drillmap*%
%TF.FilePolarity,Positive*%
%FSLAX45Y45*%
G04 Gerber Fmt 4.5, Leading zero omitted, Abs format (unit mm)*
G04 Created by KiCad (PCBNEW 7.0.2) date 2024-03-28 21:29:17*
%MOMM*%
%LPD*%
G01*
G04 APERTURE LIST*
%ADD10C,0.100000*%
%ADD11C,0.200000*%
G04 APERTURE END LIST*
D10*
X10160000Y-5207000D02*
X10160000Y-15113000D01*
X10287000Y-15240000D02*
X20193000Y-15240000D01*
X10160000Y-15113000D02*
G75*
G03*
X10287000Y-15240000I127000J0D01*
G01*
X10287000Y-5080000D02*
X20193000Y-5080000D01*
X20193000Y-15240000D02*
G75*
G03*
X20320000Y-15113000I0J127000D01*
G01*
X20320000Y-15113000D02*
X20320000Y-5207000D01*
X20320000Y-5207000D02*
G75*
G03*
X20193000Y-5080000I-127000J0D01*
G01*
X10287000Y-5080000D02*
G75*
G03*
X10160000Y-5207000I0J-127000D01*
G01*
D11*
X10402619Y-15557524D02*
X10402619Y-15357524D01*
X10402619Y-15357524D02*
X10450238Y-15357524D01*
X10450238Y-15357524D02*
X10478810Y-15367048D01*
X10478810Y-15367048D02*
X10497857Y-15386095D01*
X10497857Y-15386095D02*
X10507381Y-15405143D01*
X10507381Y-15405143D02*
X10516905Y-15443238D01*
X10516905Y-15443238D02*
X10516905Y-15471809D01*
X10516905Y-15471809D02*
X10507381Y-15509905D01*
X10507381Y-15509905D02*
X10497857Y-15528952D01*
X10497857Y-15528952D02*
X10478810Y-15548000D01*
X10478810Y-15548000D02*
X10450238Y-15557524D01*
X10450238Y-15557524D02*
X10402619Y-15557524D01*
X10602619Y-15557524D02*
X10602619Y-15424190D01*
X10602619Y-15462286D02*
X10612143Y-15443238D01*
X10612143Y-15443238D02*
X10621667Y-15433714D01*
X10621667Y-15433714D02*
X10640714Y-15424190D01*
X10640714Y-15424190D02*
X10659762Y-15424190D01*
X10726429Y-15557524D02*
X10726429Y-15424190D01*
X10726429Y-15357524D02*
X10716905Y-15367048D01*
X10716905Y-15367048D02*
X10726429Y-15376571D01*
X10726429Y-15376571D02*
X10735952Y-15367048D01*
X10735952Y-15367048D02*
X10726429Y-15357524D01*
X10726429Y-15357524D02*
X10726429Y-15376571D01*
X10850238Y-15557524D02*
X10831190Y-15548000D01*
X10831190Y-15548000D02*
X10821667Y-15528952D01*
X10821667Y-15528952D02*
X10821667Y-15357524D01*
X10955000Y-15557524D02*
X10935952Y-15548000D01*
X10935952Y-15548000D02*
X10926429Y-15528952D01*
X10926429Y-15528952D02*
X10926429Y-15357524D01*
X11183571Y-15557524D02*
X11183571Y-15357524D01*
X11183571Y-15357524D02*
X11250238Y-15500381D01*
X11250238Y-15500381D02*
X11316905Y-15357524D01*
X11316905Y-15357524D02*
X11316905Y-15557524D01*
X11497857Y-15557524D02*
X11497857Y-15452762D01*
X11497857Y-15452762D02*
X11488333Y-15433714D01*
X11488333Y-15433714D02*
X11469286Y-15424190D01*
X11469286Y-15424190D02*
X11431190Y-15424190D01*
X11431190Y-15424190D02*
X11412143Y-15433714D01*
X11497857Y-15548000D02*
X11478809Y-15557524D01*
X11478809Y-15557524D02*
X11431190Y-15557524D01*
X11431190Y-15557524D02*
X11412143Y-15548000D01*
X11412143Y-15548000D02*
X11402619Y-15528952D01*
X11402619Y-15528952D02*
X11402619Y-15509905D01*
X11402619Y-15509905D02*
X11412143Y-15490857D01*
X11412143Y-15490857D02*
X11431190Y-15481333D01*
X11431190Y-15481333D02*
X11478809Y-15481333D01*
X11478809Y-15481333D02*
X11497857Y-15471809D01*
X11593095Y-15424190D02*
X11593095Y-15624190D01*
X11593095Y-15433714D02*
X11612143Y-15424190D01*
X11612143Y-15424190D02*
X11650238Y-15424190D01*
X11650238Y-15424190D02*
X11669286Y-15433714D01*
X11669286Y-15433714D02*
X11678809Y-15443238D01*
X11678809Y-15443238D02*
X11688333Y-15462286D01*
X11688333Y-15462286D02*
X11688333Y-15519428D01*
X11688333Y-15519428D02*
X11678809Y-15538476D01*
X11678809Y-15538476D02*
X11669286Y-15548000D01*
X11669286Y-15548000D02*
X11650238Y-15557524D01*
X11650238Y-15557524D02*
X11612143Y-15557524D01*
X11612143Y-15557524D02*
X11593095Y-15548000D01*
X11774048Y-15538476D02*
X11783571Y-15548000D01*
X11783571Y-15548000D02*
X11774048Y-15557524D01*
X11774048Y-15557524D02*
X11764524Y-15548000D01*
X11764524Y-15548000D02*
X11774048Y-15538476D01*
X11774048Y-15538476D02*
X11774048Y-15557524D01*
X11774048Y-15433714D02*
X11783571Y-15443238D01*
X11783571Y-15443238D02*
X11774048Y-15452762D01*
X11774048Y-15452762D02*
X11764524Y-15443238D01*
X11764524Y-15443238D02*
X11774048Y-15433714D01*
X11774048Y-15433714D02*
X11774048Y-15452762D01*
M02*
