%TF.GenerationSoftware,KiCad,Pcbnew,7.0.2*%
%TF.CreationDate,2024-03-28T22:10:04-05:00*%
%TF.ProjectId,Relay_board_hardware,52656c61-795f-4626-9f61-72645f686172,rev?*%
%TF.SameCoordinates,Original*%
%TF.FileFunction,Legend,Bot*%
%TF.FilePolarity,Positive*%
%FSLAX46Y46*%
G04 Gerber Fmt 4.6, Leading zero omitted, Abs format (unit mm)*
G04 Created by KiCad (PCBNEW 7.0.2) date 2024-03-28 22:10:04*
%MOMM*%
%LPD*%
G01*
G04 APERTURE LIST*
%ADD10C,0.150000*%
%ADD11C,0.120000*%
G04 APERTURE END LIST*
D10*
%TO.C,C1*%
X144385380Y-100417333D02*
X144433000Y-100369714D01*
X144433000Y-100369714D02*
X144480619Y-100226857D01*
X144480619Y-100226857D02*
X144480619Y-100131619D01*
X144480619Y-100131619D02*
X144433000Y-99988762D01*
X144433000Y-99988762D02*
X144337761Y-99893524D01*
X144337761Y-99893524D02*
X144242523Y-99845905D01*
X144242523Y-99845905D02*
X144052047Y-99798286D01*
X144052047Y-99798286D02*
X143909190Y-99798286D01*
X143909190Y-99798286D02*
X143718714Y-99845905D01*
X143718714Y-99845905D02*
X143623476Y-99893524D01*
X143623476Y-99893524D02*
X143528238Y-99988762D01*
X143528238Y-99988762D02*
X143480619Y-100131619D01*
X143480619Y-100131619D02*
X143480619Y-100226857D01*
X143480619Y-100226857D02*
X143528238Y-100369714D01*
X143528238Y-100369714D02*
X143575857Y-100417333D01*
X144480619Y-101369714D02*
X144480619Y-100798286D01*
X144480619Y-101084000D02*
X143480619Y-101084000D01*
X143480619Y-101084000D02*
X143623476Y-100988762D01*
X143623476Y-100988762D02*
X143718714Y-100893524D01*
X143718714Y-100893524D02*
X143766333Y-100798286D01*
%TO.C,C2*%
X146417380Y-100417333D02*
X146465000Y-100369714D01*
X146465000Y-100369714D02*
X146512619Y-100226857D01*
X146512619Y-100226857D02*
X146512619Y-100131619D01*
X146512619Y-100131619D02*
X146465000Y-99988762D01*
X146465000Y-99988762D02*
X146369761Y-99893524D01*
X146369761Y-99893524D02*
X146274523Y-99845905D01*
X146274523Y-99845905D02*
X146084047Y-99798286D01*
X146084047Y-99798286D02*
X145941190Y-99798286D01*
X145941190Y-99798286D02*
X145750714Y-99845905D01*
X145750714Y-99845905D02*
X145655476Y-99893524D01*
X145655476Y-99893524D02*
X145560238Y-99988762D01*
X145560238Y-99988762D02*
X145512619Y-100131619D01*
X145512619Y-100131619D02*
X145512619Y-100226857D01*
X145512619Y-100226857D02*
X145560238Y-100369714D01*
X145560238Y-100369714D02*
X145607857Y-100417333D01*
X145607857Y-100798286D02*
X145560238Y-100845905D01*
X145560238Y-100845905D02*
X145512619Y-100941143D01*
X145512619Y-100941143D02*
X145512619Y-101179238D01*
X145512619Y-101179238D02*
X145560238Y-101274476D01*
X145560238Y-101274476D02*
X145607857Y-101322095D01*
X145607857Y-101322095D02*
X145703095Y-101369714D01*
X145703095Y-101369714D02*
X145798333Y-101369714D01*
X145798333Y-101369714D02*
X145941190Y-101322095D01*
X145941190Y-101322095D02*
X146512619Y-100750667D01*
X146512619Y-100750667D02*
X146512619Y-101369714D01*
%TO.C,U2*%
X138400619Y-99192595D02*
X139210142Y-99192595D01*
X139210142Y-99192595D02*
X139305380Y-99240214D01*
X139305380Y-99240214D02*
X139353000Y-99287833D01*
X139353000Y-99287833D02*
X139400619Y-99383071D01*
X139400619Y-99383071D02*
X139400619Y-99573547D01*
X139400619Y-99573547D02*
X139353000Y-99668785D01*
X139353000Y-99668785D02*
X139305380Y-99716404D01*
X139305380Y-99716404D02*
X139210142Y-99764023D01*
X139210142Y-99764023D02*
X138400619Y-99764023D01*
X138495857Y-100192595D02*
X138448238Y-100240214D01*
X138448238Y-100240214D02*
X138400619Y-100335452D01*
X138400619Y-100335452D02*
X138400619Y-100573547D01*
X138400619Y-100573547D02*
X138448238Y-100668785D01*
X138448238Y-100668785D02*
X138495857Y-100716404D01*
X138495857Y-100716404D02*
X138591095Y-100764023D01*
X138591095Y-100764023D02*
X138686333Y-100764023D01*
X138686333Y-100764023D02*
X138829190Y-100716404D01*
X138829190Y-100716404D02*
X139400619Y-100144976D01*
X139400619Y-100144976D02*
X139400619Y-100764023D01*
%TO.C,Q1*%
X142081238Y-84661857D02*
X142176476Y-84614238D01*
X142176476Y-84614238D02*
X142271714Y-84519000D01*
X142271714Y-84519000D02*
X142414571Y-84376142D01*
X142414571Y-84376142D02*
X142509809Y-84328523D01*
X142509809Y-84328523D02*
X142605047Y-84328523D01*
X142557428Y-84566619D02*
X142652666Y-84519000D01*
X142652666Y-84519000D02*
X142747904Y-84423761D01*
X142747904Y-84423761D02*
X142795523Y-84233285D01*
X142795523Y-84233285D02*
X142795523Y-83899952D01*
X142795523Y-83899952D02*
X142747904Y-83709476D01*
X142747904Y-83709476D02*
X142652666Y-83614238D01*
X142652666Y-83614238D02*
X142557428Y-83566619D01*
X142557428Y-83566619D02*
X142366952Y-83566619D01*
X142366952Y-83566619D02*
X142271714Y-83614238D01*
X142271714Y-83614238D02*
X142176476Y-83709476D01*
X142176476Y-83709476D02*
X142128857Y-83899952D01*
X142128857Y-83899952D02*
X142128857Y-84233285D01*
X142128857Y-84233285D02*
X142176476Y-84423761D01*
X142176476Y-84423761D02*
X142271714Y-84519000D01*
X142271714Y-84519000D02*
X142366952Y-84566619D01*
X142366952Y-84566619D02*
X142557428Y-84566619D01*
X141176476Y-84566619D02*
X141747904Y-84566619D01*
X141462190Y-84566619D02*
X141462190Y-83566619D01*
X141462190Y-83566619D02*
X141557428Y-83709476D01*
X141557428Y-83709476D02*
X141652666Y-83804714D01*
X141652666Y-83804714D02*
X141747904Y-83852333D01*
D11*
%TO.C,C1*%
X143508000Y-103243767D02*
X143508000Y-102951233D01*
X144528000Y-103243767D02*
X144528000Y-102951233D01*
%TO.C,C2*%
X145540000Y-103270267D02*
X145540000Y-102977733D01*
X146560000Y-103270267D02*
X146560000Y-102977733D01*
%TO.C,G\u002A\u002A\u002A*%
G36*
X159125538Y-54283965D02*
G01*
X159125538Y-54565619D01*
X160661828Y-54565619D01*
X162198119Y-54565619D01*
X162198119Y-55914140D01*
X162198119Y-57262662D01*
X160998959Y-57264793D01*
X160908717Y-57264941D01*
X160698710Y-57265191D01*
X160492058Y-57265314D01*
X160292608Y-57265315D01*
X160104210Y-57265197D01*
X159930711Y-57264965D01*
X159775959Y-57264623D01*
X159643803Y-57264177D01*
X159538090Y-57263631D01*
X159462669Y-57262989D01*
X159125538Y-57259054D01*
X159125538Y-57551046D01*
X159125538Y-57843038D01*
X158946304Y-57843038D01*
X158767070Y-57843038D01*
X158767070Y-57348011D01*
X158767070Y-56852984D01*
X158590826Y-56852984D01*
X158414582Y-56852984D01*
X158350105Y-57027951D01*
X158289151Y-57175970D01*
X158211097Y-57322898D01*
X158127178Y-57438664D01*
X158038022Y-57522566D01*
X157944256Y-57573899D01*
X157846508Y-57591961D01*
X157835181Y-57591864D01*
X157739849Y-57572522D01*
X157647863Y-57521637D01*
X157560369Y-57441479D01*
X157478512Y-57334315D01*
X157403436Y-57202414D01*
X157336287Y-57048046D01*
X157278210Y-56873479D01*
X157256138Y-56784705D01*
X159791264Y-56784705D01*
X160730108Y-56784705D01*
X161668952Y-56784705D01*
X161668952Y-56477447D01*
X161668952Y-56170188D01*
X160730108Y-56170188D01*
X159791264Y-56170188D01*
X159791264Y-56477447D01*
X159791264Y-56784705D01*
X157256138Y-56784705D01*
X157230349Y-56680981D01*
X157193850Y-56472822D01*
X157169858Y-56251270D01*
X157158463Y-56101909D01*
X156989783Y-56101909D01*
X156821103Y-56101909D01*
X156821103Y-56614006D01*
X156821103Y-57126102D01*
X156727218Y-57126102D01*
X156633334Y-57126102D01*
X156633334Y-56614006D01*
X156633334Y-56101909D01*
X156223656Y-56101909D01*
X155813979Y-56101909D01*
X155813979Y-56417702D01*
X155813979Y-56733495D01*
X155720095Y-56733495D01*
X155626210Y-56733495D01*
X155626210Y-56417143D01*
X155626210Y-56100791D01*
X155434174Y-56105617D01*
X155242138Y-56110444D01*
X155237616Y-56618273D01*
X155233095Y-57126102D01*
X155147999Y-57126102D01*
X155062904Y-57126102D01*
X155062904Y-56613702D01*
X155062904Y-56101302D01*
X154648959Y-56105873D01*
X154235014Y-56110444D01*
X154230476Y-56584133D01*
X154225939Y-57057823D01*
X154140859Y-57057823D01*
X154055780Y-57057823D01*
X154055780Y-56579866D01*
X154055780Y-56101909D01*
X153859476Y-56101909D01*
X153663173Y-56101909D01*
X153663173Y-56579866D01*
X153663173Y-57057823D01*
X153578093Y-57057823D01*
X153493014Y-57057823D01*
X153488476Y-56584133D01*
X153483939Y-56110444D01*
X153069994Y-56105873D01*
X152656049Y-56101302D01*
X152656049Y-56579562D01*
X152656049Y-57057823D01*
X152570969Y-57057823D01*
X152485890Y-57057823D01*
X152481353Y-56584133D01*
X152476815Y-56110444D01*
X152284779Y-56105617D01*
X152092742Y-56100791D01*
X152092742Y-56417143D01*
X152092742Y-56733495D01*
X151998858Y-56733495D01*
X151904974Y-56733495D01*
X151904974Y-56417702D01*
X151904974Y-56101909D01*
X151495296Y-56101909D01*
X151085619Y-56101909D01*
X151085619Y-56417702D01*
X151085619Y-56733495D01*
X150991734Y-56733495D01*
X150897850Y-56733495D01*
X150897850Y-56417143D01*
X150897850Y-56100791D01*
X150705814Y-56105617D01*
X150513777Y-56110444D01*
X150509240Y-56584133D01*
X150504702Y-57057823D01*
X150419623Y-57057823D01*
X150334543Y-57057823D01*
X150334543Y-56579562D01*
X150334544Y-56101302D01*
X149920599Y-56105873D01*
X149506654Y-56110444D01*
X149502116Y-56584133D01*
X149497579Y-57057823D01*
X149412499Y-57057823D01*
X149327420Y-57057823D01*
X149327420Y-56579866D01*
X149327420Y-56101909D01*
X149131116Y-56101909D01*
X148934812Y-56101909D01*
X148934812Y-56579866D01*
X148934812Y-57057823D01*
X148849733Y-57057823D01*
X148764653Y-57057823D01*
X148760116Y-56584133D01*
X148755578Y-56110444D01*
X148281889Y-56105906D01*
X147808199Y-56101369D01*
X147808199Y-56579596D01*
X147808199Y-57057823D01*
X147723120Y-57057823D01*
X147638041Y-57057823D01*
X147633503Y-56584133D01*
X147628966Y-56110444D01*
X147436929Y-56105617D01*
X147244893Y-56100791D01*
X147244893Y-56579307D01*
X147244893Y-57057823D01*
X147151009Y-57057823D01*
X147057124Y-57057823D01*
X147057124Y-56579866D01*
X147057124Y-56101909D01*
X146587702Y-56101909D01*
X146118280Y-56101909D01*
X146118280Y-56417702D01*
X146118280Y-56733495D01*
X146024396Y-56733495D01*
X145930511Y-56733495D01*
X145930511Y-56417143D01*
X145930511Y-56100791D01*
X145738475Y-56105617D01*
X145546439Y-56110444D01*
X145541786Y-56421969D01*
X145537134Y-56733495D01*
X145452554Y-56733495D01*
X145367975Y-56733495D01*
X145363322Y-56421969D01*
X145358670Y-56110444D01*
X144889248Y-56110444D01*
X144419826Y-56110444D01*
X144415304Y-56618273D01*
X144410783Y-57126102D01*
X144325941Y-57126102D01*
X144241100Y-57126102D01*
X144236578Y-56618273D01*
X144232057Y-56110444D01*
X143579134Y-56105974D01*
X142926210Y-56101503D01*
X142926210Y-56613803D01*
X142926210Y-57126102D01*
X142832326Y-57126102D01*
X142738441Y-57126102D01*
X142738441Y-56614006D01*
X142738441Y-56101909D01*
X142584812Y-56101909D01*
X142431183Y-56101909D01*
X142431183Y-55914140D01*
X142431183Y-55726371D01*
X142584812Y-55726371D01*
X142738441Y-55726371D01*
X142738441Y-55222809D01*
X142738441Y-54719248D01*
X142832326Y-54719248D01*
X142926210Y-54719248D01*
X142926210Y-55222809D01*
X142926210Y-55726371D01*
X143583401Y-55726371D01*
X144240592Y-55726371D01*
X144240592Y-55222809D01*
X144240592Y-54719248D01*
X144325941Y-54719248D01*
X144411291Y-54719248D01*
X144411291Y-55222809D01*
X144411291Y-55726371D01*
X144889248Y-55726371D01*
X145367205Y-55726371D01*
X145367205Y-55419113D01*
X145367205Y-55111855D01*
X145452554Y-55111855D01*
X145537904Y-55111855D01*
X145537904Y-55419113D01*
X145537904Y-55726371D01*
X145734207Y-55726371D01*
X145930511Y-55726371D01*
X145930511Y-55419113D01*
X145930511Y-55111855D01*
X146024396Y-55111855D01*
X146118280Y-55111855D01*
X146118280Y-55419113D01*
X146118280Y-55726371D01*
X146587702Y-55726371D01*
X147057124Y-55726371D01*
X147057124Y-55256949D01*
X147057124Y-54787527D01*
X147151009Y-54787527D01*
X147244893Y-54787527D01*
X147244893Y-55256949D01*
X147244893Y-55726371D01*
X147441197Y-55726371D01*
X147637500Y-55726371D01*
X147637500Y-55256949D01*
X147637500Y-54787527D01*
X147722850Y-54787527D01*
X147808199Y-54787527D01*
X147808199Y-55256949D01*
X147808199Y-55726371D01*
X148286156Y-55726371D01*
X148764113Y-55726371D01*
X148764113Y-55256949D01*
X148764113Y-54787527D01*
X148849463Y-54787527D01*
X148934812Y-54787527D01*
X148934812Y-55256949D01*
X148934812Y-55726371D01*
X149131116Y-55726371D01*
X149327420Y-55726371D01*
X149327420Y-55256949D01*
X149327420Y-54787527D01*
X149412769Y-54787527D01*
X149498119Y-54787527D01*
X149498119Y-55256949D01*
X149498119Y-55726371D01*
X149916331Y-55726371D01*
X150334543Y-55726371D01*
X150334543Y-55256949D01*
X150334543Y-54787527D01*
X150419893Y-54787527D01*
X150505242Y-54787527D01*
X150505242Y-55256949D01*
X150505242Y-55726371D01*
X150701546Y-55726371D01*
X150897850Y-55726371D01*
X150897850Y-55419113D01*
X150897850Y-55111855D01*
X150991734Y-55111855D01*
X151085619Y-55111855D01*
X151085619Y-55419113D01*
X151085619Y-55726371D01*
X151495296Y-55726371D01*
X151904974Y-55726371D01*
X151904974Y-55419113D01*
X151904974Y-55111855D01*
X151998858Y-55111855D01*
X152092742Y-55111855D01*
X152092742Y-55419113D01*
X152092742Y-55726371D01*
X152289046Y-55726371D01*
X152485350Y-55726371D01*
X152485350Y-55256949D01*
X152485350Y-54787527D01*
X152570699Y-54787527D01*
X152656049Y-54787527D01*
X152656049Y-55256949D01*
X152656049Y-55726371D01*
X153074261Y-55726371D01*
X153492474Y-55726371D01*
X153492474Y-55256949D01*
X153492474Y-54787527D01*
X153577823Y-54787527D01*
X153663173Y-54787527D01*
X153663173Y-55256949D01*
X153663173Y-55726371D01*
X153859476Y-55726371D01*
X154055780Y-55726371D01*
X154055780Y-55256949D01*
X154055780Y-54787527D01*
X154141130Y-54787527D01*
X154226479Y-54787527D01*
X154226479Y-55256949D01*
X154226479Y-55726371D01*
X154644691Y-55726371D01*
X155062904Y-55726371D01*
X155062904Y-55222809D01*
X155062904Y-54719248D01*
X155148253Y-54719248D01*
X155233603Y-54719248D01*
X155233603Y-55222809D01*
X155233603Y-55726371D01*
X155429906Y-55726371D01*
X155626210Y-55726371D01*
X155626210Y-55419113D01*
X155626210Y-55111855D01*
X155720095Y-55111855D01*
X155813979Y-55111855D01*
X155813979Y-55419113D01*
X155813979Y-55726371D01*
X156223656Y-55726371D01*
X156633334Y-55726371D01*
X156633334Y-55222809D01*
X156633334Y-54719248D01*
X156727218Y-54719248D01*
X156821103Y-54719248D01*
X156821103Y-55222809D01*
X156821103Y-55726371D01*
X156990025Y-55726371D01*
X157158947Y-55726371D01*
X157163131Y-55675162D01*
X159791264Y-55675162D01*
X160730108Y-55675162D01*
X161668952Y-55675162D01*
X161668952Y-55367903D01*
X161668952Y-55060645D01*
X160730108Y-55060645D01*
X159791264Y-55060645D01*
X159791264Y-55367903D01*
X159791264Y-55675162D01*
X157163131Y-55675162D01*
X157170454Y-55585545D01*
X157189887Y-55403711D01*
X157227388Y-55179354D01*
X157277672Y-54971652D01*
X157339597Y-54783953D01*
X157412019Y-54619607D01*
X157493795Y-54481963D01*
X157583782Y-54374369D01*
X157621981Y-54339184D01*
X157708033Y-54278130D01*
X157790828Y-54248160D01*
X157874900Y-54248113D01*
X157964785Y-54276827D01*
X157994242Y-54292063D01*
X158081336Y-54358740D01*
X158165691Y-54454454D01*
X158244697Y-54575396D01*
X158315744Y-54717752D01*
X158376223Y-54877713D01*
X158413779Y-54993503D01*
X158586157Y-54988667D01*
X158758535Y-54983831D01*
X158763065Y-54493072D01*
X158767594Y-54002312D01*
X158946566Y-54002312D01*
X159125538Y-54002312D01*
X159125538Y-54283965D01*
G37*
%TO.C,U2*%
X139918000Y-99954500D02*
X139918000Y-100754500D01*
X139918000Y-99954500D02*
X139918000Y-99154500D01*
X143038000Y-99954500D02*
X143038000Y-101754500D01*
X143038000Y-99954500D02*
X143038000Y-99154500D01*
%TO.C,Q1*%
X136278000Y-92358000D02*
X138088000Y-92358000D01*
X138088000Y-92358000D02*
X138088000Y-93458000D01*
X144868000Y-92358000D02*
X144868000Y-97483000D01*
X146678000Y-92358000D02*
X144868000Y-92358000D01*
X136278000Y-90858000D02*
X136278000Y-92358000D01*
X146678000Y-90858000D02*
X146678000Y-92358000D01*
%TD*%
M02*
