M48
; DRILL file {KiCad 7.0.2} date Thu Mar 28 22:09:42 2024
; FORMAT={-:-/ absolute / inch / decimal}
; #@! TF.CreationDate,2024-03-28T22:09:42-05:00
; #@! TF.GenerationSoftware,Kicad,Pcbnew,7.0.2
; #@! TF.FileFunction,Plated,1,2,PTH
FMAT,2
INCH
; #@! TA.AperFunction,Plated,PTH,ViaDrill
T1C0.0157
; #@! TA.AperFunction,Plated,PTH,ComponentDrill
T2C0.0300
; #@! TA.AperFunction,Plated,PTH,ComponentDrill
T3C0.0354
; #@! TA.AperFunction,Plated,PTH,ComponentDrill
T4C0.0433
; #@! TA.AperFunction,Plated,PTH,ComponentDrill
T5C0.0787
; #@! TA.AperFunction,Plated,PTH,ComponentDrill
T6C0.3600
%
G90
G05
T1
X5.05Y-3.825
X5.05Y-3.9
X5.1Y-5.325
X5.3Y-3.825
X5.3Y-3.9
X5.3522Y-5.2876
X5.3522Y-5.3576
X5.42Y-3.265
X5.42Y-3.39
X5.42Y-3.515
X5.42Y-4.15
X5.57Y-3.265
X5.57Y-3.39
X5.57Y-3.515
X5.72Y-3.265
X5.72Y-3.39
X5.72Y-3.515
X5.875Y-3.825
X5.875Y-3.9
X6.125Y-3.825
X6.125Y-3.9
X6.4Y-3.625
X6.46Y-4.0
X6.475Y-3.7
X6.625Y-4.0
X6.65Y-3.825
X6.65Y-3.9
X6.65Y-4.575
X6.65Y-4.7
X6.65Y-4.85
X6.65Y-5.0
X6.65Y-5.125
X6.9Y-3.825
X6.9Y-3.9
X6.95Y-4.575
X6.95Y-4.7
X6.95Y-4.85
X6.95Y-5.0
X6.95Y-5.125
T2
X5.35Y-5.48
X6.45Y-5.48
T3
X5.45Y-5.48
X5.55Y-5.48
X6.55Y-5.48
X6.65Y-5.48
T6
X4.5Y-3.0
X4.5Y-5.0
X6.325Y-2.975
X7.5Y-3.0
X7.5Y-5.0
T4
G00X5.1593Y-4.2398
M15
G01X5.1593Y-4.4563
M16
G05
G00X5.1298Y-5.037
M15
G01X5.3463Y-5.037
M16
G05
G00X5.6416Y-5.037
M15
G01X5.8581Y-5.037
M16
G05
G00X5.8286Y-4.4563
M15
G01X5.8286Y-4.2398
M16
G05
G00X6.1714Y-4.7437
M15
G01X6.1714Y-4.9602
M16
G05
G00X6.3584Y-4.163
M15
G01X6.1419Y-4.163
M16
G05
G00X6.8702Y-4.163
M15
G01X6.6537Y-4.163
M16
G05
G00X6.8407Y-4.9602
M15
G01X6.8407Y-4.7437
M16
G05
T5
G00X5.8037Y-5.2726
M15
G01X5.8863Y-5.2726
M16
G05
G00X6.1137Y-5.2726
M15
G01X6.1963Y-5.2726
M16
G05
T0
M30
