%TF.GenerationSoftware,KiCad,Pcbnew,7.0.2*%
%TF.CreationDate,2024-02-27T12:18:34-06:00*%
%TF.ProjectId,Relay_board_hardware,52656c61-795f-4626-9f61-72645f686172,rev?*%
%TF.SameCoordinates,Original*%
%TF.FileFunction,Copper,L2,Bot*%
%TF.FilePolarity,Positive*%
%FSLAX46Y46*%
G04 Gerber Fmt 4.6, Leading zero omitted, Abs format (unit mm)*
G04 Created by KiCad (PCBNEW 7.0.2) date 2024-02-27 12:18:34*
%MOMM*%
%LPD*%
G01*
G04 APERTURE LIST*
G04 Aperture macros list*
%AMRoundRect*
0 Rectangle with rounded corners*
0 $1 Rounding radius*
0 $2 $3 $4 $5 $6 $7 $8 $9 X,Y pos of 4 corners*
0 Add a 4 corners polygon primitive as box body*
4,1,4,$2,$3,$4,$5,$6,$7,$8,$9,$2,$3,0*
0 Add four circle primitives for the rounded corners*
1,1,$1+$1,$2,$3*
1,1,$1+$1,$4,$5*
1,1,$1+$1,$6,$7*
1,1,$1+$1,$8,$9*
0 Add four rect primitives between the rounded corners*
20,1,$1+$1,$2,$3,$4,$5,0*
20,1,$1+$1,$4,$5,$6,$7,0*
20,1,$1+$1,$6,$7,$8,$9,0*
20,1,$1+$1,$8,$9,$2,$3,0*%
G04 Aperture macros list end*
%TA.AperFunction,EtchedComponent*%
%ADD10C,0.381000*%
%TD*%
%TA.AperFunction,ComponentPad*%
%ADD11O,5.100000X3.000000*%
%TD*%
%TA.AperFunction,ComponentPad*%
%ADD12R,25.400000X50.800000*%
%TD*%
%TA.AperFunction,ComponentPad*%
%ADD13RoundRect,0.775000X-3.525000X0.775000X-3.525000X-0.775000X3.525000X-0.775000X3.525000X0.775000X0*%
%TD*%
%TA.AperFunction,ComponentPad*%
%ADD14RoundRect,0.775000X0.775000X3.525000X-0.775000X3.525000X-0.775000X-3.525000X0.775000X-3.525000X0*%
%TD*%
%TA.AperFunction,ComponentPad*%
%ADD15RoundRect,0.775000X-0.775000X-3.525000X0.775000X-3.525000X0.775000X3.525000X-0.775000X3.525000X0*%
%TD*%
%TA.AperFunction,ComponentPad*%
%ADD16RoundRect,0.775000X3.525000X-0.775000X3.525000X0.775000X-3.525000X0.775000X-3.525000X-0.775000X0*%
%TD*%
%TA.AperFunction,ComponentPad*%
%ADD17R,25.400000X25.400000*%
%TD*%
%TA.AperFunction,ComponentPad*%
%ADD18C,2.000000*%
%TD*%
%TA.AperFunction,ComponentPad*%
%ADD19C,1.524000*%
%TD*%
%TA.AperFunction,SMDPad,CuDef*%
%ADD20RoundRect,0.250000X0.300000X-2.050000X0.300000X2.050000X-0.300000X2.050000X-0.300000X-2.050000X0*%
%TD*%
%TA.AperFunction,SMDPad,CuDef*%
%ADD21RoundRect,0.250000X2.375000X-2.025000X2.375000X2.025000X-2.375000X2.025000X-2.375000X-2.025000X0*%
%TD*%
%TA.AperFunction,SMDPad,CuDef*%
%ADD22RoundRect,0.250002X5.149998X-4.449998X5.149998X4.449998X-5.149998X4.449998X-5.149998X-4.449998X0*%
%TD*%
%TA.AperFunction,ViaPad*%
%ADD23C,0.800000*%
%TD*%
%TA.AperFunction,Conductor*%
%ADD24C,0.254000*%
%TD*%
%TA.AperFunction,Conductor*%
%ADD25C,0.250000*%
%TD*%
G04 APERTURE END LIST*
D10*
%TO.C,REF\u002A\u002A*%
X174752000Y-59436000D02*
X170053000Y-52451000D01*
X170952160Y-56842660D02*
X169753280Y-56042560D01*
X170952160Y-56842660D02*
X169651680Y-54041040D01*
X170550840Y-58841640D02*
X170652440Y-57942480D01*
X170550840Y-58841640D02*
X169951400Y-58143140D01*
X170550840Y-58841640D02*
X169351960Y-55742840D01*
X170152060Y-53842920D02*
X170952160Y-56842660D01*
X170053000Y-52451000D02*
X165354000Y-59436000D01*
X169753280Y-56042560D02*
X170550840Y-58841640D01*
X169351960Y-55742840D02*
X169951400Y-56141620D01*
X165354000Y-59436000D02*
X174752000Y-59436000D01*
X141127480Y-145787110D02*
X136428480Y-138802110D01*
X137327640Y-143193770D02*
X136128760Y-142393670D01*
X137327640Y-143193770D02*
X136027160Y-140392150D01*
X136926320Y-145192750D02*
X137027920Y-144293590D01*
X136926320Y-145192750D02*
X136326880Y-144494250D01*
X136926320Y-145192750D02*
X135727440Y-142093950D01*
X136527540Y-140194030D02*
X137327640Y-143193770D01*
X136428480Y-138802110D02*
X131729480Y-145787110D01*
X136128760Y-142393670D02*
X136926320Y-145192750D01*
X135727440Y-142093950D02*
X136326880Y-142492730D01*
X131729480Y-145787110D02*
X141127480Y-145787110D01*
X139192000Y-59436000D02*
X134493000Y-52451000D01*
X135392160Y-56842660D02*
X134193280Y-56042560D01*
X135392160Y-56842660D02*
X134091680Y-54041040D01*
X134990840Y-58841640D02*
X135092440Y-57942480D01*
X134990840Y-58841640D02*
X134391400Y-58143140D01*
X134990840Y-58841640D02*
X133791960Y-55742840D01*
X134592060Y-53842920D02*
X135392160Y-56842660D01*
X134493000Y-52451000D02*
X129794000Y-59436000D01*
X134193280Y-56042560D02*
X134990840Y-58841640D01*
X133791960Y-55742840D02*
X134391400Y-56141620D01*
X129794000Y-59436000D02*
X139192000Y-59436000D01*
%TD*%
D11*
%TO.P,Conn1,1,GND*%
%TO.N,/RLY_V-*%
X148463000Y-133922800D03*
%TO.P,Conn1,2,V+Log*%
%TO.N,/RLY_V+*%
X156337000Y-133922800D03*
%TD*%
D12*
%TO.P,V3,1,1*%
%TO.N,GNDPWR*%
X114300000Y-76200000D03*
%TD*%
D13*
%TO.P,K1,1*%
%TO.N,GND*%
X158754000Y-105740000D03*
%TO.P,K1,2*%
%TO.N,Net-(IC1-DRAIN)*%
X171754000Y-105740000D03*
D14*
%TO.P,K1,3*%
%TO.N,VBUS*%
X173754000Y-123240000D03*
D15*
%TO.P,K1,4*%
%TO.N,/RLY_V+*%
X156754000Y-123240000D03*
%TD*%
D12*
%TO.P,V5,1,1*%
%TO.N,GNDPWR*%
X114300000Y-127000000D03*
%TD*%
%TO.P,V2,1,1*%
%TO.N,VBUS*%
X190500000Y-76200000D03*
%TD*%
%TO.P,V4,1,1*%
%TO.N,VBUS*%
X190500000Y-127000000D03*
%TD*%
D14*
%TO.P,K2,4*%
%TO.N,/RLY_V-*%
X148046000Y-110440000D03*
D15*
%TO.P,K2,3*%
%TO.N,GNDPWR*%
X131046000Y-110440000D03*
D16*
%TO.P,K2,2*%
%TO.N,Net-(IC1-DRAIN)*%
X133046000Y-127940000D03*
%TO.P,K2,1*%
%TO.N,GND*%
X146046000Y-127940000D03*
%TD*%
D17*
%TO.P,V1,1,1*%
%TO.N,/PWRRES*%
X160655000Y-75565000D03*
%TD*%
D18*
%TO.P,C1,1*%
%TO.N,GNDPWR*%
X132080000Y-90250000D03*
%TO.P,C1,2*%
%TO.N,GND*%
X132080000Y-100250000D03*
%TD*%
D19*
%TO.P,Conn2,1*%
%TO.N,RLY_IN*%
X173990000Y-139700000D03*
%TO.P,Conn2,2*%
%TO.N,/V_SENSE_OUT*%
X171450000Y-139700000D03*
%TO.P,Conn2,3*%
%TO.N,+3V3*%
X168910000Y-139700000D03*
%TO.P,Conn2,4*%
%TO.N,DSCHG_IN*%
X166370000Y-139700000D03*
%TO.P,Conn2,5*%
%TO.N,GND*%
X163830000Y-139700000D03*
%TD*%
D20*
%TO.P,Q1,1,G*%
%TO.N,DSCHG_IN*%
X143510000Y-91470000D03*
D21*
%TO.P,Q1,2,D*%
%TO.N,/PWRRES*%
X138195000Y-84745000D03*
X143745000Y-84745000D03*
D22*
X140970000Y-82320000D03*
D21*
X138195000Y-79895000D03*
X143745000Y-79895000D03*
D20*
%TO.P,Q1,3,S*%
%TO.N,GNDPWR*%
X138430000Y-91470000D03*
%TD*%
D23*
%TO.N,GNDPWR*%
X137160000Y-93345000D03*
X133985000Y-95885000D03*
X133985000Y-90805000D03*
X137160000Y-90805000D03*
X133985000Y-93345000D03*
X128270000Y-113030000D03*
X137160000Y-95885000D03*
X128270000Y-107950000D03*
X128270000Y-110490000D03*
%TO.N,GND*%
X167640000Y-118745000D03*
X161925000Y-97155000D03*
X129540000Y-66040000D03*
X172720000Y-113665000D03*
X129540000Y-77470000D03*
X170815000Y-137160000D03*
X163195000Y-127635000D03*
X167640000Y-127635000D03*
X146685000Y-102870000D03*
X175260000Y-52070000D03*
X158115000Y-113665000D03*
X163195000Y-118745000D03*
X170815000Y-95250000D03*
X168910000Y-113665000D03*
X172720000Y-109855000D03*
X129540000Y-52070000D03*
X175260000Y-77470000D03*
X175895000Y-109855000D03*
X175895000Y-113665000D03*
X158115000Y-109855000D03*
X168910000Y-109855000D03*
X146685000Y-99695000D03*
X175260000Y-66040000D03*
X161925000Y-92075000D03*
%TO.N,Net-(IC1-DRAIN)*%
X170180000Y-100965000D03*
X141605000Y-100965000D03*
%TO.N,VBUS*%
X176530000Y-123190000D03*
X176530000Y-127000000D03*
X176530000Y-119380000D03*
%TO.N,Net-(U1A-+)*%
X152400000Y-95250000D03*
X163195000Y-95250000D03*
%TO.N,/PWRRES*%
X140970000Y-78740000D03*
X140970000Y-85090000D03*
X144780000Y-81915000D03*
X137160000Y-81915000D03*
X140970000Y-82550000D03*
X137160000Y-85090000D03*
X144780000Y-85090000D03*
X144780000Y-78740000D03*
X137160000Y-78740000D03*
%TO.N,DSCHG_IN*%
X157000000Y-111760000D03*
X163195000Y-111760000D03*
X144145000Y-95885000D03*
%TD*%
D24*
%TO.N,Net-(IC1-DRAIN)*%
X170180000Y-100965000D02*
X141605000Y-100965000D01*
%TO.N,Net-(U1A-+)*%
X163195000Y-95250000D02*
X152400000Y-95250000D01*
D25*
%TO.N,DSCHG_IN*%
X143510000Y-95250000D02*
X144145000Y-95885000D01*
X143510000Y-91470000D02*
X143510000Y-95250000D01*
D24*
X163195000Y-111760000D02*
X157000000Y-111760000D01*
%TD*%
%TA.AperFunction,Conductor*%
%TO.N,VBUS*%
G36*
X177800000Y-128270000D02*
G01*
X170180000Y-128270000D01*
X169034000Y-128270000D01*
X168966961Y-128250315D01*
X168921206Y-128197511D01*
X168910000Y-128146000D01*
X168910000Y-118234000D01*
X168929685Y-118166961D01*
X168982489Y-118121206D01*
X169034000Y-118110000D01*
X177800000Y-118110000D01*
X177800000Y-128270000D01*
G37*
%TD.AperFunction*%
%TD*%
%TA.AperFunction,Conductor*%
%TO.N,GND*%
G36*
X176473039Y-50820185D02*
G01*
X176518794Y-50872989D01*
X176530000Y-50924500D01*
X176530000Y-103742359D01*
X176510315Y-103809398D01*
X176457511Y-103855153D01*
X176388353Y-103865097D01*
X176325659Y-103836812D01*
X176252079Y-103774226D01*
X176180626Y-103713448D01*
X175968188Y-103585024D01*
X175968186Y-103585023D01*
X175737898Y-103492340D01*
X175495725Y-103437799D01*
X175352032Y-103427654D01*
X175352028Y-103427653D01*
X175349849Y-103427500D01*
X175347661Y-103427500D01*
X168160340Y-103427500D01*
X168160311Y-103427500D01*
X168158152Y-103427501D01*
X168155974Y-103427654D01*
X168155967Y-103427655D01*
X168012275Y-103437799D01*
X167770101Y-103492340D01*
X167539813Y-103585023D01*
X167327374Y-103713448D01*
X167138285Y-103874285D01*
X166977448Y-104063374D01*
X166849023Y-104275813D01*
X166756340Y-104506101D01*
X166701799Y-104748274D01*
X166695241Y-104841169D01*
X166691500Y-104894151D01*
X166691500Y-104896337D01*
X166691500Y-104896338D01*
X166691500Y-106583659D01*
X166691500Y-106583687D01*
X166691501Y-106585848D01*
X166691654Y-106588026D01*
X166691655Y-106588032D01*
X166701799Y-106731724D01*
X166756340Y-106973898D01*
X166849023Y-107204186D01*
X166849024Y-107204188D01*
X166977448Y-107416626D01*
X167051374Y-107503536D01*
X167138285Y-107605714D01*
X167215694Y-107671557D01*
X167327374Y-107766552D01*
X167539812Y-107894976D01*
X167770101Y-107987659D01*
X168012275Y-108042201D01*
X168158151Y-108052500D01*
X175349848Y-108052499D01*
X175495725Y-108042201D01*
X175737899Y-107987659D01*
X175968188Y-107894976D01*
X176180626Y-107766552D01*
X176325659Y-107643186D01*
X176389477Y-107614745D01*
X176458542Y-107625321D01*
X176510925Y-107671557D01*
X176530000Y-107737639D01*
X176530000Y-117218500D01*
X176510315Y-117285539D01*
X176457511Y-117331294D01*
X176406000Y-117342500D01*
X169034000Y-117342500D01*
X169030706Y-117342854D01*
X169030690Y-117342855D01*
X168874160Y-117359685D01*
X168874157Y-117359685D01*
X168870850Y-117360041D01*
X168867615Y-117360744D01*
X168867601Y-117360747D01*
X168819339Y-117371247D01*
X168797701Y-117376344D01*
X168797688Y-117376347D01*
X168793664Y-117377296D01*
X168789804Y-117378770D01*
X168789790Y-117378775D01*
X168627198Y-117440893D01*
X168507955Y-117522061D01*
X168479883Y-117541169D01*
X168477165Y-117543524D01*
X168477160Y-117543528D01*
X168428317Y-117585850D01*
X168428290Y-117585874D01*
X168427079Y-117586924D01*
X168425921Y-117588039D01*
X168425911Y-117588049D01*
X168368652Y-117643226D01*
X168262991Y-117786729D01*
X168194691Y-117947392D01*
X168194680Y-117947420D01*
X168193276Y-117950725D01*
X168192264Y-117954169D01*
X168192259Y-117954185D01*
X168173591Y-118017764D01*
X168173162Y-118019342D01*
X168163190Y-118056985D01*
X168163188Y-118057001D01*
X168163188Y-118057002D01*
X168142500Y-118234000D01*
X168142500Y-128146000D01*
X168142854Y-128149294D01*
X168142855Y-128149309D01*
X168155832Y-128270000D01*
X168160041Y-128309150D01*
X168160745Y-128312387D01*
X168160747Y-128312398D01*
X168171247Y-128360661D01*
X168176344Y-128382298D01*
X168176346Y-128382307D01*
X168177296Y-128386336D01*
X168178772Y-128390199D01*
X168178775Y-128390209D01*
X168240893Y-128552801D01*
X168282859Y-128614453D01*
X168341169Y-128700117D01*
X168386924Y-128752921D01*
X168443226Y-128811348D01*
X168586726Y-128917007D01*
X168621348Y-128931725D01*
X168747392Y-128985308D01*
X168747405Y-128985312D01*
X168750725Y-128986724D01*
X168754184Y-128987739D01*
X168754185Y-128987740D01*
X168817764Y-129006409D01*
X168819342Y-129006838D01*
X168856985Y-129016809D01*
X168856995Y-129016810D01*
X168857002Y-129016812D01*
X169034000Y-129037500D01*
X169037599Y-129037500D01*
X176406000Y-129037500D01*
X176473039Y-129057185D01*
X176518794Y-129109989D01*
X176530000Y-129161500D01*
X176530000Y-152275500D01*
X176510315Y-152342539D01*
X176457511Y-152388294D01*
X176406000Y-152399500D01*
X128394000Y-152399500D01*
X128326961Y-152379815D01*
X128281206Y-152327011D01*
X128270000Y-152275500D01*
X128270000Y-145802307D01*
X130771684Y-145802307D01*
X130772421Y-145808569D01*
X130773112Y-145829331D01*
X130772793Y-145835624D01*
X130784630Y-145912895D01*
X130785209Y-145917170D01*
X130794349Y-145994797D01*
X130796332Y-146000783D01*
X130801189Y-146020985D01*
X130802143Y-146027215D01*
X130829287Y-146100505D01*
X130830715Y-146104576D01*
X130855297Y-146178783D01*
X130858446Y-146184249D01*
X130867269Y-146203057D01*
X130869460Y-146208970D01*
X130869461Y-146208971D01*
X130910796Y-146275288D01*
X130913014Y-146278988D01*
X130952039Y-146346740D01*
X130956215Y-146351452D01*
X130968648Y-146368106D01*
X130971980Y-146373451D01*
X130971982Y-146373453D01*
X130971984Y-146373456D01*
X131025854Y-146430127D01*
X131028753Y-146433286D01*
X131080603Y-146491781D01*
X131085648Y-146495560D01*
X131101179Y-146509370D01*
X131105519Y-146513935D01*
X131169653Y-146558573D01*
X131173153Y-146561100D01*
X131213756Y-146591511D01*
X131235737Y-146607975D01*
X131241431Y-146610657D01*
X131259429Y-146621059D01*
X131264602Y-146624660D01*
X131336433Y-146655485D01*
X131340319Y-146657233D01*
X131411082Y-146690562D01*
X131417208Y-146692044D01*
X131436929Y-146698610D01*
X131442716Y-146701094D01*
X131519268Y-146716825D01*
X131523470Y-146717766D01*
X131563895Y-146727550D01*
X131599463Y-146736160D01*
X131605758Y-146736379D01*
X131626397Y-146738841D01*
X131632569Y-146740110D01*
X131710721Y-146740110D01*
X131715037Y-146740185D01*
X131793166Y-146742906D01*
X131793166Y-146742905D01*
X131793168Y-146742906D01*
X131799382Y-146741852D01*
X131820100Y-146740110D01*
X141091624Y-146740110D01*
X141099867Y-146740384D01*
X141104487Y-146740691D01*
X141160815Y-146744445D01*
X141238280Y-146733832D01*
X141242557Y-146733322D01*
X141320307Y-146725416D01*
X141326313Y-146723531D01*
X141346598Y-146718993D01*
X141352843Y-146718138D01*
X141426641Y-146692128D01*
X141430621Y-146690803D01*
X141505239Y-146667393D01*
X141510739Y-146664339D01*
X141529701Y-146655808D01*
X141535645Y-146653714D01*
X141602678Y-146613392D01*
X141606343Y-146611274D01*
X141674706Y-146573332D01*
X141679478Y-146569234D01*
X141696344Y-146557055D01*
X141697432Y-146556400D01*
X141701736Y-146553812D01*
X141759297Y-146500806D01*
X141762411Y-146498037D01*
X141821770Y-146447082D01*
X141825620Y-146442107D01*
X141839684Y-146426785D01*
X141844317Y-146422521D01*
X141890012Y-146359038D01*
X141892547Y-146355643D01*
X141940409Y-146293813D01*
X141943183Y-146288155D01*
X141953874Y-146270319D01*
X141957550Y-146265215D01*
X141989525Y-146193848D01*
X141991315Y-146190031D01*
X142025767Y-146119799D01*
X142027346Y-146113699D01*
X142034222Y-146094089D01*
X142036801Y-146088336D01*
X142053751Y-146012007D01*
X142054747Y-146007865D01*
X142074349Y-145932165D01*
X142074668Y-145925875D01*
X142077458Y-145905265D01*
X142078823Y-145899125D01*
X142080062Y-145820967D01*
X142080203Y-145816713D01*
X142084166Y-145738592D01*
X142084165Y-145738591D01*
X142084166Y-145738588D01*
X142083213Y-145732368D01*
X142081798Y-145711612D01*
X142081898Y-145705328D01*
X142081897Y-145705327D01*
X142067374Y-145628495D01*
X142066653Y-145624277D01*
X142064342Y-145609194D01*
X142054816Y-145547006D01*
X142052626Y-145541095D01*
X142047066Y-145521063D01*
X142045898Y-145514880D01*
X142016203Y-145442538D01*
X142014655Y-145438572D01*
X141987500Y-145365250D01*
X141984171Y-145359909D01*
X141974689Y-145341401D01*
X141972299Y-145335577D01*
X141928648Y-145270691D01*
X141926340Y-145267128D01*
X141884976Y-145200764D01*
X141884975Y-145200763D01*
X141884974Y-145200761D01*
X141880634Y-145196195D01*
X141867624Y-145179979D01*
X138181091Y-139699999D01*
X164840786Y-139699999D01*
X164859613Y-139939223D01*
X164915630Y-140172553D01*
X164973538Y-140312355D01*
X165007460Y-140394249D01*
X165007461Y-140394250D01*
X165132841Y-140598851D01*
X165288681Y-140781318D01*
X165471148Y-140937158D01*
X165471150Y-140937159D01*
X165471151Y-140937160D01*
X165675751Y-141062540D01*
X165839538Y-141130382D01*
X165897446Y-141154369D01*
X165971161Y-141172066D01*
X166130778Y-141210387D01*
X166370000Y-141229214D01*
X166609222Y-141210387D01*
X166842553Y-141154369D01*
X167064249Y-141062540D01*
X167268849Y-140937160D01*
X167451318Y-140781318D01*
X167545713Y-140670794D01*
X167604214Y-140632605D01*
X167674082Y-140632105D01*
X167733129Y-140669458D01*
X167734289Y-140670798D01*
X167828681Y-140781318D01*
X168011148Y-140937158D01*
X168011150Y-140937159D01*
X168011151Y-140937160D01*
X168215751Y-141062540D01*
X168379538Y-141130382D01*
X168437446Y-141154369D01*
X168511161Y-141172066D01*
X168670778Y-141210387D01*
X168910000Y-141229214D01*
X169149222Y-141210387D01*
X169382553Y-141154369D01*
X169604249Y-141062540D01*
X169808849Y-140937160D01*
X169991318Y-140781318D01*
X170085711Y-140670796D01*
X170144216Y-140632605D01*
X170214084Y-140632105D01*
X170273130Y-140669459D01*
X170274208Y-140670702D01*
X170368682Y-140781318D01*
X170368685Y-140781321D01*
X170551148Y-140937158D01*
X170551150Y-140937159D01*
X170551151Y-140937160D01*
X170755751Y-141062540D01*
X170919538Y-141130382D01*
X170977446Y-141154369D01*
X171051161Y-141172066D01*
X171210778Y-141210387D01*
X171450000Y-141229214D01*
X171689222Y-141210387D01*
X171922553Y-141154369D01*
X172144249Y-141062540D01*
X172348849Y-140937160D01*
X172531318Y-140781318D01*
X172625711Y-140670796D01*
X172684216Y-140632605D01*
X172754084Y-140632105D01*
X172813130Y-140669459D01*
X172814208Y-140670702D01*
X172908682Y-140781318D01*
X172908685Y-140781321D01*
X173091148Y-140937158D01*
X173091150Y-140937159D01*
X173091151Y-140937160D01*
X173295751Y-141062540D01*
X173459538Y-141130382D01*
X173517446Y-141154369D01*
X173591161Y-141172066D01*
X173750778Y-141210387D01*
X173990000Y-141229214D01*
X174229222Y-141210387D01*
X174462553Y-141154369D01*
X174684249Y-141062540D01*
X174888849Y-140937160D01*
X175071318Y-140781318D01*
X175227160Y-140598849D01*
X175352540Y-140394249D01*
X175444369Y-140172553D01*
X175500387Y-139939222D01*
X175519214Y-139700000D01*
X175500387Y-139460778D01*
X175444369Y-139227447D01*
X175352540Y-139005751D01*
X175227160Y-138801151D01*
X175227159Y-138801150D01*
X175227158Y-138801148D01*
X175071318Y-138618681D01*
X174888851Y-138462841D01*
X174813524Y-138416681D01*
X174684249Y-138337460D01*
X174579216Y-138293954D01*
X174462553Y-138245630D01*
X174229223Y-138189613D01*
X173990000Y-138170786D01*
X173750776Y-138189613D01*
X173517446Y-138245630D01*
X173295749Y-138337461D01*
X173091148Y-138462841D01*
X172908681Y-138618681D01*
X172814290Y-138729201D01*
X172755784Y-138767395D01*
X172685916Y-138767894D01*
X172626869Y-138730540D01*
X172625710Y-138729201D01*
X172531318Y-138618681D01*
X172348851Y-138462841D01*
X172273524Y-138416681D01*
X172144249Y-138337460D01*
X172039216Y-138293954D01*
X171922553Y-138245630D01*
X171689223Y-138189613D01*
X171555399Y-138179081D01*
X171450000Y-138170786D01*
X171449999Y-138170786D01*
X171210776Y-138189613D01*
X170977446Y-138245630D01*
X170755749Y-138337461D01*
X170551148Y-138462841D01*
X170368681Y-138618681D01*
X170274290Y-138729201D01*
X170215784Y-138767395D01*
X170145916Y-138767894D01*
X170086869Y-138730540D01*
X170085710Y-138729201D01*
X169991318Y-138618681D01*
X169808851Y-138462841D01*
X169733524Y-138416681D01*
X169604249Y-138337460D01*
X169499216Y-138293954D01*
X169382553Y-138245630D01*
X169149223Y-138189613D01*
X169015399Y-138179081D01*
X168910000Y-138170786D01*
X168909999Y-138170786D01*
X168670776Y-138189613D01*
X168437446Y-138245630D01*
X168215749Y-138337461D01*
X168011148Y-138462841D01*
X167828684Y-138618679D01*
X167734289Y-138729202D01*
X167675782Y-138767395D01*
X167605914Y-138767893D01*
X167546868Y-138730539D01*
X167545801Y-138729308D01*
X167451318Y-138618682D01*
X167451315Y-138618680D01*
X167451314Y-138618678D01*
X167268851Y-138462841D01*
X167193524Y-138416681D01*
X167064249Y-138337460D01*
X166959216Y-138293954D01*
X166842553Y-138245630D01*
X166609223Y-138189613D01*
X166370000Y-138170786D01*
X166130776Y-138189613D01*
X165897446Y-138245630D01*
X165675749Y-138337461D01*
X165471148Y-138462841D01*
X165288681Y-138618681D01*
X165132841Y-138801148D01*
X165007461Y-139005749D01*
X164915630Y-139227446D01*
X164859613Y-139460776D01*
X164840786Y-139699999D01*
X138181091Y-139699999D01*
X137240134Y-138301279D01*
X137235569Y-138293954D01*
X137207736Y-138245631D01*
X137205922Y-138242481D01*
X137152967Y-138182740D01*
X137150412Y-138179763D01*
X137099386Y-138118381D01*
X137099383Y-138118379D01*
X137099382Y-138118377D01*
X137095770Y-138115488D01*
X137080426Y-138100902D01*
X137077355Y-138097438D01*
X137077351Y-138097435D01*
X137013433Y-138049560D01*
X137010323Y-138047152D01*
X136948013Y-137997320D01*
X136943890Y-137995216D01*
X136925937Y-137984026D01*
X136922225Y-137981246D01*
X136849992Y-137947225D01*
X136846459Y-137945492D01*
X136842295Y-137943367D01*
X136826891Y-137935505D01*
X136775377Y-137909213D01*
X136770917Y-137907983D01*
X136751067Y-137900632D01*
X136746877Y-137898658D01*
X136669308Y-137879882D01*
X136665501Y-137878896D01*
X136588537Y-137857660D01*
X136583912Y-137857352D01*
X136562994Y-137854148D01*
X136558498Y-137853060D01*
X136478736Y-137850281D01*
X136474812Y-137850082D01*
X136395142Y-137844774D01*
X136390544Y-137845404D01*
X136369427Y-137846474D01*
X136364796Y-137846313D01*
X136286076Y-137859653D01*
X136282191Y-137860248D01*
X136203118Y-137871081D01*
X136198741Y-137872624D01*
X136178263Y-137877925D01*
X136177627Y-137878033D01*
X136173692Y-137878700D01*
X136099278Y-137907610D01*
X136095592Y-137908975D01*
X136020314Y-137935505D01*
X136016340Y-137937896D01*
X135997345Y-137947213D01*
X135993030Y-137948889D01*
X135925969Y-137992180D01*
X135922633Y-137994260D01*
X135854219Y-138035410D01*
X135850802Y-138038557D01*
X135834085Y-138051497D01*
X135830191Y-138054010D01*
X135773245Y-138109887D01*
X135770397Y-138112595D01*
X135711640Y-138166700D01*
X135708930Y-138170466D01*
X135695156Y-138186511D01*
X135691848Y-138189757D01*
X135647287Y-138255994D01*
X135645043Y-138259218D01*
X135598407Y-138324008D01*
X135596511Y-138328239D01*
X135586244Y-138346734D01*
X130958761Y-145225427D01*
X130953932Y-145232113D01*
X130916550Y-145280407D01*
X130882131Y-145350575D01*
X130880165Y-145354413D01*
X130843315Y-145423360D01*
X130841525Y-145429401D01*
X130833971Y-145448756D01*
X130831193Y-145454418D01*
X130811602Y-145530081D01*
X130810449Y-145534235D01*
X130788231Y-145609194D01*
X130787693Y-145615476D01*
X130784191Y-145635951D01*
X130782611Y-145642053D01*
X130778650Y-145720138D01*
X130778356Y-145724441D01*
X130771684Y-145802307D01*
X128270000Y-145802307D01*
X128270000Y-133998571D01*
X145146702Y-133998571D01*
X145147116Y-134002692D01*
X145147117Y-134002703D01*
X145176607Y-134295829D01*
X145177023Y-134299962D01*
X145177983Y-134303990D01*
X145177985Y-134304002D01*
X145246282Y-134590588D01*
X145247244Y-134594624D01*
X145248732Y-134598488D01*
X145248735Y-134598497D01*
X145354618Y-134873416D01*
X145356113Y-134877297D01*
X145358106Y-134880934D01*
X145358108Y-134880938D01*
X145499694Y-135139299D01*
X145499700Y-135139308D01*
X145501688Y-135142936D01*
X145504144Y-135146269D01*
X145504147Y-135146274D01*
X145678909Y-135383462D01*
X145681370Y-135386802D01*
X145891953Y-135604544D01*
X146129679Y-135792274D01*
X146390306Y-135946644D01*
X146669183Y-136064898D01*
X146961333Y-136144926D01*
X147261543Y-136185300D01*
X147265684Y-136185300D01*
X149586567Y-136185300D01*
X149588649Y-136185300D01*
X149815237Y-136170132D01*
X150112080Y-136109796D01*
X150398233Y-136010433D01*
X150668588Y-135873816D01*
X150918323Y-135702383D01*
X151142979Y-135499193D01*
X151338548Y-135267873D01*
X151501540Y-135012550D01*
X151629047Y-134737780D01*
X151718793Y-134448467D01*
X151769176Y-134149773D01*
X151774231Y-133998571D01*
X153020702Y-133998571D01*
X153021116Y-134002692D01*
X153021117Y-134002703D01*
X153050607Y-134295829D01*
X153051023Y-134299962D01*
X153051983Y-134303990D01*
X153051985Y-134304002D01*
X153120282Y-134590588D01*
X153121244Y-134594624D01*
X153122732Y-134598488D01*
X153122735Y-134598497D01*
X153228618Y-134873416D01*
X153230113Y-134877297D01*
X153232106Y-134880934D01*
X153232108Y-134880938D01*
X153373694Y-135139299D01*
X153373700Y-135139308D01*
X153375688Y-135142936D01*
X153378144Y-135146269D01*
X153378147Y-135146274D01*
X153552909Y-135383462D01*
X153555370Y-135386802D01*
X153765953Y-135604544D01*
X154003679Y-135792274D01*
X154264306Y-135946644D01*
X154543183Y-136064898D01*
X154835333Y-136144926D01*
X155135543Y-136185300D01*
X155139684Y-136185300D01*
X157460567Y-136185300D01*
X157462649Y-136185300D01*
X157689237Y-136170132D01*
X157986080Y-136109796D01*
X158272233Y-136010433D01*
X158542588Y-135873816D01*
X158792323Y-135702383D01*
X159016979Y-135499193D01*
X159212548Y-135267873D01*
X159375540Y-135012550D01*
X159503047Y-134737780D01*
X159592793Y-134448467D01*
X159643176Y-134149773D01*
X159653298Y-133847029D01*
X159622977Y-133545638D01*
X159552756Y-133250976D01*
X159443887Y-132968303D01*
X159369766Y-132833050D01*
X159300305Y-132706300D01*
X159300302Y-132706295D01*
X159298312Y-132702664D01*
X159118630Y-132458798D01*
X158908047Y-132241056D01*
X158773193Y-132134563D01*
X158673571Y-132055892D01*
X158673566Y-132055888D01*
X158670321Y-132053326D01*
X158666765Y-132051219D01*
X158666761Y-132051217D01*
X158413256Y-131901066D01*
X158409694Y-131898956D01*
X158130817Y-131780702D01*
X158126830Y-131779610D01*
X158126822Y-131779607D01*
X157842674Y-131701771D01*
X157842665Y-131701769D01*
X157838667Y-131700674D01*
X157834560Y-131700121D01*
X157834552Y-131700120D01*
X157542558Y-131660851D01*
X157542550Y-131660850D01*
X157538457Y-131660300D01*
X155211351Y-131660300D01*
X155209277Y-131660438D01*
X155209272Y-131660439D01*
X154988895Y-131675191D01*
X154988889Y-131675191D01*
X154984763Y-131675468D01*
X154980706Y-131676292D01*
X154980703Y-131676293D01*
X154691988Y-131734977D01*
X154691985Y-131734977D01*
X154687920Y-131735804D01*
X154684006Y-131737163D01*
X154683999Y-131737165D01*
X154405679Y-131833808D01*
X154405671Y-131833811D01*
X154401767Y-131835167D01*
X154398070Y-131837034D01*
X154398068Y-131837036D01*
X154135113Y-131969913D01*
X154135103Y-131969918D01*
X154131412Y-131971784D01*
X154128001Y-131974125D01*
X154127995Y-131974129D01*
X153885094Y-132140870D01*
X153885080Y-132140880D01*
X153881677Y-132143217D01*
X153878612Y-132145988D01*
X153878602Y-132145997D01*
X153660095Y-132343626D01*
X153660089Y-132343631D01*
X153657021Y-132346407D01*
X153654352Y-132349562D01*
X153654345Y-132349571D01*
X153464127Y-132574562D01*
X153464121Y-132574569D01*
X153461452Y-132577727D01*
X153459229Y-132581208D01*
X153459221Y-132581220D01*
X153300686Y-132829562D01*
X153300682Y-132829569D01*
X153298460Y-132833050D01*
X153296720Y-132836799D01*
X153296717Y-132836805D01*
X153172698Y-133104058D01*
X153172694Y-133104067D01*
X153170953Y-133107820D01*
X153169727Y-133111770D01*
X153169725Y-133111777D01*
X153082434Y-133393177D01*
X153081207Y-133397133D01*
X153080518Y-133401211D01*
X153080518Y-133401216D01*
X153055461Y-133549770D01*
X153030824Y-133695827D01*
X153030686Y-133699950D01*
X153030685Y-133699962D01*
X153020840Y-133994423D01*
X153020840Y-133994433D01*
X153020702Y-133998571D01*
X151774231Y-133998571D01*
X151779298Y-133847029D01*
X151748977Y-133545638D01*
X151678756Y-133250976D01*
X151569887Y-132968303D01*
X151495766Y-132833050D01*
X151426305Y-132706300D01*
X151426302Y-132706295D01*
X151424312Y-132702664D01*
X151244630Y-132458798D01*
X151034047Y-132241056D01*
X150899193Y-132134563D01*
X150799571Y-132055892D01*
X150799566Y-132055888D01*
X150796321Y-132053326D01*
X150792765Y-132051219D01*
X150792761Y-132051217D01*
X150539256Y-131901066D01*
X150535694Y-131898956D01*
X150256817Y-131780702D01*
X150252830Y-131779610D01*
X150252822Y-131779607D01*
X149968674Y-131701771D01*
X149968665Y-131701769D01*
X149964667Y-131700674D01*
X149960560Y-131700121D01*
X149960552Y-131700120D01*
X149668558Y-131660851D01*
X149668550Y-131660850D01*
X149664457Y-131660300D01*
X147337351Y-131660300D01*
X147335277Y-131660438D01*
X147335272Y-131660439D01*
X147114895Y-131675191D01*
X147114889Y-131675191D01*
X147110763Y-131675468D01*
X147106706Y-131676292D01*
X147106703Y-131676293D01*
X146817988Y-131734977D01*
X146817985Y-131734977D01*
X146813920Y-131735804D01*
X146810006Y-131737163D01*
X146809999Y-131737165D01*
X146531679Y-131833808D01*
X146531671Y-131833811D01*
X146527767Y-131835167D01*
X146524070Y-131837034D01*
X146524068Y-131837036D01*
X146261113Y-131969913D01*
X146261103Y-131969918D01*
X146257412Y-131971784D01*
X146254001Y-131974125D01*
X146253995Y-131974129D01*
X146011094Y-132140870D01*
X146011080Y-132140880D01*
X146007677Y-132143217D01*
X146004612Y-132145988D01*
X146004602Y-132145997D01*
X145786095Y-132343626D01*
X145786089Y-132343631D01*
X145783021Y-132346407D01*
X145780352Y-132349562D01*
X145780345Y-132349571D01*
X145590127Y-132574562D01*
X145590121Y-132574569D01*
X145587452Y-132577727D01*
X145585229Y-132581208D01*
X145585221Y-132581220D01*
X145426686Y-132829562D01*
X145426682Y-132829569D01*
X145424460Y-132833050D01*
X145422720Y-132836799D01*
X145422717Y-132836805D01*
X145298698Y-133104058D01*
X145298694Y-133104067D01*
X145296953Y-133107820D01*
X145295727Y-133111770D01*
X145295725Y-133111777D01*
X145208434Y-133393177D01*
X145207207Y-133397133D01*
X145206518Y-133401211D01*
X145206518Y-133401216D01*
X145181461Y-133549770D01*
X145156824Y-133695827D01*
X145156686Y-133699950D01*
X145156685Y-133699962D01*
X145146840Y-133994423D01*
X145146840Y-133994433D01*
X145146702Y-133998571D01*
X128270000Y-133998571D01*
X128270000Y-129937639D01*
X128289685Y-129870600D01*
X128342489Y-129824845D01*
X128411647Y-129814901D01*
X128474341Y-129843187D01*
X128585382Y-129937639D01*
X128619374Y-129966552D01*
X128831812Y-130094976D01*
X129062101Y-130187659D01*
X129304275Y-130242201D01*
X129450151Y-130252500D01*
X136641848Y-130252499D01*
X136787725Y-130242201D01*
X137029899Y-130187659D01*
X137260188Y-130094976D01*
X137472626Y-129966552D01*
X137661714Y-129805714D01*
X137822552Y-129616626D01*
X137950976Y-129404188D01*
X138043659Y-129173899D01*
X138098201Y-128931725D01*
X138108500Y-128785849D01*
X138108499Y-127094152D01*
X138098201Y-126948275D01*
X138072394Y-126833687D01*
X154441500Y-126833687D01*
X154441501Y-126835848D01*
X154441654Y-126838026D01*
X154441655Y-126838032D01*
X154451799Y-126981724D01*
X154506340Y-127223898D01*
X154599023Y-127454186D01*
X154599024Y-127454188D01*
X154727448Y-127666626D01*
X154801374Y-127753536D01*
X154888285Y-127855714D01*
X154975196Y-127929640D01*
X155077374Y-128016552D01*
X155289812Y-128144976D01*
X155520101Y-128237659D01*
X155762275Y-128292201D01*
X155908151Y-128302500D01*
X157599848Y-128302499D01*
X157745725Y-128292201D01*
X157987899Y-128237659D01*
X158218188Y-128144976D01*
X158430626Y-128016552D01*
X158619714Y-127855714D01*
X158780552Y-127666626D01*
X158908976Y-127454188D01*
X159001659Y-127223899D01*
X159056201Y-126981725D01*
X159066500Y-126835849D01*
X159066499Y-119644152D01*
X159056201Y-119498275D01*
X159001659Y-119256101D01*
X158908976Y-119025812D01*
X158780552Y-118813374D01*
X158693640Y-118711196D01*
X158619714Y-118624285D01*
X158517536Y-118537374D01*
X158430626Y-118463448D01*
X158218188Y-118335024D01*
X158218186Y-118335023D01*
X157987898Y-118242340D01*
X157745725Y-118187799D01*
X157602032Y-118177654D01*
X157602028Y-118177653D01*
X157599849Y-118177500D01*
X157597661Y-118177500D01*
X155910340Y-118177500D01*
X155910311Y-118177500D01*
X155908152Y-118177501D01*
X155905974Y-118177654D01*
X155905967Y-118177655D01*
X155762275Y-118187799D01*
X155520101Y-118242340D01*
X155289813Y-118335023D01*
X155077374Y-118463448D01*
X154888285Y-118624285D01*
X154727448Y-118813374D01*
X154599023Y-119025813D01*
X154506340Y-119256101D01*
X154451799Y-119498274D01*
X154451799Y-119498275D01*
X154441500Y-119644151D01*
X154441500Y-119646337D01*
X154441500Y-119646338D01*
X154441500Y-126833659D01*
X154441500Y-126833687D01*
X138072394Y-126833687D01*
X138043659Y-126706101D01*
X137950976Y-126475812D01*
X137822552Y-126263374D01*
X137735640Y-126161196D01*
X137661714Y-126074285D01*
X137559536Y-125987374D01*
X137472626Y-125913448D01*
X137260188Y-125785024D01*
X137260186Y-125785023D01*
X137029898Y-125692340D01*
X136787725Y-125637799D01*
X136644032Y-125627654D01*
X136644028Y-125627653D01*
X136641849Y-125627500D01*
X136639661Y-125627500D01*
X129452340Y-125627500D01*
X129452311Y-125627500D01*
X129450152Y-125627501D01*
X129447974Y-125627654D01*
X129447967Y-125627655D01*
X129304275Y-125637799D01*
X129062101Y-125692340D01*
X128831813Y-125785023D01*
X128619374Y-125913448D01*
X128474341Y-126036812D01*
X128410522Y-126065253D01*
X128341457Y-126054677D01*
X128289075Y-126008440D01*
X128270000Y-125942359D01*
X128270000Y-116461500D01*
X128289685Y-116394461D01*
X128342489Y-116348706D01*
X128394000Y-116337500D01*
X134492676Y-116337500D01*
X134496000Y-116337500D01*
X134659150Y-116319959D01*
X134710661Y-116308753D01*
X134736336Y-116302704D01*
X134833023Y-116265764D01*
X134902801Y-116239106D01*
X134902801Y-116239105D01*
X134902803Y-116239105D01*
X135050117Y-116138831D01*
X135102921Y-116093076D01*
X135161348Y-116036774D01*
X135267007Y-115893274D01*
X135336724Y-115729275D01*
X135356409Y-115662236D01*
X135356838Y-115660658D01*
X135366809Y-115623014D01*
X135366809Y-115623005D01*
X135366812Y-115622998D01*
X135387500Y-115446000D01*
X135387500Y-114033687D01*
X145733500Y-114033687D01*
X145733501Y-114035848D01*
X145733654Y-114038026D01*
X145733655Y-114038032D01*
X145743799Y-114181724D01*
X145798340Y-114423898D01*
X145891023Y-114654186D01*
X145891024Y-114654188D01*
X146019448Y-114866626D01*
X146093374Y-114953536D01*
X146180285Y-115055714D01*
X146267196Y-115129640D01*
X146369374Y-115216552D01*
X146581812Y-115344976D01*
X146812101Y-115437659D01*
X147054275Y-115492201D01*
X147200151Y-115502500D01*
X148891848Y-115502499D01*
X149037725Y-115492201D01*
X149279899Y-115437659D01*
X149510188Y-115344976D01*
X149722626Y-115216552D01*
X149911714Y-115055714D01*
X150072552Y-114866626D01*
X150200976Y-114654188D01*
X150293659Y-114423899D01*
X150348201Y-114181725D01*
X150358500Y-114035849D01*
X150358500Y-111760000D01*
X155832520Y-111760000D01*
X155852398Y-111974526D01*
X155911356Y-112181742D01*
X156007385Y-112374596D01*
X156137222Y-112546527D01*
X156296433Y-112691667D01*
X156296435Y-112691668D01*
X156296436Y-112691669D01*
X156479609Y-112805085D01*
X156680504Y-112882912D01*
X156892279Y-112922500D01*
X156892281Y-112922500D01*
X157107719Y-112922500D01*
X157107721Y-112922500D01*
X157319496Y-112882912D01*
X157520391Y-112805085D01*
X157703564Y-112691669D01*
X157714321Y-112681862D01*
X157777124Y-112651246D01*
X157797859Y-112649500D01*
X162397141Y-112649500D01*
X162464180Y-112669185D01*
X162480676Y-112681859D01*
X162491436Y-112691669D01*
X162674609Y-112805085D01*
X162875504Y-112882912D01*
X163087279Y-112922500D01*
X163087281Y-112922500D01*
X163302719Y-112922500D01*
X163302721Y-112922500D01*
X163514496Y-112882912D01*
X163715391Y-112805085D01*
X163898564Y-112691669D01*
X164057778Y-112546526D01*
X164187612Y-112374599D01*
X164187612Y-112374597D01*
X164187614Y-112374596D01*
X164283643Y-112181742D01*
X164342601Y-111974526D01*
X164345709Y-111940984D01*
X164362480Y-111760000D01*
X164342601Y-111545476D01*
X164342601Y-111545473D01*
X164283643Y-111338257D01*
X164187614Y-111145403D01*
X164057777Y-110973472D01*
X163898566Y-110828332D01*
X163715391Y-110714915D01*
X163514496Y-110637088D01*
X163302721Y-110597500D01*
X163087279Y-110597500D01*
X162875504Y-110637088D01*
X162674608Y-110714915D01*
X162491436Y-110828330D01*
X162484586Y-110834575D01*
X162480678Y-110838137D01*
X162417876Y-110868754D01*
X162397141Y-110870500D01*
X157797859Y-110870500D01*
X157730820Y-110850815D01*
X157714323Y-110838140D01*
X157703564Y-110828331D01*
X157703563Y-110828330D01*
X157520391Y-110714915D01*
X157520390Y-110714915D01*
X157319496Y-110637088D01*
X157107721Y-110597500D01*
X156892279Y-110597500D01*
X156680504Y-110637088D01*
X156479608Y-110714915D01*
X156296433Y-110828332D01*
X156137222Y-110973472D01*
X156007385Y-111145403D01*
X155911356Y-111338257D01*
X155852398Y-111545473D01*
X155832520Y-111760000D01*
X150358500Y-111760000D01*
X150358499Y-106844152D01*
X150348201Y-106698275D01*
X150293659Y-106456101D01*
X150200976Y-106225812D01*
X150072552Y-106013374D01*
X149985640Y-105911196D01*
X149911714Y-105824285D01*
X149809536Y-105737374D01*
X149722626Y-105663448D01*
X149510188Y-105535024D01*
X149507644Y-105534000D01*
X149279898Y-105442340D01*
X149037725Y-105387799D01*
X148894032Y-105377654D01*
X148894028Y-105377653D01*
X148891849Y-105377500D01*
X148889661Y-105377500D01*
X147202340Y-105377500D01*
X147202311Y-105377500D01*
X147200152Y-105377501D01*
X147197974Y-105377654D01*
X147197967Y-105377655D01*
X147054275Y-105387799D01*
X146812101Y-105442340D01*
X146581813Y-105535023D01*
X146369374Y-105663448D01*
X146180285Y-105824285D01*
X146019448Y-106013374D01*
X145891023Y-106225813D01*
X145798340Y-106456101D01*
X145743799Y-106698274D01*
X145743799Y-106698275D01*
X145733500Y-106844151D01*
X145733500Y-106846337D01*
X145733500Y-106846338D01*
X145733500Y-114033659D01*
X145733500Y-114033687D01*
X135387500Y-114033687D01*
X135387500Y-105534000D01*
X135369959Y-105370850D01*
X135358753Y-105319339D01*
X135352704Y-105293664D01*
X135336299Y-105250725D01*
X135289106Y-105127198D01*
X135261557Y-105086726D01*
X135188831Y-104979883D01*
X135158753Y-104945171D01*
X135144149Y-104928317D01*
X135144143Y-104928311D01*
X135143076Y-104927079D01*
X135086774Y-104868652D01*
X134943274Y-104762993D01*
X134943270Y-104762991D01*
X134782607Y-104694691D01*
X134782585Y-104694683D01*
X134779275Y-104693276D01*
X134775825Y-104692263D01*
X134775814Y-104692259D01*
X134712236Y-104673591D01*
X134710658Y-104673162D01*
X134673014Y-104663190D01*
X134672998Y-104663188D01*
X134496000Y-104642500D01*
X128394000Y-104642500D01*
X128326961Y-104622815D01*
X128281206Y-104570011D01*
X128270000Y-104518500D01*
X128270000Y-100965000D01*
X140437520Y-100965000D01*
X140457398Y-101179526D01*
X140516356Y-101386742D01*
X140612385Y-101579596D01*
X140742222Y-101751527D01*
X140901433Y-101896667D01*
X140901435Y-101896668D01*
X140901436Y-101896669D01*
X141084609Y-102010085D01*
X141285504Y-102087912D01*
X141497279Y-102127500D01*
X141497281Y-102127500D01*
X141712719Y-102127500D01*
X141712721Y-102127500D01*
X141924496Y-102087912D01*
X142125391Y-102010085D01*
X142308564Y-101896669D01*
X142319321Y-101886862D01*
X142382124Y-101856246D01*
X142402859Y-101854500D01*
X169382141Y-101854500D01*
X169449180Y-101874185D01*
X169465676Y-101886859D01*
X169476436Y-101896669D01*
X169659609Y-102010085D01*
X169860504Y-102087912D01*
X170072279Y-102127500D01*
X170072281Y-102127500D01*
X170287719Y-102127500D01*
X170287721Y-102127500D01*
X170499496Y-102087912D01*
X170700391Y-102010085D01*
X170883564Y-101896669D01*
X171042778Y-101751526D01*
X171172612Y-101579599D01*
X171172612Y-101579597D01*
X171172614Y-101579596D01*
X171268643Y-101386742D01*
X171327601Y-101179526D01*
X171330483Y-101148415D01*
X171347480Y-100965000D01*
X171327601Y-100750476D01*
X171327601Y-100750473D01*
X171268643Y-100543257D01*
X171172614Y-100350403D01*
X171042777Y-100178472D01*
X170883566Y-100033332D01*
X170700391Y-99919915D01*
X170700390Y-99919915D01*
X170499496Y-99842088D01*
X170287721Y-99802500D01*
X170072279Y-99802500D01*
X169860503Y-99842087D01*
X169860504Y-99842088D01*
X169659608Y-99919915D01*
X169476436Y-100033330D01*
X169469586Y-100039575D01*
X169465678Y-100043137D01*
X169402876Y-100073754D01*
X169382141Y-100075500D01*
X142402859Y-100075500D01*
X142335820Y-100055815D01*
X142319323Y-100043140D01*
X142308564Y-100033331D01*
X142308563Y-100033330D01*
X142125391Y-99919915D01*
X142125391Y-99919914D01*
X141924496Y-99842088D01*
X141712721Y-99802500D01*
X141497279Y-99802500D01*
X141285504Y-99842087D01*
X141285504Y-99842088D01*
X141084608Y-99919915D01*
X140901433Y-100033332D01*
X140742222Y-100178472D01*
X140612385Y-100350403D01*
X140516356Y-100543257D01*
X140457398Y-100750473D01*
X140437520Y-100965000D01*
X128270000Y-100965000D01*
X128270000Y-99316500D01*
X128289685Y-99249461D01*
X128342489Y-99203706D01*
X128394000Y-99192500D01*
X142112676Y-99192500D01*
X142116000Y-99192500D01*
X142279150Y-99174959D01*
X142330661Y-99163753D01*
X142356336Y-99157704D01*
X142453023Y-99120764D01*
X142522801Y-99094106D01*
X142522801Y-99094105D01*
X142522803Y-99094105D01*
X142670117Y-98993831D01*
X142722921Y-98948076D01*
X142781348Y-98891774D01*
X142887007Y-98748274D01*
X142956724Y-98584275D01*
X142976409Y-98517236D01*
X142976838Y-98515658D01*
X142986809Y-98478014D01*
X142986809Y-98478005D01*
X142986812Y-98477998D01*
X143007500Y-98301000D01*
X143007500Y-96677700D01*
X143027185Y-96610662D01*
X143079989Y-96564907D01*
X143149147Y-96554963D01*
X143212703Y-96583988D01*
X143230452Y-96602971D01*
X143247444Y-96625473D01*
X143282222Y-96671527D01*
X143441433Y-96816667D01*
X143441435Y-96816668D01*
X143441436Y-96816669D01*
X143624609Y-96930085D01*
X143825504Y-97007912D01*
X144037279Y-97047500D01*
X144037281Y-97047500D01*
X144252719Y-97047500D01*
X144252721Y-97047500D01*
X144464496Y-97007912D01*
X144665391Y-96930085D01*
X144848564Y-96816669D01*
X145007778Y-96671526D01*
X145137612Y-96499599D01*
X145137612Y-96499597D01*
X145137614Y-96499596D01*
X145233643Y-96306742D01*
X145292601Y-96099526D01*
X145295483Y-96068415D01*
X145312480Y-95885000D01*
X145297263Y-95720785D01*
X145292601Y-95670473D01*
X145233643Y-95463257D01*
X145137614Y-95270403D01*
X145122206Y-95250000D01*
X151232520Y-95250000D01*
X151252398Y-95464526D01*
X151311356Y-95671742D01*
X151407385Y-95864596D01*
X151537222Y-96036527D01*
X151696433Y-96181667D01*
X151696435Y-96181668D01*
X151696436Y-96181669D01*
X151879609Y-96295085D01*
X152080504Y-96372912D01*
X152292279Y-96412500D01*
X152292281Y-96412500D01*
X152507719Y-96412500D01*
X152507721Y-96412500D01*
X152719496Y-96372912D01*
X152920391Y-96295085D01*
X153103564Y-96181669D01*
X153114321Y-96171862D01*
X153177124Y-96141246D01*
X153197859Y-96139500D01*
X162397141Y-96139500D01*
X162464180Y-96159185D01*
X162480676Y-96171859D01*
X162491436Y-96181669D01*
X162674609Y-96295085D01*
X162875504Y-96372912D01*
X163087279Y-96412500D01*
X163087281Y-96412500D01*
X163302719Y-96412500D01*
X163302721Y-96412500D01*
X163514496Y-96372912D01*
X163715391Y-96295085D01*
X163898564Y-96181669D01*
X164057778Y-96036526D01*
X164187612Y-95864599D01*
X164187612Y-95864597D01*
X164187614Y-95864596D01*
X164283643Y-95671742D01*
X164342601Y-95464526D01*
X164345483Y-95433415D01*
X164362480Y-95250000D01*
X164342601Y-95035476D01*
X164342601Y-95035473D01*
X164283643Y-94828257D01*
X164187614Y-94635403D01*
X164057777Y-94463472D01*
X163898566Y-94318332D01*
X163715391Y-94204915D01*
X163715391Y-94204914D01*
X163514496Y-94127088D01*
X163302721Y-94087500D01*
X163087279Y-94087500D01*
X162875504Y-94127088D01*
X162674608Y-94204915D01*
X162491436Y-94318330D01*
X162484586Y-94324575D01*
X162480678Y-94328137D01*
X162417876Y-94358754D01*
X162397141Y-94360500D01*
X153197859Y-94360500D01*
X153130820Y-94340815D01*
X153114323Y-94328140D01*
X153103564Y-94318331D01*
X153103563Y-94318330D01*
X152920391Y-94204915D01*
X152920391Y-94204914D01*
X152719496Y-94127088D01*
X152507721Y-94087500D01*
X152292279Y-94087500D01*
X152080503Y-94127087D01*
X152080504Y-94127088D01*
X151879608Y-94204915D01*
X151696433Y-94318332D01*
X151537222Y-94463472D01*
X151407385Y-94635403D01*
X151311356Y-94828257D01*
X151252398Y-95035473D01*
X151232520Y-95250000D01*
X145122206Y-95250000D01*
X145007777Y-95098472D01*
X144848566Y-94953332D01*
X144665386Y-94839912D01*
X144476706Y-94766817D01*
X144421304Y-94724245D01*
X144397714Y-94658478D01*
X144397500Y-94651191D01*
X144397500Y-94406312D01*
X144417185Y-94339273D01*
X144442832Y-94310461D01*
X144529410Y-94239410D01*
X144655936Y-94085237D01*
X144749954Y-93909342D01*
X144807850Y-93718485D01*
X144822500Y-93569741D01*
X144822499Y-89370260D01*
X144807850Y-89221515D01*
X144749954Y-89030658D01*
X144655936Y-88854763D01*
X144588344Y-88772401D01*
X144529410Y-88700589D01*
X144427986Y-88617354D01*
X144388651Y-88559608D01*
X144386780Y-88489764D01*
X144422967Y-88429995D01*
X144485722Y-88399279D01*
X144506650Y-88397500D01*
X146315730Y-88397500D01*
X146382769Y-88417185D01*
X146403410Y-88433819D01*
X147375977Y-89406385D01*
X147395753Y-89424149D01*
X147435873Y-89460188D01*
X147435886Y-89460199D01*
X147437105Y-89461294D01*
X147457747Y-89477928D01*
X147459786Y-89479318D01*
X147459797Y-89479326D01*
X147559085Y-89547005D01*
X147559088Y-89547007D01*
X147723087Y-89616724D01*
X147726546Y-89617739D01*
X147726547Y-89617740D01*
X147790126Y-89636409D01*
X147791704Y-89636838D01*
X147829347Y-89646809D01*
X147829357Y-89646810D01*
X147829364Y-89646812D01*
X148006362Y-89667500D01*
X148009961Y-89667500D01*
X173862676Y-89667500D01*
X173866000Y-89667500D01*
X174029150Y-89649959D01*
X174080661Y-89638753D01*
X174106336Y-89632704D01*
X174203023Y-89595764D01*
X174272801Y-89569106D01*
X174272801Y-89569105D01*
X174272803Y-89569105D01*
X174420117Y-89468831D01*
X174472921Y-89423076D01*
X174531348Y-89366774D01*
X174637007Y-89223274D01*
X174706724Y-89059275D01*
X174726409Y-88992236D01*
X174726838Y-88990658D01*
X174736809Y-88953014D01*
X174736809Y-88953005D01*
X174736812Y-88952998D01*
X174757500Y-88776000D01*
X174757500Y-62100000D01*
X174739959Y-61936850D01*
X174728753Y-61885339D01*
X174722704Y-61859664D01*
X174705026Y-61813392D01*
X174659106Y-61693198D01*
X174631557Y-61652726D01*
X174558831Y-61545883D01*
X174528753Y-61511171D01*
X174514149Y-61494317D01*
X174514143Y-61494311D01*
X174513076Y-61493079D01*
X174456774Y-61434652D01*
X174313274Y-61328993D01*
X174313270Y-61328991D01*
X174152607Y-61260691D01*
X174152585Y-61260683D01*
X174149275Y-61259276D01*
X174145825Y-61258263D01*
X174145814Y-61258259D01*
X174082236Y-61239591D01*
X174080658Y-61239162D01*
X174043014Y-61229190D01*
X174042998Y-61229188D01*
X173866000Y-61208500D01*
X135379000Y-61208500D01*
X135375706Y-61208854D01*
X135375690Y-61208855D01*
X135219160Y-61225685D01*
X135219157Y-61225685D01*
X135215850Y-61226041D01*
X135212615Y-61226744D01*
X135212601Y-61226747D01*
X135164339Y-61237247D01*
X135142701Y-61242344D01*
X135142688Y-61242347D01*
X135138664Y-61243296D01*
X135134804Y-61244770D01*
X135134790Y-61244775D01*
X134972198Y-61306893D01*
X134830982Y-61403017D01*
X134824883Y-61407169D01*
X134822165Y-61409524D01*
X134822160Y-61409528D01*
X134773317Y-61451850D01*
X134773290Y-61451874D01*
X134772079Y-61452924D01*
X134770921Y-61454039D01*
X134770911Y-61454049D01*
X134730408Y-61493079D01*
X134713652Y-61509226D01*
X134686662Y-61545883D01*
X134607991Y-61652729D01*
X134539691Y-61813392D01*
X134539680Y-61813420D01*
X134538276Y-61816725D01*
X134537264Y-61820169D01*
X134537259Y-61820185D01*
X134518591Y-61883764D01*
X134518162Y-61885342D01*
X134508190Y-61922985D01*
X134508188Y-61923001D01*
X134508188Y-61923002D01*
X134487500Y-62100000D01*
X134487500Y-62103597D01*
X134487500Y-62103598D01*
X134487500Y-87373500D01*
X134467815Y-87440539D01*
X134415011Y-87486294D01*
X134363500Y-87497500D01*
X128394000Y-87497500D01*
X128326961Y-87477815D01*
X128281206Y-87425011D01*
X128270000Y-87373500D01*
X128270000Y-59451197D01*
X128836204Y-59451197D01*
X128836941Y-59457459D01*
X128837632Y-59478221D01*
X128837313Y-59484514D01*
X128849150Y-59561785D01*
X128849729Y-59566060D01*
X128858869Y-59643687D01*
X128860852Y-59649673D01*
X128865709Y-59669875D01*
X128866663Y-59676105D01*
X128893807Y-59749395D01*
X128895235Y-59753466D01*
X128919817Y-59827673D01*
X128922966Y-59833139D01*
X128931789Y-59851947D01*
X128933980Y-59857860D01*
X128933981Y-59857861D01*
X128975316Y-59924178D01*
X128977534Y-59927878D01*
X129016559Y-59995630D01*
X129020735Y-60000342D01*
X129033168Y-60016996D01*
X129036500Y-60022341D01*
X129036502Y-60022343D01*
X129036504Y-60022346D01*
X129090374Y-60079017D01*
X129093273Y-60082176D01*
X129145123Y-60140671D01*
X129150168Y-60144450D01*
X129165699Y-60158260D01*
X129170039Y-60162825D01*
X129234173Y-60207463D01*
X129237673Y-60209990D01*
X129278276Y-60240401D01*
X129300257Y-60256865D01*
X129305951Y-60259547D01*
X129323949Y-60269949D01*
X129329122Y-60273550D01*
X129400953Y-60304375D01*
X129404839Y-60306123D01*
X129475602Y-60339452D01*
X129481728Y-60340934D01*
X129501449Y-60347500D01*
X129507236Y-60349984D01*
X129583788Y-60365715D01*
X129587990Y-60366656D01*
X129628415Y-60376440D01*
X129663983Y-60385050D01*
X129670278Y-60385269D01*
X129690917Y-60387731D01*
X129697089Y-60389000D01*
X129775241Y-60389000D01*
X129779557Y-60389075D01*
X129857686Y-60391796D01*
X129857686Y-60391795D01*
X129857688Y-60391796D01*
X129863902Y-60390742D01*
X129884620Y-60389000D01*
X139156144Y-60389000D01*
X139164387Y-60389274D01*
X139169007Y-60389581D01*
X139225335Y-60393335D01*
X139302800Y-60382722D01*
X139307077Y-60382212D01*
X139384827Y-60374306D01*
X139390833Y-60372421D01*
X139411118Y-60367883D01*
X139417363Y-60367028D01*
X139491161Y-60341018D01*
X139495141Y-60339693D01*
X139569759Y-60316283D01*
X139575259Y-60313229D01*
X139594221Y-60304698D01*
X139600165Y-60302604D01*
X139667198Y-60262282D01*
X139670863Y-60260164D01*
X139739226Y-60222222D01*
X139743998Y-60218124D01*
X139760864Y-60205945D01*
X139761952Y-60205290D01*
X139766256Y-60202702D01*
X139823817Y-60149696D01*
X139826931Y-60146927D01*
X139886290Y-60095972D01*
X139890140Y-60090997D01*
X139904204Y-60075675D01*
X139908837Y-60071411D01*
X139954532Y-60007928D01*
X139957067Y-60004533D01*
X140004929Y-59942703D01*
X140007703Y-59937045D01*
X140018394Y-59919209D01*
X140022070Y-59914105D01*
X140054045Y-59842738D01*
X140055835Y-59838921D01*
X140090287Y-59768689D01*
X140091866Y-59762589D01*
X140098742Y-59742979D01*
X140101321Y-59737226D01*
X140118271Y-59660897D01*
X140119267Y-59656755D01*
X140138869Y-59581055D01*
X140139188Y-59574765D01*
X140141978Y-59554155D01*
X140143343Y-59548015D01*
X140144582Y-59469857D01*
X140144723Y-59465603D01*
X140145454Y-59451197D01*
X164396204Y-59451197D01*
X164396941Y-59457459D01*
X164397632Y-59478221D01*
X164397313Y-59484514D01*
X164409150Y-59561785D01*
X164409729Y-59566060D01*
X164418869Y-59643687D01*
X164420852Y-59649673D01*
X164425709Y-59669875D01*
X164426663Y-59676105D01*
X164453807Y-59749395D01*
X164455235Y-59753466D01*
X164479817Y-59827673D01*
X164482966Y-59833139D01*
X164491789Y-59851947D01*
X164493980Y-59857860D01*
X164493981Y-59857861D01*
X164535316Y-59924178D01*
X164537534Y-59927878D01*
X164576559Y-59995630D01*
X164580735Y-60000342D01*
X164593168Y-60016996D01*
X164596500Y-60022341D01*
X164596502Y-60022343D01*
X164596504Y-60022346D01*
X164650374Y-60079017D01*
X164653273Y-60082176D01*
X164705123Y-60140671D01*
X164710168Y-60144450D01*
X164725699Y-60158260D01*
X164730039Y-60162825D01*
X164794173Y-60207463D01*
X164797673Y-60209990D01*
X164838276Y-60240401D01*
X164860257Y-60256865D01*
X164865951Y-60259547D01*
X164883949Y-60269949D01*
X164889122Y-60273550D01*
X164960953Y-60304375D01*
X164964839Y-60306123D01*
X165035602Y-60339452D01*
X165041728Y-60340934D01*
X165061449Y-60347500D01*
X165067236Y-60349984D01*
X165143788Y-60365715D01*
X165147990Y-60366656D01*
X165188415Y-60376440D01*
X165223983Y-60385050D01*
X165230278Y-60385269D01*
X165250917Y-60387731D01*
X165257089Y-60389000D01*
X165335241Y-60389000D01*
X165339557Y-60389075D01*
X165417686Y-60391796D01*
X165417686Y-60391795D01*
X165417688Y-60391796D01*
X165423902Y-60390742D01*
X165444620Y-60389000D01*
X174716144Y-60389000D01*
X174724387Y-60389274D01*
X174729007Y-60389581D01*
X174785335Y-60393335D01*
X174862800Y-60382722D01*
X174867077Y-60382212D01*
X174944827Y-60374306D01*
X174950833Y-60372421D01*
X174971118Y-60367883D01*
X174977363Y-60367028D01*
X175051161Y-60341018D01*
X175055141Y-60339693D01*
X175129759Y-60316283D01*
X175135259Y-60313229D01*
X175154221Y-60304698D01*
X175160165Y-60302604D01*
X175227198Y-60262282D01*
X175230863Y-60260164D01*
X175299226Y-60222222D01*
X175303998Y-60218124D01*
X175320864Y-60205945D01*
X175321952Y-60205290D01*
X175326256Y-60202702D01*
X175383817Y-60149696D01*
X175386931Y-60146927D01*
X175446290Y-60095972D01*
X175450140Y-60090997D01*
X175464204Y-60075675D01*
X175468837Y-60071411D01*
X175514532Y-60007928D01*
X175517067Y-60004533D01*
X175564929Y-59942703D01*
X175567703Y-59937045D01*
X175578394Y-59919209D01*
X175582070Y-59914105D01*
X175614045Y-59842738D01*
X175615835Y-59838921D01*
X175650287Y-59768689D01*
X175651866Y-59762589D01*
X175658742Y-59742979D01*
X175661321Y-59737226D01*
X175678271Y-59660897D01*
X175679267Y-59656755D01*
X175698869Y-59581055D01*
X175699188Y-59574765D01*
X175701978Y-59554155D01*
X175703343Y-59548015D01*
X175704582Y-59469857D01*
X175704723Y-59465603D01*
X175708686Y-59387482D01*
X175708685Y-59387481D01*
X175708686Y-59387478D01*
X175707733Y-59381258D01*
X175706318Y-59360502D01*
X175706418Y-59354218D01*
X175706418Y-59354217D01*
X175691894Y-59277385D01*
X175691173Y-59273167D01*
X175688862Y-59258084D01*
X175679336Y-59195896D01*
X175677146Y-59189985D01*
X175671586Y-59169953D01*
X175670418Y-59163770D01*
X175640723Y-59091428D01*
X175639175Y-59087462D01*
X175612020Y-59014140D01*
X175608691Y-59008799D01*
X175599209Y-58990291D01*
X175596819Y-58984467D01*
X175553168Y-58919581D01*
X175550860Y-58916018D01*
X175509496Y-58849654D01*
X175509495Y-58849653D01*
X175509494Y-58849651D01*
X175505154Y-58845085D01*
X175492144Y-58828869D01*
X170864654Y-51950169D01*
X170860089Y-51942844D01*
X170830441Y-51891370D01*
X170777494Y-51831638D01*
X170774932Y-51828653D01*
X170723906Y-51767271D01*
X170723903Y-51767269D01*
X170723902Y-51767267D01*
X170720290Y-51764378D01*
X170704946Y-51749792D01*
X170701875Y-51746328D01*
X170701871Y-51746325D01*
X170637953Y-51698450D01*
X170634843Y-51696042D01*
X170572533Y-51646210D01*
X170568410Y-51644106D01*
X170550457Y-51632916D01*
X170546745Y-51630136D01*
X170474512Y-51596115D01*
X170470979Y-51594382D01*
X170466815Y-51592257D01*
X170451411Y-51584395D01*
X170399897Y-51558103D01*
X170395437Y-51556873D01*
X170375587Y-51549522D01*
X170371397Y-51547548D01*
X170293828Y-51528772D01*
X170290021Y-51527786D01*
X170213057Y-51506550D01*
X170208432Y-51506242D01*
X170187514Y-51503038D01*
X170183018Y-51501950D01*
X170103256Y-51499171D01*
X170099332Y-51498972D01*
X170019662Y-51493664D01*
X170015064Y-51494294D01*
X169993947Y-51495364D01*
X169989316Y-51495203D01*
X169910596Y-51508543D01*
X169906711Y-51509138D01*
X169827638Y-51519971D01*
X169823261Y-51521514D01*
X169802783Y-51526815D01*
X169802147Y-51526923D01*
X169798212Y-51527590D01*
X169723798Y-51556500D01*
X169720112Y-51557865D01*
X169644834Y-51584395D01*
X169640860Y-51586786D01*
X169621865Y-51596103D01*
X169617550Y-51597779D01*
X169550489Y-51641070D01*
X169547153Y-51643150D01*
X169478739Y-51684300D01*
X169475322Y-51687447D01*
X169458605Y-51700387D01*
X169454711Y-51702900D01*
X169397765Y-51758777D01*
X169394917Y-51761485D01*
X169336160Y-51815590D01*
X169333450Y-51819356D01*
X169319676Y-51835401D01*
X169316368Y-51838647D01*
X169271807Y-51904884D01*
X169269563Y-51908108D01*
X169222927Y-51972898D01*
X169221031Y-51977129D01*
X169210764Y-51995624D01*
X164583281Y-58874317D01*
X164578452Y-58881003D01*
X164541070Y-58929297D01*
X164506651Y-58999465D01*
X164504685Y-59003303D01*
X164467835Y-59072250D01*
X164466045Y-59078291D01*
X164458491Y-59097646D01*
X164455713Y-59103308D01*
X164436122Y-59178971D01*
X164434969Y-59183125D01*
X164412751Y-59258084D01*
X164412213Y-59264366D01*
X164408711Y-59284841D01*
X164407131Y-59290943D01*
X164403170Y-59369028D01*
X164402876Y-59373331D01*
X164396204Y-59451197D01*
X140145454Y-59451197D01*
X140148686Y-59387482D01*
X140148685Y-59387481D01*
X140148686Y-59387478D01*
X140147733Y-59381258D01*
X140146318Y-59360502D01*
X140146418Y-59354218D01*
X140146418Y-59354217D01*
X140131894Y-59277385D01*
X140131173Y-59273167D01*
X140128862Y-59258084D01*
X140119336Y-59195896D01*
X140117146Y-59189985D01*
X140111586Y-59169953D01*
X140110418Y-59163770D01*
X140080723Y-59091428D01*
X140079175Y-59087462D01*
X140052020Y-59014140D01*
X140048691Y-59008799D01*
X140039209Y-58990291D01*
X140036819Y-58984467D01*
X139993168Y-58919581D01*
X139990860Y-58916018D01*
X139949496Y-58849654D01*
X139949495Y-58849653D01*
X139949494Y-58849651D01*
X139945154Y-58845085D01*
X139932144Y-58828869D01*
X135304654Y-51950169D01*
X135300089Y-51942844D01*
X135270441Y-51891370D01*
X135217494Y-51831638D01*
X135214932Y-51828653D01*
X135163906Y-51767271D01*
X135163903Y-51767269D01*
X135163902Y-51767267D01*
X135160290Y-51764378D01*
X135144946Y-51749792D01*
X135141875Y-51746328D01*
X135141871Y-51746325D01*
X135077953Y-51698450D01*
X135074843Y-51696042D01*
X135012533Y-51646210D01*
X135008410Y-51644106D01*
X134990457Y-51632916D01*
X134986745Y-51630136D01*
X134914512Y-51596115D01*
X134910979Y-51594382D01*
X134906815Y-51592257D01*
X134891411Y-51584395D01*
X134839897Y-51558103D01*
X134835437Y-51556873D01*
X134815587Y-51549522D01*
X134811397Y-51547548D01*
X134733828Y-51528772D01*
X134730021Y-51527786D01*
X134653057Y-51506550D01*
X134648432Y-51506242D01*
X134627514Y-51503038D01*
X134623018Y-51501950D01*
X134543256Y-51499171D01*
X134539332Y-51498972D01*
X134459662Y-51493664D01*
X134455064Y-51494294D01*
X134433947Y-51495364D01*
X134429316Y-51495203D01*
X134350596Y-51508543D01*
X134346711Y-51509138D01*
X134267638Y-51519971D01*
X134263261Y-51521514D01*
X134242783Y-51526815D01*
X134242147Y-51526923D01*
X134238212Y-51527590D01*
X134163798Y-51556500D01*
X134160112Y-51557865D01*
X134084834Y-51584395D01*
X134080860Y-51586786D01*
X134061865Y-51596103D01*
X134057550Y-51597779D01*
X133990489Y-51641070D01*
X133987153Y-51643150D01*
X133918739Y-51684300D01*
X133915322Y-51687447D01*
X133898605Y-51700387D01*
X133894711Y-51702900D01*
X133837765Y-51758777D01*
X133834917Y-51761485D01*
X133776160Y-51815590D01*
X133773450Y-51819356D01*
X133759676Y-51835401D01*
X133756368Y-51838647D01*
X133711807Y-51904884D01*
X133709563Y-51908108D01*
X133662927Y-51972898D01*
X133661031Y-51977129D01*
X133650764Y-51995624D01*
X129023281Y-58874317D01*
X129018452Y-58881003D01*
X128981070Y-58929297D01*
X128946651Y-58999465D01*
X128944685Y-59003303D01*
X128907835Y-59072250D01*
X128906045Y-59078291D01*
X128898491Y-59097646D01*
X128895713Y-59103308D01*
X128876122Y-59178971D01*
X128874969Y-59183125D01*
X128852751Y-59258084D01*
X128852213Y-59264366D01*
X128848711Y-59284841D01*
X128847131Y-59290943D01*
X128843170Y-59369028D01*
X128842876Y-59373331D01*
X128836204Y-59451197D01*
X128270000Y-59451197D01*
X128270000Y-50924500D01*
X128289685Y-50857461D01*
X128342489Y-50811706D01*
X128394000Y-50800500D01*
X176406000Y-50800500D01*
X176473039Y-50820185D01*
G37*
%TD.AperFunction*%
%TD*%
%TA.AperFunction,Conductor*%
%TO.N,VBUS*%
G36*
X201934853Y-50800881D02*
G01*
X201987001Y-50804986D01*
X202127583Y-50817286D01*
X202145705Y-50820238D01*
X202224476Y-50839149D01*
X202227477Y-50839910D01*
X202332793Y-50868130D01*
X202348150Y-50873343D01*
X202376451Y-50885065D01*
X202428496Y-50906622D01*
X202433376Y-50908770D01*
X202526788Y-50952329D01*
X202539135Y-50958963D01*
X202615163Y-51005553D01*
X202621477Y-51009694D01*
X202704166Y-51067594D01*
X202713551Y-51074860D01*
X202781975Y-51133299D01*
X202789124Y-51139908D01*
X202860090Y-51210874D01*
X202866699Y-51218023D01*
X202925135Y-51286442D01*
X202932414Y-51295844D01*
X202990299Y-51378513D01*
X202994451Y-51384845D01*
X203041028Y-51460852D01*
X203047680Y-51473231D01*
X203091208Y-51566577D01*
X203093388Y-51571531D01*
X203126655Y-51651848D01*
X203131868Y-51667205D01*
X203160067Y-51772442D01*
X203160866Y-51775589D01*
X203179760Y-51854290D01*
X203182714Y-51872429D01*
X203195020Y-52013082D01*
X203199119Y-52065166D01*
X203199500Y-52074871D01*
X203199500Y-151125123D01*
X203199118Y-151134853D01*
X203195020Y-151186916D01*
X203182714Y-151327571D01*
X203179760Y-151345705D01*
X203160866Y-151424408D01*
X203160067Y-151427556D01*
X203131868Y-151532793D01*
X203126655Y-151548150D01*
X203093388Y-151628467D01*
X203091208Y-151633421D01*
X203047680Y-151726767D01*
X203041025Y-151739153D01*
X202994451Y-151815153D01*
X202990299Y-151821485D01*
X202932414Y-151904154D01*
X202925129Y-151913563D01*
X202866699Y-151981975D01*
X202860090Y-151989124D01*
X202789124Y-152060090D01*
X202781975Y-152066699D01*
X202713563Y-152125129D01*
X202704154Y-152132414D01*
X202621485Y-152190299D01*
X202615153Y-152194451D01*
X202539153Y-152241025D01*
X202526767Y-152247680D01*
X202433421Y-152291208D01*
X202428467Y-152293388D01*
X202348150Y-152326655D01*
X202332793Y-152331868D01*
X202227556Y-152360067D01*
X202224409Y-152360866D01*
X202145708Y-152379760D01*
X202127569Y-152382714D01*
X201986917Y-152395020D01*
X201963706Y-152396847D01*
X201934833Y-152399119D01*
X201925129Y-152399500D01*
X177924000Y-152399500D01*
X177856961Y-152379815D01*
X177811206Y-152327011D01*
X177800000Y-152275500D01*
X177800000Y-128270000D01*
X177800000Y-50924500D01*
X177819685Y-50857461D01*
X177872489Y-50811706D01*
X177924000Y-50800500D01*
X201925126Y-50800500D01*
X201934853Y-50800881D01*
G37*
%TD.AperFunction*%
%TD*%
%TA.AperFunction,Conductor*%
%TO.N,GNDPWR*%
G36*
X134563039Y-105429685D02*
G01*
X134608794Y-105482489D01*
X134620000Y-105534000D01*
X134620000Y-115446000D01*
X134600315Y-115513039D01*
X134547511Y-115558794D01*
X134496000Y-115570000D01*
X120774000Y-115570000D01*
X120706961Y-115550315D01*
X120661206Y-115497511D01*
X120650000Y-115446000D01*
X120650000Y-105534000D01*
X120669685Y-105466961D01*
X120722489Y-105421206D01*
X120774000Y-105410000D01*
X134496000Y-105410000D01*
X134563039Y-105429685D01*
G37*
%TD.AperFunction*%
%TD*%
%TA.AperFunction,Conductor*%
%TO.N,/PWRRES*%
G36*
X173933039Y-61995685D02*
G01*
X173978794Y-62048489D01*
X173990000Y-62100000D01*
X173990000Y-88776000D01*
X173970315Y-88843039D01*
X173917511Y-88888794D01*
X173866000Y-88900000D01*
X148006362Y-88900000D01*
X147939323Y-88880315D01*
X147918681Y-88863681D01*
X146685000Y-87630000D01*
X135379000Y-87630000D01*
X135311961Y-87610315D01*
X135266206Y-87557511D01*
X135255000Y-87506000D01*
X135255000Y-62100000D01*
X135274685Y-62032961D01*
X135327489Y-61987206D01*
X135379000Y-61976000D01*
X173866000Y-61976000D01*
X173933039Y-61995685D01*
G37*
%TD.AperFunction*%
%TD*%
%TA.AperFunction,Conductor*%
%TO.N,GNDPWR*%
G36*
X134926731Y-88274883D02*
G01*
X134931724Y-88277005D01*
X134931726Y-88277007D01*
X135095725Y-88346724D01*
X135099184Y-88347739D01*
X135099185Y-88347740D01*
X135162764Y-88366409D01*
X135164342Y-88366838D01*
X135201985Y-88376809D01*
X135201995Y-88376810D01*
X135202002Y-88376812D01*
X135379000Y-88397500D01*
X142116000Y-88397500D01*
X142183039Y-88417185D01*
X142228794Y-88469989D01*
X142240000Y-88521500D01*
X142240000Y-89111311D01*
X142234661Y-89147306D01*
X142212149Y-89221516D01*
X142197798Y-89367224D01*
X142197797Y-89367242D01*
X142197500Y-89370259D01*
X142197500Y-89373307D01*
X142197500Y-89373308D01*
X142197500Y-93566689D01*
X142197500Y-93566709D01*
X142197501Y-93569740D01*
X142197800Y-93572776D01*
X142212150Y-93718486D01*
X142234660Y-93792689D01*
X142240000Y-93828685D01*
X142240000Y-98301000D01*
X142220315Y-98368039D01*
X142167511Y-98413794D01*
X142116000Y-98425000D01*
X120774000Y-98425000D01*
X120706961Y-98405315D01*
X120661206Y-98352511D01*
X120650000Y-98301000D01*
X120650000Y-88389000D01*
X120669685Y-88321961D01*
X120722489Y-88276206D01*
X120774000Y-88265000D01*
X134878219Y-88265000D01*
X134926731Y-88274883D01*
G37*
%TD.AperFunction*%
%TD*%
M02*
