%TF.GenerationSoftware,KiCad,Pcbnew,7.0.2*%
%TF.CreationDate,2024-02-27T12:18:34-06:00*%
%TF.ProjectId,Relay_board_hardware,52656c61-795f-4626-9f61-72645f686172,rev?*%
%TF.SameCoordinates,Original*%
%TF.FileFunction,Legend,Bot*%
%TF.FilePolarity,Positive*%
%FSLAX46Y46*%
G04 Gerber Fmt 4.6, Leading zero omitted, Abs format (unit mm)*
G04 Created by KiCad (PCBNEW 7.0.2) date 2024-02-27 12:18:34*
%MOMM*%
%LPD*%
G01*
G04 APERTURE LIST*
%ADD10C,0.150000*%
%ADD11C,0.120000*%
G04 APERTURE END LIST*
D10*
%TO.C,Q1*%
X141065238Y-76757857D02*
X141160476Y-76710238D01*
X141160476Y-76710238D02*
X141255714Y-76615000D01*
X141255714Y-76615000D02*
X141398571Y-76472142D01*
X141398571Y-76472142D02*
X141493809Y-76424523D01*
X141493809Y-76424523D02*
X141589047Y-76424523D01*
X141541428Y-76662619D02*
X141636666Y-76615000D01*
X141636666Y-76615000D02*
X141731904Y-76519761D01*
X141731904Y-76519761D02*
X141779523Y-76329285D01*
X141779523Y-76329285D02*
X141779523Y-75995952D01*
X141779523Y-75995952D02*
X141731904Y-75805476D01*
X141731904Y-75805476D02*
X141636666Y-75710238D01*
X141636666Y-75710238D02*
X141541428Y-75662619D01*
X141541428Y-75662619D02*
X141350952Y-75662619D01*
X141350952Y-75662619D02*
X141255714Y-75710238D01*
X141255714Y-75710238D02*
X141160476Y-75805476D01*
X141160476Y-75805476D02*
X141112857Y-75995952D01*
X141112857Y-75995952D02*
X141112857Y-76329285D01*
X141112857Y-76329285D02*
X141160476Y-76519761D01*
X141160476Y-76519761D02*
X141255714Y-76615000D01*
X141255714Y-76615000D02*
X141350952Y-76662619D01*
X141350952Y-76662619D02*
X141541428Y-76662619D01*
X140160476Y-76662619D02*
X140731904Y-76662619D01*
X140446190Y-76662619D02*
X140446190Y-75662619D01*
X140446190Y-75662619D02*
X140541428Y-75805476D01*
X140541428Y-75805476D02*
X140636666Y-75900714D01*
X140636666Y-75900714D02*
X140731904Y-75948333D01*
%TO.C,G\u002A\u002A\u002A*%
G36*
X161944242Y-58712485D02*
G01*
X159819879Y-58712485D01*
X159819879Y-56157091D01*
X158526788Y-56157091D01*
X158526788Y-58004363D01*
X158188121Y-58004363D01*
X158188121Y-56157091D01*
X157326061Y-56157091D01*
X157326061Y-57511757D01*
X156987394Y-57511757D01*
X156987394Y-56157091D01*
X156125333Y-56157091D01*
X156125333Y-57511757D01*
X155786667Y-57511757D01*
X155786667Y-56157091D01*
X154924606Y-56157091D01*
X154924606Y-57511757D01*
X154585939Y-57511757D01*
X154585939Y-56157091D01*
X153723879Y-56157091D01*
X153723879Y-57511757D01*
X153385212Y-57511757D01*
X153385212Y-56157091D01*
X152523151Y-56157091D01*
X152523151Y-57511757D01*
X152184485Y-57511757D01*
X152184485Y-56157091D01*
X151322424Y-56157091D01*
X151322424Y-57511757D01*
X150983757Y-57511757D01*
X150983757Y-56157091D01*
X150121697Y-56157091D01*
X150121697Y-57511757D01*
X149783030Y-57511757D01*
X149783030Y-56157091D01*
X148920970Y-56157091D01*
X148920970Y-57511757D01*
X148759333Y-57511785D01*
X148597697Y-57511813D01*
X148615381Y-56157091D01*
X147720242Y-56157091D01*
X147720242Y-57511757D01*
X147412364Y-57511757D01*
X147412364Y-56157091D01*
X146519515Y-56157091D01*
X146519515Y-57511757D01*
X146211636Y-57511757D01*
X146211636Y-56157091D01*
X145318788Y-56157091D01*
X145318788Y-57511757D01*
X145010909Y-57511757D01*
X145010909Y-56157091D01*
X142948121Y-56157091D01*
X142948121Y-55757678D01*
X144995515Y-55741454D01*
X145012087Y-54371394D01*
X145317610Y-54371394D01*
X145334182Y-55741454D01*
X146196242Y-55741454D01*
X146212814Y-54371394D01*
X146518337Y-54371394D01*
X146534909Y-55741454D01*
X147396970Y-55741454D01*
X147413542Y-54371394D01*
X147719064Y-54371394D01*
X147735636Y-55741454D01*
X148597697Y-55741454D01*
X148603520Y-55064121D01*
X148609344Y-54386788D01*
X148764563Y-54377502D01*
X148919783Y-54368217D01*
X148928073Y-55054836D01*
X148936364Y-55741454D01*
X149781848Y-55758578D01*
X149798424Y-54386788D01*
X149959467Y-54377502D01*
X150120510Y-54368217D01*
X150128801Y-55054836D01*
X150137091Y-55741454D01*
X150982575Y-55758578D01*
X150999151Y-54386788D01*
X151160195Y-54377502D01*
X151321238Y-54368217D01*
X151329528Y-55054836D01*
X151337818Y-55741454D01*
X152183302Y-55758578D01*
X152191590Y-55072683D01*
X152199879Y-54386788D01*
X152360922Y-54377502D01*
X152521965Y-54368217D01*
X152530255Y-55054836D01*
X152538545Y-55741454D01*
X153384029Y-55758578D01*
X153392318Y-55072683D01*
X153400606Y-54386788D01*
X153561649Y-54377502D01*
X153722692Y-54368217D01*
X153730982Y-55054836D01*
X153739273Y-55741454D01*
X154584757Y-55758578D01*
X154601333Y-54386788D01*
X154762376Y-54377502D01*
X154923419Y-54368217D01*
X154931710Y-55054836D01*
X154940000Y-55741454D01*
X155785484Y-55758578D01*
X155793772Y-55072683D01*
X155802061Y-54386788D01*
X155963104Y-54377502D01*
X156124147Y-54368217D01*
X156132437Y-55054836D01*
X156140727Y-55741454D01*
X156986211Y-55758578D01*
X156994500Y-55072683D01*
X157002788Y-54386788D01*
X157163831Y-54377502D01*
X157324874Y-54368217D01*
X157333164Y-55054836D01*
X157341454Y-55741454D01*
X158187216Y-55758580D01*
X158195365Y-54826381D01*
X158203515Y-53894182D01*
X158364698Y-53884891D01*
X158525880Y-53875601D01*
X158534031Y-54808528D01*
X158542182Y-55741454D01*
X159804485Y-55741454D01*
X159812523Y-54471454D01*
X159820562Y-53201454D01*
X161944242Y-53201454D01*
X161944242Y-58712485D01*
G37*
D11*
%TO.C,Q1*%
X135770000Y-88645000D02*
X137580000Y-88645000D01*
X137580000Y-88645000D02*
X137580000Y-89745000D01*
X144360000Y-88645000D02*
X144360000Y-93770000D01*
X146170000Y-88645000D02*
X144360000Y-88645000D01*
X135770000Y-87145000D02*
X135770000Y-88645000D01*
X146170000Y-87145000D02*
X146170000Y-88645000D01*
%TD*%
M02*
