G04 #@! TF.GenerationSoftware,KiCad,Pcbnew,7.0.7*
G04 #@! TF.CreationDate,2024-02-27T11:50:38-06:00*
G04 #@! TF.ProjectId,Relay_board_hardware,52656c61-795f-4626-9f61-72645f686172,rev?*
G04 #@! TF.SameCoordinates,Original*
G04 #@! TF.FileFunction,Copper,L2,Bot*
G04 #@! TF.FilePolarity,Positive*
%FSLAX46Y46*%
G04 Gerber Fmt 4.6, Leading zero omitted, Abs format (unit mm)*
G04 Created by KiCad (PCBNEW 7.0.7) date 2024-02-27 11:50:38*
%MOMM*%
%LPD*%
G01*
G04 APERTURE LIST*
G04 Aperture macros list*
%AMRoundRect*
0 Rectangle with rounded corners*
0 $1 Rounding radius*
0 $2 $3 $4 $5 $6 $7 $8 $9 X,Y pos of 4 corners*
0 Add a 4 corners polygon primitive as box body*
4,1,4,$2,$3,$4,$5,$6,$7,$8,$9,$2,$3,0*
0 Add four circle primitives for the rounded corners*
1,1,$1+$1,$2,$3*
1,1,$1+$1,$4,$5*
1,1,$1+$1,$6,$7*
1,1,$1+$1,$8,$9*
0 Add four rect primitives between the rounded corners*
20,1,$1+$1,$2,$3,$4,$5,0*
20,1,$1+$1,$4,$5,$6,$7,0*
20,1,$1+$1,$6,$7,$8,$9,0*
20,1,$1+$1,$8,$9,$2,$3,0*%
G04 Aperture macros list end*
G04 #@! TA.AperFunction,EtchedComponent*
%ADD10C,0.381000*%
G04 #@! TD*
G04 #@! TA.AperFunction,ComponentPad*
%ADD11O,5.100000X3.000000*%
G04 #@! TD*
G04 #@! TA.AperFunction,ComponentPad*
%ADD12R,25.400000X50.800000*%
G04 #@! TD*
G04 #@! TA.AperFunction,ComponentPad*
%ADD13RoundRect,0.775000X-3.525000X0.775000X-3.525000X-0.775000X3.525000X-0.775000X3.525000X0.775000X0*%
G04 #@! TD*
G04 #@! TA.AperFunction,ComponentPad*
%ADD14RoundRect,0.775000X0.775000X3.525000X-0.775000X3.525000X-0.775000X-3.525000X0.775000X-3.525000X0*%
G04 #@! TD*
G04 #@! TA.AperFunction,ComponentPad*
%ADD15RoundRect,0.775000X-0.775000X-3.525000X0.775000X-3.525000X0.775000X3.525000X-0.775000X3.525000X0*%
G04 #@! TD*
G04 #@! TA.AperFunction,ComponentPad*
%ADD16RoundRect,0.775000X3.525000X-0.775000X3.525000X0.775000X-3.525000X0.775000X-3.525000X-0.775000X0*%
G04 #@! TD*
G04 #@! TA.AperFunction,ComponentPad*
%ADD17R,25.400000X25.400000*%
G04 #@! TD*
G04 #@! TA.AperFunction,ComponentPad*
%ADD18C,2.000000*%
G04 #@! TD*
G04 #@! TA.AperFunction,ComponentPad*
%ADD19C,1.524000*%
G04 #@! TD*
G04 #@! TA.AperFunction,SMDPad,CuDef*
%ADD20RoundRect,0.250000X0.300000X-2.050000X0.300000X2.050000X-0.300000X2.050000X-0.300000X-2.050000X0*%
G04 #@! TD*
G04 #@! TA.AperFunction,SMDPad,CuDef*
%ADD21RoundRect,0.250000X2.375000X-2.025000X2.375000X2.025000X-2.375000X2.025000X-2.375000X-2.025000X0*%
G04 #@! TD*
G04 #@! TA.AperFunction,SMDPad,CuDef*
%ADD22RoundRect,0.250002X5.149998X-4.449998X5.149998X4.449998X-5.149998X4.449998X-5.149998X-4.449998X0*%
G04 #@! TD*
G04 #@! TA.AperFunction,ViaPad*
%ADD23C,0.800000*%
G04 #@! TD*
G04 #@! TA.AperFunction,Conductor*
%ADD24C,0.254000*%
G04 #@! TD*
G04 #@! TA.AperFunction,Conductor*
%ADD25C,0.250000*%
G04 #@! TD*
G04 APERTURE END LIST*
D10*
X174752000Y-59436000D02*
X170053000Y-52451000D01*
X170952160Y-56842660D02*
X169753280Y-56042560D01*
X170952160Y-56842660D02*
X169651680Y-54041040D01*
X170550840Y-58841640D02*
X170652440Y-57942480D01*
X170550840Y-58841640D02*
X169951400Y-58143140D01*
X170550840Y-58841640D02*
X169351960Y-55742840D01*
X170152060Y-53842920D02*
X170952160Y-56842660D01*
X170053000Y-52451000D02*
X165354000Y-59436000D01*
X169753280Y-56042560D02*
X170550840Y-58841640D01*
X169351960Y-55742840D02*
X169951400Y-56141620D01*
X165354000Y-59436000D02*
X174752000Y-59436000D01*
X141127480Y-145787110D02*
X136428480Y-138802110D01*
X137327640Y-143193770D02*
X136128760Y-142393670D01*
X137327640Y-143193770D02*
X136027160Y-140392150D01*
X136926320Y-145192750D02*
X137027920Y-144293590D01*
X136926320Y-145192750D02*
X136326880Y-144494250D01*
X136926320Y-145192750D02*
X135727440Y-142093950D01*
X136527540Y-140194030D02*
X137327640Y-143193770D01*
X136428480Y-138802110D02*
X131729480Y-145787110D01*
X136128760Y-142393670D02*
X136926320Y-145192750D01*
X135727440Y-142093950D02*
X136326880Y-142492730D01*
X131729480Y-145787110D02*
X141127480Y-145787110D01*
X139192000Y-59436000D02*
X134493000Y-52451000D01*
X135392160Y-56842660D02*
X134193280Y-56042560D01*
X135392160Y-56842660D02*
X134091680Y-54041040D01*
X134990840Y-58841640D02*
X135092440Y-57942480D01*
X134990840Y-58841640D02*
X134391400Y-58143140D01*
X134990840Y-58841640D02*
X133791960Y-55742840D01*
X134592060Y-53842920D02*
X135392160Y-56842660D01*
X134493000Y-52451000D02*
X129794000Y-59436000D01*
X134193280Y-56042560D02*
X134990840Y-58841640D01*
X133791960Y-55742840D02*
X134391400Y-56141620D01*
X129794000Y-59436000D02*
X139192000Y-59436000D01*
D11*
X148463000Y-133922800D03*
X156337000Y-133922800D03*
D12*
X114300000Y-76200000D03*
D13*
X158754000Y-105740000D03*
X171754000Y-105740000D03*
D14*
X173754000Y-123240000D03*
D15*
X156754000Y-123240000D03*
D12*
X114300000Y-127000000D03*
X190500000Y-76200000D03*
X190500000Y-127000000D03*
D16*
X146046000Y-127940000D03*
X133046000Y-127940000D03*
D15*
X131046000Y-110440000D03*
D14*
X148046000Y-110440000D03*
D17*
X160655000Y-75565000D03*
D18*
X132080000Y-90250000D03*
X132080000Y-100250000D03*
D19*
X173990000Y-139700000D03*
X171450000Y-139700000D03*
X168910000Y-139700000D03*
X166370000Y-139700000D03*
X163830000Y-139700000D03*
D20*
X143510000Y-91470000D03*
D21*
X138195000Y-84745000D03*
X143745000Y-84745000D03*
D22*
X140970000Y-82320000D03*
D21*
X138195000Y-79895000D03*
X143745000Y-79895000D03*
D20*
X138430000Y-91470000D03*
D23*
X137160000Y-93345000D03*
X133985000Y-95885000D03*
X133985000Y-90805000D03*
X137160000Y-90805000D03*
X133985000Y-93345000D03*
X128270000Y-113030000D03*
X137160000Y-95885000D03*
X128270000Y-107950000D03*
X128270000Y-110490000D03*
X167640000Y-118745000D03*
X161925000Y-97155000D03*
X129540000Y-66040000D03*
X172720000Y-113665000D03*
X129540000Y-77470000D03*
X170815000Y-137160000D03*
X163195000Y-127635000D03*
X167640000Y-127635000D03*
X146685000Y-102870000D03*
X175260000Y-52070000D03*
X158115000Y-113665000D03*
X163195000Y-118745000D03*
X170815000Y-95250000D03*
X168910000Y-113665000D03*
X172720000Y-109855000D03*
X129540000Y-52070000D03*
X175260000Y-77470000D03*
X175895000Y-109855000D03*
X175895000Y-113665000D03*
X158115000Y-109855000D03*
X168910000Y-109855000D03*
X146685000Y-99695000D03*
X175260000Y-66040000D03*
X161925000Y-92075000D03*
X170180000Y-100965000D03*
X141605000Y-100965000D03*
X176530000Y-123190000D03*
X176530000Y-127000000D03*
X176530000Y-119380000D03*
X152400000Y-95250000D03*
X163195000Y-95250000D03*
X140970000Y-78740000D03*
X140970000Y-85090000D03*
X144780000Y-81915000D03*
X137160000Y-81915000D03*
X140970000Y-82550000D03*
X137160000Y-85090000D03*
X144780000Y-85090000D03*
X144780000Y-78740000D03*
X137160000Y-78740000D03*
X157000000Y-111760000D03*
X163195000Y-111760000D03*
X144145000Y-95885000D03*
D24*
X170180000Y-100965000D02*
X141605000Y-100965000D01*
X163195000Y-95250000D02*
X152400000Y-95250000D01*
D25*
X143510000Y-95250000D02*
X144145000Y-95885000D01*
X143510000Y-91470000D02*
X143510000Y-95250000D01*
D24*
X163195000Y-111760000D02*
X157000000Y-111760000D01*
G04 #@! TA.AperFunction,Conductor*
G36*
X177800000Y-128270000D02*
G01*
X170180000Y-128270000D01*
X169034000Y-128270000D01*
X168966961Y-128250315D01*
X168921206Y-128197511D01*
X168910000Y-128146000D01*
X168910000Y-118234000D01*
X168929685Y-118166961D01*
X168982489Y-118121206D01*
X169034000Y-118110000D01*
X177800000Y-118110000D01*
X177800000Y-128270000D01*
G37*
G04 #@! TD.AperFunction*
G04 #@! TA.AperFunction,Conductor*
G36*
X176473039Y-50820185D02*
G01*
X176518794Y-50872989D01*
X176530000Y-50924500D01*
X176530000Y-103742359D01*
X176510315Y-103809398D01*
X176457511Y-103855153D01*
X176388353Y-103865097D01*
X176325659Y-103836812D01*
X176214615Y-103742359D01*
X176180626Y-103713448D01*
X175968188Y-103585024D01*
X175968187Y-103585024D01*
X175737900Y-103492341D01*
X175495727Y-103437799D01*
X175495720Y-103437798D01*
X175349849Y-103427500D01*
X168158152Y-103427501D01*
X168142237Y-103428624D01*
X168012281Y-103437798D01*
X168012275Y-103437798D01*
X168012275Y-103437799D01*
X168012272Y-103437799D01*
X168012270Y-103437800D01*
X167770103Y-103492340D01*
X167770098Y-103492341D01*
X167539811Y-103585024D01*
X167539806Y-103585027D01*
X167327380Y-103713444D01*
X167327370Y-103713451D01*
X167138285Y-103874285D01*
X166977451Y-104063370D01*
X166977444Y-104063380D01*
X166849027Y-104275806D01*
X166849024Y-104275811D01*
X166756341Y-104506098D01*
X166756341Y-104506100D01*
X166701799Y-104748272D01*
X166701798Y-104748279D01*
X166691500Y-104894151D01*
X166691501Y-106585847D01*
X166701798Y-106731718D01*
X166701800Y-106731729D01*
X166756340Y-106973896D01*
X166756341Y-106973901D01*
X166849024Y-107204188D01*
X166977448Y-107416626D01*
X166977451Y-107416629D01*
X167138285Y-107605714D01*
X167215695Y-107671558D01*
X167327374Y-107766552D01*
X167539812Y-107894976D01*
X167770101Y-107987659D01*
X168012275Y-108042201D01*
X168158151Y-108052500D01*
X175349848Y-108052499D01*
X175495725Y-108042201D01*
X175737899Y-107987659D01*
X175968188Y-107894976D01*
X176180626Y-107766552D01*
X176325657Y-107643188D01*
X176389476Y-107614746D01*
X176458541Y-107625322D01*
X176510924Y-107671558D01*
X176529999Y-107737640D01*
X176530000Y-117218500D01*
X176510315Y-117285539D01*
X176457511Y-117331294D01*
X176406000Y-117342500D01*
X169034000Y-117342500D01*
X169033991Y-117342500D01*
X169033990Y-117342501D01*
X168870855Y-117360040D01*
X168870843Y-117360042D01*
X168819339Y-117371247D01*
X168793663Y-117377296D01*
X168627200Y-117440892D01*
X168627195Y-117440895D01*
X168479885Y-117541166D01*
X168441282Y-117574616D01*
X168427079Y-117586924D01*
X168401656Y-117611421D01*
X168368655Y-117643222D01*
X168262994Y-117786724D01*
X168193276Y-117950725D01*
X168173591Y-118017764D01*
X168163189Y-118056994D01*
X168163188Y-118057001D01*
X168163188Y-118057002D01*
X168142500Y-118234000D01*
X168142500Y-128146000D01*
X168142501Y-128146009D01*
X168160040Y-128309144D01*
X168160042Y-128309156D01*
X168171247Y-128360661D01*
X168177296Y-128386336D01*
X168240892Y-128552799D01*
X168240895Y-128552804D01*
X168341166Y-128700114D01*
X168341169Y-128700117D01*
X168386924Y-128752921D01*
X168443226Y-128811348D01*
X168586726Y-128917007D01*
X168750725Y-128986724D01*
X168817764Y-129006409D01*
X168857002Y-129016812D01*
X169034000Y-129037500D01*
X169034007Y-129037500D01*
X176406000Y-129037500D01*
X176473039Y-129057185D01*
X176518794Y-129109989D01*
X176530000Y-129161500D01*
X176530000Y-152275500D01*
X176510315Y-152342539D01*
X176457511Y-152388294D01*
X176406000Y-152399500D01*
X128394000Y-152399500D01*
X128326961Y-152379815D01*
X128281206Y-152327011D01*
X128270000Y-152275500D01*
X128270000Y-145802305D01*
X130771684Y-145802305D01*
X130772422Y-145808574D01*
X130773113Y-145829329D01*
X130772794Y-145835625D01*
X130772794Y-145835631D01*
X130784957Y-145915026D01*
X130794350Y-145994799D01*
X130794350Y-145994801D01*
X130796333Y-146000788D01*
X130801188Y-146020981D01*
X130802142Y-146027207D01*
X130802144Y-146027214D01*
X130830037Y-146102527D01*
X130855299Y-146178785D01*
X130858449Y-146184255D01*
X130867271Y-146203060D01*
X130869460Y-146208970D01*
X130869464Y-146208977D01*
X130911945Y-146277133D01*
X130942691Y-146330511D01*
X130952038Y-146346739D01*
X130952040Y-146346742D01*
X130952042Y-146346744D01*
X130956214Y-146351451D01*
X130968648Y-146368105D01*
X130971983Y-146373455D01*
X131027319Y-146431669D01*
X131080598Y-146491776D01*
X131080601Y-146491779D01*
X131080604Y-146491782D01*
X131080607Y-146491784D01*
X131080609Y-146491786D01*
X131085645Y-146495558D01*
X131101180Y-146509370D01*
X131105517Y-146513932D01*
X131105523Y-146513938D01*
X131162809Y-146553809D01*
X131171438Y-146559815D01*
X131235737Y-146607975D01*
X131241436Y-146610659D01*
X131259429Y-146621060D01*
X131263022Y-146623560D01*
X131264602Y-146624660D01*
X131338398Y-146656328D01*
X131361891Y-146667393D01*
X131411084Y-146690563D01*
X131417200Y-146692043D01*
X131436936Y-146698613D01*
X131442716Y-146701094D01*
X131521382Y-146717260D01*
X131599463Y-146736160D01*
X131605756Y-146736379D01*
X131626394Y-146738841D01*
X131632569Y-146740110D01*
X131712884Y-146740110D01*
X131793168Y-146742906D01*
X131793174Y-146742905D01*
X131799380Y-146741854D01*
X131820101Y-146740110D01*
X141093687Y-146740110D01*
X141097810Y-146740247D01*
X141105461Y-146740756D01*
X141160815Y-146744445D01*
X141240408Y-146733541D01*
X141320307Y-146725416D01*
X141326302Y-146723534D01*
X141346601Y-146718993D01*
X141352843Y-146718138D01*
X141428615Y-146691433D01*
X141505239Y-146667393D01*
X141510734Y-146664342D01*
X141529701Y-146655808D01*
X141535645Y-146653714D01*
X141604484Y-146612307D01*
X141674706Y-146573332D01*
X141679474Y-146569238D01*
X141696338Y-146557057D01*
X141701736Y-146553812D01*
X141760831Y-146499395D01*
X141821770Y-146447082D01*
X141825625Y-146442100D01*
X141839684Y-146426785D01*
X141844317Y-146422521D01*
X141891243Y-146357329D01*
X141940409Y-146293813D01*
X141943177Y-146288168D01*
X141953877Y-146270316D01*
X141957550Y-146265215D01*
X141990390Y-146191919D01*
X142025767Y-146119799D01*
X142027345Y-146113703D01*
X142034227Y-146094080D01*
X142036801Y-146088336D01*
X142054214Y-146009927D01*
X142074349Y-145932165D01*
X142074668Y-145925875D01*
X142077458Y-145905267D01*
X142078823Y-145899125D01*
X142080097Y-145818821D01*
X142084166Y-145738592D01*
X142083211Y-145732359D01*
X142081797Y-145711618D01*
X142081898Y-145705328D01*
X142066980Y-145626409D01*
X142054816Y-145547006D01*
X142052628Y-145541100D01*
X142047065Y-145521059D01*
X142045898Y-145514880D01*
X142015396Y-145440572D01*
X141987500Y-145365250D01*
X141984171Y-145359909D01*
X141974689Y-145341399D01*
X141972299Y-145335577D01*
X141927464Y-145268931D01*
X141884976Y-145200764D01*
X141880632Y-145196194D01*
X141867624Y-145179980D01*
X141540138Y-144693177D01*
X140890953Y-143728172D01*
X138181092Y-139700000D01*
X164840786Y-139700000D01*
X164859612Y-139939219D01*
X164915630Y-140172553D01*
X164915630Y-140172554D01*
X165007457Y-140394245D01*
X165007459Y-140394248D01*
X165132837Y-140598846D01*
X165132841Y-140598851D01*
X165161244Y-140632106D01*
X165288682Y-140781318D01*
X165405481Y-140881073D01*
X165471148Y-140937158D01*
X165471153Y-140937162D01*
X165675751Y-141062540D01*
X165675754Y-141062542D01*
X165897446Y-141154369D01*
X165955779Y-141168373D01*
X166130778Y-141210387D01*
X166370000Y-141229214D01*
X166609222Y-141210387D01*
X166842553Y-141154369D01*
X166842554Y-141154369D01*
X167064245Y-141062542D01*
X167064246Y-141062541D01*
X167064249Y-141062540D01*
X167268849Y-140937160D01*
X167451318Y-140781318D01*
X167545709Y-140670798D01*
X167604216Y-140632605D01*
X167674084Y-140632106D01*
X167733131Y-140669460D01*
X167734291Y-140670799D01*
X167828682Y-140781318D01*
X168011148Y-140937158D01*
X168011153Y-140937162D01*
X168215751Y-141062540D01*
X168215754Y-141062542D01*
X168437446Y-141154369D01*
X168495779Y-141168373D01*
X168670778Y-141210387D01*
X168910000Y-141229214D01*
X169149222Y-141210387D01*
X169382553Y-141154369D01*
X169382554Y-141154369D01*
X169604245Y-141062542D01*
X169604246Y-141062541D01*
X169604249Y-141062540D01*
X169808849Y-140937160D01*
X169991318Y-140781318D01*
X170085709Y-140670798D01*
X170144216Y-140632605D01*
X170214084Y-140632106D01*
X170273131Y-140669460D01*
X170274291Y-140670799D01*
X170368682Y-140781318D01*
X170551148Y-140937158D01*
X170551153Y-140937162D01*
X170755751Y-141062540D01*
X170755754Y-141062542D01*
X170977446Y-141154369D01*
X171035779Y-141168373D01*
X171210778Y-141210387D01*
X171450000Y-141229214D01*
X171689222Y-141210387D01*
X171922553Y-141154369D01*
X171922554Y-141154369D01*
X172144245Y-141062542D01*
X172144246Y-141062541D01*
X172144249Y-141062540D01*
X172348849Y-140937160D01*
X172531318Y-140781318D01*
X172625709Y-140670798D01*
X172684216Y-140632605D01*
X172754084Y-140632106D01*
X172813131Y-140669460D01*
X172814291Y-140670799D01*
X172908682Y-140781318D01*
X173091148Y-140937158D01*
X173091153Y-140937162D01*
X173295751Y-141062540D01*
X173295754Y-141062542D01*
X173517446Y-141154369D01*
X173575779Y-141168373D01*
X173750778Y-141210387D01*
X173990000Y-141229214D01*
X174229222Y-141210387D01*
X174462553Y-141154369D01*
X174462554Y-141154369D01*
X174684245Y-141062542D01*
X174684246Y-141062541D01*
X174684249Y-141062540D01*
X174888849Y-140937160D01*
X175071318Y-140781318D01*
X175227160Y-140598849D01*
X175352540Y-140394249D01*
X175444369Y-140172553D01*
X175500387Y-139939222D01*
X175519214Y-139700000D01*
X175500387Y-139460778D01*
X175444369Y-139227447D01*
X175444369Y-139227446D01*
X175444369Y-139227445D01*
X175352542Y-139005754D01*
X175352540Y-139005751D01*
X175227162Y-138801153D01*
X175227158Y-138801148D01*
X175165709Y-138729201D01*
X175071318Y-138618682D01*
X174971561Y-138533482D01*
X174888851Y-138462841D01*
X174888846Y-138462837D01*
X174684248Y-138337459D01*
X174684245Y-138337457D01*
X174462553Y-138245630D01*
X174229218Y-138189612D01*
X174229219Y-138189612D01*
X174012342Y-138172544D01*
X173990000Y-138170786D01*
X173989999Y-138170786D01*
X173750780Y-138189612D01*
X173517446Y-138245630D01*
X173517445Y-138245630D01*
X173295754Y-138337457D01*
X173295751Y-138337459D01*
X173091153Y-138462837D01*
X173091148Y-138462841D01*
X172908682Y-138618681D01*
X172814291Y-138729201D01*
X172755784Y-138767395D01*
X172685916Y-138767894D01*
X172626869Y-138730540D01*
X172625709Y-138729201D01*
X172531317Y-138618681D01*
X172348851Y-138462841D01*
X172348846Y-138462837D01*
X172144248Y-138337459D01*
X172144245Y-138337457D01*
X171922553Y-138245630D01*
X171689218Y-138189612D01*
X171689219Y-138189612D01*
X171450000Y-138170786D01*
X171210780Y-138189612D01*
X170977446Y-138245630D01*
X170977445Y-138245630D01*
X170755754Y-138337457D01*
X170755751Y-138337459D01*
X170551153Y-138462837D01*
X170551148Y-138462841D01*
X170368682Y-138618681D01*
X170274291Y-138729201D01*
X170215784Y-138767395D01*
X170145916Y-138767894D01*
X170086869Y-138730540D01*
X170085709Y-138729201D01*
X169991317Y-138618681D01*
X169808851Y-138462841D01*
X169808846Y-138462837D01*
X169604248Y-138337459D01*
X169604245Y-138337457D01*
X169382553Y-138245630D01*
X169149218Y-138189612D01*
X169149219Y-138189612D01*
X168932342Y-138172544D01*
X168910000Y-138170786D01*
X168909999Y-138170786D01*
X168670780Y-138189612D01*
X168437446Y-138245630D01*
X168437445Y-138245630D01*
X168215754Y-138337457D01*
X168215751Y-138337459D01*
X168011153Y-138462837D01*
X168011148Y-138462841D01*
X167828682Y-138618681D01*
X167734291Y-138729201D01*
X167675784Y-138767395D01*
X167605916Y-138767894D01*
X167546869Y-138730540D01*
X167545709Y-138729201D01*
X167451317Y-138618681D01*
X167268851Y-138462841D01*
X167268846Y-138462837D01*
X167064248Y-138337459D01*
X167064245Y-138337457D01*
X166842553Y-138245630D01*
X166609218Y-138189612D01*
X166609219Y-138189612D01*
X166370000Y-138170786D01*
X166130780Y-138189612D01*
X165897446Y-138245630D01*
X165897445Y-138245630D01*
X165675754Y-138337457D01*
X165675751Y-138337459D01*
X165471153Y-138462837D01*
X165471148Y-138462841D01*
X165288682Y-138618682D01*
X165132841Y-138801148D01*
X165132837Y-138801153D01*
X165007459Y-139005751D01*
X165007457Y-139005754D01*
X164915630Y-139227445D01*
X164915630Y-139227446D01*
X164859612Y-139460780D01*
X164840786Y-139700000D01*
X138181092Y-139700000D01*
X137238930Y-138299488D01*
X137236655Y-138295840D01*
X137205922Y-138242481D01*
X137151665Y-138181271D01*
X137099382Y-138118377D01*
X137099380Y-138118376D01*
X137099380Y-138118375D01*
X137095774Y-138115491D01*
X137080424Y-138100900D01*
X137077360Y-138097443D01*
X137077358Y-138097441D01*
X137077355Y-138097438D01*
X137011868Y-138048388D01*
X136948014Y-137997322D01*
X136947545Y-137997082D01*
X136943887Y-137995215D01*
X136925940Y-137984027D01*
X136922231Y-137981249D01*
X136922225Y-137981246D01*
X136848211Y-137946386D01*
X136775379Y-137909215D01*
X136775378Y-137909214D01*
X136775377Y-137909214D01*
X136770911Y-137907981D01*
X136751068Y-137900632D01*
X136746880Y-137898659D01*
X136746875Y-137898658D01*
X136667398Y-137879420D01*
X136588534Y-137857660D01*
X136588535Y-137857660D01*
X136583907Y-137857352D01*
X136562997Y-137854149D01*
X136558496Y-137853060D01*
X136476769Y-137850213D01*
X136395148Y-137844775D01*
X136395143Y-137844775D01*
X136390541Y-137845405D01*
X136369430Y-137846474D01*
X136364801Y-137846313D01*
X136364795Y-137846313D01*
X136284148Y-137859980D01*
X136203118Y-137871081D01*
X136198743Y-137872623D01*
X136178261Y-137877926D01*
X136173697Y-137878699D01*
X136097461Y-137908317D01*
X136020315Y-137935506D01*
X136020310Y-137935508D01*
X136016337Y-137937898D01*
X135997350Y-137947211D01*
X135993038Y-137948886D01*
X135993022Y-137948894D01*
X135924323Y-137993244D01*
X135854225Y-138035406D01*
X135854219Y-138035411D01*
X135850806Y-138038554D01*
X135834081Y-138051500D01*
X135830193Y-138054010D01*
X135771829Y-138111276D01*
X135711642Y-138166699D01*
X135708933Y-138170463D01*
X135695155Y-138186513D01*
X135691848Y-138189757D01*
X135646201Y-138257611D01*
X135598410Y-138324004D01*
X135598402Y-138324018D01*
X135596508Y-138328245D01*
X135586244Y-138346734D01*
X130957609Y-145227138D01*
X130955194Y-145230482D01*
X130916552Y-145280404D01*
X130916551Y-145280405D01*
X130881173Y-145352529D01*
X130843315Y-145423360D01*
X130841524Y-145429403D01*
X130833972Y-145448754D01*
X130831193Y-145454418D01*
X130831193Y-145454419D01*
X130811055Y-145532193D01*
X130788232Y-145609195D01*
X130788231Y-145609200D01*
X130787693Y-145615476D01*
X130784191Y-145635950D01*
X130782611Y-145642051D01*
X130778541Y-145722279D01*
X130771684Y-145802305D01*
X128270000Y-145802305D01*
X128270000Y-133998574D01*
X145146702Y-133998574D01*
X145177022Y-134299959D01*
X145177023Y-134299962D01*
X145247243Y-134594619D01*
X145247247Y-134594633D01*
X145356108Y-134877286D01*
X145356111Y-134877292D01*
X145356113Y-134877297D01*
X145501688Y-135142936D01*
X145681370Y-135386802D01*
X145891953Y-135604544D01*
X146129679Y-135792274D01*
X146233929Y-135854022D01*
X146390300Y-135946641D01*
X146390302Y-135946642D01*
X146390304Y-135946642D01*
X146390306Y-135946644D01*
X146669183Y-136064898D01*
X146669186Y-136064898D01*
X146669189Y-136064900D01*
X146797969Y-136100176D01*
X146961333Y-136144926D01*
X147261543Y-136185300D01*
X147261547Y-136185300D01*
X149588655Y-136185300D01*
X149724601Y-136176199D01*
X149815237Y-136170132D01*
X150112080Y-136109796D01*
X150398233Y-136010433D01*
X150583159Y-135916984D01*
X150668579Y-135873821D01*
X150668581Y-135873819D01*
X150668588Y-135873816D01*
X150918323Y-135702383D01*
X151142979Y-135499193D01*
X151338548Y-135267873D01*
X151501540Y-135012550D01*
X151629047Y-134737780D01*
X151718793Y-134448467D01*
X151769176Y-134149773D01*
X151774231Y-133998574D01*
X153020702Y-133998574D01*
X153051022Y-134299959D01*
X153051023Y-134299962D01*
X153121243Y-134594619D01*
X153121247Y-134594633D01*
X153230108Y-134877286D01*
X153230111Y-134877292D01*
X153230113Y-134877297D01*
X153375688Y-135142936D01*
X153555370Y-135386802D01*
X153765953Y-135604544D01*
X154003679Y-135792274D01*
X154107929Y-135854022D01*
X154264300Y-135946641D01*
X154264302Y-135946642D01*
X154264304Y-135946642D01*
X154264306Y-135946644D01*
X154543183Y-136064898D01*
X154543186Y-136064898D01*
X154543189Y-136064900D01*
X154671969Y-136100176D01*
X154835333Y-136144926D01*
X155135543Y-136185300D01*
X155135547Y-136185300D01*
X157462655Y-136185300D01*
X157598601Y-136176199D01*
X157689237Y-136170132D01*
X157986080Y-136109796D01*
X158272233Y-136010433D01*
X158457159Y-135916984D01*
X158542579Y-135873821D01*
X158542581Y-135873819D01*
X158542588Y-135873816D01*
X158792323Y-135702383D01*
X159016979Y-135499193D01*
X159212548Y-135267873D01*
X159375540Y-135012550D01*
X159503047Y-134737780D01*
X159592793Y-134448467D01*
X159643176Y-134149773D01*
X159653298Y-133847029D01*
X159622977Y-133545638D01*
X159552756Y-133250976D01*
X159443887Y-132968303D01*
X159298312Y-132702664D01*
X159118630Y-132458798D01*
X158908047Y-132241056D01*
X158908040Y-132241050D01*
X158784153Y-132143218D01*
X158670321Y-132053326D01*
X158670316Y-132053323D01*
X158409699Y-131898958D01*
X158409697Y-131898957D01*
X158130810Y-131780699D01*
X157838668Y-131700674D01*
X157763614Y-131690580D01*
X157538457Y-131660300D01*
X155211351Y-131660300D01*
X155211345Y-131660300D01*
X154984766Y-131675467D01*
X154984756Y-131675469D01*
X154687917Y-131735804D01*
X154401765Y-131835167D01*
X154401762Y-131835169D01*
X154131420Y-131971778D01*
X153881675Y-132143218D01*
X153881674Y-132143219D01*
X153657019Y-132346408D01*
X153461449Y-132577730D01*
X153298457Y-132833054D01*
X153235691Y-132968313D01*
X153170953Y-133107820D01*
X153137575Y-133215417D01*
X153081207Y-133397130D01*
X153030824Y-133695827D01*
X153020702Y-133998574D01*
X151774231Y-133998574D01*
X151779298Y-133847029D01*
X151748977Y-133545638D01*
X151678756Y-133250976D01*
X151569887Y-132968303D01*
X151424312Y-132702664D01*
X151244630Y-132458798D01*
X151034047Y-132241056D01*
X151034040Y-132241050D01*
X150910153Y-132143218D01*
X150796321Y-132053326D01*
X150796316Y-132053323D01*
X150535699Y-131898958D01*
X150535697Y-131898957D01*
X150256810Y-131780699D01*
X149964668Y-131700674D01*
X149889614Y-131690580D01*
X149664457Y-131660300D01*
X147337351Y-131660300D01*
X147337345Y-131660300D01*
X147110766Y-131675467D01*
X147110756Y-131675469D01*
X146813917Y-131735804D01*
X146527765Y-131835167D01*
X146527762Y-131835169D01*
X146257420Y-131971778D01*
X146007675Y-132143218D01*
X146007674Y-132143219D01*
X145783019Y-132346408D01*
X145587449Y-132577730D01*
X145424457Y-132833054D01*
X145361691Y-132968313D01*
X145296953Y-133107820D01*
X145263575Y-133215417D01*
X145207207Y-133397130D01*
X145156824Y-133695827D01*
X145146702Y-133998574D01*
X128270000Y-133998574D01*
X128270000Y-129937640D01*
X128289685Y-129870601D01*
X128342489Y-129824846D01*
X128411647Y-129814902D01*
X128474340Y-129843186D01*
X128619374Y-129966552D01*
X128831812Y-130094976D01*
X129062101Y-130187659D01*
X129304275Y-130242201D01*
X129450151Y-130252500D01*
X136641848Y-130252499D01*
X136787725Y-130242201D01*
X137029899Y-130187659D01*
X137260188Y-130094976D01*
X137472626Y-129966552D01*
X137661714Y-129805714D01*
X137822552Y-129616626D01*
X137950976Y-129404188D01*
X138043659Y-129173899D01*
X138098201Y-128931725D01*
X138108500Y-128785849D01*
X138108499Y-127094152D01*
X138098201Y-126948275D01*
X138043659Y-126706101D01*
X137950976Y-126475812D01*
X137822552Y-126263374D01*
X137756179Y-126185343D01*
X137661714Y-126074285D01*
X137506615Y-125942359D01*
X137472626Y-125913448D01*
X137260188Y-125785024D01*
X137260187Y-125785024D01*
X137029900Y-125692341D01*
X136787727Y-125637799D01*
X136787720Y-125637798D01*
X136641849Y-125627500D01*
X129450152Y-125627501D01*
X129434237Y-125628624D01*
X129304281Y-125637798D01*
X129304275Y-125637798D01*
X129304275Y-125637799D01*
X129304272Y-125637799D01*
X129304270Y-125637800D01*
X129062103Y-125692340D01*
X129062098Y-125692341D01*
X128831811Y-125785024D01*
X128831806Y-125785027D01*
X128619380Y-125913444D01*
X128619370Y-125913451D01*
X128474341Y-126036812D01*
X128410522Y-126065253D01*
X128341457Y-126054677D01*
X128289075Y-126008440D01*
X128270000Y-125942359D01*
X128270000Y-119644151D01*
X154441500Y-119644151D01*
X154441501Y-126835847D01*
X154451798Y-126981718D01*
X154451798Y-126981722D01*
X154451799Y-126981725D01*
X154451800Y-126981729D01*
X154506340Y-127223896D01*
X154506341Y-127223901D01*
X154599023Y-127454187D01*
X154599024Y-127454188D01*
X154727448Y-127666626D01*
X154727451Y-127666629D01*
X154888285Y-127855714D01*
X154999343Y-127950179D01*
X155077374Y-128016552D01*
X155289812Y-128144976D01*
X155520101Y-128237659D01*
X155762275Y-128292201D01*
X155908151Y-128302500D01*
X157599848Y-128302499D01*
X157745725Y-128292201D01*
X157987899Y-128237659D01*
X158218188Y-128144976D01*
X158430626Y-128016552D01*
X158619714Y-127855714D01*
X158780552Y-127666626D01*
X158908976Y-127454188D01*
X159001659Y-127223899D01*
X159056201Y-126981725D01*
X159066500Y-126835849D01*
X159066499Y-119644152D01*
X159056201Y-119498275D01*
X159001659Y-119256101D01*
X158908976Y-119025812D01*
X158780552Y-118813374D01*
X158714179Y-118735343D01*
X158619714Y-118624285D01*
X158489148Y-118513227D01*
X158430626Y-118463448D01*
X158218188Y-118335024D01*
X158218188Y-118335023D01*
X157987900Y-118242341D01*
X157745727Y-118187799D01*
X157745720Y-118187798D01*
X157599849Y-118177500D01*
X155908152Y-118177501D01*
X155892237Y-118178624D01*
X155762281Y-118187798D01*
X155762275Y-118187798D01*
X155762275Y-118187799D01*
X155762272Y-118187799D01*
X155762270Y-118187800D01*
X155520103Y-118242340D01*
X155520098Y-118242341D01*
X155289811Y-118335024D01*
X155289806Y-118335027D01*
X155077380Y-118463444D01*
X155077370Y-118463451D01*
X154888285Y-118624285D01*
X154727451Y-118813370D01*
X154727444Y-118813380D01*
X154599027Y-119025806D01*
X154599024Y-119025811D01*
X154506341Y-119256098D01*
X154506341Y-119256100D01*
X154451799Y-119498272D01*
X154451798Y-119498279D01*
X154441500Y-119644151D01*
X128270000Y-119644151D01*
X128270000Y-116461500D01*
X128289685Y-116394461D01*
X128342489Y-116348706D01*
X128394000Y-116337500D01*
X134495990Y-116337500D01*
X134496000Y-116337500D01*
X134659150Y-116319959D01*
X134710661Y-116308753D01*
X134736336Y-116302704D01*
X134849438Y-116259493D01*
X134902799Y-116239107D01*
X134902801Y-116239105D01*
X134902803Y-116239105D01*
X135050117Y-116138831D01*
X135102921Y-116093076D01*
X135161348Y-116036774D01*
X135267007Y-115893274D01*
X135336724Y-115729275D01*
X135356409Y-115662236D01*
X135366812Y-115622998D01*
X135387500Y-115446000D01*
X135387500Y-106844151D01*
X145733500Y-106844151D01*
X145733501Y-114035847D01*
X145743798Y-114181718D01*
X145743798Y-114181722D01*
X145743799Y-114181725D01*
X145743800Y-114181729D01*
X145798340Y-114423896D01*
X145798341Y-114423901D01*
X145891023Y-114654188D01*
X145891024Y-114654188D01*
X146019448Y-114866626D01*
X146019451Y-114866629D01*
X146180285Y-115055714D01*
X146291343Y-115150179D01*
X146369374Y-115216552D01*
X146581812Y-115344976D01*
X146812101Y-115437659D01*
X147054275Y-115492201D01*
X147200151Y-115502500D01*
X148891848Y-115502499D01*
X149037725Y-115492201D01*
X149279899Y-115437659D01*
X149510188Y-115344976D01*
X149722626Y-115216552D01*
X149911714Y-115055714D01*
X150072552Y-114866626D01*
X150200976Y-114654188D01*
X150293659Y-114423899D01*
X150348201Y-114181725D01*
X150358500Y-114035849D01*
X150358500Y-111759999D01*
X155832520Y-111759999D01*
X155852398Y-111974519D01*
X155911356Y-112181740D01*
X155911360Y-112181750D01*
X156007386Y-112374597D01*
X156137223Y-112546528D01*
X156296435Y-112691668D01*
X156296437Y-112691670D01*
X156479605Y-112805083D01*
X156479611Y-112805086D01*
X156522169Y-112821573D01*
X156680504Y-112882912D01*
X156892279Y-112922500D01*
X156892281Y-112922500D01*
X157107719Y-112922500D01*
X157107721Y-112922500D01*
X157319496Y-112882912D01*
X157520391Y-112805085D01*
X157703564Y-112691669D01*
X157714321Y-112681862D01*
X157777125Y-112651246D01*
X157797859Y-112649500D01*
X162397141Y-112649500D01*
X162464180Y-112669185D01*
X162480676Y-112681859D01*
X162491436Y-112691669D01*
X162491438Y-112691670D01*
X162491439Y-112691671D01*
X162674605Y-112805083D01*
X162674611Y-112805086D01*
X162717169Y-112821573D01*
X162875504Y-112882912D01*
X163087279Y-112922500D01*
X163087281Y-112922500D01*
X163302719Y-112922500D01*
X163302721Y-112922500D01*
X163514496Y-112882912D01*
X163715391Y-112805085D01*
X163898564Y-112691669D01*
X164057778Y-112546526D01*
X164187612Y-112374599D01*
X164283643Y-112181742D01*
X164342601Y-111974524D01*
X164362480Y-111760000D01*
X164342601Y-111545476D01*
X164283643Y-111338258D01*
X164283639Y-111338249D01*
X164187613Y-111145402D01*
X164057776Y-110973471D01*
X163898564Y-110828331D01*
X163898562Y-110828329D01*
X163715394Y-110714916D01*
X163715388Y-110714913D01*
X163557056Y-110653576D01*
X163514496Y-110637088D01*
X163302721Y-110597500D01*
X163087279Y-110597500D01*
X162875504Y-110637088D01*
X162875501Y-110637088D01*
X162875501Y-110637089D01*
X162674611Y-110714913D01*
X162674605Y-110714916D01*
X162491439Y-110828328D01*
X162491435Y-110828331D01*
X162491436Y-110828331D01*
X162480678Y-110838137D01*
X162417875Y-110868754D01*
X162397141Y-110870500D01*
X157797859Y-110870500D01*
X157730820Y-110850815D01*
X157714323Y-110838140D01*
X157703564Y-110828331D01*
X157703561Y-110828329D01*
X157703560Y-110828328D01*
X157520394Y-110714916D01*
X157520388Y-110714913D01*
X157362056Y-110653576D01*
X157319496Y-110637088D01*
X157107721Y-110597500D01*
X156892279Y-110597500D01*
X156680504Y-110637088D01*
X156680501Y-110637088D01*
X156680501Y-110637089D01*
X156479611Y-110714913D01*
X156479605Y-110714916D01*
X156296437Y-110828329D01*
X156296435Y-110828331D01*
X156137223Y-110973471D01*
X156007386Y-111145402D01*
X155911360Y-111338249D01*
X155911356Y-111338259D01*
X155852398Y-111545480D01*
X155832520Y-111759999D01*
X150358500Y-111759999D01*
X150358499Y-106844152D01*
X150348201Y-106698275D01*
X150293659Y-106456101D01*
X150200976Y-106225812D01*
X150072552Y-106013374D01*
X150006179Y-105935343D01*
X149911714Y-105824285D01*
X149781148Y-105713227D01*
X149722626Y-105663448D01*
X149510188Y-105535024D01*
X149507619Y-105533990D01*
X149279900Y-105442341D01*
X149037727Y-105387799D01*
X149037720Y-105387798D01*
X148891849Y-105377500D01*
X147200152Y-105377501D01*
X147184237Y-105378624D01*
X147054281Y-105387798D01*
X147054275Y-105387798D01*
X147054275Y-105387799D01*
X147054272Y-105387799D01*
X147054270Y-105387800D01*
X146812103Y-105442340D01*
X146812098Y-105442341D01*
X146581811Y-105535024D01*
X146581806Y-105535027D01*
X146369380Y-105663444D01*
X146369370Y-105663451D01*
X146180285Y-105824285D01*
X146019451Y-106013370D01*
X146019444Y-106013380D01*
X145891027Y-106225806D01*
X145891024Y-106225811D01*
X145798341Y-106456098D01*
X145798341Y-106456100D01*
X145743799Y-106698272D01*
X145743798Y-106698279D01*
X145733500Y-106844151D01*
X135387500Y-106844151D01*
X135387500Y-105534000D01*
X135369959Y-105370850D01*
X135358753Y-105319339D01*
X135352704Y-105293664D01*
X135326001Y-105223771D01*
X135289107Y-105127200D01*
X135289104Y-105127195D01*
X135188833Y-104979885D01*
X135143079Y-104927083D01*
X135143076Y-104927079D01*
X135086774Y-104868652D01*
X134943274Y-104762993D01*
X134779275Y-104693276D01*
X134712236Y-104673591D01*
X134712236Y-104673590D01*
X134673005Y-104663189D01*
X134672999Y-104663188D01*
X134672998Y-104663188D01*
X134496000Y-104642500D01*
X128394000Y-104642500D01*
X128326961Y-104622815D01*
X128281206Y-104570011D01*
X128270000Y-104518500D01*
X128270000Y-100964999D01*
X140437520Y-100964999D01*
X140457398Y-101179519D01*
X140516356Y-101386740D01*
X140516360Y-101386750D01*
X140612386Y-101579597D01*
X140742223Y-101751528D01*
X140901435Y-101896668D01*
X140901437Y-101896670D01*
X141084605Y-102010083D01*
X141084611Y-102010086D01*
X141127169Y-102026573D01*
X141285504Y-102087912D01*
X141497279Y-102127500D01*
X141497281Y-102127500D01*
X141712719Y-102127500D01*
X141712721Y-102127500D01*
X141924496Y-102087912D01*
X142125391Y-102010085D01*
X142308564Y-101896669D01*
X142319321Y-101886862D01*
X142382125Y-101856246D01*
X142402859Y-101854500D01*
X169382141Y-101854500D01*
X169449180Y-101874185D01*
X169465676Y-101886859D01*
X169476436Y-101896669D01*
X169476438Y-101896670D01*
X169476439Y-101896671D01*
X169659605Y-102010083D01*
X169659611Y-102010086D01*
X169702169Y-102026573D01*
X169860504Y-102087912D01*
X170072279Y-102127500D01*
X170072281Y-102127500D01*
X170287719Y-102127500D01*
X170287721Y-102127500D01*
X170499496Y-102087912D01*
X170700391Y-102010085D01*
X170883564Y-101896669D01*
X171042778Y-101751526D01*
X171172612Y-101579599D01*
X171268643Y-101386742D01*
X171327601Y-101179524D01*
X171347480Y-100965000D01*
X171327601Y-100750476D01*
X171268643Y-100543258D01*
X171268639Y-100543249D01*
X171172613Y-100350402D01*
X171042776Y-100178471D01*
X170883564Y-100033331D01*
X170883562Y-100033329D01*
X170700394Y-99919916D01*
X170700388Y-99919913D01*
X170542056Y-99858576D01*
X170499496Y-99842088D01*
X170287721Y-99802500D01*
X170072279Y-99802500D01*
X169860504Y-99842088D01*
X169860501Y-99842088D01*
X169860501Y-99842089D01*
X169659611Y-99919913D01*
X169659605Y-99919916D01*
X169476439Y-100033328D01*
X169476435Y-100033331D01*
X169476436Y-100033331D01*
X169465678Y-100043137D01*
X169402875Y-100073754D01*
X169382141Y-100075500D01*
X142402859Y-100075500D01*
X142335820Y-100055815D01*
X142319323Y-100043140D01*
X142308564Y-100033331D01*
X142308561Y-100033329D01*
X142308560Y-100033328D01*
X142125394Y-99919916D01*
X142125388Y-99919913D01*
X141967056Y-99858576D01*
X141924496Y-99842088D01*
X141712721Y-99802500D01*
X141497279Y-99802500D01*
X141285504Y-99842088D01*
X141285501Y-99842088D01*
X141285501Y-99842089D01*
X141084611Y-99919913D01*
X141084605Y-99919916D01*
X140901437Y-100033329D01*
X140901435Y-100033331D01*
X140742223Y-100178471D01*
X140612386Y-100350402D01*
X140516360Y-100543249D01*
X140516356Y-100543259D01*
X140457398Y-100750480D01*
X140437520Y-100964999D01*
X128270000Y-100964999D01*
X128270000Y-99316500D01*
X128289685Y-99249461D01*
X128342489Y-99203706D01*
X128394000Y-99192500D01*
X142115990Y-99192500D01*
X142116000Y-99192500D01*
X142279150Y-99174959D01*
X142330661Y-99163753D01*
X142356336Y-99157704D01*
X142469438Y-99114493D01*
X142522799Y-99094107D01*
X142522801Y-99094105D01*
X142522803Y-99094105D01*
X142670117Y-98993831D01*
X142722921Y-98948076D01*
X142781348Y-98891774D01*
X142887007Y-98748274D01*
X142956724Y-98584275D01*
X142976409Y-98517236D01*
X142986812Y-98477998D01*
X143007500Y-98301000D01*
X143007500Y-96677700D01*
X143027185Y-96610662D01*
X143079989Y-96564907D01*
X143149147Y-96554963D01*
X143212703Y-96583988D01*
X143230452Y-96602971D01*
X143252176Y-96631739D01*
X143282223Y-96671528D01*
X143441435Y-96816668D01*
X143441437Y-96816670D01*
X143624605Y-96930083D01*
X143624611Y-96930086D01*
X143667169Y-96946573D01*
X143825504Y-97007912D01*
X144037279Y-97047500D01*
X144037281Y-97047500D01*
X144252719Y-97047500D01*
X144252721Y-97047500D01*
X144464496Y-97007912D01*
X144665391Y-96930085D01*
X144848564Y-96816669D01*
X145007778Y-96671526D01*
X145137612Y-96499599D01*
X145233643Y-96306742D01*
X145292601Y-96099524D01*
X145312480Y-95885000D01*
X145292601Y-95670476D01*
X145233643Y-95463258D01*
X145233639Y-95463249D01*
X145137613Y-95270402D01*
X145122206Y-95250000D01*
X151232520Y-95250000D01*
X151252398Y-95464519D01*
X151311356Y-95671740D01*
X151311360Y-95671750D01*
X151407386Y-95864597D01*
X151537223Y-96036528D01*
X151696435Y-96181668D01*
X151696437Y-96181670D01*
X151879605Y-96295083D01*
X151879611Y-96295086D01*
X151909694Y-96306740D01*
X152080504Y-96372912D01*
X152292279Y-96412500D01*
X152292281Y-96412500D01*
X152507719Y-96412500D01*
X152507721Y-96412500D01*
X152719496Y-96372912D01*
X152920391Y-96295085D01*
X153103564Y-96181669D01*
X153114321Y-96171862D01*
X153177125Y-96141246D01*
X153197859Y-96139500D01*
X162397141Y-96139500D01*
X162464180Y-96159185D01*
X162480676Y-96171859D01*
X162491436Y-96181669D01*
X162491438Y-96181670D01*
X162491439Y-96181671D01*
X162674605Y-96295083D01*
X162674611Y-96295086D01*
X162704694Y-96306740D01*
X162875504Y-96372912D01*
X163087279Y-96412500D01*
X163087281Y-96412500D01*
X163302719Y-96412500D01*
X163302721Y-96412500D01*
X163514496Y-96372912D01*
X163715391Y-96295085D01*
X163898564Y-96181669D01*
X164057778Y-96036526D01*
X164187612Y-95864599D01*
X164283643Y-95671742D01*
X164342601Y-95464524D01*
X164362480Y-95250000D01*
X164342601Y-95035476D01*
X164283643Y-94828258D01*
X164283639Y-94828249D01*
X164187613Y-94635402D01*
X164057776Y-94463471D01*
X163898564Y-94318331D01*
X163898562Y-94318329D01*
X163715394Y-94204916D01*
X163715388Y-94204913D01*
X163557056Y-94143576D01*
X163514496Y-94127088D01*
X163302721Y-94087500D01*
X163087279Y-94087500D01*
X162875504Y-94127088D01*
X162875501Y-94127088D01*
X162875501Y-94127089D01*
X162674611Y-94204913D01*
X162674605Y-94204916D01*
X162491439Y-94318328D01*
X162491435Y-94318331D01*
X162491436Y-94318331D01*
X162480678Y-94328137D01*
X162417875Y-94358754D01*
X162397141Y-94360500D01*
X153197859Y-94360500D01*
X153130820Y-94340815D01*
X153114323Y-94328140D01*
X153103564Y-94318331D01*
X153103561Y-94318329D01*
X153103560Y-94318328D01*
X152920394Y-94204916D01*
X152920388Y-94204913D01*
X152762056Y-94143576D01*
X152719496Y-94127088D01*
X152507721Y-94087500D01*
X152292279Y-94087500D01*
X152080504Y-94127088D01*
X152080501Y-94127088D01*
X152080501Y-94127089D01*
X151879611Y-94204913D01*
X151879605Y-94204916D01*
X151696437Y-94318329D01*
X151696435Y-94318331D01*
X151537223Y-94463471D01*
X151407386Y-94635402D01*
X151311360Y-94828249D01*
X151311356Y-94828259D01*
X151252398Y-95035480D01*
X151232520Y-95250000D01*
X145122206Y-95250000D01*
X145007776Y-95098471D01*
X144848564Y-94953331D01*
X144848562Y-94953329D01*
X144665394Y-94839916D01*
X144665385Y-94839912D01*
X144551303Y-94795717D01*
X144476705Y-94766818D01*
X144421305Y-94724246D01*
X144397714Y-94658480D01*
X144397500Y-94651192D01*
X144397500Y-94406313D01*
X144417185Y-94339274D01*
X144442836Y-94310459D01*
X144446131Y-94307754D01*
X144529410Y-94239410D01*
X144655936Y-94085237D01*
X144749954Y-93909342D01*
X144807850Y-93718485D01*
X144822500Y-93569741D01*
X144822499Y-89370260D01*
X144807850Y-89221515D01*
X144749954Y-89030658D01*
X144749951Y-89030654D01*
X144749951Y-89030651D01*
X144655939Y-88854768D01*
X144655937Y-88854766D01*
X144655936Y-88854763D01*
X144591297Y-88776000D01*
X144529410Y-88700589D01*
X144427986Y-88617353D01*
X144388652Y-88559608D01*
X144386781Y-88489763D01*
X144422968Y-88429995D01*
X144485724Y-88399279D01*
X144506651Y-88397500D01*
X146315730Y-88397500D01*
X146382769Y-88417185D01*
X146403411Y-88433819D01*
X147390519Y-89420928D01*
X147390519Y-89420927D01*
X147392911Y-89423076D01*
X147421105Y-89448400D01*
X147457741Y-89477924D01*
X147559086Y-89547006D01*
X147559092Y-89547009D01*
X147607056Y-89567398D01*
X147723087Y-89616724D01*
X147790126Y-89636409D01*
X147829364Y-89646812D01*
X148006362Y-89667500D01*
X148006369Y-89667500D01*
X173865990Y-89667500D01*
X173866000Y-89667500D01*
X174029150Y-89649959D01*
X174080661Y-89638753D01*
X174106336Y-89632704D01*
X174219438Y-89589493D01*
X174272799Y-89569107D01*
X174272801Y-89569105D01*
X174272803Y-89569105D01*
X174420117Y-89468831D01*
X174472921Y-89423076D01*
X174531348Y-89366774D01*
X174637007Y-89223274D01*
X174706724Y-89059275D01*
X174726409Y-88992236D01*
X174736812Y-88952998D01*
X174757500Y-88776000D01*
X174757500Y-62100000D01*
X174739959Y-61936850D01*
X174728753Y-61885339D01*
X174722704Y-61859664D01*
X174696001Y-61789771D01*
X174659107Y-61693200D01*
X174659104Y-61693195D01*
X174558833Y-61545885D01*
X174513079Y-61493083D01*
X174513076Y-61493079D01*
X174456774Y-61434652D01*
X174313274Y-61328993D01*
X174149275Y-61259276D01*
X174082236Y-61239591D01*
X174082235Y-61239591D01*
X174043005Y-61229189D01*
X174042999Y-61229188D01*
X174042998Y-61229188D01*
X173866000Y-61208500D01*
X135379000Y-61208500D01*
X135378991Y-61208500D01*
X135378990Y-61208501D01*
X135215855Y-61226040D01*
X135215843Y-61226042D01*
X135164339Y-61237247D01*
X135138663Y-61243296D01*
X134972200Y-61306892D01*
X134972195Y-61306895D01*
X134824885Y-61407166D01*
X134786282Y-61440617D01*
X134772079Y-61452924D01*
X134746656Y-61477421D01*
X134713655Y-61509222D01*
X134607994Y-61652724D01*
X134538276Y-61816725D01*
X134518591Y-61883764D01*
X134508189Y-61922994D01*
X134508188Y-61923001D01*
X134508188Y-61923002D01*
X134487500Y-62100000D01*
X134487500Y-62100005D01*
X134487500Y-62100006D01*
X134487500Y-87373500D01*
X134467815Y-87440539D01*
X134415011Y-87486294D01*
X134363500Y-87497500D01*
X128394000Y-87497500D01*
X128326961Y-87477815D01*
X128281206Y-87425011D01*
X128270000Y-87373500D01*
X128270000Y-59451195D01*
X128836204Y-59451195D01*
X128836942Y-59457464D01*
X128837633Y-59478219D01*
X128837314Y-59484515D01*
X128837314Y-59484521D01*
X128849477Y-59563916D01*
X128858870Y-59643689D01*
X128858870Y-59643691D01*
X128860853Y-59649678D01*
X128865708Y-59669871D01*
X128866662Y-59676097D01*
X128866664Y-59676104D01*
X128894557Y-59751417D01*
X128919819Y-59827675D01*
X128922969Y-59833145D01*
X128931791Y-59851950D01*
X128933980Y-59857860D01*
X128933984Y-59857867D01*
X128976465Y-59926023D01*
X129007211Y-59979401D01*
X129016558Y-59995629D01*
X129016560Y-59995632D01*
X129016562Y-59995634D01*
X129020734Y-60000341D01*
X129033168Y-60016995D01*
X129036503Y-60022345D01*
X129091839Y-60080559D01*
X129145118Y-60140666D01*
X129145121Y-60140669D01*
X129145124Y-60140672D01*
X129145127Y-60140674D01*
X129145129Y-60140676D01*
X129150165Y-60144448D01*
X129165700Y-60158260D01*
X129170037Y-60162822D01*
X129170043Y-60162828D01*
X129227329Y-60202699D01*
X129235958Y-60208705D01*
X129300257Y-60256865D01*
X129305956Y-60259549D01*
X129323949Y-60269950D01*
X129327542Y-60272450D01*
X129329122Y-60273550D01*
X129402918Y-60305218D01*
X129426411Y-60316283D01*
X129475604Y-60339453D01*
X129481720Y-60340933D01*
X129501456Y-60347503D01*
X129507236Y-60349984D01*
X129585902Y-60366150D01*
X129663983Y-60385050D01*
X129670276Y-60385269D01*
X129690914Y-60387731D01*
X129697089Y-60389000D01*
X129777404Y-60389000D01*
X129857688Y-60391796D01*
X129857694Y-60391795D01*
X129863900Y-60390744D01*
X129884621Y-60389000D01*
X139158207Y-60389000D01*
X139162330Y-60389137D01*
X139169981Y-60389646D01*
X139225335Y-60393335D01*
X139304928Y-60382431D01*
X139384827Y-60374306D01*
X139390822Y-60372424D01*
X139411121Y-60367883D01*
X139417363Y-60367028D01*
X139493135Y-60340323D01*
X139569759Y-60316283D01*
X139575254Y-60313232D01*
X139594221Y-60304698D01*
X139600165Y-60302604D01*
X139669004Y-60261197D01*
X139739226Y-60222222D01*
X139743994Y-60218128D01*
X139760858Y-60205947D01*
X139766256Y-60202702D01*
X139825351Y-60148285D01*
X139886290Y-60095972D01*
X139890145Y-60090990D01*
X139904204Y-60075675D01*
X139908837Y-60071411D01*
X139955763Y-60006219D01*
X140004929Y-59942703D01*
X140007697Y-59937058D01*
X140018397Y-59919206D01*
X140022070Y-59914105D01*
X140054910Y-59840809D01*
X140090287Y-59768689D01*
X140091865Y-59762593D01*
X140098747Y-59742970D01*
X140101321Y-59737226D01*
X140118734Y-59658817D01*
X140138869Y-59581055D01*
X140139188Y-59574765D01*
X140141978Y-59554157D01*
X140143343Y-59548015D01*
X140144617Y-59467711D01*
X140145455Y-59451195D01*
X164396204Y-59451195D01*
X164396942Y-59457464D01*
X164397633Y-59478219D01*
X164397314Y-59484515D01*
X164397314Y-59484521D01*
X164409477Y-59563916D01*
X164418870Y-59643689D01*
X164418870Y-59643691D01*
X164420853Y-59649678D01*
X164425708Y-59669871D01*
X164426662Y-59676097D01*
X164426664Y-59676104D01*
X164454557Y-59751417D01*
X164479819Y-59827675D01*
X164482969Y-59833145D01*
X164491791Y-59851950D01*
X164493980Y-59857860D01*
X164493984Y-59857867D01*
X164536465Y-59926023D01*
X164567211Y-59979401D01*
X164576558Y-59995629D01*
X164576560Y-59995632D01*
X164576562Y-59995634D01*
X164580734Y-60000341D01*
X164593168Y-60016995D01*
X164596503Y-60022345D01*
X164651839Y-60080559D01*
X164705118Y-60140666D01*
X164705121Y-60140669D01*
X164705124Y-60140672D01*
X164705127Y-60140674D01*
X164705129Y-60140676D01*
X164710165Y-60144448D01*
X164725700Y-60158260D01*
X164730037Y-60162822D01*
X164730043Y-60162828D01*
X164787329Y-60202699D01*
X164795958Y-60208705D01*
X164860257Y-60256865D01*
X164865956Y-60259549D01*
X164883949Y-60269950D01*
X164887542Y-60272450D01*
X164889122Y-60273550D01*
X164962918Y-60305218D01*
X164986411Y-60316283D01*
X165035604Y-60339453D01*
X165041720Y-60340933D01*
X165061456Y-60347503D01*
X165067236Y-60349984D01*
X165145902Y-60366150D01*
X165223983Y-60385050D01*
X165230276Y-60385269D01*
X165250914Y-60387731D01*
X165257089Y-60389000D01*
X165337404Y-60389000D01*
X165417688Y-60391796D01*
X165417694Y-60391795D01*
X165423900Y-60390744D01*
X165444621Y-60389000D01*
X174718207Y-60389000D01*
X174722330Y-60389137D01*
X174729981Y-60389646D01*
X174785335Y-60393335D01*
X174864928Y-60382431D01*
X174944827Y-60374306D01*
X174950822Y-60372424D01*
X174971121Y-60367883D01*
X174977363Y-60367028D01*
X175053135Y-60340323D01*
X175129759Y-60316283D01*
X175135254Y-60313232D01*
X175154221Y-60304698D01*
X175160165Y-60302604D01*
X175229004Y-60261197D01*
X175299226Y-60222222D01*
X175303994Y-60218128D01*
X175320858Y-60205947D01*
X175326256Y-60202702D01*
X175385351Y-60148285D01*
X175446290Y-60095972D01*
X175450145Y-60090990D01*
X175464204Y-60075675D01*
X175468837Y-60071411D01*
X175515763Y-60006219D01*
X175564929Y-59942703D01*
X175567697Y-59937058D01*
X175578397Y-59919206D01*
X175582070Y-59914105D01*
X175614910Y-59840809D01*
X175650287Y-59768689D01*
X175651865Y-59762593D01*
X175658747Y-59742970D01*
X175661321Y-59737226D01*
X175678734Y-59658817D01*
X175698869Y-59581055D01*
X175699188Y-59574765D01*
X175701978Y-59554157D01*
X175703343Y-59548015D01*
X175704617Y-59467711D01*
X175708686Y-59387482D01*
X175707731Y-59381249D01*
X175706317Y-59360508D01*
X175706418Y-59354218D01*
X175691500Y-59275299D01*
X175679336Y-59195896D01*
X175677148Y-59189990D01*
X175671585Y-59169949D01*
X175670418Y-59163770D01*
X175639916Y-59089462D01*
X175612020Y-59014140D01*
X175608691Y-59008799D01*
X175599209Y-58990289D01*
X175596819Y-58984467D01*
X175551984Y-58917821D01*
X175509496Y-58849654D01*
X175505152Y-58845084D01*
X175492144Y-58828870D01*
X175164658Y-58342067D01*
X174515473Y-57377062D01*
X170863450Y-51948378D01*
X170861175Y-51944730D01*
X170830442Y-51891371D01*
X170776185Y-51830161D01*
X170723902Y-51767267D01*
X170723900Y-51767266D01*
X170723900Y-51767265D01*
X170720294Y-51764381D01*
X170704944Y-51749790D01*
X170701880Y-51746333D01*
X170701878Y-51746331D01*
X170701875Y-51746328D01*
X170636388Y-51697278D01*
X170572534Y-51646212D01*
X170572065Y-51645972D01*
X170568407Y-51644105D01*
X170550460Y-51632917D01*
X170546751Y-51630139D01*
X170546745Y-51630136D01*
X170472731Y-51595276D01*
X170399899Y-51558105D01*
X170399898Y-51558104D01*
X170399897Y-51558104D01*
X170395431Y-51556871D01*
X170375588Y-51549522D01*
X170371400Y-51547549D01*
X170371395Y-51547548D01*
X170291918Y-51528310D01*
X170213054Y-51506550D01*
X170213055Y-51506550D01*
X170208427Y-51506242D01*
X170187517Y-51503039D01*
X170183016Y-51501950D01*
X170101289Y-51499103D01*
X170019668Y-51493665D01*
X170019663Y-51493665D01*
X170015061Y-51494295D01*
X169993950Y-51495364D01*
X169989321Y-51495203D01*
X169989315Y-51495203D01*
X169908668Y-51508870D01*
X169827638Y-51519971D01*
X169823263Y-51521513D01*
X169802781Y-51526816D01*
X169798217Y-51527589D01*
X169721981Y-51557207D01*
X169644835Y-51584396D01*
X169644830Y-51584398D01*
X169640857Y-51586788D01*
X169621870Y-51596101D01*
X169617558Y-51597776D01*
X169617542Y-51597784D01*
X169548843Y-51642134D01*
X169478745Y-51684296D01*
X169478739Y-51684301D01*
X169475326Y-51687444D01*
X169458601Y-51700390D01*
X169454713Y-51702900D01*
X169396349Y-51760166D01*
X169336162Y-51815589D01*
X169333453Y-51819353D01*
X169319675Y-51835403D01*
X169316368Y-51838647D01*
X169270721Y-51906501D01*
X169222930Y-51972894D01*
X169222922Y-51972908D01*
X169221028Y-51977135D01*
X169210764Y-51995624D01*
X164582129Y-58876028D01*
X164579714Y-58879372D01*
X164541072Y-58929294D01*
X164541071Y-58929295D01*
X164505693Y-59001419D01*
X164467835Y-59072250D01*
X164466044Y-59078293D01*
X164458492Y-59097644D01*
X164455713Y-59103308D01*
X164455713Y-59103309D01*
X164435575Y-59181083D01*
X164412752Y-59258085D01*
X164412751Y-59258090D01*
X164412213Y-59264366D01*
X164408711Y-59284840D01*
X164407131Y-59290941D01*
X164403061Y-59371169D01*
X164396204Y-59451195D01*
X140145455Y-59451195D01*
X140148686Y-59387482D01*
X140147731Y-59381249D01*
X140146317Y-59360508D01*
X140146418Y-59354218D01*
X140131500Y-59275299D01*
X140119336Y-59195896D01*
X140117148Y-59189990D01*
X140111585Y-59169949D01*
X140110418Y-59163770D01*
X140079916Y-59089462D01*
X140052020Y-59014140D01*
X140048691Y-59008799D01*
X140039209Y-58990289D01*
X140036819Y-58984467D01*
X139991984Y-58917821D01*
X139949496Y-58849654D01*
X139945152Y-58845084D01*
X139932144Y-58828870D01*
X139604658Y-58342067D01*
X138955473Y-57377062D01*
X135303450Y-51948378D01*
X135301175Y-51944730D01*
X135270442Y-51891371D01*
X135216185Y-51830161D01*
X135163902Y-51767267D01*
X135163900Y-51767266D01*
X135163900Y-51767265D01*
X135160294Y-51764381D01*
X135144944Y-51749790D01*
X135141880Y-51746333D01*
X135141878Y-51746331D01*
X135141875Y-51746328D01*
X135076388Y-51697278D01*
X135012534Y-51646212D01*
X135012065Y-51645972D01*
X135008407Y-51644105D01*
X134990460Y-51632917D01*
X134986751Y-51630139D01*
X134986745Y-51630136D01*
X134912731Y-51595276D01*
X134839899Y-51558105D01*
X134839898Y-51558104D01*
X134839897Y-51558104D01*
X134835431Y-51556871D01*
X134815588Y-51549522D01*
X134811400Y-51547549D01*
X134811395Y-51547548D01*
X134731918Y-51528310D01*
X134653054Y-51506550D01*
X134653055Y-51506550D01*
X134648427Y-51506242D01*
X134627517Y-51503039D01*
X134623016Y-51501950D01*
X134541289Y-51499103D01*
X134459668Y-51493665D01*
X134459663Y-51493665D01*
X134455061Y-51494295D01*
X134433950Y-51495364D01*
X134429321Y-51495203D01*
X134429315Y-51495203D01*
X134348668Y-51508870D01*
X134267638Y-51519971D01*
X134263263Y-51521513D01*
X134242781Y-51526816D01*
X134238217Y-51527589D01*
X134161981Y-51557207D01*
X134084835Y-51584396D01*
X134084830Y-51584398D01*
X134080857Y-51586788D01*
X134061870Y-51596101D01*
X134057558Y-51597776D01*
X134057542Y-51597784D01*
X133988843Y-51642134D01*
X133918745Y-51684296D01*
X133918739Y-51684301D01*
X133915326Y-51687444D01*
X133898601Y-51700390D01*
X133894713Y-51702900D01*
X133836349Y-51760166D01*
X133776162Y-51815589D01*
X133773453Y-51819353D01*
X133759675Y-51835403D01*
X133756368Y-51838647D01*
X133710721Y-51906501D01*
X133662930Y-51972894D01*
X133662922Y-51972908D01*
X133661028Y-51977135D01*
X133650764Y-51995624D01*
X129022129Y-58876028D01*
X129019714Y-58879372D01*
X128981072Y-58929294D01*
X128981071Y-58929295D01*
X128945693Y-59001419D01*
X128907835Y-59072250D01*
X128906044Y-59078293D01*
X128898492Y-59097644D01*
X128895713Y-59103308D01*
X128895713Y-59103309D01*
X128875575Y-59181083D01*
X128852752Y-59258085D01*
X128852751Y-59258090D01*
X128852213Y-59264366D01*
X128848711Y-59284840D01*
X128847131Y-59290941D01*
X128843061Y-59371169D01*
X128836204Y-59451195D01*
X128270000Y-59451195D01*
X128270000Y-50924500D01*
X128289685Y-50857461D01*
X128342489Y-50811706D01*
X128394000Y-50800500D01*
X176406000Y-50800500D01*
X176473039Y-50820185D01*
G37*
G04 #@! TD.AperFunction*
G04 #@! TA.AperFunction,Conductor*
G36*
X201932426Y-50800690D02*
G01*
X201986977Y-50804984D01*
X202127579Y-50817285D01*
X202145696Y-50820235D01*
X202226020Y-50839520D01*
X202271511Y-50851709D01*
X202336713Y-50869181D01*
X202344400Y-50871790D01*
X202381685Y-50887233D01*
X202430959Y-50907643D01*
X202529955Y-50953806D01*
X202536154Y-50957136D01*
X202616778Y-51006543D01*
X202619926Y-51008608D01*
X202706606Y-51069302D01*
X202711285Y-51072924D01*
X202783840Y-51134892D01*
X202787389Y-51138173D01*
X202861824Y-51212608D01*
X202865109Y-51216162D01*
X202927070Y-51288708D01*
X202930707Y-51293406D01*
X202991385Y-51380064D01*
X202993462Y-51383231D01*
X203042862Y-51463845D01*
X203046192Y-51470042D01*
X203092358Y-51569043D01*
X203128208Y-51655598D01*
X203130817Y-51663284D01*
X203160485Y-51774002D01*
X203179760Y-51854290D01*
X203182714Y-51872429D01*
X203195020Y-52013083D01*
X203199309Y-52067575D01*
X203199500Y-52072441D01*
X203199500Y-151127558D01*
X203199309Y-151132424D01*
X203195020Y-151186916D01*
X203182714Y-151327569D01*
X203179760Y-151345707D01*
X203160485Y-151425997D01*
X203130817Y-151536714D01*
X203128208Y-151544399D01*
X203092358Y-151630956D01*
X203046192Y-151729956D01*
X203042862Y-151736153D01*
X202993462Y-151816767D01*
X202991385Y-151819934D01*
X202930707Y-151906592D01*
X202927062Y-151911300D01*
X202865118Y-151983827D01*
X202861812Y-151987403D01*
X202787403Y-152061812D01*
X202783827Y-152065118D01*
X202711300Y-152127062D01*
X202706592Y-152130707D01*
X202619934Y-152191385D01*
X202616767Y-152193462D01*
X202536153Y-152242862D01*
X202529956Y-152246192D01*
X202430956Y-152292358D01*
X202344399Y-152328208D01*
X202336714Y-152330817D01*
X202225997Y-152360485D01*
X202145707Y-152379760D01*
X202127569Y-152382714D01*
X201986916Y-152395020D01*
X201932425Y-152399309D01*
X201927559Y-152399500D01*
X177924000Y-152399500D01*
X177856961Y-152379815D01*
X177811206Y-152327011D01*
X177800000Y-152275500D01*
X177800000Y-128270000D01*
X177800000Y-50924500D01*
X177819685Y-50857461D01*
X177872489Y-50811706D01*
X177924000Y-50800500D01*
X201927562Y-50800500D01*
X201932426Y-50800690D01*
G37*
G04 #@! TD.AperFunction*
G04 #@! TA.AperFunction,Conductor*
G36*
X134563039Y-105429685D02*
G01*
X134608794Y-105482489D01*
X134620000Y-105534000D01*
X134620000Y-115446000D01*
X134600315Y-115513039D01*
X134547511Y-115558794D01*
X134496000Y-115570000D01*
X120774000Y-115570000D01*
X120706961Y-115550315D01*
X120661206Y-115497511D01*
X120650000Y-115446000D01*
X120650000Y-105534000D01*
X120669685Y-105466961D01*
X120722489Y-105421206D01*
X120774000Y-105410000D01*
X134496000Y-105410000D01*
X134563039Y-105429685D01*
G37*
G04 #@! TD.AperFunction*
G04 #@! TA.AperFunction,Conductor*
G36*
X173933039Y-61995685D02*
G01*
X173978794Y-62048489D01*
X173990000Y-62100000D01*
X173990000Y-88776000D01*
X173970315Y-88843039D01*
X173917511Y-88888794D01*
X173866000Y-88900000D01*
X148006362Y-88900000D01*
X147939323Y-88880315D01*
X147918681Y-88863681D01*
X146685000Y-87630000D01*
X135379000Y-87630000D01*
X135311961Y-87610315D01*
X135266206Y-87557511D01*
X135255000Y-87506000D01*
X135255000Y-62100000D01*
X135274685Y-62032961D01*
X135327489Y-61987206D01*
X135379000Y-61976000D01*
X173866000Y-61976000D01*
X173933039Y-61995685D01*
G37*
G04 #@! TD.AperFunction*
G04 #@! TA.AperFunction,Conductor*
G36*
X134926729Y-88274883D02*
G01*
X134970835Y-88293632D01*
X135095725Y-88346724D01*
X135162764Y-88366409D01*
X135202002Y-88376812D01*
X135379000Y-88397500D01*
X142116000Y-88397500D01*
X142183039Y-88417185D01*
X142228794Y-88469989D01*
X142240000Y-88521500D01*
X142240000Y-89111311D01*
X142234661Y-89147306D01*
X142212149Y-89221516D01*
X142201116Y-89333544D01*
X142197844Y-89366774D01*
X142197500Y-89370262D01*
X142197500Y-93569736D01*
X142212149Y-93718485D01*
X142225367Y-93762055D01*
X142234660Y-93792692D01*
X142240000Y-93828685D01*
X142240000Y-98301000D01*
X142220315Y-98368039D01*
X142167511Y-98413794D01*
X142116000Y-98425000D01*
X120774000Y-98425000D01*
X120706961Y-98405315D01*
X120661206Y-98352511D01*
X120650000Y-98301000D01*
X120650000Y-88389000D01*
X120669685Y-88321961D01*
X120722489Y-88276206D01*
X120774000Y-88265000D01*
X134878218Y-88265000D01*
X134926729Y-88274883D01*
G37*
G04 #@! TD.AperFunction*
M02*
