M48
; DRILL file {KiCad 7.0.2} date Tue Feb 27 12:18:31 2024
; FORMAT={-:-/ absolute / inch / decimal}
; #@! TF.CreationDate,2024-02-27T12:18:31-06:00
; #@! TF.GenerationSoftware,Kicad,Pcbnew,7.0.2
; #@! TF.FileFunction,Plated,1,2,PTH
FMAT,2
INCH
; #@! TA.AperFunction,Plated,PTH,ViaDrill
T1C0.0157
; #@! TA.AperFunction,Plated,PTH,ComponentDrill
T2C0.0354
; #@! TA.AperFunction,Plated,PTH,ComponentDrill
T3C0.0394
; #@! TA.AperFunction,Plated,PTH,ComponentDrill
T4C0.0433
; #@! TA.AperFunction,Plated,PTH,ComponentDrill
T5C0.0787
; #@! TA.AperFunction,Plated,PTH,ComponentDrill
T6C0.3600
%
G90
G05
T1
X5.05Y-4.25
X5.05Y-4.35
X5.05Y-4.45
X5.1Y-2.05
X5.1Y-2.6
X5.1Y-3.05
X5.275Y-3.575
X5.275Y-3.675
X5.275Y-3.775
X5.4Y-3.1
X5.4Y-3.225
X5.4Y-3.35
X5.4Y-3.575
X5.4Y-3.675
X5.4Y-3.775
X5.55Y-3.1
X5.55Y-3.25
X5.55Y-3.35
X5.575Y-3.975
X5.675Y-3.775
X5.7Y-3.1
X5.7Y-3.225
X5.7Y-3.35
X5.775Y-3.925
X5.775Y-4.05
X6.0Y-3.75
X6.1811Y-4.4
X6.225Y-4.325
X6.225Y-4.475
X6.375Y-3.625
X6.375Y-3.825
X6.425Y-3.75
X6.425Y-4.4
X6.425Y-4.675
X6.425Y-5.025
X6.6Y-4.675
X6.6Y-5.025
X6.65Y-4.325
X6.65Y-4.475
X6.7Y-3.975
X6.725Y-3.75
X6.725Y-5.4
X6.8Y-4.325
X6.8Y-4.475
X6.9Y-2.05
X6.9Y-2.6
X6.9Y-3.05
X6.925Y-4.325
X6.925Y-4.475
X6.95Y-4.7
X6.95Y-4.85
X6.95Y-5.0
T2
X6.45Y-5.5
X6.55Y-5.5
X6.65Y-5.5
X6.75Y-5.5
X6.85Y-5.5
T3
X5.2Y-3.5531
X5.2Y-3.9469
T6
X4.5Y-3.0
X4.5Y-5.0
X6.325Y-2.975
X7.5Y-3.0
X7.5Y-5.0
T4
G00X5.1593Y-4.2398
M15
G01X5.1593Y-4.4563
M16
G05
G00X5.1298Y-5.037
M15
G01X5.3463Y-5.037
M16
G05
G00X5.6416Y-5.037
M15
G01X5.8581Y-5.037
M16
G05
G00X5.8286Y-4.4563
M15
G01X5.8286Y-4.2398
M16
G05
G00X6.1714Y-4.7437
M15
G01X6.1714Y-4.9602
M16
G05
G00X6.3584Y-4.163
M15
G01X6.1419Y-4.163
M16
G05
G00X6.8702Y-4.163
M15
G01X6.6537Y-4.163
M16
G05
G00X6.8407Y-4.9602
M15
G01X6.8407Y-4.7437
M16
G05
T5
G00X5.8037Y-5.2726
M15
G01X5.8863Y-5.2726
M16
G05
G00X6.1137Y-5.2726
M15
G01X6.1963Y-5.2726
M16
G05
T0
M30
