G04 #@! TF.GenerationSoftware,KiCad,Pcbnew,7.0.7*
G04 #@! TF.CreationDate,2024-02-27T11:50:38-06:00*
G04 #@! TF.ProjectId,Relay_board_hardware,52656c61-795f-4626-9f61-72645f686172,rev?*
G04 #@! TF.SameCoordinates,Original*
G04 #@! TF.FileFunction,Copper,L1,Top*
G04 #@! TF.FilePolarity,Positive*
%FSLAX46Y46*%
G04 Gerber Fmt 4.6, Leading zero omitted, Abs format (unit mm)*
G04 Created by KiCad (PCBNEW 7.0.7) date 2024-02-27 11:50:38*
%MOMM*%
%LPD*%
G01*
G04 APERTURE LIST*
G04 Aperture macros list*
%AMRoundRect*
0 Rectangle with rounded corners*
0 $1 Rounding radius*
0 $2 $3 $4 $5 $6 $7 $8 $9 X,Y pos of 4 corners*
0 Add a 4 corners polygon primitive as box body*
4,1,4,$2,$3,$4,$5,$6,$7,$8,$9,$2,$3,0*
0 Add four circle primitives for the rounded corners*
1,1,$1+$1,$2,$3*
1,1,$1+$1,$4,$5*
1,1,$1+$1,$6,$7*
1,1,$1+$1,$8,$9*
0 Add four rect primitives between the rounded corners*
20,1,$1+$1,$2,$3,$4,$5,0*
20,1,$1+$1,$4,$5,$6,$7,0*
20,1,$1+$1,$6,$7,$8,$9,0*
20,1,$1+$1,$8,$9,$2,$3,0*%
G04 Aperture macros list end*
G04 #@! TA.AperFunction,EtchedComponent*
%ADD10C,0.381000*%
G04 #@! TD*
G04 #@! TA.AperFunction,EtchedComponent*
%ADD11C,0.254000*%
G04 #@! TD*
G04 #@! TA.AperFunction,EtchedComponent*
%ADD12C,0.762000*%
G04 #@! TD*
G04 #@! TA.AperFunction,ComponentPad*
%ADD13O,5.100000X3.000000*%
G04 #@! TD*
G04 #@! TA.AperFunction,ComponentPad*
%ADD14R,25.400000X50.800000*%
G04 #@! TD*
G04 #@! TA.AperFunction,SMDPad,CuDef*
%ADD15RoundRect,0.249999X0.450001X1.425001X-0.450001X1.425001X-0.450001X-1.425001X0.450001X-1.425001X0*%
G04 #@! TD*
G04 #@! TA.AperFunction,ComponentPad*
%ADD16RoundRect,0.775000X-3.525000X0.775000X-3.525000X-0.775000X3.525000X-0.775000X3.525000X0.775000X0*%
G04 #@! TD*
G04 #@! TA.AperFunction,ComponentPad*
%ADD17RoundRect,0.775000X0.775000X3.525000X-0.775000X3.525000X-0.775000X-3.525000X0.775000X-3.525000X0*%
G04 #@! TD*
G04 #@! TA.AperFunction,ComponentPad*
%ADD18RoundRect,0.775000X-0.775000X-3.525000X0.775000X-3.525000X0.775000X3.525000X-0.775000X3.525000X0*%
G04 #@! TD*
G04 #@! TA.AperFunction,SMDPad,CuDef*
%ADD19R,0.400000X0.500000*%
G04 #@! TD*
G04 #@! TA.AperFunction,SMDPad,CuDef*
%ADD20R,0.750000X0.500000*%
G04 #@! TD*
G04 #@! TA.AperFunction,SMDPad,CuDef*
%ADD21R,1.300000X0.500000*%
G04 #@! TD*
G04 #@! TA.AperFunction,SMDPad,CuDef*
%ADD22RoundRect,0.150000X0.825000X0.150000X-0.825000X0.150000X-0.825000X-0.150000X0.825000X-0.150000X0*%
G04 #@! TD*
G04 #@! TA.AperFunction,ComponentPad*
%ADD23RoundRect,0.775000X3.525000X-0.775000X3.525000X0.775000X-3.525000X0.775000X-3.525000X-0.775000X0*%
G04 #@! TD*
G04 #@! TA.AperFunction,ComponentPad*
%ADD24R,25.400000X25.400000*%
G04 #@! TD*
G04 #@! TA.AperFunction,ComponentPad*
%ADD25C,2.000000*%
G04 #@! TD*
G04 #@! TA.AperFunction,ComponentPad*
%ADD26C,1.524000*%
G04 #@! TD*
G04 #@! TA.AperFunction,ViaPad*
%ADD27C,0.800000*%
G04 #@! TD*
G04 #@! TA.AperFunction,Conductor*
%ADD28C,0.254000*%
G04 #@! TD*
G04 #@! TA.AperFunction,Conductor*
%ADD29C,2.540000*%
G04 #@! TD*
G04 #@! TA.AperFunction,Conductor*
%ADD30C,0.250000*%
G04 #@! TD*
G04 APERTURE END LIST*
D10*
X165354000Y-59436000D02*
X170053000Y-52451000D01*
X169153840Y-56842660D02*
X170352720Y-56042560D01*
X169153840Y-56842660D02*
X170454320Y-54041040D01*
X169555160Y-58841640D02*
X169453560Y-57942480D01*
X169555160Y-58841640D02*
X170154600Y-58143140D01*
X169555160Y-58841640D02*
X170754040Y-55742840D01*
X169953940Y-53842920D02*
X169153840Y-56842660D01*
X170053000Y-52451000D02*
X174752000Y-59436000D01*
X170352720Y-56042560D02*
X169555160Y-58841640D01*
X170754040Y-55742840D02*
X170154600Y-56141620D01*
X174752000Y-59436000D02*
X165354000Y-59436000D01*
X165989000Y-146558000D02*
X165608000Y-146685000D01*
X165989000Y-146558000D02*
X165989000Y-146177000D01*
X166243000Y-150622000D02*
X165862000Y-150622000D01*
X166243000Y-150622000D02*
X166243000Y-151130000D01*
X166370000Y-148336000D02*
X166497000Y-147828000D01*
X166370000Y-148590000D02*
X166370000Y-148336000D01*
X166370000Y-148590000D02*
X166497000Y-148844000D01*
X166497000Y-146939000D02*
X165989000Y-146558000D01*
X166497000Y-147828000D02*
X166751000Y-147193000D01*
X166497000Y-148844000D02*
X166624000Y-149098000D01*
X166624000Y-149098000D02*
X167132000Y-149225000D01*
X166751000Y-147193000D02*
X167259000Y-146685000D01*
X167132000Y-149225000D02*
X167767000Y-149352000D01*
X167259000Y-146685000D02*
X167894000Y-146304000D01*
X167259000Y-149733000D02*
X166243000Y-150622000D01*
X167767000Y-149352000D02*
X168148000Y-149352000D01*
X167894000Y-146304000D02*
X168529000Y-146050000D01*
X167894000Y-150114000D02*
X167894000Y-149352000D01*
X167894000Y-150495000D02*
X167894000Y-150114000D01*
X167894000Y-150495000D02*
X168021000Y-150749000D01*
X168021000Y-150749000D02*
X168275000Y-151003000D01*
X168275000Y-151003000D02*
X168656000Y-151130000D01*
X168402000Y-149733000D02*
X169545000Y-149733000D01*
X168402000Y-150241000D02*
X168402000Y-149733000D01*
X168529000Y-146050000D02*
X169037000Y-146050000D01*
X168656000Y-148971000D02*
X168910000Y-148209000D01*
X168910000Y-148209000D02*
X169164000Y-148971000D01*
X169037000Y-146050000D02*
X169672000Y-146177000D01*
X169037000Y-149860000D02*
X169037000Y-150114000D01*
X169037000Y-151130000D02*
X168656000Y-151130000D01*
X169164000Y-148971000D02*
X168656000Y-148971000D01*
X169545000Y-149733000D02*
X169545000Y-150241000D01*
X169545000Y-150241000D02*
X168402000Y-150241000D01*
X169545000Y-151003000D02*
X169037000Y-151130000D01*
X169672000Y-146177000D02*
X170307000Y-146431000D01*
X169926000Y-150876000D02*
X169545000Y-151003000D01*
X170053000Y-149352000D02*
X170053000Y-150114000D01*
X170053000Y-150114000D02*
X170053000Y-150495000D01*
X170053000Y-150495000D02*
X169926000Y-150876000D01*
X170180000Y-149352000D02*
X169799000Y-149352000D01*
X170307000Y-146431000D02*
X170815000Y-146939000D01*
X170561000Y-149352000D02*
X170180000Y-149352000D01*
X170688000Y-149733000D02*
X171577000Y-150622000D01*
X170815000Y-146939000D02*
X171069000Y-147320000D01*
X171069000Y-147320000D02*
X171323000Y-147828000D01*
X171069000Y-149098000D02*
X170561000Y-149352000D01*
X171196000Y-146939000D02*
X171831000Y-146431000D01*
X171323000Y-147828000D02*
X171450000Y-148209000D01*
X171323000Y-148971000D02*
X171069000Y-149098000D01*
X171450000Y-148209000D02*
X171450000Y-148590000D01*
X171450000Y-148590000D02*
X171323000Y-148971000D01*
X171577000Y-150622000D02*
X171577000Y-151003000D01*
X171577000Y-150622000D02*
X171831000Y-150622000D01*
X171577000Y-151003000D02*
X171704000Y-151003000D01*
X171831000Y-146431000D02*
X171831000Y-145923000D01*
X171831000Y-146431000D02*
X172339000Y-146304000D01*
X168177981Y-148209000D02*
G75*
G03*
X168177981Y-148209000I-283981J0D01*
G01*
X170209981Y-148209000D02*
G75*
G03*
X170209981Y-148209000I-283981J0D01*
G01*
X131729480Y-145787110D02*
X136428480Y-138802110D01*
X135529320Y-143193770D02*
X136728200Y-142393670D01*
X135529320Y-143193770D02*
X136829800Y-140392150D01*
X135930640Y-145192750D02*
X135829040Y-144293590D01*
X135930640Y-145192750D02*
X136530080Y-144494250D01*
X135930640Y-145192750D02*
X137129520Y-142093950D01*
X136329420Y-140194030D02*
X135529320Y-143193770D01*
X136428480Y-138802110D02*
X141127480Y-145787110D01*
X136728200Y-142393670D02*
X135930640Y-145192750D01*
X137129520Y-142093950D02*
X136530080Y-142492730D01*
X141127480Y-145787110D02*
X131729480Y-145787110D01*
X129794000Y-59436000D02*
X134493000Y-52451000D01*
X133593840Y-56842660D02*
X134792720Y-56042560D01*
X133593840Y-56842660D02*
X134894320Y-54041040D01*
X133995160Y-58841640D02*
X133893560Y-57942480D01*
X133995160Y-58841640D02*
X134594600Y-58143140D01*
X133995160Y-58841640D02*
X135194040Y-55742840D01*
X134393940Y-53842920D02*
X133593840Y-56842660D01*
X134493000Y-52451000D02*
X139192000Y-59436000D01*
X134792720Y-56042560D02*
X133995160Y-58841640D01*
X135194040Y-55742840D02*
X134594600Y-56141620D01*
X139192000Y-59436000D02*
X129794000Y-59436000D01*
D11*
X151384000Y-139761500D02*
X151638000Y-139507500D01*
X151384000Y-139761500D02*
X153416000Y-139761500D01*
D12*
X151384000Y-142174500D02*
X151384000Y-140904500D01*
X151384000Y-142174500D02*
X152400000Y-142174500D01*
D11*
X151638000Y-139507500D02*
X153162000Y-139507500D01*
D12*
X152400000Y-142174500D02*
X153416000Y-142174500D01*
X152400000Y-144714500D02*
X152400000Y-139634500D01*
D11*
X153162000Y-139507500D02*
X153416000Y-139761500D01*
D12*
X153416000Y-142174500D02*
X153416000Y-141412500D01*
D13*
X148463000Y-133922800D03*
X156337000Y-133922800D03*
D14*
X114300000Y-76200000D03*
D15*
X147195000Y-95250000D03*
X141095000Y-95250000D03*
D16*
X158754000Y-105740000D03*
X171754000Y-105740000D03*
D17*
X173754000Y-123240000D03*
D18*
X156754000Y-123240000D03*
D19*
X171770000Y-135820000D03*
D20*
X172720000Y-135820000D03*
D19*
X173670000Y-135820000D03*
X173670000Y-133420000D03*
D21*
X172220000Y-133420000D03*
D14*
X114300000Y-127000000D03*
X190500000Y-76200000D03*
D22*
X164465000Y-97790000D03*
X164465000Y-96520000D03*
X164465000Y-95250000D03*
X164465000Y-93980000D03*
X159515000Y-93980000D03*
X159515000Y-95250000D03*
X159515000Y-96520000D03*
X159515000Y-97790000D03*
D14*
X190500000Y-127000000D03*
D23*
X146046000Y-127940000D03*
X133046000Y-127940000D03*
D18*
X131046000Y-110440000D03*
D17*
X148046000Y-110440000D03*
D15*
X174500000Y-95250000D03*
X168400000Y-95250000D03*
D24*
X160655000Y-75565000D03*
D25*
X132080000Y-90250000D03*
X132080000Y-100250000D03*
D26*
X173990000Y-139700000D03*
X171450000Y-139700000D03*
X168910000Y-139700000D03*
X166370000Y-139700000D03*
X163830000Y-139700000D03*
D27*
X137160000Y-93345000D03*
X133985000Y-95885000D03*
X133985000Y-90805000D03*
X137160000Y-90805000D03*
X133985000Y-93345000D03*
X128270000Y-113030000D03*
X137160000Y-95885000D03*
X128270000Y-107950000D03*
X128270000Y-110490000D03*
X167640000Y-118745000D03*
X161925000Y-97155000D03*
X129540000Y-66040000D03*
X172720000Y-113665000D03*
X129540000Y-77470000D03*
X170815000Y-137160000D03*
X163195000Y-127635000D03*
X167640000Y-127635000D03*
X146685000Y-102870000D03*
X175260000Y-52070000D03*
X158115000Y-113665000D03*
X163195000Y-118745000D03*
X170815000Y-95250000D03*
X168910000Y-113665000D03*
X172720000Y-109855000D03*
X129540000Y-52070000D03*
X175260000Y-77470000D03*
X175895000Y-109855000D03*
X175895000Y-113665000D03*
X158115000Y-109855000D03*
X168910000Y-109855000D03*
X146685000Y-99695000D03*
X175260000Y-66040000D03*
X161925000Y-92075000D03*
X170180000Y-100965000D03*
X141605000Y-100965000D03*
X176530000Y-123190000D03*
X176530000Y-127000000D03*
X176530000Y-119380000D03*
X152400000Y-95250000D03*
X163195000Y-95250000D03*
X140970000Y-78740000D03*
X140970000Y-85090000D03*
X144780000Y-81915000D03*
X137160000Y-81915000D03*
X140970000Y-82550000D03*
X137160000Y-85090000D03*
X144780000Y-85090000D03*
X144780000Y-78740000D03*
X137160000Y-78740000D03*
X157000000Y-111760000D03*
X163195000Y-111760000D03*
X144145000Y-95885000D03*
D28*
X139700000Y-126365000D02*
X139700000Y-102870000D01*
X170110000Y-135820000D02*
X166370000Y-132080000D01*
X166370000Y-106680000D02*
X167310000Y-105740000D01*
X167310000Y-105740000D02*
X171754000Y-105740000D01*
X166370000Y-132080000D02*
X166370000Y-106680000D01*
X171754000Y-102539000D02*
X171754000Y-105740000D01*
X138125000Y-127940000D02*
X139700000Y-126365000D01*
X133046000Y-127940000D02*
X138125000Y-127940000D01*
X170180000Y-100965000D02*
X171754000Y-102539000D01*
X139700000Y-102870000D02*
X141605000Y-100965000D01*
X171770000Y-135820000D02*
X170110000Y-135820000D01*
D29*
X156337000Y-123657000D02*
X156754000Y-123240000D01*
X156337000Y-133922800D02*
X156337000Y-123657000D01*
X151816000Y-130569800D02*
X151816000Y-114210000D01*
X151816000Y-114210000D02*
X148046000Y-110440000D01*
X148463000Y-133922800D02*
X151816000Y-130569800D01*
D28*
X163195000Y-95250000D02*
X168400000Y-95250000D01*
X152400000Y-95250000D02*
X147195000Y-95250000D01*
D30*
X165100000Y-103505000D02*
X159515000Y-97920000D01*
D28*
X165100000Y-103505000D02*
X165100000Y-135890000D01*
X165100000Y-135890000D02*
X168910000Y-139700000D01*
D30*
X159515000Y-97920000D02*
X159515000Y-97790000D01*
D28*
X165735000Y-99060000D02*
X164465000Y-97790000D01*
X164465000Y-96520000D02*
X164465000Y-97790000D01*
X171450000Y-139700000D02*
X165735000Y-133985000D01*
X165735000Y-99060000D02*
X165735000Y-133985000D01*
X164465000Y-113030000D02*
X164465000Y-137795000D01*
D30*
X144145000Y-98905000D02*
X157000000Y-111760000D01*
D28*
X164465000Y-137795000D02*
X166370000Y-139700000D01*
X163195000Y-111760000D02*
X164465000Y-113030000D01*
D30*
X144145000Y-95885000D02*
X144145000Y-98905000D01*
D28*
X173990000Y-136140000D02*
X173670000Y-135820000D01*
X173990000Y-139700000D02*
X173990000Y-136140000D01*
G04 #@! TA.AperFunction,Conductor*
G36*
X180975000Y-97790000D02*
G01*
X172844000Y-97790000D01*
X172776961Y-97770315D01*
X172731206Y-97717511D01*
X172720000Y-97666000D01*
X172720000Y-92834000D01*
X172739685Y-92766961D01*
X172792489Y-92721206D01*
X172844000Y-92710000D01*
X177800000Y-92710000D01*
X180975000Y-92710000D01*
X180975000Y-97790000D01*
G37*
G04 #@! TD.AperFunction*
G04 #@! TA.AperFunction,Conductor*
G36*
X126943039Y-50820185D02*
G01*
X126988794Y-50872989D01*
X127000000Y-50924499D01*
X127000000Y-88265000D01*
X120650000Y-88265000D01*
X120650000Y-98425000D01*
X127000000Y-98425000D01*
X127000000Y-115570000D01*
X127000000Y-152275500D01*
X126980315Y-152342539D01*
X126927511Y-152388294D01*
X126876000Y-152399500D01*
X102872441Y-152399500D01*
X102867575Y-152399309D01*
X102813083Y-152395020D01*
X102672429Y-152382714D01*
X102654290Y-152379760D01*
X102574002Y-152360485D01*
X102463284Y-152330817D01*
X102455598Y-152328208D01*
X102369043Y-152292358D01*
X102270042Y-152246192D01*
X102263845Y-152242862D01*
X102183231Y-152193462D01*
X102180064Y-152191385D01*
X102147182Y-152168361D01*
X102093399Y-152130702D01*
X102088708Y-152127070D01*
X102016162Y-152065109D01*
X102012608Y-152061824D01*
X101938173Y-151987389D01*
X101934892Y-151983840D01*
X101872924Y-151911285D01*
X101869302Y-151906606D01*
X101808608Y-151819926D01*
X101806543Y-151816778D01*
X101757136Y-151736153D01*
X101753806Y-151729955D01*
X101707643Y-151630959D01*
X101687233Y-151581685D01*
X101671790Y-151544400D01*
X101669181Y-151536713D01*
X101639514Y-151425997D01*
X101620235Y-151345696D01*
X101617285Y-151327579D01*
X101604984Y-151186977D01*
X101600691Y-151132426D01*
X101600500Y-151127561D01*
X101600500Y-52072436D01*
X101600691Y-52067571D01*
X101604984Y-52013023D01*
X101617286Y-51872416D01*
X101620234Y-51854307D01*
X101639518Y-51773984D01*
X101669180Y-51663285D01*
X101671790Y-51655598D01*
X101707649Y-51569026D01*
X101753813Y-51470028D01*
X101757127Y-51463860D01*
X101806562Y-51383190D01*
X101808587Y-51380102D01*
X101869316Y-51293372D01*
X101872908Y-51288733D01*
X101934914Y-51216133D01*
X101938149Y-51212634D01*
X102012634Y-51138149D01*
X102016133Y-51134914D01*
X102088733Y-51072908D01*
X102093372Y-51069316D01*
X102180102Y-51008587D01*
X102183190Y-51006562D01*
X102263860Y-50957127D01*
X102270028Y-50953813D01*
X102369026Y-50907649D01*
X102455599Y-50871789D01*
X102463285Y-50869181D01*
X102465617Y-50868556D01*
X102573984Y-50839518D01*
X102654307Y-50820234D01*
X102672416Y-50817286D01*
X102812988Y-50804986D01*
X102867573Y-50800690D01*
X102872438Y-50800500D01*
X126876000Y-50800500D01*
X126943039Y-50820185D01*
G37*
G04 #@! TD.AperFunction*
G04 #@! TA.AperFunction,Conductor*
G36*
X177800000Y-128270000D02*
G01*
X170180000Y-128270000D01*
X169034000Y-128270000D01*
X168966961Y-128250315D01*
X168921206Y-128197511D01*
X168910000Y-128146000D01*
X168910000Y-118234000D01*
X168929685Y-118166961D01*
X168982489Y-118121206D01*
X169034000Y-118110000D01*
X177800000Y-118110000D01*
X177800000Y-128270000D01*
G37*
G04 #@! TD.AperFunction*
G04 #@! TA.AperFunction,Conductor*
G36*
X176473039Y-50820185D02*
G01*
X176518794Y-50872989D01*
X176530000Y-50924500D01*
X176530000Y-91818500D01*
X176510315Y-91885539D01*
X176457511Y-91931294D01*
X176406000Y-91942500D01*
X172844000Y-91942500D01*
X172843991Y-91942500D01*
X172843990Y-91942501D01*
X172680855Y-91960040D01*
X172680843Y-91960042D01*
X172629339Y-91971247D01*
X172603663Y-91977296D01*
X172437200Y-92040892D01*
X172437195Y-92040895D01*
X172289885Y-92141166D01*
X172251282Y-92174616D01*
X172237079Y-92186924D01*
X172211656Y-92211421D01*
X172178655Y-92243222D01*
X172072994Y-92386724D01*
X172003276Y-92550725D01*
X171983591Y-92617764D01*
X171973189Y-92656994D01*
X171973188Y-92657001D01*
X171973188Y-92657002D01*
X171952500Y-92834000D01*
X171952500Y-97666000D01*
X171952501Y-97666009D01*
X171970040Y-97829144D01*
X171970042Y-97829156D01*
X171981247Y-97880661D01*
X171987296Y-97906336D01*
X172050892Y-98072799D01*
X172050895Y-98072804D01*
X172151166Y-98220114D01*
X172151169Y-98220117D01*
X172196924Y-98272921D01*
X172253226Y-98331348D01*
X172396726Y-98437007D01*
X172560725Y-98506724D01*
X172627763Y-98526409D01*
X172627764Y-98526409D01*
X172657470Y-98534285D01*
X172667002Y-98536812D01*
X172844000Y-98557500D01*
X172844007Y-98557500D01*
X176406000Y-98557500D01*
X176473039Y-98577185D01*
X176518794Y-98629989D01*
X176530000Y-98681500D01*
X176530000Y-103742359D01*
X176510315Y-103809398D01*
X176457511Y-103855153D01*
X176388353Y-103865097D01*
X176325659Y-103836812D01*
X176214615Y-103742359D01*
X176180626Y-103713448D01*
X175968188Y-103585024D01*
X175968187Y-103585024D01*
X175737900Y-103492341D01*
X175495727Y-103437799D01*
X175495720Y-103437798D01*
X175349849Y-103427500D01*
X172767500Y-103427500D01*
X172700461Y-103407815D01*
X172654706Y-103355011D01*
X172643500Y-103303500D01*
X172643500Y-102618764D01*
X172645027Y-102599364D01*
X172647174Y-102585810D01*
X172643585Y-102517328D01*
X172643500Y-102514083D01*
X172643500Y-102492378D01*
X172641231Y-102470801D01*
X172640976Y-102467561D01*
X172637388Y-102399087D01*
X172637388Y-102399085D01*
X172633834Y-102385822D01*
X172630290Y-102366702D01*
X172628855Y-102353044D01*
X172607658Y-102287807D01*
X172606740Y-102284707D01*
X172588994Y-102218475D01*
X172582760Y-102206241D01*
X172575313Y-102188260D01*
X172571076Y-102175218D01*
X172571076Y-102175217D01*
X172560832Y-102157474D01*
X172536767Y-102115792D01*
X172535248Y-102112994D01*
X172504107Y-102051875D01*
X172504104Y-102051871D01*
X172504102Y-102051868D01*
X172495470Y-102041209D01*
X172484447Y-102025171D01*
X172477584Y-102013284D01*
X172477583Y-102013282D01*
X172431700Y-101962324D01*
X172429592Y-101959856D01*
X172415942Y-101943000D01*
X172415932Y-101942989D01*
X172400596Y-101927653D01*
X172398361Y-101925298D01*
X172352470Y-101874331D01*
X172352468Y-101874329D01*
X172341358Y-101866257D01*
X172326565Y-101853622D01*
X171369899Y-100896956D01*
X171336414Y-100835633D01*
X171334110Y-100820726D01*
X171327601Y-100750476D01*
X171268643Y-100543258D01*
X171268639Y-100543249D01*
X171172613Y-100350402D01*
X171042776Y-100178471D01*
X170883564Y-100033331D01*
X170883562Y-100033329D01*
X170700394Y-99919916D01*
X170700388Y-99919913D01*
X170542056Y-99858576D01*
X170499496Y-99842088D01*
X170287721Y-99802500D01*
X170072279Y-99802500D01*
X169860504Y-99842088D01*
X169860501Y-99842088D01*
X169860501Y-99842089D01*
X169659611Y-99919913D01*
X169659605Y-99919916D01*
X169476437Y-100033329D01*
X169476435Y-100033331D01*
X169317223Y-100178471D01*
X169187386Y-100350402D01*
X169091360Y-100543249D01*
X169091356Y-100543259D01*
X169032398Y-100750480D01*
X169012520Y-100964999D01*
X169032398Y-101179519D01*
X169091356Y-101386740D01*
X169091360Y-101386750D01*
X169187386Y-101579597D01*
X169317223Y-101751528D01*
X169476435Y-101896668D01*
X169476437Y-101896670D01*
X169659605Y-102010083D01*
X169659611Y-102010086D01*
X169702169Y-102026573D01*
X169860504Y-102087912D01*
X170049638Y-102123267D01*
X170111916Y-102154934D01*
X170114530Y-102157473D01*
X170828182Y-102871125D01*
X170861666Y-102932446D01*
X170864500Y-102958804D01*
X170864500Y-103303500D01*
X170844815Y-103370539D01*
X170792011Y-103416294D01*
X170740500Y-103427500D01*
X168158173Y-103427500D01*
X168158152Y-103427501D01*
X168142237Y-103428624D01*
X168012281Y-103437798D01*
X168012275Y-103437798D01*
X168012275Y-103437799D01*
X168012272Y-103437799D01*
X168012270Y-103437800D01*
X167770103Y-103492340D01*
X167770098Y-103492341D01*
X167539811Y-103585024D01*
X167539806Y-103585027D01*
X167327380Y-103713444D01*
X167327370Y-103713451D01*
X167138285Y-103874285D01*
X166977451Y-104063370D01*
X166977444Y-104063380D01*
X166854617Y-104266560D01*
X166803089Y-104313748D01*
X166734229Y-104325586D01*
X166669901Y-104298317D01*
X166630527Y-104240598D01*
X166624500Y-104202410D01*
X166624500Y-99139764D01*
X166626027Y-99120364D01*
X166628174Y-99106810D01*
X166624585Y-99038328D01*
X166624500Y-99035083D01*
X166624500Y-99013378D01*
X166622445Y-98993833D01*
X166622229Y-98991785D01*
X166621976Y-98988561D01*
X166621332Y-98976280D01*
X166618388Y-98920085D01*
X166614834Y-98906822D01*
X166611290Y-98887702D01*
X166609855Y-98874044D01*
X166588658Y-98808807D01*
X166587745Y-98805726D01*
X166569994Y-98739475D01*
X166563761Y-98727242D01*
X166556316Y-98709267D01*
X166552075Y-98696215D01*
X166552072Y-98696209D01*
X166517786Y-98636825D01*
X166516237Y-98633972D01*
X166485104Y-98572871D01*
X166476471Y-98562211D01*
X166465447Y-98546170D01*
X166458587Y-98534287D01*
X166422970Y-98494731D01*
X166412684Y-98483307D01*
X166410608Y-98480877D01*
X166396937Y-98463994D01*
X166381596Y-98448653D01*
X166379361Y-98446298D01*
X166333470Y-98395331D01*
X166333468Y-98395329D01*
X166322358Y-98387257D01*
X166307565Y-98374622D01*
X166208866Y-98275923D01*
X166175381Y-98214600D01*
X166176771Y-98156150D01*
X166196230Y-98083533D01*
X166202500Y-98003863D01*
X166202499Y-97576138D01*
X166196230Y-97496467D01*
X166146584Y-97311188D01*
X166095685Y-97211294D01*
X166082789Y-97142626D01*
X166095686Y-97098704D01*
X166113194Y-97064343D01*
X166146584Y-96998812D01*
X166196230Y-96813533D01*
X166202500Y-96733863D01*
X166202499Y-96306138D01*
X166199909Y-96273226D01*
X166214274Y-96204851D01*
X166263325Y-96155095D01*
X166323527Y-96139500D01*
X166813500Y-96139500D01*
X166880539Y-96159185D01*
X166926294Y-96211989D01*
X166937500Y-96263499D01*
X166937500Y-96724742D01*
X166938399Y-96733865D01*
X166952149Y-96873486D01*
X166952150Y-96873488D01*
X167010046Y-97064343D01*
X167104061Y-97240235D01*
X167104063Y-97240238D01*
X167230589Y-97394410D01*
X167384761Y-97520936D01*
X167384764Y-97520938D01*
X167560656Y-97614953D01*
X167560658Y-97614954D01*
X167751511Y-97672849D01*
X167751513Y-97672850D01*
X167788699Y-97676512D01*
X167900258Y-97687500D01*
X167900261Y-97687500D01*
X168899739Y-97687500D01*
X168899742Y-97687500D01*
X169048486Y-97672850D01*
X169239342Y-97614954D01*
X169415237Y-97520937D01*
X169569410Y-97394410D01*
X169695937Y-97240237D01*
X169789954Y-97064342D01*
X169847850Y-96873486D01*
X169862500Y-96724742D01*
X169862500Y-93775258D01*
X169847850Y-93626514D01*
X169789954Y-93435658D01*
X169695937Y-93259763D01*
X169695936Y-93259761D01*
X169569410Y-93105589D01*
X169415238Y-92979063D01*
X169415235Y-92979061D01*
X169239343Y-92885046D01*
X169048488Y-92827150D01*
X169048486Y-92827149D01*
X168933665Y-92815841D01*
X168899742Y-92812500D01*
X167900258Y-92812500D01*
X167868731Y-92815605D01*
X167751513Y-92827149D01*
X167751511Y-92827150D01*
X167560656Y-92885046D01*
X167384764Y-92979061D01*
X167384761Y-92979063D01*
X167230589Y-93105589D01*
X167104063Y-93259761D01*
X167104061Y-93259764D01*
X167010046Y-93435656D01*
X166952150Y-93626511D01*
X166952149Y-93626513D01*
X166940605Y-93743731D01*
X166938399Y-93766137D01*
X166937500Y-93775261D01*
X166937500Y-94236500D01*
X166917815Y-94303539D01*
X166865011Y-94349294D01*
X166813500Y-94360500D01*
X165870680Y-94360500D01*
X165803641Y-94340815D01*
X165792644Y-94332866D01*
X165789720Y-94330498D01*
X165618812Y-94243416D01*
X165433533Y-94193770D01*
X165433532Y-94193769D01*
X165433529Y-94193769D01*
X165353865Y-94187500D01*
X165353863Y-94187500D01*
X163693620Y-94187500D01*
X163648827Y-94179127D01*
X163514500Y-94127089D01*
X163514497Y-94127088D01*
X163514496Y-94127088D01*
X163302721Y-94087500D01*
X163087279Y-94087500D01*
X162875504Y-94127088D01*
X162875501Y-94127088D01*
X162875501Y-94127089D01*
X162674611Y-94204913D01*
X162674605Y-94204916D01*
X162491437Y-94318329D01*
X162491435Y-94318331D01*
X162332223Y-94463471D01*
X162202386Y-94635402D01*
X162106360Y-94828249D01*
X162106356Y-94828259D01*
X162047398Y-95035480D01*
X162031351Y-95208661D01*
X162027520Y-95250000D01*
X162029411Y-95270402D01*
X162047398Y-95464519D01*
X162106356Y-95671740D01*
X162106360Y-95671750D01*
X162202386Y-95864597D01*
X162332223Y-96036528D01*
X162491435Y-96181668D01*
X162491437Y-96181670D01*
X162668777Y-96291474D01*
X162715413Y-96343502D01*
X162727500Y-96396901D01*
X162727501Y-96733864D01*
X162727501Y-96733863D01*
X162733769Y-96813529D01*
X162733769Y-96813532D01*
X162733770Y-96813533D01*
X162783416Y-96998812D01*
X162829882Y-97090008D01*
X162834314Y-97098706D01*
X162847210Y-97167375D01*
X162834314Y-97211294D01*
X162783416Y-97311188D01*
X162733769Y-97496470D01*
X162727500Y-97576135D01*
X162727501Y-98003864D01*
X162727501Y-98003863D01*
X162733769Y-98083529D01*
X162733770Y-98083531D01*
X162733770Y-98083533D01*
X162783416Y-98268812D01*
X162790818Y-98283339D01*
X162870498Y-98439721D01*
X162991209Y-98588788D01*
X162991211Y-98588790D01*
X163140278Y-98709501D01*
X163140280Y-98709502D01*
X163311188Y-98796584D01*
X163496467Y-98846230D01*
X163544269Y-98849992D01*
X163576135Y-98852500D01*
X163576136Y-98852499D01*
X163576137Y-98852500D01*
X164218194Y-98852499D01*
X164285233Y-98872183D01*
X164305875Y-98888818D01*
X164809181Y-99392124D01*
X164842666Y-99453447D01*
X164845500Y-99479805D01*
X164845500Y-101696023D01*
X164825815Y-101763062D01*
X164773011Y-101808817D01*
X164703853Y-101818761D01*
X164640297Y-101789736D01*
X164633819Y-101783704D01*
X161230796Y-98380682D01*
X161197311Y-98319359D01*
X161198702Y-98260907D01*
X161209632Y-98220117D01*
X161246230Y-98083533D01*
X161252500Y-98003863D01*
X161252499Y-97576138D01*
X161246230Y-97496467D01*
X161196584Y-97311188D01*
X161145684Y-97211293D01*
X161132789Y-97142625D01*
X161145686Y-97098704D01*
X161196584Y-96998812D01*
X161246230Y-96813533D01*
X161252500Y-96733863D01*
X161252499Y-96306138D01*
X161246230Y-96226467D01*
X161196584Y-96041188D01*
X161145684Y-95941292D01*
X161132789Y-95872625D01*
X161145685Y-95828705D01*
X161196584Y-95728812D01*
X161246230Y-95543533D01*
X161252448Y-95464524D01*
X161252500Y-95463865D01*
X161252499Y-95036136D01*
X161252499Y-95036137D01*
X161246230Y-94956467D01*
X161196584Y-94771188D01*
X161145684Y-94671293D01*
X161132789Y-94602625D01*
X161145684Y-94558706D01*
X161196584Y-94458812D01*
X161246230Y-94273533D01*
X161252500Y-94193863D01*
X161252499Y-93766138D01*
X161246230Y-93686467D01*
X161196584Y-93501188D01*
X161109502Y-93330280D01*
X161109501Y-93330278D01*
X160988790Y-93181211D01*
X160988788Y-93181209D01*
X160839721Y-93060498D01*
X160754265Y-93016957D01*
X160668812Y-92973416D01*
X160483533Y-92923770D01*
X160483532Y-92923769D01*
X160483529Y-92923769D01*
X160403865Y-92917500D01*
X160403863Y-92917500D01*
X159514624Y-92917500D01*
X158626136Y-92917501D01*
X158626137Y-92917501D01*
X158546470Y-92923769D01*
X158361188Y-92973416D01*
X158190278Y-93060498D01*
X158041211Y-93181209D01*
X158041209Y-93181211D01*
X157920498Y-93330278D01*
X157833416Y-93501188D01*
X157783769Y-93686470D01*
X157777500Y-93766135D01*
X157777501Y-94193864D01*
X157777501Y-94193863D01*
X157783769Y-94273529D01*
X157783769Y-94273532D01*
X157783770Y-94273533D01*
X157833416Y-94458812D01*
X157879882Y-94550008D01*
X157884314Y-94558706D01*
X157897210Y-94627375D01*
X157884314Y-94671294D01*
X157833416Y-94771188D01*
X157783769Y-94956470D01*
X157777500Y-95036135D01*
X157777501Y-95463864D01*
X157777501Y-95463863D01*
X157783769Y-95543529D01*
X157783769Y-95543532D01*
X157783770Y-95543533D01*
X157833416Y-95728812D01*
X157833417Y-95728813D01*
X157884314Y-95828706D01*
X157897210Y-95897375D01*
X157884314Y-95941294D01*
X157833416Y-96041188D01*
X157783769Y-96226470D01*
X157777500Y-96306135D01*
X157777501Y-96733864D01*
X157777501Y-96733863D01*
X157783769Y-96813529D01*
X157783769Y-96813532D01*
X157783770Y-96813533D01*
X157833416Y-96998812D01*
X157884314Y-97098706D01*
X157897210Y-97167374D01*
X157884314Y-97211293D01*
X157833416Y-97311188D01*
X157783769Y-97496470D01*
X157777500Y-97576135D01*
X157777501Y-98003864D01*
X157777501Y-98003863D01*
X157783769Y-98083529D01*
X157783770Y-98083531D01*
X157783770Y-98083533D01*
X157833416Y-98268812D01*
X157840818Y-98283339D01*
X157920498Y-98439721D01*
X158041209Y-98588788D01*
X158041211Y-98588790D01*
X158190278Y-98709501D01*
X158190280Y-98709502D01*
X158361188Y-98796584D01*
X158546467Y-98846230D01*
X158594268Y-98849992D01*
X158626135Y-98852500D01*
X158626136Y-98852499D01*
X158626137Y-98852500D01*
X159141023Y-98852499D01*
X159208062Y-98872183D01*
X159228704Y-98888817D01*
X164174182Y-103834296D01*
X164207666Y-103895617D01*
X164210500Y-103921975D01*
X164210500Y-110831865D01*
X164190815Y-110898904D01*
X164138011Y-110944659D01*
X164068853Y-110954603D01*
X164005297Y-110925578D01*
X164002962Y-110923502D01*
X163898564Y-110828331D01*
X163898562Y-110828329D01*
X163715394Y-110714916D01*
X163715388Y-110714913D01*
X163557056Y-110653576D01*
X163514496Y-110637088D01*
X163302721Y-110597500D01*
X163087279Y-110597500D01*
X162875504Y-110637088D01*
X162875501Y-110637088D01*
X162875501Y-110637089D01*
X162674611Y-110714913D01*
X162674605Y-110714916D01*
X162491437Y-110828329D01*
X162491435Y-110828331D01*
X162332223Y-110973471D01*
X162202386Y-111145402D01*
X162106360Y-111338249D01*
X162106356Y-111338259D01*
X162047398Y-111545480D01*
X162027520Y-111759999D01*
X162047398Y-111974519D01*
X162106356Y-112181740D01*
X162106360Y-112181750D01*
X162202386Y-112374597D01*
X162332223Y-112546528D01*
X162491435Y-112691668D01*
X162491437Y-112691670D01*
X162674605Y-112805083D01*
X162674611Y-112805086D01*
X162717169Y-112821573D01*
X162875504Y-112882912D01*
X163064638Y-112918267D01*
X163126916Y-112949934D01*
X163129531Y-112952474D01*
X163539181Y-113362124D01*
X163572666Y-113423447D01*
X163575500Y-113449805D01*
X163575500Y-137715235D01*
X163573973Y-137734634D01*
X163571826Y-137748189D01*
X163575415Y-137816676D01*
X163575500Y-137819921D01*
X163575500Y-137841621D01*
X163577768Y-137863199D01*
X163578022Y-137866434D01*
X163581610Y-137934912D01*
X163581611Y-137934915D01*
X163585166Y-137948184D01*
X163588709Y-137967298D01*
X163589832Y-137977985D01*
X163590145Y-137980958D01*
X163605568Y-138028423D01*
X163608859Y-138038554D01*
X163611331Y-138046160D01*
X163612252Y-138049271D01*
X163630004Y-138115520D01*
X163636236Y-138127751D01*
X163643681Y-138145724D01*
X163647925Y-138158785D01*
X163682225Y-138218195D01*
X163683751Y-138221005D01*
X163714893Y-138282125D01*
X163723529Y-138292789D01*
X163734549Y-138308824D01*
X163741412Y-138320712D01*
X163741415Y-138320715D01*
X163787311Y-138371688D01*
X163789392Y-138374124D01*
X163801072Y-138388548D01*
X163803058Y-138391000D01*
X163803069Y-138391013D01*
X163818403Y-138406346D01*
X163820637Y-138408701D01*
X163864226Y-138457110D01*
X163866530Y-138459669D01*
X163877643Y-138467743D01*
X163892432Y-138480375D01*
X164820155Y-139408098D01*
X164853640Y-139469421D01*
X164856092Y-139505507D01*
X164840786Y-139699999D01*
X164859612Y-139939219D01*
X164915630Y-140172553D01*
X164915630Y-140172554D01*
X165007457Y-140394245D01*
X165007459Y-140394248D01*
X165132837Y-140598846D01*
X165132841Y-140598851D01*
X165161244Y-140632106D01*
X165288682Y-140781318D01*
X165319860Y-140807946D01*
X165471148Y-140937158D01*
X165471153Y-140937162D01*
X165675751Y-141062540D01*
X165675754Y-141062542D01*
X165897446Y-141154369D01*
X165955779Y-141168373D01*
X166130778Y-141210387D01*
X166370000Y-141229214D01*
X166609222Y-141210387D01*
X166842553Y-141154369D01*
X166842554Y-141154369D01*
X167064245Y-141062542D01*
X167064246Y-141062541D01*
X167064249Y-141062540D01*
X167268849Y-140937160D01*
X167451318Y-140781318D01*
X167545709Y-140670798D01*
X167604216Y-140632605D01*
X167674084Y-140632106D01*
X167733131Y-140669460D01*
X167734291Y-140670799D01*
X167828682Y-140781318D01*
X168011148Y-140937158D01*
X168011153Y-140937162D01*
X168215751Y-141062540D01*
X168215754Y-141062542D01*
X168437446Y-141154369D01*
X168495779Y-141168373D01*
X168670778Y-141210387D01*
X168910000Y-141229214D01*
X169149222Y-141210387D01*
X169382553Y-141154369D01*
X169382554Y-141154369D01*
X169604245Y-141062542D01*
X169604246Y-141062541D01*
X169604249Y-141062540D01*
X169808849Y-140937160D01*
X169991318Y-140781318D01*
X170085709Y-140670798D01*
X170144216Y-140632605D01*
X170214084Y-140632106D01*
X170273131Y-140669460D01*
X170274291Y-140670799D01*
X170368682Y-140781318D01*
X170551148Y-140937158D01*
X170551153Y-140937162D01*
X170755751Y-141062540D01*
X170755754Y-141062542D01*
X170977446Y-141154369D01*
X171035779Y-141168373D01*
X171210778Y-141210387D01*
X171450000Y-141229214D01*
X171689222Y-141210387D01*
X171922553Y-141154369D01*
X171922554Y-141154369D01*
X172144245Y-141062542D01*
X172144246Y-141062541D01*
X172144249Y-141062540D01*
X172348849Y-140937160D01*
X172531318Y-140781318D01*
X172625709Y-140670798D01*
X172684216Y-140632605D01*
X172754084Y-140632106D01*
X172813131Y-140669460D01*
X172814291Y-140670799D01*
X172908682Y-140781318D01*
X173091148Y-140937158D01*
X173091153Y-140937162D01*
X173295751Y-141062540D01*
X173295754Y-141062542D01*
X173517446Y-141154369D01*
X173575779Y-141168373D01*
X173750778Y-141210387D01*
X173990000Y-141229214D01*
X174229222Y-141210387D01*
X174462553Y-141154369D01*
X174462554Y-141154369D01*
X174684245Y-141062542D01*
X174684246Y-141062541D01*
X174684249Y-141062540D01*
X174888849Y-140937160D01*
X175071318Y-140781318D01*
X175227160Y-140598849D01*
X175352540Y-140394249D01*
X175352542Y-140394245D01*
X175444369Y-140172554D01*
X175444369Y-140172553D01*
X175461660Y-140100532D01*
X175500387Y-139939222D01*
X175519214Y-139700000D01*
X175500387Y-139460778D01*
X175455636Y-139274376D01*
X175444369Y-139227446D01*
X175444369Y-139227445D01*
X175352542Y-139005754D01*
X175352540Y-139005751D01*
X175227162Y-138801153D01*
X175227158Y-138801148D01*
X175122613Y-138678741D01*
X175071318Y-138618682D01*
X175071316Y-138618680D01*
X175071315Y-138618679D01*
X174922969Y-138491980D01*
X174884775Y-138433474D01*
X174879500Y-138397690D01*
X174879500Y-136219764D01*
X174881027Y-136200364D01*
X174883174Y-136186810D01*
X174879585Y-136118328D01*
X174879500Y-136115083D01*
X174879500Y-136093378D01*
X174877231Y-136071801D01*
X174876976Y-136068561D01*
X174873388Y-136000087D01*
X174873388Y-136000085D01*
X174869834Y-135986822D01*
X174866290Y-135967702D01*
X174864855Y-135954044D01*
X174843658Y-135888807D01*
X174842745Y-135885726D01*
X174824994Y-135819475D01*
X174818761Y-135807242D01*
X174811316Y-135789267D01*
X174807075Y-135776215D01*
X174807072Y-135776209D01*
X174772786Y-135716825D01*
X174771237Y-135713972D01*
X174740104Y-135652871D01*
X174731471Y-135642211D01*
X174720447Y-135626170D01*
X174713587Y-135614287D01*
X174667693Y-135563317D01*
X174665600Y-135560867D01*
X174655829Y-135548801D01*
X174628939Y-135484317D01*
X174628860Y-135483571D01*
X174621831Y-135414759D01*
X174565764Y-135245560D01*
X174472189Y-135093851D01*
X174346149Y-134967811D01*
X174226776Y-134894181D01*
X174194442Y-134874237D01*
X174194437Y-134874235D01*
X174025242Y-134818169D01*
X174025235Y-134818168D01*
X173920812Y-134807500D01*
X173419196Y-134807500D01*
X173419180Y-134807501D01*
X173314760Y-134818168D01*
X173308453Y-134819519D01*
X173256545Y-134819518D01*
X173250244Y-134818169D01*
X173145812Y-134807500D01*
X172294196Y-134807500D01*
X172294180Y-134807501D01*
X172189760Y-134818168D01*
X172183453Y-134819519D01*
X172131545Y-134819518D01*
X172125244Y-134818169D01*
X172020812Y-134807500D01*
X171519196Y-134807500D01*
X171519180Y-134807501D01*
X171414757Y-134818169D01*
X171245562Y-134874235D01*
X171245553Y-134874239D01*
X171184271Y-134912039D01*
X171119175Y-134930500D01*
X170529805Y-134930500D01*
X170462766Y-134910815D01*
X170442124Y-134894181D01*
X169268746Y-133720803D01*
X170807500Y-133720803D01*
X170807501Y-133720819D01*
X170818169Y-133825242D01*
X170825388Y-133847027D01*
X170874236Y-133994440D01*
X170967811Y-134146149D01*
X171093851Y-134272189D01*
X171245560Y-134365764D01*
X171414759Y-134421831D01*
X171519189Y-134432500D01*
X172920810Y-134432499D01*
X173025241Y-134421831D01*
X173194440Y-134365764D01*
X173346149Y-134272189D01*
X173472189Y-134146149D01*
X173565764Y-133994440D01*
X173621831Y-133825241D01*
X173632500Y-133720811D01*
X173632499Y-133119190D01*
X173621831Y-133014759D01*
X173565764Y-132845560D01*
X173472189Y-132693851D01*
X173346149Y-132567811D01*
X173194440Y-132474236D01*
X173194437Y-132474235D01*
X173025242Y-132418169D01*
X173025235Y-132418168D01*
X172920812Y-132407500D01*
X171519196Y-132407500D01*
X171519180Y-132407501D01*
X171414757Y-132418169D01*
X171245562Y-132474235D01*
X171245557Y-132474237D01*
X171093849Y-132567812D01*
X170967812Y-132693849D01*
X170874237Y-132845557D01*
X170874235Y-132845562D01*
X170818169Y-133014757D01*
X170818168Y-133014764D01*
X170807500Y-133119181D01*
X170807500Y-133720803D01*
X169268746Y-133720803D01*
X167295819Y-131747876D01*
X167262334Y-131686553D01*
X167259500Y-131660195D01*
X167259500Y-107945378D01*
X167279185Y-107878339D01*
X167331989Y-107832584D01*
X167401147Y-107822640D01*
X167447649Y-107839261D01*
X167491895Y-107866009D01*
X167539803Y-107894971D01*
X167539805Y-107894972D01*
X167539812Y-107894976D01*
X167770101Y-107987659D01*
X168012275Y-108042201D01*
X168158151Y-108052500D01*
X175349848Y-108052499D01*
X175495725Y-108042201D01*
X175737899Y-107987659D01*
X175968188Y-107894976D01*
X176180626Y-107766552D01*
X176325657Y-107643188D01*
X176389476Y-107614746D01*
X176458541Y-107625322D01*
X176510924Y-107671558D01*
X176529999Y-107737640D01*
X176530000Y-117218500D01*
X176510315Y-117285539D01*
X176457511Y-117331294D01*
X176406000Y-117342500D01*
X169034000Y-117342500D01*
X169033991Y-117342500D01*
X169033990Y-117342501D01*
X168870855Y-117360040D01*
X168870843Y-117360042D01*
X168819339Y-117371247D01*
X168793663Y-117377296D01*
X168627200Y-117440892D01*
X168627195Y-117440895D01*
X168479885Y-117541166D01*
X168441282Y-117574616D01*
X168427079Y-117586924D01*
X168401656Y-117611421D01*
X168368655Y-117643222D01*
X168262994Y-117786724D01*
X168193276Y-117950725D01*
X168173591Y-118017764D01*
X168163189Y-118056994D01*
X168163188Y-118057001D01*
X168163188Y-118057002D01*
X168142500Y-118234000D01*
X168142500Y-128146000D01*
X168142501Y-128146009D01*
X168160040Y-128309144D01*
X168160042Y-128309156D01*
X168171247Y-128360661D01*
X168177296Y-128386336D01*
X168240892Y-128552799D01*
X168240895Y-128552804D01*
X168341166Y-128700114D01*
X168341169Y-128700117D01*
X168386924Y-128752921D01*
X168443226Y-128811348D01*
X168586726Y-128917007D01*
X168750725Y-128986724D01*
X168817764Y-129006409D01*
X168857002Y-129016812D01*
X169034000Y-129037500D01*
X169034007Y-129037500D01*
X176406000Y-129037500D01*
X176473039Y-129057185D01*
X176518794Y-129109989D01*
X176530000Y-129161500D01*
X176530000Y-152275500D01*
X176510315Y-152342539D01*
X176457511Y-152388294D01*
X176406000Y-152399500D01*
X128394000Y-152399500D01*
X128326961Y-152379815D01*
X128281206Y-152327011D01*
X128270000Y-152275500D01*
X128270000Y-145802305D01*
X130771684Y-145802305D01*
X130772422Y-145808574D01*
X130773113Y-145829329D01*
X130772794Y-145835625D01*
X130772794Y-145835631D01*
X130784957Y-145915026D01*
X130794350Y-145994799D01*
X130794350Y-145994801D01*
X130796333Y-146000788D01*
X130801188Y-146020981D01*
X130802142Y-146027207D01*
X130802144Y-146027214D01*
X130830037Y-146102527D01*
X130855299Y-146178785D01*
X130858449Y-146184255D01*
X130867271Y-146203060D01*
X130869460Y-146208970D01*
X130869464Y-146208977D01*
X130911945Y-146277133D01*
X130942691Y-146330511D01*
X130952038Y-146346739D01*
X130952040Y-146346742D01*
X130952042Y-146346744D01*
X130956214Y-146351451D01*
X130968648Y-146368105D01*
X130971983Y-146373455D01*
X131027319Y-146431669D01*
X131080598Y-146491776D01*
X131080601Y-146491779D01*
X131080604Y-146491782D01*
X131080607Y-146491784D01*
X131080609Y-146491786D01*
X131085645Y-146495558D01*
X131101180Y-146509370D01*
X131105517Y-146513932D01*
X131105523Y-146513938D01*
X131162809Y-146553809D01*
X131171438Y-146559815D01*
X131235737Y-146607975D01*
X131241436Y-146610659D01*
X131259429Y-146621060D01*
X131263022Y-146623560D01*
X131264602Y-146624660D01*
X131338398Y-146656328D01*
X131361891Y-146667393D01*
X131411084Y-146690563D01*
X131417200Y-146692043D01*
X131436936Y-146698613D01*
X131442716Y-146701094D01*
X131521382Y-146717260D01*
X131599463Y-146736160D01*
X131605756Y-146736379D01*
X131626394Y-146738841D01*
X131632569Y-146740110D01*
X131712884Y-146740110D01*
X131793168Y-146742906D01*
X131793174Y-146742905D01*
X131799380Y-146741854D01*
X131820101Y-146740110D01*
X141093687Y-146740110D01*
X141097810Y-146740247D01*
X141105461Y-146740756D01*
X141160815Y-146744445D01*
X141240408Y-146733541D01*
X141320307Y-146725416D01*
X141326302Y-146723534D01*
X141346601Y-146718993D01*
X141352843Y-146718138D01*
X141428615Y-146691433D01*
X141505239Y-146667393D01*
X141510734Y-146664342D01*
X141529701Y-146655808D01*
X141535645Y-146653714D01*
X141536087Y-146653448D01*
X164650604Y-146653448D01*
X164663851Y-146846816D01*
X164715751Y-147033560D01*
X164752834Y-147105887D01*
X164804179Y-147206032D01*
X164925517Y-147357174D01*
X164925519Y-147357175D01*
X164925521Y-147357178D01*
X165074785Y-147480791D01*
X165074796Y-147480799D01*
X165245903Y-147571841D01*
X165437868Y-147628353D01*
X165437356Y-147630092D01*
X165491912Y-147657838D01*
X165527180Y-147718153D01*
X165527137Y-147778126D01*
X165466445Y-148020895D01*
X165460101Y-148039715D01*
X165456016Y-148049234D01*
X165440566Y-148124414D01*
X165433732Y-148151749D01*
X165431103Y-148169921D01*
X165430473Y-148173523D01*
X165417000Y-148239087D01*
X165417000Y-148258519D01*
X165415723Y-148276268D01*
X165412942Y-148295496D01*
X165412942Y-148295497D01*
X165416892Y-148362315D01*
X165417000Y-148365974D01*
X165417000Y-148512105D01*
X165415709Y-148529949D01*
X165412973Y-148548761D01*
X165412972Y-148548771D01*
X165415489Y-148591891D01*
X165416895Y-148615993D01*
X165417000Y-148619580D01*
X165417000Y-148638332D01*
X165419813Y-148665996D01*
X165424262Y-148742254D01*
X165424263Y-148742257D01*
X165427042Y-148752663D01*
X165430604Y-148772110D01*
X165431693Y-148782823D01*
X165454559Y-148855705D01*
X165474270Y-148929514D01*
X165479089Y-148939152D01*
X165486490Y-148957476D01*
X165489715Y-148967753D01*
X165489720Y-148967766D01*
X165512503Y-149008812D01*
X165526788Y-149034549D01*
X165601270Y-149183513D01*
X165601271Y-149183515D01*
X165735116Y-149451204D01*
X165742206Y-149468551D01*
X165746911Y-149483119D01*
X165746910Y-149483119D01*
X165756595Y-149500227D01*
X165772490Y-149568265D01*
X165749077Y-149634095D01*
X165693791Y-149676817D01*
X165673655Y-149682772D01*
X165669173Y-149683693D01*
X165484249Y-149741713D01*
X165484234Y-149741720D01*
X165314776Y-149835776D01*
X165314768Y-149835782D01*
X165167710Y-149962026D01*
X165167709Y-149962027D01*
X165049072Y-150115294D01*
X165049070Y-150115298D01*
X164963711Y-150289314D01*
X164915132Y-150476936D01*
X164915131Y-150476942D01*
X164905314Y-150670519D01*
X164934662Y-150862096D01*
X164934665Y-150862108D01*
X165001978Y-151043855D01*
X165001982Y-151043864D01*
X165104501Y-151208342D01*
X165104505Y-151208347D01*
X165238037Y-151348823D01*
X165238038Y-151348824D01*
X165238041Y-151348826D01*
X165298965Y-151391230D01*
X165342742Y-151445683D01*
X165346440Y-151455883D01*
X165362715Y-151507756D01*
X165362716Y-151507757D01*
X165456776Y-151677223D01*
X165456782Y-151677231D01*
X165583026Y-151824289D01*
X165583027Y-151824290D01*
X165735245Y-151942115D01*
X165736297Y-151942929D01*
X165910311Y-152028287D01*
X165910315Y-152028288D01*
X165910313Y-152028288D01*
X166097936Y-152076867D01*
X166097939Y-152076867D01*
X166097945Y-152076869D01*
X166291518Y-152086686D01*
X166483104Y-152057336D01*
X166664860Y-151990020D01*
X166829346Y-151887496D01*
X166969826Y-151753959D01*
X167080550Y-151594878D01*
X167140041Y-151456245D01*
X167184568Y-151402402D01*
X167251136Y-151381179D01*
X167318611Y-151399314D01*
X167343211Y-151419031D01*
X167402590Y-151480553D01*
X167402599Y-151480559D01*
X167407392Y-151484611D01*
X167407250Y-151484778D01*
X167417757Y-151493502D01*
X167546038Y-151621783D01*
X167557741Y-151635310D01*
X167569120Y-151650560D01*
X167569121Y-151650562D01*
X167619433Y-151695326D01*
X167622037Y-151697782D01*
X167635303Y-151711048D01*
X167656847Y-151728615D01*
X167713925Y-151779399D01*
X167715042Y-151780045D01*
X167723248Y-151784792D01*
X167739518Y-151796025D01*
X167747861Y-151802828D01*
X167747863Y-151802829D01*
X167747867Y-151802832D01*
X167815571Y-151838197D01*
X167881697Y-151876449D01*
X167891919Y-151879856D01*
X167910108Y-151887579D01*
X167919662Y-151892570D01*
X167971449Y-151907388D01*
X167993103Y-151913584D01*
X168314358Y-152020669D01*
X168319205Y-152022514D01*
X168369233Y-152043983D01*
X168369234Y-152043983D01*
X168369236Y-152043984D01*
X168455892Y-152061792D01*
X168542213Y-152081132D01*
X168542218Y-152081132D01*
X168548458Y-152081879D01*
X168548431Y-152082098D01*
X168552806Y-152082582D01*
X168552829Y-152082364D01*
X168559085Y-152083000D01*
X168647568Y-152083000D01*
X168736003Y-152084568D01*
X168736008Y-152084566D01*
X168736010Y-152084567D01*
X168742273Y-152084043D01*
X168742291Y-152084260D01*
X168755885Y-152083000D01*
X168950446Y-152083000D01*
X168970247Y-152084590D01*
X168980472Y-152086245D01*
X169057151Y-152083000D01*
X169085332Y-152083000D01*
X169085336Y-152083000D01*
X169092656Y-152082255D01*
X169103623Y-152081139D01*
X169107221Y-152080880D01*
X169174119Y-152078050D01*
X169192977Y-152073335D01*
X169210494Y-152070271D01*
X169229827Y-152068306D01*
X169293698Y-152048265D01*
X169297195Y-152047280D01*
X169714065Y-151943062D01*
X169721735Y-151941650D01*
X169754427Y-151937741D01*
X169809399Y-151919415D01*
X169813952Y-151918091D01*
X169823025Y-151915824D01*
X169831242Y-151912858D01*
X169857488Y-151903387D01*
X170185868Y-151793927D01*
X170190991Y-151792460D01*
X170223983Y-151784539D01*
X170242708Y-151780045D01*
X170242709Y-151780044D01*
X170242715Y-151780043D01*
X170323933Y-151741973D01*
X170405650Y-151705178D01*
X170405657Y-151705172D01*
X170411094Y-151702028D01*
X170411277Y-151702344D01*
X170413001Y-151701329D01*
X170412814Y-151701017D01*
X170418210Y-151697785D01*
X170418212Y-151697783D01*
X170418215Y-151697782D01*
X170490121Y-151644132D01*
X170562743Y-151591652D01*
X170562747Y-151591646D01*
X170567443Y-151587470D01*
X170567683Y-151587740D01*
X170569168Y-151586398D01*
X170568925Y-151586133D01*
X170573556Y-151581883D01*
X170573562Y-151581879D01*
X170603631Y-151548082D01*
X170662896Y-151511082D01*
X170732760Y-151511996D01*
X170790356Y-151549734D01*
X170790777Y-151550224D01*
X170790778Y-151550226D01*
X170800479Y-151561526D01*
X170811623Y-151576703D01*
X170819500Y-151589341D01*
X170819505Y-151589347D01*
X170868549Y-151640941D01*
X170870655Y-151643273D01*
X170899808Y-151677231D01*
X170917028Y-151697290D01*
X170917695Y-151697806D01*
X170928810Y-151706410D01*
X170942779Y-151719031D01*
X170953041Y-151729826D01*
X170953044Y-151729828D01*
X171011471Y-151770495D01*
X171013985Y-151772340D01*
X171035796Y-151789223D01*
X171070294Y-151815927D01*
X171070295Y-151815928D01*
X171083670Y-151822489D01*
X171099897Y-151832041D01*
X171112122Y-151840550D01*
X171146837Y-151855447D01*
X171177536Y-151868621D01*
X171180392Y-151869933D01*
X171244304Y-151901284D01*
X171244306Y-151901284D01*
X171244311Y-151901287D01*
X171258742Y-151905023D01*
X171276537Y-151911105D01*
X171290236Y-151916984D01*
X171325867Y-151924306D01*
X171359970Y-151931315D01*
X171363004Y-151932018D01*
X171431945Y-151949869D01*
X171446818Y-151950622D01*
X171465504Y-151953002D01*
X171480089Y-151956000D01*
X171551263Y-151956000D01*
X171554403Y-151956080D01*
X171581034Y-151957430D01*
X171625518Y-151959686D01*
X171637530Y-151957845D01*
X171640245Y-151957430D01*
X171659021Y-151956000D01*
X171752333Y-151956000D01*
X171896828Y-151941306D01*
X172081750Y-151883286D01*
X172081751Y-151883285D01*
X172081759Y-151883283D01*
X172251226Y-151789222D01*
X172398290Y-151662972D01*
X172516929Y-151509703D01*
X172602287Y-151335689D01*
X172650869Y-151148055D01*
X172651473Y-151136144D01*
X172663987Y-151087809D01*
X172685546Y-151043860D01*
X172729287Y-150954689D01*
X172777869Y-150767055D01*
X172787686Y-150573482D01*
X172758336Y-150381896D01*
X172691020Y-150200140D01*
X172638138Y-150115298D01*
X172588498Y-150035657D01*
X172588494Y-150035652D01*
X172454962Y-149895176D01*
X172454960Y-149895175D01*
X172295877Y-149784449D01*
X172149003Y-149721421D01*
X172095159Y-149676894D01*
X172073936Y-149610326D01*
X172092071Y-149542851D01*
X172097408Y-149534828D01*
X172099390Y-149532084D01*
X172099399Y-149532075D01*
X172128612Y-149481572D01*
X172131094Y-149477634D01*
X172164063Y-149429491D01*
X172176669Y-149399483D01*
X172180154Y-149392470D01*
X172196449Y-149364303D01*
X172214888Y-149308983D01*
X172216545Y-149304579D01*
X172239141Y-149250801D01*
X172245450Y-149218864D01*
X172247456Y-149211279D01*
X172306366Y-149034549D01*
X172340675Y-148931622D01*
X172342505Y-148926812D01*
X172363984Y-148876764D01*
X172381792Y-148790107D01*
X172401132Y-148703787D01*
X172401132Y-148703780D01*
X172401879Y-148697542D01*
X172402098Y-148697568D01*
X172402583Y-148693187D01*
X172402364Y-148693165D01*
X172403000Y-148686912D01*
X172403000Y-148598432D01*
X172404568Y-148509997D01*
X172404567Y-148509989D01*
X172404043Y-148503727D01*
X172404260Y-148503708D01*
X172403000Y-148490115D01*
X172403000Y-148251462D01*
X172403217Y-148246282D01*
X172405087Y-148223962D01*
X172407764Y-148192021D01*
X172397256Y-148104193D01*
X172388306Y-148016173D01*
X172388304Y-148016169D01*
X172387041Y-148010020D01*
X172387257Y-148009975D01*
X172386330Y-148005660D01*
X172386115Y-148005709D01*
X172384741Y-147999575D01*
X172384741Y-147999573D01*
X172356765Y-147915646D01*
X172330283Y-147831241D01*
X172330281Y-147831237D01*
X172330280Y-147831234D01*
X172327805Y-147825466D01*
X172328006Y-147825379D01*
X172322510Y-147812883D01*
X172236852Y-147555910D01*
X172235771Y-147552301D01*
X172231882Y-147537742D01*
X172218729Y-147488485D01*
X172211376Y-147473779D01*
X172199001Y-147405014D01*
X172225769Y-147340475D01*
X172283179Y-147300653D01*
X172292211Y-147298027D01*
X172617025Y-147216824D01*
X172753642Y-147167523D01*
X172918980Y-147066380D01*
X173060574Y-146934026D01*
X173172627Y-146775877D01*
X173250550Y-146598410D01*
X173291155Y-146408889D01*
X173292778Y-146215075D01*
X173255354Y-146024900D01*
X173255352Y-146024896D01*
X173255352Y-146024894D01*
X173180417Y-145846158D01*
X173180413Y-145846151D01*
X173107439Y-145739413D01*
X173071025Y-145686150D01*
X173069949Y-145685110D01*
X172931671Y-145551442D01*
X172931670Y-145551441D01*
X172768053Y-145447545D01*
X172768050Y-145447544D01*
X172768048Y-145447543D01*
X172665146Y-145408449D01*
X172615102Y-145373305D01*
X172551349Y-145299041D01*
X172490973Y-145228710D01*
X172490972Y-145228709D01*
X172337705Y-145110072D01*
X172337701Y-145110070D01*
X172306746Y-145094886D01*
X172163689Y-145024713D01*
X172163687Y-145024712D01*
X172163684Y-145024711D01*
X172163686Y-145024711D01*
X171976063Y-144976132D01*
X171976057Y-144976131D01*
X171847006Y-144969586D01*
X171782482Y-144966314D01*
X171782481Y-144966314D01*
X171782479Y-144966314D01*
X171590903Y-144995662D01*
X171590891Y-144995665D01*
X171409144Y-145062978D01*
X171409135Y-145062982D01*
X171244657Y-145165501D01*
X171244652Y-145165505D01*
X171104176Y-145299037D01*
X171104175Y-145299039D01*
X170993448Y-145458124D01*
X170993448Y-145458125D01*
X170956924Y-145543235D01*
X170912398Y-145597078D01*
X170845829Y-145618301D01*
X170778354Y-145600165D01*
X170774690Y-145597839D01*
X170750912Y-145582152D01*
X170708505Y-145565190D01*
X170702822Y-145562577D01*
X170662341Y-145541431D01*
X170662336Y-145541429D01*
X170618885Y-145528995D01*
X170612912Y-145526952D01*
X170369038Y-145429403D01*
X170034612Y-145295633D01*
X169971471Y-145268931D01*
X169953930Y-145261513D01*
X169953921Y-145261510D01*
X169899608Y-145250648D01*
X169894682Y-145249451D01*
X169841444Y-145234191D01*
X169841433Y-145234189D01*
X169806085Y-145231481D01*
X169798657Y-145230457D01*
X169226381Y-145116003D01*
X169133911Y-145097000D01*
X169085780Y-145097000D01*
X169079839Y-145096714D01*
X169068269Y-145095599D01*
X169031939Y-145092098D01*
X168998315Y-145095697D01*
X168989434Y-145096648D01*
X168982834Y-145097000D01*
X168540843Y-145097000D01*
X168455809Y-145094886D01*
X168455808Y-145094886D01*
X168455807Y-145094886D01*
X168398655Y-145105156D01*
X168393962Y-145105816D01*
X168336178Y-145111693D01*
X168336169Y-145111695D01*
X168304905Y-145121504D01*
X168297307Y-145123371D01*
X168265042Y-145129170D01*
X168265036Y-145129172D01*
X168211113Y-145150740D01*
X168206649Y-145152331D01*
X168151246Y-145169714D01*
X168151240Y-145169717D01*
X168122575Y-145185625D01*
X168115509Y-145188982D01*
X167559000Y-145411587D01*
X167486788Y-145436947D01*
X167429177Y-145471513D01*
X167426012Y-145473288D01*
X167366492Y-145504415D01*
X167366486Y-145504419D01*
X167351632Y-145516541D01*
X167337032Y-145526799D01*
X166982676Y-145739413D01*
X166915062Y-145757025D01*
X166848660Y-145735287D01*
X166810461Y-145693263D01*
X166775222Y-145629774D01*
X166772333Y-145626409D01*
X166648973Y-145482710D01*
X166648972Y-145482709D01*
X166495705Y-145364072D01*
X166495701Y-145364070D01*
X166437608Y-145335574D01*
X166321689Y-145278713D01*
X166321687Y-145278712D01*
X166321684Y-145278711D01*
X166321686Y-145278711D01*
X166134063Y-145230132D01*
X166134057Y-145230131D01*
X166005006Y-145223586D01*
X165940482Y-145220314D01*
X165940481Y-145220314D01*
X165940479Y-145220314D01*
X165748903Y-145249662D01*
X165748891Y-145249665D01*
X165567144Y-145316978D01*
X165567135Y-145316982D01*
X165402657Y-145419501D01*
X165402652Y-145419505D01*
X165262176Y-145553037D01*
X165262175Y-145553039D01*
X165151449Y-145712122D01*
X165085973Y-145864703D01*
X165044654Y-145916305D01*
X164971256Y-145969348D01*
X164971254Y-145969349D01*
X164840234Y-146112168D01*
X164840232Y-146112170D01*
X164840231Y-146112172D01*
X164740637Y-146278449D01*
X164740635Y-146278453D01*
X164740635Y-146278454D01*
X164676554Y-146461366D01*
X164650604Y-146653446D01*
X164650604Y-146653448D01*
X141536087Y-146653448D01*
X141604484Y-146612307D01*
X141674706Y-146573332D01*
X141679474Y-146569238D01*
X141696338Y-146557057D01*
X141701736Y-146553812D01*
X141760831Y-146499395D01*
X141821770Y-146447082D01*
X141825625Y-146442100D01*
X141839684Y-146426785D01*
X141844317Y-146422521D01*
X141891243Y-146357329D01*
X141940409Y-146293813D01*
X141943177Y-146288168D01*
X141953877Y-146270316D01*
X141957550Y-146265215D01*
X141990390Y-146191919D01*
X142025767Y-146119799D01*
X142027345Y-146113703D01*
X142034227Y-146094080D01*
X142036801Y-146088336D01*
X142054214Y-146009927D01*
X142074349Y-145932165D01*
X142074668Y-145925875D01*
X142077458Y-145905267D01*
X142078823Y-145899125D01*
X142080097Y-145818821D01*
X142084166Y-145738592D01*
X142083211Y-145732359D01*
X142081797Y-145711618D01*
X142081898Y-145705328D01*
X142066980Y-145626409D01*
X142054816Y-145547006D01*
X142052628Y-145541100D01*
X142047065Y-145521059D01*
X142045898Y-145514880D01*
X142015396Y-145440572D01*
X141987500Y-145365250D01*
X141984171Y-145359909D01*
X141974689Y-145341399D01*
X141972299Y-145335577D01*
X141927464Y-145268931D01*
X141884976Y-145200764D01*
X141880632Y-145196194D01*
X141867624Y-145179980D01*
X141847953Y-145150740D01*
X140661422Y-143386977D01*
X139917039Y-142280462D01*
X150240500Y-142280462D01*
X150249729Y-142329836D01*
X150250521Y-142335510D01*
X150255155Y-142385517D01*
X150255155Y-142385519D01*
X150268897Y-142433820D01*
X150270208Y-142439394D01*
X150279438Y-142488766D01*
X150279441Y-142488776D01*
X150297587Y-142535621D01*
X150299408Y-142541052D01*
X150313148Y-142589346D01*
X150313150Y-142589351D01*
X150335536Y-142634308D01*
X150337851Y-142639550D01*
X150355993Y-142686381D01*
X150355994Y-142686384D01*
X150382437Y-142729093D01*
X150385225Y-142734098D01*
X150407610Y-142779053D01*
X150437879Y-142819136D01*
X150441116Y-142823862D01*
X150467556Y-142866563D01*
X150467559Y-142866567D01*
X150501398Y-142903687D01*
X150505057Y-142908094D01*
X150535318Y-142948165D01*
X150535323Y-142948171D01*
X150572454Y-142982021D01*
X150576490Y-142986058D01*
X150610327Y-143023175D01*
X150610333Y-143023180D01*
X150650412Y-143053447D01*
X150654819Y-143057107D01*
X150665956Y-143067259D01*
X150691935Y-143090942D01*
X150734646Y-143117387D01*
X150739359Y-143120616D01*
X150779444Y-143150888D01*
X150824412Y-143173279D01*
X150829405Y-143176059D01*
X150857399Y-143193393D01*
X150872111Y-143202503D01*
X150872115Y-143202505D01*
X150918949Y-143220648D01*
X150924178Y-143222956D01*
X150969150Y-143245350D01*
X151017461Y-143259095D01*
X151022894Y-143260916D01*
X151069726Y-143279060D01*
X151105302Y-143285710D01*
X151119102Y-143288290D01*
X151124679Y-143289602D01*
X151142963Y-143294803D01*
X151166436Y-143301482D01*
X151225527Y-143338761D01*
X151255085Y-143402070D01*
X151256500Y-143420748D01*
X151256500Y-144767368D01*
X151260861Y-144814425D01*
X151271154Y-144925513D01*
X151271154Y-144925515D01*
X151271155Y-144925518D01*
X151329150Y-145129350D01*
X151329151Y-145129353D01*
X151423611Y-145319054D01*
X151551324Y-145488173D01*
X151654415Y-145582152D01*
X151707935Y-145630942D01*
X151797099Y-145686150D01*
X151876457Y-145735287D01*
X151888115Y-145742505D01*
X152085726Y-145819060D01*
X152294039Y-145858000D01*
X152294042Y-145858000D01*
X152505958Y-145858000D01*
X152505961Y-145858000D01*
X152714274Y-145819060D01*
X152911885Y-145742505D01*
X153092065Y-145630942D01*
X153248677Y-145488171D01*
X153376389Y-145319054D01*
X153470850Y-145129350D01*
X153528845Y-144925518D01*
X153543500Y-144767368D01*
X153543500Y-143420747D01*
X153563185Y-143353709D01*
X153615989Y-143307954D01*
X153633562Y-143301483D01*
X153633766Y-143301424D01*
X153675346Y-143289593D01*
X153680865Y-143288295D01*
X153730274Y-143279060D01*
X153777111Y-143260914D01*
X153782537Y-143259095D01*
X153830850Y-143245350D01*
X153875827Y-143222953D01*
X153881039Y-143220652D01*
X153927885Y-143202505D01*
X153970593Y-143176059D01*
X153975573Y-143173285D01*
X154020554Y-143150889D01*
X154060656Y-143120603D01*
X154065345Y-143117391D01*
X154108065Y-143090942D01*
X154145201Y-143057087D01*
X154149579Y-143053452D01*
X154189671Y-143023177D01*
X154223521Y-142986044D01*
X154227544Y-142982021D01*
X154264677Y-142948171D01*
X154294952Y-142908079D01*
X154298587Y-142903701D01*
X154332442Y-142866565D01*
X154358891Y-142823845D01*
X154362103Y-142819156D01*
X154392389Y-142779054D01*
X154414785Y-142734073D01*
X154417563Y-142729088D01*
X154444005Y-142686385D01*
X154462152Y-142639539D01*
X154464453Y-142634327D01*
X154486850Y-142589350D01*
X154500595Y-142541037D01*
X154502414Y-142535612D01*
X154503038Y-142534000D01*
X154520560Y-142488774D01*
X154529795Y-142439365D01*
X154531093Y-142433846D01*
X154544845Y-142385518D01*
X154549479Y-142335496D01*
X154550269Y-142329836D01*
X154559500Y-142280461D01*
X154559500Y-142068539D01*
X154559500Y-142068538D01*
X154559500Y-141359632D01*
X154544845Y-141201482D01*
X154486850Y-140997650D01*
X154392389Y-140807946D01*
X154264677Y-140638829D01*
X154115796Y-140503106D01*
X154079515Y-140443396D01*
X154081276Y-140373549D01*
X154107812Y-140330086D01*
X154106987Y-140329418D01*
X154111073Y-140324371D01*
X154111074Y-140324368D01*
X154111079Y-140324364D01*
X154148449Y-140266817D01*
X154150263Y-140264180D01*
X154190573Y-140208700D01*
X154196152Y-140196166D01*
X154205444Y-140179054D01*
X154212915Y-140167550D01*
X154212916Y-140167549D01*
X154237506Y-140103486D01*
X154238716Y-140100566D01*
X154266625Y-140037885D01*
X154269479Y-140024457D01*
X154275003Y-140005803D01*
X154279924Y-139992987D01*
X154290656Y-139925218D01*
X154291235Y-139922099D01*
X154305500Y-139854990D01*
X154305500Y-139841264D01*
X154307027Y-139821864D01*
X154309174Y-139808310D01*
X154305585Y-139739822D01*
X154305500Y-139736583D01*
X154305500Y-139668012D01*
X154305500Y-139668010D01*
X154302644Y-139654577D01*
X154300106Y-139635290D01*
X154299388Y-139621586D01*
X154299387Y-139621584D01*
X154281641Y-139555354D01*
X154280883Y-139552196D01*
X154270959Y-139505507D01*
X154266625Y-139485115D01*
X154261038Y-139472568D01*
X154254547Y-139454235D01*
X154250995Y-139440980D01*
X154250994Y-139440975D01*
X154219854Y-139379861D01*
X154218482Y-139376986D01*
X154201991Y-139339945D01*
X154190575Y-139314303D01*
X154190571Y-139314296D01*
X154182497Y-139303182D01*
X154172335Y-139286600D01*
X154166106Y-139274375D01*
X154147798Y-139251766D01*
X154122960Y-139221094D01*
X154120983Y-139218518D01*
X154080670Y-139163031D01*
X154080669Y-139163030D01*
X154080667Y-139163028D01*
X154029684Y-139117123D01*
X154027345Y-139114902D01*
X153847375Y-138934932D01*
X153834743Y-138920143D01*
X153826669Y-138909030D01*
X153826666Y-138909027D01*
X153775701Y-138863137D01*
X153773346Y-138860903D01*
X153758013Y-138845569D01*
X153758000Y-138845558D01*
X153755548Y-138843572D01*
X153741124Y-138831892D01*
X153738688Y-138829811D01*
X153687715Y-138783915D01*
X153687712Y-138783912D01*
X153675824Y-138777049D01*
X153659789Y-138766029D01*
X153649125Y-138757393D01*
X153649124Y-138757392D01*
X153624427Y-138744808D01*
X153588005Y-138726251D01*
X153585195Y-138724725D01*
X153525785Y-138690425D01*
X153512724Y-138686181D01*
X153494751Y-138678736D01*
X153482520Y-138672504D01*
X153416271Y-138654752D01*
X153413168Y-138653833D01*
X153395423Y-138648068D01*
X153347958Y-138632645D01*
X153344985Y-138632332D01*
X153334298Y-138631209D01*
X153315184Y-138627666D01*
X153301919Y-138624112D01*
X153301912Y-138624110D01*
X153233434Y-138620522D01*
X153230199Y-138620268D01*
X153208621Y-138618000D01*
X153208620Y-138618000D01*
X153186922Y-138618000D01*
X153183678Y-138617915D01*
X153115190Y-138614326D01*
X153115189Y-138614326D01*
X153107601Y-138615527D01*
X153101633Y-138616473D01*
X153082236Y-138618000D01*
X152964156Y-138618000D01*
X152917799Y-138607098D01*
X152917231Y-138608566D01*
X152878042Y-138593384D01*
X152714274Y-138529940D01*
X152505961Y-138491000D01*
X152294039Y-138491000D01*
X152085726Y-138529940D01*
X152085723Y-138529940D01*
X152085723Y-138529941D01*
X151882769Y-138608566D01*
X151882200Y-138607098D01*
X151835844Y-138618000D01*
X151717764Y-138618000D01*
X151698366Y-138616473D01*
X151684810Y-138614326D01*
X151616327Y-138617915D01*
X151613084Y-138618000D01*
X151591380Y-138618000D01*
X151585087Y-138618661D01*
X151569788Y-138620268D01*
X151566557Y-138620522D01*
X151498082Y-138624112D01*
X151484819Y-138627665D01*
X151465705Y-138631208D01*
X151452049Y-138632644D01*
X151452037Y-138632646D01*
X151397017Y-138650523D01*
X151386827Y-138653834D01*
X151383725Y-138654753D01*
X151317478Y-138672504D01*
X151317470Y-138672507D01*
X151305234Y-138678741D01*
X151287278Y-138686179D01*
X151274217Y-138690423D01*
X151274213Y-138690425D01*
X151214817Y-138724716D01*
X151211968Y-138726263D01*
X151150878Y-138757391D01*
X151140202Y-138766036D01*
X151124178Y-138777048D01*
X151112284Y-138783915D01*
X151061326Y-138829797D01*
X151058862Y-138831902D01*
X151041992Y-138845563D01*
X151026640Y-138860915D01*
X151024288Y-138863146D01*
X150973332Y-138909027D01*
X150973328Y-138909031D01*
X150965254Y-138920144D01*
X150952622Y-138934933D01*
X150772652Y-139114904D01*
X150770298Y-139117138D01*
X150719332Y-139163028D01*
X150719330Y-139163030D01*
X150679022Y-139218508D01*
X150677047Y-139221081D01*
X150633898Y-139274369D01*
X150633893Y-139274375D01*
X150633892Y-139274376D01*
X150633891Y-139274378D01*
X150627660Y-139286608D01*
X150617498Y-139303190D01*
X150609428Y-139314297D01*
X150609425Y-139314303D01*
X150581532Y-139376949D01*
X150580136Y-139379875D01*
X150549005Y-139440978D01*
X150549004Y-139440980D01*
X150545454Y-139454231D01*
X150538960Y-139472568D01*
X150537989Y-139474750D01*
X150533374Y-139485115D01*
X150519119Y-139552182D01*
X150518361Y-139555337D01*
X150500610Y-139621584D01*
X150499891Y-139635306D01*
X150497353Y-139654584D01*
X150494500Y-139668010D01*
X150494500Y-139736577D01*
X150494415Y-139739822D01*
X150490826Y-139808310D01*
X150492973Y-139821864D01*
X150494500Y-139841264D01*
X150494500Y-139854990D01*
X150503727Y-139898404D01*
X150508756Y-139922062D01*
X150509347Y-139925253D01*
X150520075Y-139992987D01*
X150524995Y-140005804D01*
X150530521Y-140024457D01*
X150533375Y-140037885D01*
X150535105Y-140043209D01*
X150537097Y-140113051D01*
X150516126Y-140156249D01*
X150407611Y-140299945D01*
X150313151Y-140489646D01*
X150255154Y-140693486D01*
X150240500Y-140851634D01*
X150240500Y-142280462D01*
X139917039Y-142280462D01*
X137238930Y-138299488D01*
X137236655Y-138295840D01*
X137205922Y-138242481D01*
X137151665Y-138181271D01*
X137099382Y-138118377D01*
X137099380Y-138118376D01*
X137099380Y-138118375D01*
X137095774Y-138115491D01*
X137080424Y-138100900D01*
X137077360Y-138097443D01*
X137077358Y-138097441D01*
X137077355Y-138097438D01*
X137011868Y-138048388D01*
X136948014Y-137997322D01*
X136947545Y-137997082D01*
X136943887Y-137995215D01*
X136925940Y-137984027D01*
X136922231Y-137981249D01*
X136922225Y-137981246D01*
X136848211Y-137946386D01*
X136775379Y-137909215D01*
X136775378Y-137909214D01*
X136775377Y-137909214D01*
X136770911Y-137907981D01*
X136751068Y-137900632D01*
X136746880Y-137898659D01*
X136746875Y-137898658D01*
X136667398Y-137879420D01*
X136588534Y-137857660D01*
X136588535Y-137857660D01*
X136583907Y-137857352D01*
X136562997Y-137854149D01*
X136558496Y-137853060D01*
X136476769Y-137850213D01*
X136395148Y-137844775D01*
X136395143Y-137844775D01*
X136390541Y-137845405D01*
X136369430Y-137846474D01*
X136364801Y-137846313D01*
X136364795Y-137846313D01*
X136284148Y-137859980D01*
X136203118Y-137871081D01*
X136198743Y-137872623D01*
X136178261Y-137877926D01*
X136173697Y-137878699D01*
X136097461Y-137908317D01*
X136020315Y-137935506D01*
X136020310Y-137935508D01*
X136016337Y-137937898D01*
X135997350Y-137947211D01*
X135993038Y-137948886D01*
X135993022Y-137948894D01*
X135924323Y-137993244D01*
X135854225Y-138035406D01*
X135854219Y-138035411D01*
X135850806Y-138038554D01*
X135834081Y-138051500D01*
X135830193Y-138054010D01*
X135771829Y-138111276D01*
X135711642Y-138166699D01*
X135708933Y-138170463D01*
X135695155Y-138186513D01*
X135691848Y-138189757D01*
X135646201Y-138257611D01*
X135598410Y-138324004D01*
X135598402Y-138324018D01*
X135596508Y-138328245D01*
X135586244Y-138346734D01*
X130957609Y-145227138D01*
X130955194Y-145230482D01*
X130916552Y-145280404D01*
X130916551Y-145280405D01*
X130881173Y-145352529D01*
X130843315Y-145423360D01*
X130841524Y-145429403D01*
X130833972Y-145448754D01*
X130831193Y-145454418D01*
X130831193Y-145454419D01*
X130811055Y-145532193D01*
X130788232Y-145609195D01*
X130788231Y-145609200D01*
X130787693Y-145615476D01*
X130784191Y-145635950D01*
X130782611Y-145642051D01*
X130778541Y-145722279D01*
X130771684Y-145802305D01*
X128270000Y-145802305D01*
X128270000Y-129937640D01*
X128289685Y-129870601D01*
X128342489Y-129824846D01*
X128411647Y-129814902D01*
X128474340Y-129843186D01*
X128619374Y-129966552D01*
X128831812Y-130094976D01*
X129062101Y-130187659D01*
X129304275Y-130242201D01*
X129450151Y-130252500D01*
X136641848Y-130252499D01*
X136787725Y-130242201D01*
X137029899Y-130187659D01*
X137260188Y-130094976D01*
X137472626Y-129966552D01*
X137661714Y-129805714D01*
X137822552Y-129616626D01*
X137950976Y-129404188D01*
X138043659Y-129173899D01*
X138098201Y-128931725D01*
X138098201Y-128931723D01*
X138099230Y-128927155D01*
X138100236Y-128927381D01*
X138127404Y-128868375D01*
X138186298Y-128830782D01*
X138214375Y-128826036D01*
X138264915Y-128823389D01*
X138278182Y-128819833D01*
X138297304Y-128816289D01*
X138310956Y-128814855D01*
X138376174Y-128793663D01*
X138379259Y-128792749D01*
X138445524Y-128774994D01*
X138457754Y-128768761D01*
X138475729Y-128761316D01*
X138488785Y-128757075D01*
X138548185Y-128722779D01*
X138550989Y-128721255D01*
X138612125Y-128690107D01*
X138622787Y-128681471D01*
X138638821Y-128670450D01*
X138650715Y-128663585D01*
X138701716Y-128617662D01*
X138704118Y-128615611D01*
X138721006Y-128601937D01*
X138736371Y-128586570D01*
X138738692Y-128584368D01*
X138789669Y-128538470D01*
X138797742Y-128527357D01*
X138810371Y-128512570D01*
X140272570Y-127050371D01*
X140287357Y-127037742D01*
X140298470Y-127029669D01*
X140344368Y-126978692D01*
X140346570Y-126976371D01*
X140361937Y-126961006D01*
X140375622Y-126944104D01*
X140377665Y-126941712D01*
X140423585Y-126890715D01*
X140430447Y-126878828D01*
X140441471Y-126862787D01*
X140450106Y-126852125D01*
X140481243Y-126791013D01*
X140482769Y-126788202D01*
X140517075Y-126728785D01*
X140521321Y-126715714D01*
X140528760Y-126697757D01*
X140534994Y-126685525D01*
X140552750Y-126619253D01*
X140553661Y-126616181D01*
X140558621Y-126600918D01*
X140574855Y-126550956D01*
X140576290Y-126537297D01*
X140579836Y-126518170D01*
X140583388Y-126504915D01*
X140586976Y-126436428D01*
X140587229Y-126433219D01*
X140589500Y-126411620D01*
X140589500Y-126389915D01*
X140589585Y-126386669D01*
X140593174Y-126318190D01*
X140591027Y-126304634D01*
X140589500Y-126285235D01*
X140589500Y-103289805D01*
X140609185Y-103222766D01*
X140625819Y-103202124D01*
X141143903Y-102684040D01*
X141670470Y-102157472D01*
X141731791Y-102123989D01*
X141735283Y-102123282D01*
X141924496Y-102087912D01*
X142125391Y-102010085D01*
X142308564Y-101896669D01*
X142467778Y-101751526D01*
X142597612Y-101579599D01*
X142693643Y-101386742D01*
X142752601Y-101179524D01*
X142772480Y-100965000D01*
X142752601Y-100750476D01*
X142693643Y-100543258D01*
X142693639Y-100543249D01*
X142597613Y-100350402D01*
X142467776Y-100178471D01*
X142308564Y-100033331D01*
X142308562Y-100033329D01*
X142125394Y-99919916D01*
X142125388Y-99919913D01*
X141967056Y-99858576D01*
X141924496Y-99842088D01*
X141712721Y-99802500D01*
X141497279Y-99802500D01*
X141285504Y-99842088D01*
X141285501Y-99842088D01*
X141285501Y-99842089D01*
X141084611Y-99919913D01*
X141084605Y-99919916D01*
X140901437Y-100033329D01*
X140901435Y-100033331D01*
X140742223Y-100178471D01*
X140612386Y-100350402D01*
X140516360Y-100543249D01*
X140516356Y-100543259D01*
X140457398Y-100750480D01*
X140450889Y-100820718D01*
X140425102Y-100885655D01*
X140415099Y-100896956D01*
X139127433Y-102184622D01*
X139112644Y-102197254D01*
X139101531Y-102205328D01*
X139101527Y-102205332D01*
X139055646Y-102256288D01*
X139053416Y-102258639D01*
X139038071Y-102273984D01*
X139038056Y-102274001D01*
X139024402Y-102290862D01*
X139022297Y-102293326D01*
X138976416Y-102344283D01*
X138976410Y-102344291D01*
X138969547Y-102356178D01*
X138958533Y-102372204D01*
X138949891Y-102382876D01*
X138918761Y-102443973D01*
X138917213Y-102446823D01*
X138882925Y-102506214D01*
X138882924Y-102506216D01*
X138878681Y-102519275D01*
X138871241Y-102537237D01*
X138865006Y-102549476D01*
X138847251Y-102615735D01*
X138846335Y-102618827D01*
X138825145Y-102684040D01*
X138825144Y-102684047D01*
X138823709Y-102697697D01*
X138820166Y-102716815D01*
X138816610Y-102730085D01*
X138813022Y-102798564D01*
X138812768Y-102801798D01*
X138810500Y-102823375D01*
X138810500Y-102845077D01*
X138810415Y-102848322D01*
X138806826Y-102916810D01*
X138808973Y-102930364D01*
X138810500Y-102949764D01*
X138810500Y-125945194D01*
X138790815Y-126012233D01*
X138774181Y-126032875D01*
X138192766Y-126614289D01*
X138131443Y-126647774D01*
X138061751Y-126642790D01*
X138005818Y-126600918D01*
X137990052Y-126572905D01*
X137981219Y-126550957D01*
X137950976Y-126475812D01*
X137822552Y-126263374D01*
X137756179Y-126185343D01*
X137661714Y-126074285D01*
X137506615Y-125942359D01*
X137472626Y-125913448D01*
X137260188Y-125785024D01*
X137260187Y-125785024D01*
X137029900Y-125692341D01*
X136787727Y-125637799D01*
X136787720Y-125637798D01*
X136641849Y-125627500D01*
X129450152Y-125627501D01*
X129434237Y-125628624D01*
X129304281Y-125637798D01*
X129304275Y-125637798D01*
X129304275Y-125637799D01*
X129304272Y-125637799D01*
X129304270Y-125637800D01*
X129062103Y-125692340D01*
X129062098Y-125692341D01*
X128831811Y-125785024D01*
X128831806Y-125785027D01*
X128619380Y-125913444D01*
X128619370Y-125913451D01*
X128474341Y-126036812D01*
X128410522Y-126065253D01*
X128341457Y-126054677D01*
X128289075Y-126008440D01*
X128270000Y-125942359D01*
X128270000Y-116461500D01*
X128289685Y-116394461D01*
X128342489Y-116348706D01*
X128394000Y-116337500D01*
X134495990Y-116337500D01*
X134496000Y-116337500D01*
X134659150Y-116319959D01*
X134710661Y-116308753D01*
X134736336Y-116302704D01*
X134858940Y-116255863D01*
X134902799Y-116239107D01*
X134902801Y-116239105D01*
X134902803Y-116239105D01*
X135050117Y-116138831D01*
X135102921Y-116093076D01*
X135161348Y-116036774D01*
X135267007Y-115893274D01*
X135336724Y-115729275D01*
X135356409Y-115662236D01*
X135366812Y-115622998D01*
X135387500Y-115446000D01*
X135387500Y-105534000D01*
X135369959Y-105370850D01*
X135358753Y-105319339D01*
X135352704Y-105293664D01*
X135326001Y-105223771D01*
X135289107Y-105127200D01*
X135289104Y-105127195D01*
X135188833Y-104979885D01*
X135143079Y-104927083D01*
X135143076Y-104927079D01*
X135086774Y-104868652D01*
X134943274Y-104762993D01*
X134779275Y-104693276D01*
X134712236Y-104673591D01*
X134712236Y-104673590D01*
X134673005Y-104663189D01*
X134672999Y-104663188D01*
X134672998Y-104663188D01*
X134496000Y-104642500D01*
X128394000Y-104642500D01*
X128326961Y-104622815D01*
X128281206Y-104570011D01*
X128270000Y-104518500D01*
X128270000Y-99316500D01*
X128289685Y-99249461D01*
X128342489Y-99203706D01*
X128394000Y-99192500D01*
X142115990Y-99192500D01*
X142116000Y-99192500D01*
X142279150Y-99174959D01*
X142330661Y-99163753D01*
X142356336Y-99157704D01*
X142478940Y-99110863D01*
X142522799Y-99094107D01*
X142522801Y-99094105D01*
X142522803Y-99094105D01*
X142670117Y-98993831D01*
X142722921Y-98948076D01*
X142781348Y-98891774D01*
X142887007Y-98748274D01*
X142956724Y-98584275D01*
X142976409Y-98517236D01*
X142986812Y-98477998D01*
X143007500Y-98301000D01*
X143007500Y-96677699D01*
X143027185Y-96610661D01*
X143079989Y-96564906D01*
X143149147Y-96554962D01*
X143212703Y-96583987D01*
X143230462Y-96602984D01*
X143232462Y-96605633D01*
X143257147Y-96670996D01*
X143257500Y-96680349D01*
X143257500Y-98825392D01*
X143255973Y-98844789D01*
X143253834Y-98858296D01*
X143256378Y-98906831D01*
X143257415Y-98926623D01*
X143257500Y-98929869D01*
X143257500Y-98951514D01*
X143259763Y-98973045D01*
X143260017Y-98976280D01*
X143263597Y-99044600D01*
X143263598Y-99044604D01*
X143267138Y-99057817D01*
X143270682Y-99076939D01*
X143272111Y-99090533D01*
X143272112Y-99090541D01*
X143293250Y-99155595D01*
X143294171Y-99158707D01*
X143311882Y-99224803D01*
X143318092Y-99236991D01*
X143325537Y-99254965D01*
X143329762Y-99267967D01*
X143363982Y-99327239D01*
X143365500Y-99330033D01*
X143387638Y-99373481D01*
X143396579Y-99391029D01*
X143396581Y-99391032D01*
X143405185Y-99401658D01*
X143416198Y-99417683D01*
X143423035Y-99429524D01*
X143423040Y-99429531D01*
X143423042Y-99429533D01*
X143468838Y-99480395D01*
X143470919Y-99482831D01*
X143482558Y-99497204D01*
X143484547Y-99499660D01*
X143484550Y-99499664D01*
X143499846Y-99514960D01*
X143502067Y-99517299D01*
X143532805Y-99551438D01*
X143547871Y-99568170D01*
X143547873Y-99568173D01*
X143553232Y-99572066D01*
X143558942Y-99576215D01*
X143573736Y-99588850D01*
X149167343Y-105182457D01*
X149200828Y-105243780D01*
X149195844Y-105313472D01*
X149153972Y-105369405D01*
X149088508Y-105393822D01*
X149052418Y-105391108D01*
X149037730Y-105387800D01*
X149037720Y-105387798D01*
X148891849Y-105377500D01*
X147200152Y-105377501D01*
X147184237Y-105378624D01*
X147054281Y-105387798D01*
X147054275Y-105387798D01*
X147054275Y-105387799D01*
X147054272Y-105387799D01*
X147054270Y-105387800D01*
X146812103Y-105442340D01*
X146812098Y-105442341D01*
X146581811Y-105535024D01*
X146581806Y-105535027D01*
X146369380Y-105663444D01*
X146369370Y-105663451D01*
X146180285Y-105824285D01*
X146019451Y-106013370D01*
X146019444Y-106013380D01*
X145891027Y-106225806D01*
X145891024Y-106225811D01*
X145798341Y-106456098D01*
X145798341Y-106456100D01*
X145743799Y-106698272D01*
X145743798Y-106698279D01*
X145733500Y-106844151D01*
X145733501Y-114035847D01*
X145743798Y-114181718D01*
X145743800Y-114181729D01*
X145798340Y-114423896D01*
X145798341Y-114423901D01*
X145891023Y-114654188D01*
X145891024Y-114654188D01*
X146019448Y-114866626D01*
X146019451Y-114866629D01*
X146180285Y-115055714D01*
X146291343Y-115150179D01*
X146369374Y-115216552D01*
X146581812Y-115344976D01*
X146812101Y-115437659D01*
X147054275Y-115492201D01*
X147200151Y-115502500D01*
X148891848Y-115502499D01*
X149037725Y-115492201D01*
X149279899Y-115437659D01*
X149510188Y-115344976D01*
X149595349Y-115293493D01*
X149662904Y-115275657D01*
X149729378Y-115297174D01*
X149773666Y-115351214D01*
X149783500Y-115399610D01*
X149783500Y-129676548D01*
X149763815Y-129743587D01*
X149747181Y-129764229D01*
X147887430Y-131623981D01*
X147826107Y-131657466D01*
X147799749Y-131660300D01*
X147337345Y-131660300D01*
X147110766Y-131675467D01*
X147110756Y-131675469D01*
X146813917Y-131735804D01*
X146527765Y-131835167D01*
X146527762Y-131835169D01*
X146257420Y-131971778D01*
X146007675Y-132143218D01*
X146007674Y-132143219D01*
X145783019Y-132346408D01*
X145587449Y-132577730D01*
X145424457Y-132833054D01*
X145296957Y-133107811D01*
X145296953Y-133107820D01*
X145263575Y-133215417D01*
X145207207Y-133397130D01*
X145156824Y-133695827D01*
X145146702Y-133998574D01*
X145177022Y-134299959D01*
X145177023Y-134299962D01*
X145247243Y-134594619D01*
X145247247Y-134594633D01*
X145356108Y-134877286D01*
X145356111Y-134877292D01*
X145356113Y-134877297D01*
X145501688Y-135142936D01*
X145681370Y-135386802D01*
X145891953Y-135604544D01*
X146129679Y-135792274D01*
X146175610Y-135819479D01*
X146390300Y-135946641D01*
X146390302Y-135946642D01*
X146390304Y-135946642D01*
X146390306Y-135946644D01*
X146669183Y-136064898D01*
X146669186Y-136064898D01*
X146669189Y-136064900D01*
X146773152Y-136093378D01*
X146961333Y-136144926D01*
X147261543Y-136185300D01*
X147261547Y-136185300D01*
X149588655Y-136185300D01*
X149724601Y-136176199D01*
X149815237Y-136170132D01*
X150112080Y-136109796D01*
X150398233Y-136010433D01*
X150583159Y-135916984D01*
X150668579Y-135873821D01*
X150668581Y-135873819D01*
X150668588Y-135873816D01*
X150918323Y-135702383D01*
X151142979Y-135499193D01*
X151338548Y-135267873D01*
X151501540Y-135012550D01*
X151629047Y-134737780D01*
X151718793Y-134448467D01*
X151769176Y-134149773D01*
X151774231Y-133998574D01*
X153020702Y-133998574D01*
X153051022Y-134299959D01*
X153051023Y-134299962D01*
X153121243Y-134594619D01*
X153121247Y-134594633D01*
X153230108Y-134877286D01*
X153230111Y-134877292D01*
X153230113Y-134877297D01*
X153375688Y-135142936D01*
X153555370Y-135386802D01*
X153765953Y-135604544D01*
X154003679Y-135792274D01*
X154049610Y-135819479D01*
X154264300Y-135946641D01*
X154264302Y-135946642D01*
X154264304Y-135946642D01*
X154264306Y-135946644D01*
X154543183Y-136064898D01*
X154543186Y-136064898D01*
X154543189Y-136064900D01*
X154647152Y-136093378D01*
X154835333Y-136144926D01*
X155135543Y-136185300D01*
X155135547Y-136185300D01*
X157462655Y-136185300D01*
X157598601Y-136176199D01*
X157689237Y-136170132D01*
X157986080Y-136109796D01*
X158272233Y-136010433D01*
X158457159Y-135916984D01*
X158542579Y-135873821D01*
X158542581Y-135873819D01*
X158542588Y-135873816D01*
X158792323Y-135702383D01*
X159016979Y-135499193D01*
X159212548Y-135267873D01*
X159375540Y-135012550D01*
X159503047Y-134737780D01*
X159592793Y-134448467D01*
X159643176Y-134149773D01*
X159653298Y-133847029D01*
X159622977Y-133545638D01*
X159552756Y-133250976D01*
X159443887Y-132968303D01*
X159298312Y-132702664D01*
X159118630Y-132458798D01*
X158908047Y-132241056D01*
X158908040Y-132241050D01*
X158784153Y-132143218D01*
X158670321Y-132053326D01*
X158555206Y-131985143D01*
X158430307Y-131911165D01*
X158382658Y-131860063D01*
X158369500Y-131804475D01*
X158369500Y-128123440D01*
X158389185Y-128056401D01*
X158426804Y-128019801D01*
X158426569Y-128019474D01*
X158428773Y-128017885D01*
X158429354Y-128017321D01*
X158429422Y-128017279D01*
X158430626Y-128016552D01*
X158619714Y-127855714D01*
X158780552Y-127666626D01*
X158908976Y-127454188D01*
X159001659Y-127223899D01*
X159056201Y-126981725D01*
X159066500Y-126835849D01*
X159066499Y-119644152D01*
X159056201Y-119498275D01*
X159001659Y-119256101D01*
X158908976Y-119025812D01*
X158780552Y-118813374D01*
X158714179Y-118735343D01*
X158619714Y-118624285D01*
X158489148Y-118513227D01*
X158430626Y-118463448D01*
X158218188Y-118335024D01*
X158218188Y-118335023D01*
X157987900Y-118242341D01*
X157745727Y-118187799D01*
X157745720Y-118187798D01*
X157599849Y-118177500D01*
X155908152Y-118177501D01*
X155892237Y-118178624D01*
X155762281Y-118187798D01*
X155762275Y-118187798D01*
X155762275Y-118187799D01*
X155762272Y-118187799D01*
X155762270Y-118187800D01*
X155520103Y-118242340D01*
X155520098Y-118242341D01*
X155289811Y-118335024D01*
X155289806Y-118335027D01*
X155077380Y-118463444D01*
X155077370Y-118463451D01*
X154888285Y-118624285D01*
X154727451Y-118813370D01*
X154727444Y-118813380D01*
X154599027Y-119025806D01*
X154599024Y-119025811D01*
X154506341Y-119256098D01*
X154506341Y-119256100D01*
X154451799Y-119498272D01*
X154451798Y-119498279D01*
X154441500Y-119644151D01*
X154441500Y-122886601D01*
X154436082Y-122922856D01*
X154430764Y-122940247D01*
X154428112Y-122947342D01*
X154422407Y-122960156D01*
X154388126Y-123079710D01*
X154351758Y-123198663D01*
X154351757Y-123198668D01*
X154349563Y-123212519D01*
X154347924Y-123219909D01*
X154344061Y-123233381D01*
X154344058Y-123233394D01*
X154326747Y-123356576D01*
X154307290Y-123479418D01*
X154307289Y-123479428D01*
X154307045Y-123493440D01*
X154306451Y-123500994D01*
X154304500Y-123514872D01*
X154304500Y-123639258D01*
X154302328Y-123763618D01*
X154302329Y-123763634D01*
X154304038Y-123777548D01*
X154304500Y-123785109D01*
X154304500Y-131808045D01*
X154284815Y-131875084D01*
X154236426Y-131918717D01*
X154131413Y-131971783D01*
X154131411Y-131971784D01*
X153881675Y-132143218D01*
X153881674Y-132143219D01*
X153657019Y-132346408D01*
X153461449Y-132577730D01*
X153298457Y-132833054D01*
X153170957Y-133107811D01*
X153170953Y-133107820D01*
X153137575Y-133215417D01*
X153081207Y-133397130D01*
X153030824Y-133695827D01*
X153020702Y-133998574D01*
X151774231Y-133998574D01*
X151779298Y-133847029D01*
X151751716Y-133572866D01*
X151764591Y-133504195D01*
X151787409Y-133472778D01*
X153214427Y-132045760D01*
X153216746Y-132043559D01*
X153281628Y-131985141D01*
X153361573Y-131889865D01*
X153443191Y-131795976D01*
X153447909Y-131788709D01*
X153450828Y-131784216D01*
X153455333Y-131778126D01*
X153464342Y-131767391D01*
X153521781Y-131675469D01*
X153530250Y-131661916D01*
X153598002Y-131557586D01*
X153598005Y-131557582D01*
X153603935Y-131544863D01*
X153607544Y-131538219D01*
X153614973Y-131526331D01*
X153665563Y-131412702D01*
X153718136Y-131299961D01*
X153722238Y-131286541D01*
X153724883Y-131279466D01*
X153730589Y-131266653D01*
X153764873Y-131147089D01*
X153801243Y-131028130D01*
X153803435Y-131014282D01*
X153805076Y-131006886D01*
X153808941Y-130993408D01*
X153826252Y-130870223D01*
X153845710Y-130747375D01*
X153845954Y-130733363D01*
X153846549Y-130725800D01*
X153848500Y-130711924D01*
X153848500Y-130587541D01*
X153850671Y-130463172D01*
X153848962Y-130449250D01*
X153848500Y-130441689D01*
X153848500Y-114264847D01*
X153848585Y-114261601D01*
X153853153Y-114174440D01*
X153842313Y-114050544D01*
X153833635Y-113926445D01*
X153833635Y-113926440D01*
X153830717Y-113912716D01*
X153829598Y-113905225D01*
X153828378Y-113891271D01*
X153800404Y-113770104D01*
X153774535Y-113648399D01*
X153769736Y-113635215D01*
X153767587Y-113627959D01*
X153764435Y-113614303D01*
X153719866Y-113498197D01*
X153677315Y-113381289D01*
X153670725Y-113368895D01*
X153667591Y-113362016D01*
X153662568Y-113348931D01*
X153661363Y-113346757D01*
X153602274Y-113240156D01*
X153543870Y-113130314D01*
X153543868Y-113130311D01*
X153543867Y-113130309D01*
X153535622Y-113118961D01*
X153531563Y-113112591D01*
X153524760Y-113100317D01*
X153449893Y-113000965D01*
X153376787Y-112900344D01*
X153367043Y-112890253D01*
X153362131Y-112884502D01*
X153360931Y-112882910D01*
X153353693Y-112873304D01*
X153265730Y-112785341D01*
X153179329Y-112695870D01*
X153168281Y-112687238D01*
X153162607Y-112682218D01*
X150394818Y-109914429D01*
X150361333Y-109853106D01*
X150358499Y-109826748D01*
X150358499Y-106844153D01*
X150348201Y-106698281D01*
X150348201Y-106698279D01*
X150348201Y-106698275D01*
X150344892Y-106683582D01*
X150349364Y-106613858D01*
X150390824Y-106557618D01*
X150456107Y-106532721D01*
X150524487Y-106547071D01*
X150553542Y-106568656D01*
X155809811Y-111824925D01*
X155843296Y-111886248D01*
X155845601Y-111901164D01*
X155852398Y-111974519D01*
X155911356Y-112181740D01*
X155911360Y-112181750D01*
X156007386Y-112374597D01*
X156137223Y-112546528D01*
X156296435Y-112691668D01*
X156296437Y-112691670D01*
X156479605Y-112805083D01*
X156479611Y-112805086D01*
X156522169Y-112821573D01*
X156680504Y-112882912D01*
X156892279Y-112922500D01*
X156892281Y-112922500D01*
X157107719Y-112922500D01*
X157107721Y-112922500D01*
X157319496Y-112882912D01*
X157520391Y-112805085D01*
X157703564Y-112691669D01*
X157862778Y-112546526D01*
X157992612Y-112374599D01*
X158088643Y-112181742D01*
X158147601Y-111974524D01*
X158167480Y-111760000D01*
X158147601Y-111545476D01*
X158088643Y-111338258D01*
X158015500Y-111191366D01*
X157992613Y-111145402D01*
X157862776Y-110973471D01*
X157703564Y-110828331D01*
X157703562Y-110828329D01*
X157520394Y-110714916D01*
X157520388Y-110714913D01*
X157319499Y-110637089D01*
X157319498Y-110637088D01*
X157319496Y-110637088D01*
X157126883Y-110601082D01*
X157064603Y-110569413D01*
X157061988Y-110566874D01*
X145068819Y-98573704D01*
X145035334Y-98512381D01*
X145032500Y-98486023D01*
X145032500Y-96724742D01*
X145732500Y-96724742D01*
X145733399Y-96733865D01*
X145747149Y-96873486D01*
X145747150Y-96873488D01*
X145805046Y-97064343D01*
X145899061Y-97240235D01*
X145899063Y-97240238D01*
X146025589Y-97394410D01*
X146179761Y-97520936D01*
X146179764Y-97520938D01*
X146355656Y-97614953D01*
X146355658Y-97614954D01*
X146546511Y-97672849D01*
X146546513Y-97672850D01*
X146583699Y-97676512D01*
X146695258Y-97687500D01*
X146695261Y-97687500D01*
X147694739Y-97687500D01*
X147694742Y-97687500D01*
X147843486Y-97672850D01*
X148034342Y-97614954D01*
X148210237Y-97520937D01*
X148364410Y-97394410D01*
X148490937Y-97240237D01*
X148584954Y-97064342D01*
X148642850Y-96873486D01*
X148657500Y-96724742D01*
X148657500Y-96263500D01*
X148677185Y-96196461D01*
X148729989Y-96150706D01*
X148781500Y-96139500D01*
X151602141Y-96139500D01*
X151669180Y-96159185D01*
X151685676Y-96171859D01*
X151696436Y-96181669D01*
X151696438Y-96181670D01*
X151696439Y-96181671D01*
X151879605Y-96295083D01*
X151879611Y-96295086D01*
X151908140Y-96306138D01*
X152080504Y-96372912D01*
X152292279Y-96412500D01*
X152292281Y-96412500D01*
X152507719Y-96412500D01*
X152507721Y-96412500D01*
X152719496Y-96372912D01*
X152920391Y-96295085D01*
X153103564Y-96181669D01*
X153262778Y-96036526D01*
X153392612Y-95864599D01*
X153488643Y-95671742D01*
X153547601Y-95464524D01*
X153567480Y-95250000D01*
X153547601Y-95035476D01*
X153488643Y-94828258D01*
X153455695Y-94762089D01*
X153392613Y-94635402D01*
X153262776Y-94463471D01*
X153103564Y-94318331D01*
X153103562Y-94318329D01*
X152920394Y-94204916D01*
X152920388Y-94204913D01*
X152762056Y-94143576D01*
X152719496Y-94127088D01*
X152507721Y-94087500D01*
X152292279Y-94087500D01*
X152080504Y-94127088D01*
X152080501Y-94127088D01*
X152080501Y-94127089D01*
X151879611Y-94204913D01*
X151879605Y-94204916D01*
X151696439Y-94318328D01*
X151696435Y-94318331D01*
X151696436Y-94318331D01*
X151685678Y-94328137D01*
X151622875Y-94358754D01*
X151602141Y-94360500D01*
X148781500Y-94360500D01*
X148714461Y-94340815D01*
X148668706Y-94288011D01*
X148657500Y-94236500D01*
X148657500Y-93775261D01*
X148656601Y-93766138D01*
X148642850Y-93626514D01*
X148584954Y-93435658D01*
X148490937Y-93259763D01*
X148490936Y-93259761D01*
X148364410Y-93105589D01*
X148210238Y-92979063D01*
X148210235Y-92979061D01*
X148034343Y-92885046D01*
X147843488Y-92827150D01*
X147843486Y-92827149D01*
X147728665Y-92815841D01*
X147694742Y-92812500D01*
X146695258Y-92812500D01*
X146663731Y-92815605D01*
X146546513Y-92827149D01*
X146546511Y-92827150D01*
X146355656Y-92885046D01*
X146179764Y-92979061D01*
X146179761Y-92979063D01*
X146025589Y-93105589D01*
X145899063Y-93259761D01*
X145899061Y-93259764D01*
X145805046Y-93435656D01*
X145747150Y-93626511D01*
X145747149Y-93626513D01*
X145735605Y-93743731D01*
X145732500Y-93775258D01*
X145732500Y-96724742D01*
X145032500Y-96724742D01*
X145032500Y-96680349D01*
X145052185Y-96613310D01*
X145057546Y-96605622D01*
X145095803Y-96554962D01*
X145137612Y-96499599D01*
X145233643Y-96306742D01*
X145292601Y-96099524D01*
X145312480Y-95885000D01*
X145292601Y-95670476D01*
X145233643Y-95463258D01*
X145233639Y-95463249D01*
X145137613Y-95270402D01*
X145007776Y-95098471D01*
X144848564Y-94953331D01*
X144848562Y-94953329D01*
X144665394Y-94839916D01*
X144665388Y-94839913D01*
X144487986Y-94771188D01*
X144464496Y-94762088D01*
X144252721Y-94722500D01*
X144037279Y-94722500D01*
X143825504Y-94762088D01*
X143825501Y-94762088D01*
X143825501Y-94762089D01*
X143624611Y-94839913D01*
X143624605Y-94839916D01*
X143441437Y-94953329D01*
X143441435Y-94953331D01*
X143282223Y-95098472D01*
X143230454Y-95167025D01*
X143174344Y-95208661D01*
X143104632Y-95213352D01*
X143043451Y-95179610D01*
X143010224Y-95118146D01*
X143007500Y-95092298D01*
X143007500Y-88521500D01*
X143027185Y-88454461D01*
X143079989Y-88408706D01*
X143131500Y-88397500D01*
X146315730Y-88397500D01*
X146382769Y-88417185D01*
X146403411Y-88433819D01*
X147390519Y-89420928D01*
X147390519Y-89420927D01*
X147392911Y-89423076D01*
X147421105Y-89448400D01*
X147457741Y-89477924D01*
X147559086Y-89547006D01*
X147559092Y-89547009D01*
X147607056Y-89567398D01*
X147723087Y-89616724D01*
X147790126Y-89636409D01*
X147829364Y-89646812D01*
X148006362Y-89667500D01*
X148006369Y-89667500D01*
X173865990Y-89667500D01*
X173866000Y-89667500D01*
X174029150Y-89649959D01*
X174080661Y-89638753D01*
X174106336Y-89632704D01*
X174219438Y-89589493D01*
X174272799Y-89569107D01*
X174272801Y-89569105D01*
X174272803Y-89569105D01*
X174420117Y-89468831D01*
X174472921Y-89423076D01*
X174531348Y-89366774D01*
X174637007Y-89223274D01*
X174706724Y-89059275D01*
X174726409Y-88992236D01*
X174736812Y-88952998D01*
X174757500Y-88776000D01*
X174757500Y-62100000D01*
X174739959Y-61936850D01*
X174728753Y-61885339D01*
X174722704Y-61859664D01*
X174696001Y-61789771D01*
X174659107Y-61693200D01*
X174659104Y-61693195D01*
X174558833Y-61545885D01*
X174513079Y-61493083D01*
X174513076Y-61493079D01*
X174456774Y-61434652D01*
X174313274Y-61328993D01*
X174149275Y-61259276D01*
X174082236Y-61239591D01*
X174082235Y-61239591D01*
X174043005Y-61229189D01*
X174042999Y-61229188D01*
X174042998Y-61229188D01*
X173866000Y-61208500D01*
X135379000Y-61208500D01*
X135378991Y-61208500D01*
X135378990Y-61208501D01*
X135215855Y-61226040D01*
X135215843Y-61226042D01*
X135164339Y-61237247D01*
X135138663Y-61243296D01*
X134972200Y-61306892D01*
X134972195Y-61306895D01*
X134824885Y-61407166D01*
X134786282Y-61440617D01*
X134772079Y-61452924D01*
X134746656Y-61477421D01*
X134713655Y-61509222D01*
X134607994Y-61652724D01*
X134538276Y-61816725D01*
X134518591Y-61883764D01*
X134508189Y-61922994D01*
X134508188Y-61923001D01*
X134508188Y-61923002D01*
X134487500Y-62100000D01*
X134487500Y-62100005D01*
X134487500Y-62100006D01*
X134487500Y-87373500D01*
X134467815Y-87440539D01*
X134415011Y-87486294D01*
X134363500Y-87497500D01*
X128394000Y-87497500D01*
X128326961Y-87477815D01*
X128281206Y-87425011D01*
X128270000Y-87373500D01*
X128270000Y-59451195D01*
X128836204Y-59451195D01*
X128836942Y-59457464D01*
X128837633Y-59478219D01*
X128837314Y-59484515D01*
X128837314Y-59484521D01*
X128849477Y-59563916D01*
X128858870Y-59643689D01*
X128858870Y-59643691D01*
X128860853Y-59649678D01*
X128865708Y-59669871D01*
X128866662Y-59676097D01*
X128866664Y-59676104D01*
X128894557Y-59751417D01*
X128919819Y-59827675D01*
X128922969Y-59833145D01*
X128931791Y-59851950D01*
X128933980Y-59857860D01*
X128933984Y-59857867D01*
X128976465Y-59926023D01*
X129007211Y-59979401D01*
X129016558Y-59995629D01*
X129016560Y-59995632D01*
X129016562Y-59995634D01*
X129020734Y-60000341D01*
X129033168Y-60016995D01*
X129036503Y-60022345D01*
X129091839Y-60080559D01*
X129145118Y-60140666D01*
X129145121Y-60140669D01*
X129145124Y-60140672D01*
X129145127Y-60140674D01*
X129145129Y-60140676D01*
X129150165Y-60144448D01*
X129165700Y-60158260D01*
X129170037Y-60162822D01*
X129170043Y-60162828D01*
X129227329Y-60202699D01*
X129235958Y-60208705D01*
X129300257Y-60256865D01*
X129305956Y-60259549D01*
X129323949Y-60269950D01*
X129327542Y-60272450D01*
X129329122Y-60273550D01*
X129402918Y-60305218D01*
X129426411Y-60316283D01*
X129475604Y-60339453D01*
X129481720Y-60340933D01*
X129501456Y-60347503D01*
X129507236Y-60349984D01*
X129585902Y-60366150D01*
X129663983Y-60385050D01*
X129670276Y-60385269D01*
X129690914Y-60387731D01*
X129697089Y-60389000D01*
X129777404Y-60389000D01*
X129857688Y-60391796D01*
X129857694Y-60391795D01*
X129863900Y-60390744D01*
X129884621Y-60389000D01*
X139158207Y-60389000D01*
X139162330Y-60389137D01*
X139169981Y-60389646D01*
X139225335Y-60393335D01*
X139304928Y-60382431D01*
X139384827Y-60374306D01*
X139390822Y-60372424D01*
X139411121Y-60367883D01*
X139417363Y-60367028D01*
X139493135Y-60340323D01*
X139569759Y-60316283D01*
X139575254Y-60313232D01*
X139594221Y-60304698D01*
X139600165Y-60302604D01*
X139669004Y-60261197D01*
X139739226Y-60222222D01*
X139743994Y-60218128D01*
X139760858Y-60205947D01*
X139766256Y-60202702D01*
X139825351Y-60148285D01*
X139886290Y-60095972D01*
X139890145Y-60090990D01*
X139904204Y-60075675D01*
X139908837Y-60071411D01*
X139955763Y-60006219D01*
X140004929Y-59942703D01*
X140007697Y-59937058D01*
X140018397Y-59919206D01*
X140022070Y-59914105D01*
X140054910Y-59840809D01*
X140090287Y-59768689D01*
X140091865Y-59762593D01*
X140098747Y-59742970D01*
X140101321Y-59737226D01*
X140118734Y-59658817D01*
X140138869Y-59581055D01*
X140139188Y-59574765D01*
X140141978Y-59554157D01*
X140143343Y-59548015D01*
X140144617Y-59467711D01*
X140145455Y-59451195D01*
X164396204Y-59451195D01*
X164396942Y-59457464D01*
X164397633Y-59478219D01*
X164397314Y-59484515D01*
X164397314Y-59484521D01*
X164409477Y-59563916D01*
X164418870Y-59643689D01*
X164418870Y-59643691D01*
X164420853Y-59649678D01*
X164425708Y-59669871D01*
X164426662Y-59676097D01*
X164426664Y-59676104D01*
X164454557Y-59751417D01*
X164479819Y-59827675D01*
X164482969Y-59833145D01*
X164491791Y-59851950D01*
X164493980Y-59857860D01*
X164493984Y-59857867D01*
X164536465Y-59926023D01*
X164567211Y-59979401D01*
X164576558Y-59995629D01*
X164576560Y-59995632D01*
X164576562Y-59995634D01*
X164580734Y-60000341D01*
X164593168Y-60016995D01*
X164596503Y-60022345D01*
X164651839Y-60080559D01*
X164705118Y-60140666D01*
X164705121Y-60140669D01*
X164705124Y-60140672D01*
X164705127Y-60140674D01*
X164705129Y-60140676D01*
X164710165Y-60144448D01*
X164725700Y-60158260D01*
X164730037Y-60162822D01*
X164730043Y-60162828D01*
X164787329Y-60202699D01*
X164795958Y-60208705D01*
X164860257Y-60256865D01*
X164865956Y-60259549D01*
X164883949Y-60269950D01*
X164887542Y-60272450D01*
X164889122Y-60273550D01*
X164962918Y-60305218D01*
X164986411Y-60316283D01*
X165035604Y-60339453D01*
X165041720Y-60340933D01*
X165061456Y-60347503D01*
X165067236Y-60349984D01*
X165145902Y-60366150D01*
X165223983Y-60385050D01*
X165230276Y-60385269D01*
X165250914Y-60387731D01*
X165257089Y-60389000D01*
X165337404Y-60389000D01*
X165417688Y-60391796D01*
X165417694Y-60391795D01*
X165423900Y-60390744D01*
X165444621Y-60389000D01*
X174718207Y-60389000D01*
X174722330Y-60389137D01*
X174729981Y-60389646D01*
X174785335Y-60393335D01*
X174864928Y-60382431D01*
X174944827Y-60374306D01*
X174950822Y-60372424D01*
X174971121Y-60367883D01*
X174977363Y-60367028D01*
X175053135Y-60340323D01*
X175129759Y-60316283D01*
X175135254Y-60313232D01*
X175154221Y-60304698D01*
X175160165Y-60302604D01*
X175229004Y-60261197D01*
X175299226Y-60222222D01*
X175303994Y-60218128D01*
X175320858Y-60205947D01*
X175326256Y-60202702D01*
X175385351Y-60148285D01*
X175446290Y-60095972D01*
X175450145Y-60090990D01*
X175464204Y-60075675D01*
X175468837Y-60071411D01*
X175515763Y-60006219D01*
X175564929Y-59942703D01*
X175567697Y-59937058D01*
X175578397Y-59919206D01*
X175582070Y-59914105D01*
X175614910Y-59840809D01*
X175650287Y-59768689D01*
X175651865Y-59762593D01*
X175658747Y-59742970D01*
X175661321Y-59737226D01*
X175678734Y-59658817D01*
X175698869Y-59581055D01*
X175699188Y-59574765D01*
X175701978Y-59554157D01*
X175703343Y-59548015D01*
X175704617Y-59467711D01*
X175708686Y-59387482D01*
X175707731Y-59381249D01*
X175706317Y-59360508D01*
X175706418Y-59354218D01*
X175691500Y-59275299D01*
X175679336Y-59195896D01*
X175677148Y-59189990D01*
X175671585Y-59169949D01*
X175670418Y-59163770D01*
X175639916Y-59089462D01*
X175612020Y-59014140D01*
X175608691Y-59008799D01*
X175599209Y-58990289D01*
X175596819Y-58984467D01*
X175551984Y-58917821D01*
X175509496Y-58849654D01*
X175505152Y-58845084D01*
X175492144Y-58828870D01*
X175223646Y-58429752D01*
X174285942Y-57035867D01*
X170863450Y-51948378D01*
X170861175Y-51944730D01*
X170830442Y-51891371D01*
X170776185Y-51830161D01*
X170723902Y-51767267D01*
X170723900Y-51767266D01*
X170723900Y-51767265D01*
X170720294Y-51764381D01*
X170704944Y-51749790D01*
X170701880Y-51746333D01*
X170701878Y-51746331D01*
X170701875Y-51746328D01*
X170636388Y-51697278D01*
X170572534Y-51646212D01*
X170572065Y-51645972D01*
X170568407Y-51644105D01*
X170550460Y-51632917D01*
X170546751Y-51630139D01*
X170546745Y-51630136D01*
X170472731Y-51595276D01*
X170399899Y-51558105D01*
X170399898Y-51558104D01*
X170399897Y-51558104D01*
X170395431Y-51556871D01*
X170375588Y-51549522D01*
X170371400Y-51547549D01*
X170371395Y-51547548D01*
X170291918Y-51528310D01*
X170213054Y-51506550D01*
X170213055Y-51506550D01*
X170208427Y-51506242D01*
X170187517Y-51503039D01*
X170183016Y-51501950D01*
X170101289Y-51499103D01*
X170019668Y-51493665D01*
X170019663Y-51493665D01*
X170015061Y-51494295D01*
X169993950Y-51495364D01*
X169989321Y-51495203D01*
X169989315Y-51495203D01*
X169908668Y-51508870D01*
X169827638Y-51519971D01*
X169823263Y-51521513D01*
X169802781Y-51526816D01*
X169798217Y-51527589D01*
X169721981Y-51557207D01*
X169644835Y-51584396D01*
X169644830Y-51584398D01*
X169640857Y-51586788D01*
X169621870Y-51596101D01*
X169617558Y-51597776D01*
X169617542Y-51597784D01*
X169548843Y-51642134D01*
X169478745Y-51684296D01*
X169478739Y-51684301D01*
X169475326Y-51687444D01*
X169458601Y-51700390D01*
X169454713Y-51702900D01*
X169396349Y-51760166D01*
X169336162Y-51815589D01*
X169333453Y-51819353D01*
X169319675Y-51835403D01*
X169316368Y-51838647D01*
X169270721Y-51906501D01*
X169222930Y-51972894D01*
X169222922Y-51972908D01*
X169221028Y-51977135D01*
X169210764Y-51995624D01*
X164582129Y-58876028D01*
X164579714Y-58879372D01*
X164541072Y-58929294D01*
X164541071Y-58929295D01*
X164505693Y-59001419D01*
X164467835Y-59072250D01*
X164466044Y-59078293D01*
X164458492Y-59097644D01*
X164455713Y-59103308D01*
X164455713Y-59103309D01*
X164435575Y-59181083D01*
X164412752Y-59258085D01*
X164412751Y-59258090D01*
X164412213Y-59264366D01*
X164408711Y-59284840D01*
X164407131Y-59290941D01*
X164403061Y-59371169D01*
X164396204Y-59451195D01*
X140145455Y-59451195D01*
X140148686Y-59387482D01*
X140147731Y-59381249D01*
X140146317Y-59360508D01*
X140146418Y-59354218D01*
X140131500Y-59275299D01*
X140119336Y-59195896D01*
X140117148Y-59189990D01*
X140111585Y-59169949D01*
X140110418Y-59163770D01*
X140079916Y-59089462D01*
X140052020Y-59014140D01*
X140048691Y-59008799D01*
X140039209Y-58990289D01*
X140036819Y-58984467D01*
X139991984Y-58917821D01*
X139949496Y-58849654D01*
X139945152Y-58845084D01*
X139932144Y-58828870D01*
X139663646Y-58429752D01*
X138725942Y-57035867D01*
X135303450Y-51948378D01*
X135301175Y-51944730D01*
X135270442Y-51891371D01*
X135216185Y-51830161D01*
X135163902Y-51767267D01*
X135163900Y-51767266D01*
X135163900Y-51767265D01*
X135160294Y-51764381D01*
X135144944Y-51749790D01*
X135141880Y-51746333D01*
X135141878Y-51746331D01*
X135141875Y-51746328D01*
X135076388Y-51697278D01*
X135012534Y-51646212D01*
X135012065Y-51645972D01*
X135008407Y-51644105D01*
X134990460Y-51632917D01*
X134986751Y-51630139D01*
X134986745Y-51630136D01*
X134912731Y-51595276D01*
X134839899Y-51558105D01*
X134839898Y-51558104D01*
X134839897Y-51558104D01*
X134835431Y-51556871D01*
X134815588Y-51549522D01*
X134811400Y-51547549D01*
X134811395Y-51547548D01*
X134731918Y-51528310D01*
X134653054Y-51506550D01*
X134653055Y-51506550D01*
X134648427Y-51506242D01*
X134627517Y-51503039D01*
X134623016Y-51501950D01*
X134541289Y-51499103D01*
X134459668Y-51493665D01*
X134459663Y-51493665D01*
X134455061Y-51494295D01*
X134433950Y-51495364D01*
X134429321Y-51495203D01*
X134429315Y-51495203D01*
X134348668Y-51508870D01*
X134267638Y-51519971D01*
X134263263Y-51521513D01*
X134242781Y-51526816D01*
X134238217Y-51527589D01*
X134161981Y-51557207D01*
X134084835Y-51584396D01*
X134084830Y-51584398D01*
X134080857Y-51586788D01*
X134061870Y-51596101D01*
X134057558Y-51597776D01*
X134057542Y-51597784D01*
X133988843Y-51642134D01*
X133918745Y-51684296D01*
X133918739Y-51684301D01*
X133915326Y-51687444D01*
X133898601Y-51700390D01*
X133894713Y-51702900D01*
X133836349Y-51760166D01*
X133776162Y-51815589D01*
X133773453Y-51819353D01*
X133759675Y-51835403D01*
X133756368Y-51838647D01*
X133710721Y-51906501D01*
X133662930Y-51972894D01*
X133662922Y-51972908D01*
X133661028Y-51977135D01*
X133650764Y-51995624D01*
X129022129Y-58876028D01*
X129019714Y-58879372D01*
X128981072Y-58929294D01*
X128981071Y-58929295D01*
X128945693Y-59001419D01*
X128907835Y-59072250D01*
X128906044Y-59078293D01*
X128898492Y-59097644D01*
X128895713Y-59103308D01*
X128895713Y-59103309D01*
X128875575Y-59181083D01*
X128852752Y-59258085D01*
X128852751Y-59258090D01*
X128852213Y-59264366D01*
X128848711Y-59284840D01*
X128847131Y-59290941D01*
X128843061Y-59371169D01*
X128836204Y-59451195D01*
X128270000Y-59451195D01*
X128270000Y-50924500D01*
X128289685Y-50857461D01*
X128342489Y-50811706D01*
X128394000Y-50800500D01*
X176406000Y-50800500D01*
X176473039Y-50820185D01*
G37*
G04 #@! TD.AperFunction*
G04 #@! TA.AperFunction,Conductor*
G36*
X170038576Y-136706977D02*
G01*
X170041802Y-136707231D01*
X170056460Y-136708772D01*
X170063379Y-136709500D01*
X170063380Y-136709500D01*
X170085078Y-136709500D01*
X170088321Y-136709584D01*
X170156810Y-136713174D01*
X170170366Y-136711026D01*
X170189764Y-136709500D01*
X171119175Y-136709500D01*
X171184271Y-136727961D01*
X171245553Y-136765760D01*
X171245554Y-136765760D01*
X171245560Y-136765764D01*
X171414759Y-136821831D01*
X171519189Y-136832500D01*
X172020810Y-136832499D01*
X172125241Y-136821831D01*
X172125251Y-136821827D01*
X172131533Y-136820483D01*
X172183463Y-136820483D01*
X172189752Y-136821828D01*
X172189759Y-136821831D01*
X172294189Y-136832500D01*
X172976500Y-136832499D01*
X173043539Y-136852183D01*
X173089294Y-136904987D01*
X173100500Y-136956499D01*
X173100500Y-138397690D01*
X173080815Y-138464729D01*
X173057031Y-138491980D01*
X172908685Y-138618678D01*
X172877875Y-138654753D01*
X172817431Y-138725525D01*
X172814291Y-138729201D01*
X172755784Y-138767395D01*
X172685916Y-138767894D01*
X172626869Y-138730540D01*
X172625709Y-138729201D01*
X172622569Y-138725525D01*
X172531318Y-138618682D01*
X172531317Y-138618681D01*
X172348851Y-138462841D01*
X172348846Y-138462837D01*
X172144248Y-138337459D01*
X172144245Y-138337457D01*
X171922553Y-138245630D01*
X171689218Y-138189612D01*
X171689219Y-138189612D01*
X171472342Y-138172544D01*
X171450000Y-138170786D01*
X171449999Y-138170786D01*
X171255507Y-138186092D01*
X171187130Y-138171727D01*
X171158098Y-138150155D01*
X169925437Y-136917494D01*
X169891952Y-136856171D01*
X169896936Y-136786479D01*
X169938808Y-136730546D01*
X170004272Y-136706129D01*
X170019598Y-136705983D01*
X170038576Y-136706977D01*
G37*
G04 #@! TD.AperFunction*
G04 #@! TA.AperFunction,Conductor*
G36*
X201932426Y-50800690D02*
G01*
X201986977Y-50804984D01*
X202127579Y-50817285D01*
X202145696Y-50820235D01*
X202226020Y-50839520D01*
X202271511Y-50851709D01*
X202336713Y-50869181D01*
X202344400Y-50871790D01*
X202381685Y-50887233D01*
X202430959Y-50907643D01*
X202529955Y-50953806D01*
X202536154Y-50957136D01*
X202616778Y-51006543D01*
X202619926Y-51008608D01*
X202706606Y-51069302D01*
X202711285Y-51072924D01*
X202783840Y-51134892D01*
X202787389Y-51138173D01*
X202861824Y-51212608D01*
X202865109Y-51216162D01*
X202927070Y-51288708D01*
X202930707Y-51293406D01*
X202991385Y-51380064D01*
X202993462Y-51383231D01*
X203042862Y-51463845D01*
X203046192Y-51470042D01*
X203092358Y-51569043D01*
X203128208Y-51655598D01*
X203130817Y-51663284D01*
X203160485Y-51774002D01*
X203179760Y-51854290D01*
X203182714Y-51872429D01*
X203195020Y-52013083D01*
X203199309Y-52067575D01*
X203199500Y-52072441D01*
X203199500Y-151127558D01*
X203199309Y-151132424D01*
X203195020Y-151186916D01*
X203182714Y-151327569D01*
X203179760Y-151345707D01*
X203160485Y-151425997D01*
X203130817Y-151536714D01*
X203128208Y-151544399D01*
X203092358Y-151630956D01*
X203046192Y-151729956D01*
X203042862Y-151736153D01*
X202993462Y-151816767D01*
X202991385Y-151819934D01*
X202930707Y-151906592D01*
X202927062Y-151911300D01*
X202865118Y-151983827D01*
X202861812Y-151987403D01*
X202787403Y-152061812D01*
X202783827Y-152065118D01*
X202711300Y-152127062D01*
X202706592Y-152130707D01*
X202619934Y-152191385D01*
X202616767Y-152193462D01*
X202536153Y-152242862D01*
X202529956Y-152246192D01*
X202430956Y-152292358D01*
X202344399Y-152328208D01*
X202336714Y-152330817D01*
X202225997Y-152360485D01*
X202145707Y-152379760D01*
X202127569Y-152382714D01*
X201986916Y-152395020D01*
X201932425Y-152399309D01*
X201927559Y-152399500D01*
X177924000Y-152399500D01*
X177856961Y-152379815D01*
X177811206Y-152327011D01*
X177800000Y-152275500D01*
X177800000Y-128270000D01*
X177800000Y-97790000D01*
X180975000Y-97790000D01*
X180975000Y-92710000D01*
X177800000Y-92710000D01*
X177800000Y-50924500D01*
X177819685Y-50857461D01*
X177872489Y-50811706D01*
X177924000Y-50800500D01*
X201927562Y-50800500D01*
X201932426Y-50800690D01*
G37*
G04 #@! TD.AperFunction*
G04 #@! TA.AperFunction,Conductor*
G36*
X134563039Y-105429685D02*
G01*
X134608794Y-105482489D01*
X134620000Y-105534000D01*
X134620000Y-115446000D01*
X134600315Y-115513039D01*
X134547511Y-115558794D01*
X134496000Y-115570000D01*
X127000000Y-115570000D01*
X127000000Y-105410000D01*
X134496000Y-105410000D01*
X134563039Y-105429685D01*
G37*
G04 #@! TD.AperFunction*
G04 #@! TA.AperFunction,Conductor*
G36*
X173933039Y-61995685D02*
G01*
X173978794Y-62048489D01*
X173990000Y-62100000D01*
X173990000Y-88776000D01*
X173970315Y-88843039D01*
X173917511Y-88888794D01*
X173866000Y-88900000D01*
X148006362Y-88900000D01*
X147939323Y-88880315D01*
X147918681Y-88863681D01*
X146685000Y-87630000D01*
X135379000Y-87630000D01*
X135311961Y-87610315D01*
X135266206Y-87557511D01*
X135255000Y-87506000D01*
X135255000Y-62100000D01*
X135274685Y-62032961D01*
X135327489Y-61987206D01*
X135379000Y-61976000D01*
X173866000Y-61976000D01*
X173933039Y-61995685D01*
G37*
G04 #@! TD.AperFunction*
G04 #@! TA.AperFunction,Conductor*
G36*
X134926729Y-88274883D02*
G01*
X134970835Y-88293632D01*
X135095725Y-88346724D01*
X135162764Y-88366409D01*
X135202002Y-88376812D01*
X135379000Y-88397500D01*
X142116000Y-88397500D01*
X142183039Y-88417185D01*
X142228794Y-88469989D01*
X142240000Y-88521500D01*
X142240000Y-98301000D01*
X142220315Y-98368039D01*
X142167511Y-98413794D01*
X142116000Y-98425000D01*
X120650000Y-98425000D01*
X120650000Y-88265000D01*
X127000000Y-88265000D01*
X134878218Y-88265000D01*
X134926729Y-88274883D01*
G37*
G04 #@! TD.AperFunction*
M02*
