M48
; DRILL file {KiCad 7.0.7} date Tue Feb 27 11:50:44 2024
; FORMAT={-:-/ absolute / metric / decimal}
; #@! TF.CreationDate,2024-02-27T11:50:44-06:00
; #@! TF.GenerationSoftware,Kicad,Pcbnew,7.0.7
; #@! TF.FileFunction,Plated,1,2,PTH
FMAT,2
METRIC
; #@! TA.AperFunction,Plated,PTH,ViaDrill
T1C0.400
; #@! TA.AperFunction,Plated,PTH,ComponentDrill
T2C0.900
; #@! TA.AperFunction,Plated,PTH,ComponentDrill
T3C1.000
; #@! TA.AperFunction,Plated,PTH,ComponentDrill
T4C1.100
; #@! TA.AperFunction,Plated,PTH,ComponentDrill
T5C2.000
; #@! TA.AperFunction,Plated,PTH,ComponentDrill
T6C9.144
%
G90
G05
T1
X128.27Y-107.95
X128.27Y-110.49
X128.27Y-113.03
X129.54Y-52.07
X129.54Y-66.04
X129.54Y-77.47
X133.985Y-90.805
X133.985Y-93.345
X133.985Y-95.885
X137.16Y-78.74
X137.16Y-81.915
X137.16Y-85.09
X137.16Y-90.805
X137.16Y-93.345
X137.16Y-95.885
X140.97Y-78.74
X140.97Y-82.55
X140.97Y-85.09
X141.605Y-100.965
X144.145Y-95.885
X144.78Y-78.74
X144.78Y-81.915
X144.78Y-85.09
X146.685Y-99.695
X146.685Y-102.87
X152.4Y-95.25
X157.0Y-111.76
X158.115Y-109.855
X158.115Y-113.665
X161.925Y-92.075
X161.925Y-97.155
X163.195Y-95.25
X163.195Y-111.76
X163.195Y-118.745
X163.195Y-127.635
X167.64Y-118.745
X167.64Y-127.635
X168.91Y-109.855
X168.91Y-113.665
X170.18Y-100.965
X170.815Y-95.25
X170.815Y-137.16
X172.72Y-109.855
X172.72Y-113.665
X175.26Y-52.07
X175.26Y-66.04
X175.26Y-77.47
X175.895Y-109.855
X175.895Y-113.665
X176.53Y-119.38
X176.53Y-123.19
X176.53Y-127.0
T2
X163.83Y-139.7
X166.37Y-139.7
X168.91Y-139.7
X171.45Y-139.7
X173.99Y-139.7
T3
X132.08Y-90.25
X132.08Y-100.25
T6
X114.3Y-76.2
X114.3Y-127.0
X160.655Y-75.565
X190.5Y-76.2
X190.5Y-127.0
T4
X131.046Y-107.69G85X131.046Y-113.19
G05
X130.296Y-127.94G85X135.796Y-127.94
G05
X143.296Y-127.94G85X148.796Y-127.94
G05
X148.046Y-113.19G85X148.046Y-107.69
G05
X156.754Y-120.49G85X156.754Y-125.99
G05
X161.504Y-105.74G85X156.004Y-105.74
G05
X174.504Y-105.74G85X169.004Y-105.74
G05
X173.754Y-125.99G85X173.754Y-120.49
G05
T5
X147.413Y-133.923G85X149.513Y-133.923
G05
X155.287Y-133.923G85X157.387Y-133.923
G05
T0
M30
