G04 #@! TF.GenerationSoftware,KiCad,Pcbnew,7.0.7*
G04 #@! TF.CreationDate,2024-02-27T11:50:38-06:00*
G04 #@! TF.ProjectId,Relay_board_hardware,52656c61-795f-4626-9f61-72645f686172,rev?*
G04 #@! TF.SameCoordinates,Original*
G04 #@! TF.FileFunction,Legend,Bot*
G04 #@! TF.FilePolarity,Positive*
%FSLAX46Y46*%
G04 Gerber Fmt 4.6, Leading zero omitted, Abs format (unit mm)*
G04 Created by KiCad (PCBNEW 7.0.7) date 2024-02-27 11:50:38*
%MOMM*%
%LPD*%
G01*
G04 APERTURE LIST*
G04 Aperture macros list*
%AMRoundRect*
0 Rectangle with rounded corners*
0 $1 Rounding radius*
0 $2 $3 $4 $5 $6 $7 $8 $9 X,Y pos of 4 corners*
0 Add a 4 corners polygon primitive as box body*
4,1,4,$2,$3,$4,$5,$6,$7,$8,$9,$2,$3,0*
0 Add four circle primitives for the rounded corners*
1,1,$1+$1,$2,$3*
1,1,$1+$1,$4,$5*
1,1,$1+$1,$6,$7*
1,1,$1+$1,$8,$9*
0 Add four rect primitives between the rounded corners*
20,1,$1+$1,$2,$3,$4,$5,0*
20,1,$1+$1,$4,$5,$6,$7,0*
20,1,$1+$1,$6,$7,$8,$9,0*
20,1,$1+$1,$8,$9,$2,$3,0*%
G04 Aperture macros list end*
%ADD10C,0.150000*%
%ADD11C,0.120000*%
%ADD12O,5.100000X3.000000*%
%ADD13R,25.400000X50.800000*%
%ADD14RoundRect,0.775000X-3.525000X0.775000X-3.525000X-0.775000X3.525000X-0.775000X3.525000X0.775000X0*%
%ADD15RoundRect,0.775000X0.775000X3.525000X-0.775000X3.525000X-0.775000X-3.525000X0.775000X-3.525000X0*%
%ADD16RoundRect,0.775000X-0.775000X-3.525000X0.775000X-3.525000X0.775000X3.525000X-0.775000X3.525000X0*%
%ADD17RoundRect,0.775000X3.525000X-0.775000X3.525000X0.775000X-3.525000X0.775000X-3.525000X-0.775000X0*%
%ADD18R,25.400000X25.400000*%
%ADD19C,2.000000*%
%ADD20C,1.524000*%
%ADD21RoundRect,0.250000X0.300000X-2.050000X0.300000X2.050000X-0.300000X2.050000X-0.300000X-2.050000X0*%
%ADD22RoundRect,0.250002X5.149998X-4.449998X5.149998X4.449998X-5.149998X4.449998X-5.149998X-4.449998X0*%
G04 APERTURE END LIST*
D10*
X141065238Y-76750057D02*
X141160476Y-76702438D01*
X141160476Y-76702438D02*
X141255714Y-76607200D01*
X141255714Y-76607200D02*
X141398571Y-76464342D01*
X141398571Y-76464342D02*
X141493809Y-76416723D01*
X141493809Y-76416723D02*
X141589047Y-76416723D01*
X141541428Y-76654819D02*
X141636666Y-76607200D01*
X141636666Y-76607200D02*
X141731904Y-76511961D01*
X141731904Y-76511961D02*
X141779523Y-76321485D01*
X141779523Y-76321485D02*
X141779523Y-75988152D01*
X141779523Y-75988152D02*
X141731904Y-75797676D01*
X141731904Y-75797676D02*
X141636666Y-75702438D01*
X141636666Y-75702438D02*
X141541428Y-75654819D01*
X141541428Y-75654819D02*
X141350952Y-75654819D01*
X141350952Y-75654819D02*
X141255714Y-75702438D01*
X141255714Y-75702438D02*
X141160476Y-75797676D01*
X141160476Y-75797676D02*
X141112857Y-75988152D01*
X141112857Y-75988152D02*
X141112857Y-76321485D01*
X141112857Y-76321485D02*
X141160476Y-76511961D01*
X141160476Y-76511961D02*
X141255714Y-76607200D01*
X141255714Y-76607200D02*
X141350952Y-76654819D01*
X141350952Y-76654819D02*
X141541428Y-76654819D01*
X140160476Y-76654819D02*
X140731904Y-76654819D01*
X140446190Y-76654819D02*
X140446190Y-75654819D01*
X140446190Y-75654819D02*
X140541428Y-75797676D01*
X140541428Y-75797676D02*
X140636666Y-75892914D01*
X140636666Y-75892914D02*
X140731904Y-75940533D01*
G36*
X161944242Y-58712485D02*
G01*
X159819879Y-58712485D01*
X159819879Y-56157091D01*
X158526788Y-56157091D01*
X158526788Y-58004363D01*
X158188121Y-58004363D01*
X158188121Y-56157091D01*
X157326061Y-56157091D01*
X157326061Y-57511757D01*
X156987394Y-57511757D01*
X156987394Y-56157091D01*
X156125333Y-56157091D01*
X156125333Y-57511757D01*
X155786667Y-57511757D01*
X155786667Y-56157091D01*
X154924606Y-56157091D01*
X154924606Y-57511757D01*
X154585939Y-57511757D01*
X154585939Y-56157091D01*
X153723879Y-56157091D01*
X153723879Y-57511757D01*
X153385212Y-57511757D01*
X153385212Y-56157091D01*
X152523151Y-56157091D01*
X152523151Y-57511757D01*
X152184485Y-57511757D01*
X152184485Y-56157091D01*
X151322424Y-56157091D01*
X151322424Y-57511757D01*
X150983757Y-57511757D01*
X150983757Y-56157091D01*
X150121697Y-56157091D01*
X150121697Y-57511757D01*
X149783030Y-57511757D01*
X149783030Y-56157091D01*
X148920970Y-56157091D01*
X148920970Y-57511757D01*
X148759333Y-57511785D01*
X148597697Y-57511813D01*
X148615381Y-56157091D01*
X147720242Y-56157091D01*
X147720242Y-57511757D01*
X147412364Y-57511757D01*
X147412364Y-56157091D01*
X146519515Y-56157091D01*
X146519515Y-57511757D01*
X146211636Y-57511757D01*
X146211636Y-56157091D01*
X145318788Y-56157091D01*
X145318788Y-57511757D01*
X145010909Y-57511757D01*
X145010909Y-56157091D01*
X142948121Y-56157091D01*
X142948121Y-55757678D01*
X144995515Y-55741454D01*
X145012087Y-54371394D01*
X145317610Y-54371394D01*
X145334182Y-55741454D01*
X146196242Y-55741454D01*
X146212814Y-54371394D01*
X146518337Y-54371394D01*
X146534909Y-55741454D01*
X147396970Y-55741454D01*
X147413542Y-54371394D01*
X147719064Y-54371394D01*
X147735636Y-55741454D01*
X148597697Y-55741454D01*
X148603520Y-55064121D01*
X148609344Y-54386788D01*
X148764563Y-54377502D01*
X148919783Y-54368217D01*
X148928073Y-55054836D01*
X148936364Y-55741454D01*
X149781848Y-55758578D01*
X149798424Y-54386788D01*
X149959467Y-54377502D01*
X150120510Y-54368217D01*
X150128801Y-55054836D01*
X150137091Y-55741454D01*
X150982575Y-55758578D01*
X150999151Y-54386788D01*
X151160195Y-54377502D01*
X151321238Y-54368217D01*
X151329528Y-55054836D01*
X151337818Y-55741454D01*
X152183302Y-55758578D01*
X152191590Y-55072683D01*
X152199879Y-54386788D01*
X152360922Y-54377502D01*
X152521965Y-54368217D01*
X152530255Y-55054836D01*
X152538545Y-55741454D01*
X153384029Y-55758578D01*
X153392318Y-55072683D01*
X153400606Y-54386788D01*
X153561649Y-54377502D01*
X153722692Y-54368217D01*
X153730982Y-55054836D01*
X153739273Y-55741454D01*
X154584757Y-55758578D01*
X154601333Y-54386788D01*
X154762376Y-54377502D01*
X154923419Y-54368217D01*
X154931710Y-55054836D01*
X154940000Y-55741454D01*
X155785484Y-55758578D01*
X155793772Y-55072683D01*
X155802061Y-54386788D01*
X155963104Y-54377502D01*
X156124147Y-54368217D01*
X156132437Y-55054836D01*
X156140727Y-55741454D01*
X156986211Y-55758578D01*
X156994500Y-55072683D01*
X157002788Y-54386788D01*
X157163831Y-54377502D01*
X157324874Y-54368217D01*
X157333164Y-55054836D01*
X157341454Y-55741454D01*
X158187216Y-55758580D01*
X158195365Y-54826381D01*
X158203515Y-53894182D01*
X158364698Y-53884891D01*
X158525880Y-53875601D01*
X158534031Y-54808528D01*
X158542182Y-55741454D01*
X159804485Y-55741454D01*
X159812523Y-54471454D01*
X159820562Y-53201454D01*
X161944242Y-53201454D01*
X161944242Y-58712485D01*
G37*
D11*
X135770000Y-88645000D02*
X137580000Y-88645000D01*
X137580000Y-88645000D02*
X137580000Y-89745000D01*
X144360000Y-88645000D02*
X144360000Y-93770000D01*
X146170000Y-88645000D02*
X144360000Y-88645000D01*
X135770000Y-87145000D02*
X135770000Y-88645000D01*
X146170000Y-87145000D02*
X146170000Y-88645000D01*
%LPC*%
D12*
X148463000Y-133922800D03*
X156337000Y-133922800D03*
D13*
X114300000Y-76200000D03*
D14*
X158754000Y-105740000D03*
X171754000Y-105740000D03*
D15*
X173754000Y-123240000D03*
D16*
X156754000Y-123240000D03*
D13*
X114300000Y-127000000D03*
X190500000Y-76200000D03*
X190500000Y-127000000D03*
D17*
X146046000Y-127940000D03*
X133046000Y-127940000D03*
D16*
X131046000Y-110440000D03*
D15*
X148046000Y-110440000D03*
D18*
X160655000Y-75565000D03*
D19*
X132080000Y-90250000D03*
X132080000Y-100250000D03*
D20*
X173990000Y-139700000D03*
X171450000Y-139700000D03*
X168910000Y-139700000D03*
X166370000Y-139700000D03*
X163830000Y-139700000D03*
D21*
X143510000Y-91470000D03*
D22*
X140970000Y-82320000D03*
D21*
X138430000Y-91470000D03*
%LPD*%
M02*
