%TF.GenerationSoftware,KiCad,Pcbnew,7.0.2*%
%TF.CreationDate,2024-02-27T12:18:34-06:00*%
%TF.ProjectId,Relay_board_hardware,52656c61-795f-4626-9f61-72645f686172,rev?*%
%TF.SameCoordinates,Original*%
%TF.FileFunction,Copper,L1,Top*%
%TF.FilePolarity,Positive*%
%FSLAX46Y46*%
G04 Gerber Fmt 4.6, Leading zero omitted, Abs format (unit mm)*
G04 Created by KiCad (PCBNEW 7.0.2) date 2024-02-27 12:18:34*
%MOMM*%
%LPD*%
G01*
G04 APERTURE LIST*
G04 Aperture macros list*
%AMRoundRect*
0 Rectangle with rounded corners*
0 $1 Rounding radius*
0 $2 $3 $4 $5 $6 $7 $8 $9 X,Y pos of 4 corners*
0 Add a 4 corners polygon primitive as box body*
4,1,4,$2,$3,$4,$5,$6,$7,$8,$9,$2,$3,0*
0 Add four circle primitives for the rounded corners*
1,1,$1+$1,$2,$3*
1,1,$1+$1,$4,$5*
1,1,$1+$1,$6,$7*
1,1,$1+$1,$8,$9*
0 Add four rect primitives between the rounded corners*
20,1,$1+$1,$2,$3,$4,$5,0*
20,1,$1+$1,$4,$5,$6,$7,0*
20,1,$1+$1,$6,$7,$8,$9,0*
20,1,$1+$1,$8,$9,$2,$3,0*%
G04 Aperture macros list end*
%TA.AperFunction,EtchedComponent*%
%ADD10C,0.381000*%
%TD*%
%TA.AperFunction,EtchedComponent*%
%ADD11C,0.254000*%
%TD*%
%TA.AperFunction,EtchedComponent*%
%ADD12C,0.762000*%
%TD*%
%TA.AperFunction,ComponentPad*%
%ADD13O,5.100000X3.000000*%
%TD*%
%TA.AperFunction,ComponentPad*%
%ADD14R,25.400000X50.800000*%
%TD*%
%TA.AperFunction,SMDPad,CuDef*%
%ADD15RoundRect,0.249999X0.450001X1.425001X-0.450001X1.425001X-0.450001X-1.425001X0.450001X-1.425001X0*%
%TD*%
%TA.AperFunction,ComponentPad*%
%ADD16RoundRect,0.775000X-3.525000X0.775000X-3.525000X-0.775000X3.525000X-0.775000X3.525000X0.775000X0*%
%TD*%
%TA.AperFunction,ComponentPad*%
%ADD17RoundRect,0.775000X0.775000X3.525000X-0.775000X3.525000X-0.775000X-3.525000X0.775000X-3.525000X0*%
%TD*%
%TA.AperFunction,ComponentPad*%
%ADD18RoundRect,0.775000X-0.775000X-3.525000X0.775000X-3.525000X0.775000X3.525000X-0.775000X3.525000X0*%
%TD*%
%TA.AperFunction,SMDPad,CuDef*%
%ADD19R,0.400000X0.500000*%
%TD*%
%TA.AperFunction,SMDPad,CuDef*%
%ADD20R,0.750000X0.500000*%
%TD*%
%TA.AperFunction,SMDPad,CuDef*%
%ADD21R,1.300000X0.500000*%
%TD*%
%TA.AperFunction,SMDPad,CuDef*%
%ADD22RoundRect,0.150000X0.825000X0.150000X-0.825000X0.150000X-0.825000X-0.150000X0.825000X-0.150000X0*%
%TD*%
%TA.AperFunction,ComponentPad*%
%ADD23RoundRect,0.775000X3.525000X-0.775000X3.525000X0.775000X-3.525000X0.775000X-3.525000X-0.775000X0*%
%TD*%
%TA.AperFunction,ComponentPad*%
%ADD24R,25.400000X25.400000*%
%TD*%
%TA.AperFunction,ComponentPad*%
%ADD25C,2.000000*%
%TD*%
%TA.AperFunction,ComponentPad*%
%ADD26C,1.524000*%
%TD*%
%TA.AperFunction,ViaPad*%
%ADD27C,0.800000*%
%TD*%
%TA.AperFunction,Conductor*%
%ADD28C,2.540000*%
%TD*%
%TA.AperFunction,Conductor*%
%ADD29C,0.254000*%
%TD*%
%TA.AperFunction,Conductor*%
%ADD30C,0.250000*%
%TD*%
G04 APERTURE END LIST*
D10*
%TO.C,REF\u002A\u002A*%
X165354000Y-59436000D02*
X170053000Y-52451000D01*
X169153840Y-56842660D02*
X170352720Y-56042560D01*
X169153840Y-56842660D02*
X170454320Y-54041040D01*
X169555160Y-58841640D02*
X169453560Y-57942480D01*
X169555160Y-58841640D02*
X170154600Y-58143140D01*
X169555160Y-58841640D02*
X170754040Y-55742840D01*
X169953940Y-53842920D02*
X169153840Y-56842660D01*
X170053000Y-52451000D02*
X174752000Y-59436000D01*
X170352720Y-56042560D02*
X169555160Y-58841640D01*
X170754040Y-55742840D02*
X170154600Y-56141620D01*
X174752000Y-59436000D02*
X165354000Y-59436000D01*
%TO.C,DANGER!*%
X165989000Y-146558000D02*
X165608000Y-146685000D01*
X165989000Y-146558000D02*
X165989000Y-146177000D01*
X166243000Y-150622000D02*
X165862000Y-150622000D01*
X166243000Y-150622000D02*
X166243000Y-151130000D01*
X166370000Y-148336000D02*
X166497000Y-147828000D01*
X166370000Y-148590000D02*
X166370000Y-148336000D01*
X166370000Y-148590000D02*
X166497000Y-148844000D01*
X166497000Y-146939000D02*
X165989000Y-146558000D01*
X166497000Y-147828000D02*
X166751000Y-147193000D01*
X166497000Y-148844000D02*
X166624000Y-149098000D01*
X166624000Y-149098000D02*
X167132000Y-149225000D01*
X166751000Y-147193000D02*
X167259000Y-146685000D01*
X167132000Y-149225000D02*
X167767000Y-149352000D01*
X167259000Y-146685000D02*
X167894000Y-146304000D01*
X167259000Y-149733000D02*
X166243000Y-150622000D01*
X167767000Y-149352000D02*
X168148000Y-149352000D01*
X167894000Y-146304000D02*
X168529000Y-146050000D01*
X167894000Y-150114000D02*
X167894000Y-149352000D01*
X167894000Y-150495000D02*
X167894000Y-150114000D01*
X167894000Y-150495000D02*
X168021000Y-150749000D01*
X168021000Y-150749000D02*
X168275000Y-151003000D01*
X168275000Y-151003000D02*
X168656000Y-151130000D01*
X168402000Y-149733000D02*
X169545000Y-149733000D01*
X168402000Y-150241000D02*
X168402000Y-149733000D01*
X168529000Y-146050000D02*
X169037000Y-146050000D01*
X168656000Y-148971000D02*
X168910000Y-148209000D01*
X168910000Y-148209000D02*
X169164000Y-148971000D01*
X169037000Y-146050000D02*
X169672000Y-146177000D01*
X169037000Y-149860000D02*
X169037000Y-150114000D01*
X169037000Y-151130000D02*
X168656000Y-151130000D01*
X169164000Y-148971000D02*
X168656000Y-148971000D01*
X169545000Y-149733000D02*
X169545000Y-150241000D01*
X169545000Y-150241000D02*
X168402000Y-150241000D01*
X169545000Y-151003000D02*
X169037000Y-151130000D01*
X169672000Y-146177000D02*
X170307000Y-146431000D01*
X169926000Y-150876000D02*
X169545000Y-151003000D01*
X170053000Y-149352000D02*
X170053000Y-150114000D01*
X170053000Y-150114000D02*
X170053000Y-150495000D01*
X170053000Y-150495000D02*
X169926000Y-150876000D01*
X170180000Y-149352000D02*
X169799000Y-149352000D01*
X170307000Y-146431000D02*
X170815000Y-146939000D01*
X170561000Y-149352000D02*
X170180000Y-149352000D01*
X170688000Y-149733000D02*
X171577000Y-150622000D01*
X170815000Y-146939000D02*
X171069000Y-147320000D01*
X171069000Y-147320000D02*
X171323000Y-147828000D01*
X171069000Y-149098000D02*
X170561000Y-149352000D01*
X171196000Y-146939000D02*
X171831000Y-146431000D01*
X171323000Y-147828000D02*
X171450000Y-148209000D01*
X171323000Y-148971000D02*
X171069000Y-149098000D01*
X171450000Y-148209000D02*
X171450000Y-148590000D01*
X171450000Y-148590000D02*
X171323000Y-148971000D01*
X171577000Y-150622000D02*
X171577000Y-151003000D01*
X171577000Y-150622000D02*
X171831000Y-150622000D01*
X171577000Y-151003000D02*
X171704000Y-151003000D01*
X171831000Y-146431000D02*
X171831000Y-145923000D01*
X171831000Y-146431000D02*
X172339000Y-146304000D01*
X168177981Y-148209000D02*
G75*
G03*
X168177981Y-148209000I-283981J0D01*
G01*
X170209981Y-148209000D02*
G75*
G03*
X170209981Y-148209000I-283981J0D01*
G01*
%TO.C,REF\u002A\u002A*%
X131729480Y-145787110D02*
X136428480Y-138802110D01*
X135529320Y-143193770D02*
X136728200Y-142393670D01*
X135529320Y-143193770D02*
X136829800Y-140392150D01*
X135930640Y-145192750D02*
X135829040Y-144293590D01*
X135930640Y-145192750D02*
X136530080Y-144494250D01*
X135930640Y-145192750D02*
X137129520Y-142093950D01*
X136329420Y-140194030D02*
X135529320Y-143193770D01*
X136428480Y-138802110D02*
X141127480Y-145787110D01*
X136728200Y-142393670D02*
X135930640Y-145192750D01*
X137129520Y-142093950D02*
X136530080Y-142492730D01*
X141127480Y-145787110D02*
X131729480Y-145787110D01*
X129794000Y-59436000D02*
X134493000Y-52451000D01*
X133593840Y-56842660D02*
X134792720Y-56042560D01*
X133593840Y-56842660D02*
X134894320Y-54041040D01*
X133995160Y-58841640D02*
X133893560Y-57942480D01*
X133995160Y-58841640D02*
X134594600Y-58143140D01*
X133995160Y-58841640D02*
X135194040Y-55742840D01*
X134393940Y-53842920D02*
X133593840Y-56842660D01*
X134493000Y-52451000D02*
X139192000Y-59436000D01*
X134792720Y-56042560D02*
X133995160Y-58841640D01*
X135194040Y-55742840D02*
X134594600Y-56141620D01*
X139192000Y-59436000D02*
X129794000Y-59436000D01*
D11*
X151384000Y-139761500D02*
X151638000Y-139507500D01*
X151384000Y-139761500D02*
X153416000Y-139761500D01*
D12*
X151384000Y-142174500D02*
X151384000Y-140904500D01*
X151384000Y-142174500D02*
X152400000Y-142174500D01*
D11*
X151638000Y-139507500D02*
X153162000Y-139507500D01*
D12*
X152400000Y-142174500D02*
X153416000Y-142174500D01*
X152400000Y-144714500D02*
X152400000Y-139634500D01*
D11*
X153162000Y-139507500D02*
X153416000Y-139761500D01*
D12*
X153416000Y-142174500D02*
X153416000Y-141412500D01*
%TD*%
D13*
%TO.P,Conn1,1,GND*%
%TO.N,/RLY_V-*%
X148463000Y-133922800D03*
%TO.P,Conn1,2,V+Log*%
%TO.N,/RLY_V+*%
X156337000Y-133922800D03*
%TD*%
D14*
%TO.P,V3,1,1*%
%TO.N,GNDPWR*%
X114300000Y-76200000D03*
%TD*%
D15*
%TO.P,R2,1*%
%TO.N,Net-(U1A-+)*%
X147195000Y-95250000D03*
%TO.P,R2,2*%
%TO.N,GNDPWR*%
X141095000Y-95250000D03*
%TD*%
D16*
%TO.P,K1,1*%
%TO.N,GND*%
X158754000Y-105740000D03*
%TO.P,K1,2*%
%TO.N,Net-(IC1-DRAIN)*%
X171754000Y-105740000D03*
D17*
%TO.P,K1,3*%
%TO.N,VBUS*%
X173754000Y-123240000D03*
D18*
%TO.P,K1,4*%
%TO.N,/RLY_V+*%
X156754000Y-123240000D03*
%TD*%
D19*
%TO.P,IC1,1,DRAIN*%
%TO.N,Net-(IC1-DRAIN)*%
X171770000Y-135820000D03*
D20*
%TO.P,IC1,2,N.C._1*%
%TO.N,unconnected-(IC1-N.C._1-Pad2)*%
X172720000Y-135820000D03*
D19*
%TO.P,IC1,3,IN*%
%TO.N,RLY_IN*%
X173670000Y-135820000D03*
%TO.P,IC1,4,SOURCE*%
%TO.N,GND*%
X173670000Y-133420000D03*
D21*
%TO.P,IC1,5,N.C._2*%
%TO.N,unconnected-(IC1-N.C._2-Pad5)*%
X172220000Y-133420000D03*
%TD*%
D14*
%TO.P,V5,1,1*%
%TO.N,GNDPWR*%
X114300000Y-127000000D03*
%TD*%
%TO.P,V2,1,1*%
%TO.N,VBUS*%
X190500000Y-76200000D03*
%TD*%
D22*
%TO.P,U1,1*%
%TO.N,/V_SENSE_OUT*%
X164465000Y-97790000D03*
%TO.P,U1,2,-*%
X164465000Y-96520000D03*
%TO.P,U1,3,+*%
%TO.N,Net-(U1A-+)*%
X164465000Y-95250000D03*
%TO.P,U1,4,V-*%
%TO.N,GND*%
X164465000Y-93980000D03*
%TO.P,U1,5*%
%TO.N,N/C*%
X159515000Y-93980000D03*
%TO.P,U1,6*%
X159515000Y-95250000D03*
%TO.P,U1,7*%
X159515000Y-96520000D03*
%TO.P,U1,8,V+*%
%TO.N,+3V3*%
X159515000Y-97790000D03*
%TD*%
D14*
%TO.P,V4,1,1*%
%TO.N,VBUS*%
X190500000Y-127000000D03*
%TD*%
D17*
%TO.P,K2,4*%
%TO.N,/RLY_V-*%
X148046000Y-110440000D03*
D18*
%TO.P,K2,3*%
%TO.N,GNDPWR*%
X131046000Y-110440000D03*
D23*
%TO.P,K2,2*%
%TO.N,Net-(IC1-DRAIN)*%
X133046000Y-127940000D03*
%TO.P,K2,1*%
%TO.N,GND*%
X146046000Y-127940000D03*
%TD*%
D15*
%TO.P,R1,1*%
%TO.N,VBUS*%
X174500000Y-95250000D03*
%TO.P,R1,2*%
%TO.N,Net-(U1A-+)*%
X168400000Y-95250000D03*
%TD*%
D24*
%TO.P,V1,1,1*%
%TO.N,/PWRRES*%
X160655000Y-75565000D03*
%TD*%
D25*
%TO.P,C1,1*%
%TO.N,GNDPWR*%
X132080000Y-90250000D03*
%TO.P,C1,2*%
%TO.N,GND*%
X132080000Y-100250000D03*
%TD*%
D26*
%TO.P,Conn2,1*%
%TO.N,RLY_IN*%
X173990000Y-139700000D03*
%TO.P,Conn2,2*%
%TO.N,/V_SENSE_OUT*%
X171450000Y-139700000D03*
%TO.P,Conn2,3*%
%TO.N,+3V3*%
X168910000Y-139700000D03*
%TO.P,Conn2,4*%
%TO.N,DSCHG_IN*%
X166370000Y-139700000D03*
%TO.P,Conn2,5*%
%TO.N,GND*%
X163830000Y-139700000D03*
%TD*%
D27*
%TO.N,GNDPWR*%
X137160000Y-93345000D03*
X133985000Y-95885000D03*
X133985000Y-90805000D03*
X137160000Y-90805000D03*
X133985000Y-93345000D03*
X128270000Y-113030000D03*
X137160000Y-95885000D03*
X128270000Y-107950000D03*
X128270000Y-110490000D03*
%TO.N,GND*%
X167640000Y-118745000D03*
X161925000Y-97155000D03*
X129540000Y-66040000D03*
X172720000Y-113665000D03*
X129540000Y-77470000D03*
X170815000Y-137160000D03*
X163195000Y-127635000D03*
X167640000Y-127635000D03*
X146685000Y-102870000D03*
X175260000Y-52070000D03*
X158115000Y-113665000D03*
X163195000Y-118745000D03*
X170815000Y-95250000D03*
X168910000Y-113665000D03*
X172720000Y-109855000D03*
X129540000Y-52070000D03*
X175260000Y-77470000D03*
X175895000Y-109855000D03*
X175895000Y-113665000D03*
X158115000Y-109855000D03*
X168910000Y-109855000D03*
X146685000Y-99695000D03*
X175260000Y-66040000D03*
X161925000Y-92075000D03*
%TO.N,Net-(IC1-DRAIN)*%
X170180000Y-100965000D03*
X141605000Y-100965000D03*
%TO.N,VBUS*%
X176530000Y-123190000D03*
X176530000Y-127000000D03*
X176530000Y-119380000D03*
%TO.N,Net-(U1A-+)*%
X152400000Y-95250000D03*
X163195000Y-95250000D03*
%TO.N,/PWRRES*%
X140970000Y-78740000D03*
X140970000Y-85090000D03*
X144780000Y-81915000D03*
X137160000Y-81915000D03*
X140970000Y-82550000D03*
X137160000Y-85090000D03*
X144780000Y-85090000D03*
X144780000Y-78740000D03*
X137160000Y-78740000D03*
%TO.N,DSCHG_IN*%
X157000000Y-111760000D03*
X163195000Y-111760000D03*
X144145000Y-95885000D03*
%TD*%
D28*
%TO.N,/RLY_V-*%
X152908000Y-115302000D02*
X148046000Y-110440000D01*
X148463000Y-133922800D02*
X152908000Y-129477800D01*
X152908000Y-129477800D02*
X152908000Y-115302000D01*
D29*
%TO.N,Net-(IC1-DRAIN)*%
X139700000Y-126365000D02*
X139700000Y-102870000D01*
X170110000Y-135820000D02*
X166370000Y-132080000D01*
X166370000Y-106680000D02*
X167310000Y-105740000D01*
X167310000Y-105740000D02*
X171754000Y-105740000D01*
X166370000Y-132080000D02*
X166370000Y-106680000D01*
X171754000Y-102539000D02*
X171754000Y-105740000D01*
X138125000Y-127940000D02*
X139700000Y-126365000D01*
X133046000Y-127940000D02*
X138125000Y-127940000D01*
X170180000Y-100965000D02*
X171754000Y-102539000D01*
X139700000Y-102870000D02*
X141605000Y-100965000D01*
X171770000Y-135820000D02*
X170110000Y-135820000D01*
D28*
%TO.N,/RLY_V+*%
X156337000Y-123657000D02*
X156754000Y-123240000D01*
X156337000Y-133922800D02*
X156337000Y-123657000D01*
D29*
%TO.N,Net-(U1A-+)*%
X163195000Y-95250000D02*
X168400000Y-95250000D01*
X152400000Y-95250000D02*
X147195000Y-95250000D01*
D30*
%TO.N,+3V3*%
X165100000Y-103505000D02*
X159515000Y-97920000D01*
D29*
X165100000Y-103505000D02*
X165100000Y-135890000D01*
X165100000Y-135890000D02*
X168910000Y-139700000D01*
D30*
X159515000Y-97920000D02*
X159515000Y-97790000D01*
D29*
%TO.N,/V_SENSE_OUT*%
X165735000Y-99060000D02*
X164465000Y-97790000D01*
X164465000Y-96520000D02*
X164465000Y-97790000D01*
X171450000Y-139700000D02*
X165735000Y-133985000D01*
X165735000Y-99060000D02*
X165735000Y-133985000D01*
%TO.N,DSCHG_IN*%
X164465000Y-113030000D02*
X164465000Y-137795000D01*
D30*
X144145000Y-98905000D02*
X157000000Y-111760000D01*
D29*
X164465000Y-137795000D02*
X166370000Y-139700000D01*
X163195000Y-111760000D02*
X164465000Y-113030000D01*
D30*
X144145000Y-95885000D02*
X144145000Y-98905000D01*
D29*
%TO.N,RLY_IN*%
X173990000Y-136140000D02*
X173670000Y-135820000D01*
X173990000Y-139700000D02*
X173990000Y-136140000D01*
%TD*%
%TA.AperFunction,Conductor*%
%TO.N,VBUS*%
G36*
X180975000Y-97790000D02*
G01*
X172844000Y-97790000D01*
X172776961Y-97770315D01*
X172731206Y-97717511D01*
X172720000Y-97666000D01*
X172720000Y-92834000D01*
X172739685Y-92766961D01*
X172792489Y-92721206D01*
X172844000Y-92710000D01*
X177800000Y-92710000D01*
X180975000Y-92710000D01*
X180975000Y-97790000D01*
G37*
%TD.AperFunction*%
%TD*%
%TA.AperFunction,Conductor*%
%TO.N,GNDPWR*%
G36*
X126943039Y-50820185D02*
G01*
X126988794Y-50872989D01*
X127000000Y-50924499D01*
X127000000Y-88265000D01*
X120650000Y-88265000D01*
X120650000Y-98425000D01*
X127000000Y-98425000D01*
X127000000Y-115570000D01*
X127000000Y-152275500D01*
X126980315Y-152342539D01*
X126927511Y-152388294D01*
X126876000Y-152399500D01*
X102874877Y-152399500D01*
X102865147Y-152399118D01*
X102813083Y-152395020D01*
X102672427Y-152382714D01*
X102654293Y-152379760D01*
X102575590Y-152360866D01*
X102572442Y-152360067D01*
X102467205Y-152331868D01*
X102451848Y-152326655D01*
X102371531Y-152293388D01*
X102366577Y-152291208D01*
X102273224Y-152247676D01*
X102260852Y-152241028D01*
X102213554Y-152212044D01*
X102184845Y-152194451D01*
X102178513Y-152190299D01*
X102143624Y-152165869D01*
X102095839Y-152132410D01*
X102086442Y-152125135D01*
X102018023Y-152066699D01*
X102010874Y-152060090D01*
X101939908Y-151989124D01*
X101933299Y-151981975D01*
X101912545Y-151957675D01*
X101874860Y-151913551D01*
X101867594Y-151904166D01*
X101809694Y-151821477D01*
X101805547Y-151815153D01*
X101758963Y-151739135D01*
X101752329Y-151726788D01*
X101708770Y-151633376D01*
X101706622Y-151628496D01*
X101673343Y-151548150D01*
X101668130Y-151532793D01*
X101639910Y-151427476D01*
X101639153Y-151424494D01*
X101620236Y-151345698D01*
X101617285Y-151327579D01*
X101604986Y-151187001D01*
X101600880Y-151134833D01*
X101600500Y-151125131D01*
X101600500Y-52074871D01*
X101600882Y-52065144D01*
X101604986Y-52012999D01*
X101617286Y-51872412D01*
X101620238Y-51854293D01*
X101639158Y-51775486D01*
X101639901Y-51772558D01*
X101668133Y-51667196D01*
X101673343Y-51651848D01*
X101706637Y-51571469D01*
X101708754Y-51566656D01*
X101752336Y-51473196D01*
X101758954Y-51460878D01*
X101805572Y-51384806D01*
X101809673Y-51378552D01*
X101867608Y-51295812D01*
X101874843Y-51286468D01*
X101933323Y-51217996D01*
X101939883Y-51210900D01*
X102010900Y-51139883D01*
X102017996Y-51133323D01*
X102086468Y-51074843D01*
X102095812Y-51067608D01*
X102178552Y-51009673D01*
X102184806Y-51005572D01*
X102260878Y-50958954D01*
X102273196Y-50952336D01*
X102366656Y-50908754D01*
X102371469Y-50906637D01*
X102451853Y-50873341D01*
X102467196Y-50868133D01*
X102572559Y-50839901D01*
X102575469Y-50839162D01*
X102654305Y-50820235D01*
X102672416Y-50817286D01*
X102813078Y-50804979D01*
X102865167Y-50800880D01*
X102874868Y-50800500D01*
X126876000Y-50800500D01*
X126943039Y-50820185D01*
G37*
%TD.AperFunction*%
%TD*%
%TA.AperFunction,Conductor*%
%TO.N,VBUS*%
G36*
X177800000Y-128270000D02*
G01*
X170180000Y-128270000D01*
X169034000Y-128270000D01*
X168966961Y-128250315D01*
X168921206Y-128197511D01*
X168910000Y-128146000D01*
X168910000Y-118234000D01*
X168929685Y-118166961D01*
X168982489Y-118121206D01*
X169034000Y-118110000D01*
X177800000Y-118110000D01*
X177800000Y-128270000D01*
G37*
%TD.AperFunction*%
%TD*%
%TA.AperFunction,Conductor*%
%TO.N,GND*%
G36*
X176473039Y-50820185D02*
G01*
X176518794Y-50872989D01*
X176530000Y-50924500D01*
X176530000Y-91818500D01*
X176510315Y-91885539D01*
X176457511Y-91931294D01*
X176406000Y-91942500D01*
X172844000Y-91942500D01*
X172840706Y-91942854D01*
X172840690Y-91942855D01*
X172684160Y-91959685D01*
X172684157Y-91959685D01*
X172680850Y-91960041D01*
X172677615Y-91960744D01*
X172677601Y-91960747D01*
X172629339Y-91971247D01*
X172607701Y-91976344D01*
X172607688Y-91976347D01*
X172603664Y-91977296D01*
X172599804Y-91978770D01*
X172599790Y-91978775D01*
X172437198Y-92040893D01*
X172317955Y-92122061D01*
X172289883Y-92141169D01*
X172287165Y-92143524D01*
X172287160Y-92143528D01*
X172238317Y-92185850D01*
X172238290Y-92185874D01*
X172237079Y-92186924D01*
X172235921Y-92188039D01*
X172235911Y-92188049D01*
X172178652Y-92243226D01*
X172072991Y-92386729D01*
X172004691Y-92547392D01*
X172004680Y-92547420D01*
X172003276Y-92550725D01*
X172002264Y-92554169D01*
X172002259Y-92554185D01*
X171983591Y-92617764D01*
X171983162Y-92619342D01*
X171973190Y-92656985D01*
X171953301Y-92827150D01*
X171952500Y-92834000D01*
X171952500Y-97666000D01*
X171952854Y-97669294D01*
X171952855Y-97669309D01*
X171965832Y-97790000D01*
X171970041Y-97829150D01*
X171970745Y-97832387D01*
X171970747Y-97832398D01*
X171981247Y-97880661D01*
X171986344Y-97902298D01*
X171986346Y-97902307D01*
X171987296Y-97906336D01*
X171988772Y-97910199D01*
X171988775Y-97910209D01*
X172050893Y-98072801D01*
X172092859Y-98134453D01*
X172151169Y-98220117D01*
X172153528Y-98222839D01*
X172193363Y-98268812D01*
X172196924Y-98272921D01*
X172253226Y-98331348D01*
X172396726Y-98437007D01*
X172403108Y-98439720D01*
X172557392Y-98505308D01*
X172557405Y-98505312D01*
X172560725Y-98506724D01*
X172564184Y-98507739D01*
X172564185Y-98507740D01*
X172627764Y-98526409D01*
X172629342Y-98526838D01*
X172666985Y-98536809D01*
X172666995Y-98536810D01*
X172667002Y-98536812D01*
X172844000Y-98557500D01*
X172847599Y-98557500D01*
X176406000Y-98557500D01*
X176473039Y-98577185D01*
X176518794Y-98629989D01*
X176530000Y-98681500D01*
X176530000Y-103742359D01*
X176510315Y-103809398D01*
X176457511Y-103855153D01*
X176388353Y-103865097D01*
X176325659Y-103836812D01*
X176252079Y-103774226D01*
X176180626Y-103713448D01*
X175968188Y-103585024D01*
X175968186Y-103585023D01*
X175737898Y-103492340D01*
X175495725Y-103437799D01*
X175352032Y-103427654D01*
X175352028Y-103427653D01*
X175349849Y-103427500D01*
X175347661Y-103427500D01*
X172767500Y-103427500D01*
X172700461Y-103407815D01*
X172654706Y-103355011D01*
X172643500Y-103303500D01*
X172643500Y-102618763D01*
X172645027Y-102599363D01*
X172647174Y-102585810D01*
X172643670Y-102518949D01*
X172643500Y-102512460D01*
X172643500Y-102495633D01*
X172643500Y-102492380D01*
X172641400Y-102472405D01*
X172640891Y-102465939D01*
X172637388Y-102399086D01*
X172637388Y-102399085D01*
X172633834Y-102385822D01*
X172630290Y-102366705D01*
X172628855Y-102353044D01*
X172608159Y-102289352D01*
X172606320Y-102283140D01*
X172604544Y-102276511D01*
X172588994Y-102218475D01*
X172582761Y-102206243D01*
X172575315Y-102188268D01*
X172571075Y-102175215D01*
X172571074Y-102175214D01*
X172571074Y-102175212D01*
X172551433Y-102141195D01*
X172537590Y-102117218D01*
X172534513Y-102111552D01*
X172504107Y-102051875D01*
X172495467Y-102041207D01*
X172484446Y-102025170D01*
X172477584Y-102013284D01*
X172461468Y-101995385D01*
X172432772Y-101963515D01*
X172428568Y-101958592D01*
X172417989Y-101945528D01*
X172415937Y-101942994D01*
X172401744Y-101928801D01*
X172397275Y-101924092D01*
X172352470Y-101874331D01*
X172341359Y-101866258D01*
X172326565Y-101853622D01*
X171369899Y-100896956D01*
X171336414Y-100835633D01*
X171334110Y-100820726D01*
X171327601Y-100750476D01*
X171268643Y-100543258D01*
X171268643Y-100543257D01*
X171172614Y-100350403D01*
X171042777Y-100178472D01*
X170883566Y-100033332D01*
X170700391Y-99919915D01*
X170700390Y-99919915D01*
X170499496Y-99842088D01*
X170287721Y-99802500D01*
X170072279Y-99802500D01*
X169860503Y-99842087D01*
X169860504Y-99842088D01*
X169659608Y-99919915D01*
X169476433Y-100033332D01*
X169317222Y-100178472D01*
X169187385Y-100350403D01*
X169091356Y-100543257D01*
X169032398Y-100750473D01*
X169012520Y-100965000D01*
X169032398Y-101179526D01*
X169091356Y-101386742D01*
X169187385Y-101579596D01*
X169317222Y-101751527D01*
X169476433Y-101896667D01*
X169476435Y-101896668D01*
X169476436Y-101896669D01*
X169659609Y-102010085D01*
X169860504Y-102087912D01*
X170049638Y-102123267D01*
X170111916Y-102154934D01*
X170114530Y-102157473D01*
X170828182Y-102871125D01*
X170861666Y-102932446D01*
X170864500Y-102958804D01*
X170864500Y-103303500D01*
X170844815Y-103370539D01*
X170792011Y-103416294D01*
X170740500Y-103427500D01*
X168160340Y-103427500D01*
X168160311Y-103427500D01*
X168158152Y-103427501D01*
X168155974Y-103427654D01*
X168155967Y-103427655D01*
X168012275Y-103437799D01*
X167770101Y-103492340D01*
X167539813Y-103585023D01*
X167327374Y-103713448D01*
X167138285Y-103874285D01*
X166977448Y-104063374D01*
X166854617Y-104266560D01*
X166803089Y-104313748D01*
X166734229Y-104325586D01*
X166669901Y-104298317D01*
X166630527Y-104240598D01*
X166624500Y-104202410D01*
X166624500Y-99139763D01*
X166626027Y-99120363D01*
X166628174Y-99106810D01*
X166624670Y-99039949D01*
X166624500Y-99033460D01*
X166624500Y-99016633D01*
X166624500Y-99013380D01*
X166622400Y-98993405D01*
X166621891Y-98986939D01*
X166621417Y-98977901D01*
X166618388Y-98920085D01*
X166614834Y-98906822D01*
X166611290Y-98887705D01*
X166609855Y-98874044D01*
X166589159Y-98810352D01*
X166587320Y-98804139D01*
X166585296Y-98796584D01*
X166569994Y-98739475D01*
X166563762Y-98727244D01*
X166556315Y-98709265D01*
X166552075Y-98696214D01*
X166518598Y-98638231D01*
X166515500Y-98632526D01*
X166485105Y-98572873D01*
X166476470Y-98562210D01*
X166465447Y-98546171D01*
X166458585Y-98534285D01*
X166441813Y-98515658D01*
X166413773Y-98484516D01*
X166409561Y-98479584D01*
X166398983Y-98466521D01*
X166396937Y-98463994D01*
X166382744Y-98449801D01*
X166378275Y-98445092D01*
X166333470Y-98395331D01*
X166322359Y-98387258D01*
X166307565Y-98374622D01*
X166208866Y-98275923D01*
X166175381Y-98214600D01*
X166176771Y-98156150D01*
X166196230Y-98083533D01*
X166202500Y-98003863D01*
X166202499Y-97576138D01*
X166196230Y-97496467D01*
X166146584Y-97311188D01*
X166146583Y-97311187D01*
X166146583Y-97311185D01*
X166115280Y-97249752D01*
X166095685Y-97211293D01*
X166082789Y-97142627D01*
X166095686Y-97098704D01*
X166113195Y-97064342D01*
X166146584Y-96998812D01*
X166196230Y-96813533D01*
X166202500Y-96733863D01*
X166202499Y-96306138D01*
X166199909Y-96273226D01*
X166214274Y-96204851D01*
X166263325Y-96155095D01*
X166323527Y-96139500D01*
X166813500Y-96139500D01*
X166880539Y-96159185D01*
X166926294Y-96211989D01*
X166937500Y-96263499D01*
X166937500Y-96724742D01*
X166937797Y-96727759D01*
X166937798Y-96727776D01*
X166952150Y-96873487D01*
X166990167Y-96998812D01*
X167010046Y-97064342D01*
X167104063Y-97240237D01*
X167230590Y-97394410D01*
X167384763Y-97520937D01*
X167560658Y-97614954D01*
X167751514Y-97672850D01*
X167900258Y-97687500D01*
X167903308Y-97687500D01*
X168896692Y-97687500D01*
X168899742Y-97687500D01*
X169048486Y-97672850D01*
X169239342Y-97614954D01*
X169415237Y-97520937D01*
X169569410Y-97394410D01*
X169695937Y-97240237D01*
X169789954Y-97064342D01*
X169847850Y-96873486D01*
X169862500Y-96724742D01*
X169862500Y-93775258D01*
X169847850Y-93626514D01*
X169789954Y-93435658D01*
X169695937Y-93259763D01*
X169569410Y-93105590D01*
X169415237Y-92979063D01*
X169239342Y-92885046D01*
X169239339Y-92885045D01*
X169239337Y-92885044D01*
X169048487Y-92827150D01*
X168902776Y-92812798D01*
X168902759Y-92812797D01*
X168899742Y-92812500D01*
X167900258Y-92812500D01*
X167897241Y-92812797D01*
X167897223Y-92812798D01*
X167751512Y-92827150D01*
X167560662Y-92885044D01*
X167560658Y-92885045D01*
X167560658Y-92885046D01*
X167384763Y-92979063D01*
X167384761Y-92979064D01*
X167384760Y-92979065D01*
X167230589Y-93105589D01*
X167230590Y-93105590D01*
X167104063Y-93259763D01*
X167010046Y-93435658D01*
X167010044Y-93435662D01*
X166952150Y-93626512D01*
X166937798Y-93772223D01*
X166937797Y-93772241D01*
X166937500Y-93775258D01*
X166937500Y-93778306D01*
X166937500Y-93778307D01*
X166937500Y-94236500D01*
X166917815Y-94303539D01*
X166865011Y-94349294D01*
X166813500Y-94360500D01*
X165870680Y-94360500D01*
X165803641Y-94340815D01*
X165792645Y-94332866D01*
X165789723Y-94330499D01*
X165618812Y-94243415D01*
X165472686Y-94204261D01*
X165433533Y-94193770D01*
X165423938Y-94193014D01*
X165356297Y-94187691D01*
X165356282Y-94187690D01*
X165353863Y-94187500D01*
X165351418Y-94187500D01*
X163693619Y-94187500D01*
X163648826Y-94179127D01*
X163514497Y-94127088D01*
X163443904Y-94113892D01*
X163302721Y-94087500D01*
X163087279Y-94087500D01*
X162875504Y-94127088D01*
X162674608Y-94204915D01*
X162491433Y-94318332D01*
X162332222Y-94463472D01*
X162202385Y-94635403D01*
X162106356Y-94828257D01*
X162047398Y-95035473D01*
X162027520Y-95250000D01*
X162047398Y-95464526D01*
X162106356Y-95671742D01*
X162202385Y-95864596D01*
X162332222Y-96036527D01*
X162491435Y-96181669D01*
X162668777Y-96291474D01*
X162715413Y-96343502D01*
X162727500Y-96396901D01*
X162727500Y-96731440D01*
X162727500Y-96731465D01*
X162727501Y-96733862D01*
X162727689Y-96736253D01*
X162727690Y-96736274D01*
X162732760Y-96800709D01*
X162733770Y-96813533D01*
X162749835Y-96873486D01*
X162783416Y-96998814D01*
X162834313Y-97098705D01*
X162847209Y-97167374D01*
X162834313Y-97211293D01*
X162783416Y-97311185D01*
X162733770Y-97496467D01*
X162727691Y-97573702D01*
X162727690Y-97573718D01*
X162727500Y-97576137D01*
X162727500Y-97578581D01*
X162727500Y-97578582D01*
X162727500Y-98001440D01*
X162727500Y-98001465D01*
X162727501Y-98003862D01*
X162727689Y-98006253D01*
X162727690Y-98006274D01*
X162732760Y-98070709D01*
X162733770Y-98083533D01*
X162733771Y-98083536D01*
X162783415Y-98268812D01*
X162853128Y-98405630D01*
X162870498Y-98439720D01*
X162991211Y-98588789D01*
X163140280Y-98709502D01*
X163216374Y-98748274D01*
X163311187Y-98796584D01*
X163339383Y-98804139D01*
X163496467Y-98846230D01*
X163576137Y-98852500D01*
X164218194Y-98852499D01*
X164285233Y-98872183D01*
X164305875Y-98888818D01*
X164809181Y-99392124D01*
X164842666Y-99453447D01*
X164845500Y-99479805D01*
X164845500Y-101696023D01*
X164825815Y-101763062D01*
X164773011Y-101808817D01*
X164703853Y-101818761D01*
X164640297Y-101789736D01*
X164633819Y-101783704D01*
X161230795Y-98380681D01*
X161197310Y-98319358D01*
X161198701Y-98260907D01*
X161246230Y-98083533D01*
X161252500Y-98003863D01*
X161252499Y-97576138D01*
X161246230Y-97496467D01*
X161196584Y-97311188D01*
X161196583Y-97311187D01*
X161196583Y-97311185D01*
X161165280Y-97249752D01*
X161145685Y-97211293D01*
X161132789Y-97142627D01*
X161145686Y-97098704D01*
X161163195Y-97064342D01*
X161196584Y-96998812D01*
X161246230Y-96813533D01*
X161252500Y-96733863D01*
X161252499Y-96306138D01*
X161246230Y-96226467D01*
X161196584Y-96041188D01*
X161145684Y-95941292D01*
X161132789Y-95872625D01*
X161145685Y-95828705D01*
X161196584Y-95728812D01*
X161246230Y-95543533D01*
X161252500Y-95463863D01*
X161252499Y-95036138D01*
X161246230Y-94956467D01*
X161196584Y-94771188D01*
X161196583Y-94771187D01*
X161196583Y-94771185D01*
X161145686Y-94671296D01*
X161132789Y-94602627D01*
X161145686Y-94558704D01*
X161196583Y-94458814D01*
X161196584Y-94458812D01*
X161246230Y-94273533D01*
X161252500Y-94193863D01*
X161252499Y-93766138D01*
X161246230Y-93686467D01*
X161196584Y-93501188D01*
X161196584Y-93501187D01*
X161109501Y-93330279D01*
X160988789Y-93181211D01*
X160839720Y-93060498D01*
X160668812Y-92973415D01*
X160522686Y-92934261D01*
X160483533Y-92923770D01*
X160473938Y-92923014D01*
X160406297Y-92917691D01*
X160406282Y-92917690D01*
X160403863Y-92917500D01*
X160401417Y-92917500D01*
X158628559Y-92917500D01*
X158628533Y-92917500D01*
X158626138Y-92917501D01*
X158623747Y-92917689D01*
X158623725Y-92917690D01*
X158552878Y-92923265D01*
X158546467Y-92923770D01*
X158514144Y-92932431D01*
X158361187Y-92973415D01*
X158190279Y-93060498D01*
X158041211Y-93181211D01*
X157920498Y-93330279D01*
X157833415Y-93501187D01*
X157783770Y-93686467D01*
X157777691Y-93763702D01*
X157777690Y-93763718D01*
X157777500Y-93766137D01*
X157777500Y-93768581D01*
X157777500Y-93768582D01*
X157777500Y-94191440D01*
X157777500Y-94191465D01*
X157777501Y-94193862D01*
X157777689Y-94196253D01*
X157777690Y-94196274D01*
X157780856Y-94236500D01*
X157783770Y-94273533D01*
X157804070Y-94349294D01*
X157833416Y-94458814D01*
X157884313Y-94558706D01*
X157897209Y-94627375D01*
X157884313Y-94671294D01*
X157833416Y-94771185D01*
X157783770Y-94956467D01*
X157777691Y-95033702D01*
X157777690Y-95033718D01*
X157777500Y-95036137D01*
X157777500Y-95038581D01*
X157777500Y-95038582D01*
X157777500Y-95461440D01*
X157777500Y-95461465D01*
X157777501Y-95463862D01*
X157777689Y-95466253D01*
X157777690Y-95466274D01*
X157782760Y-95530709D01*
X157783770Y-95543533D01*
X157808272Y-95634974D01*
X157833416Y-95728814D01*
X157884313Y-95828705D01*
X157897209Y-95897374D01*
X157884313Y-95941293D01*
X157833416Y-96041185D01*
X157783770Y-96226467D01*
X157777691Y-96303702D01*
X157777690Y-96303718D01*
X157777500Y-96306137D01*
X157777500Y-96308581D01*
X157777500Y-96308582D01*
X157777500Y-96731440D01*
X157777500Y-96731465D01*
X157777501Y-96733862D01*
X157777689Y-96736253D01*
X157777690Y-96736274D01*
X157782760Y-96800709D01*
X157783770Y-96813533D01*
X157799835Y-96873486D01*
X157833416Y-96998814D01*
X157884313Y-97098705D01*
X157897209Y-97167374D01*
X157884313Y-97211293D01*
X157833416Y-97311185D01*
X157783770Y-97496467D01*
X157777691Y-97573702D01*
X157777690Y-97573718D01*
X157777500Y-97576137D01*
X157777500Y-97578581D01*
X157777500Y-97578582D01*
X157777500Y-98001440D01*
X157777500Y-98001465D01*
X157777501Y-98003862D01*
X157777689Y-98006253D01*
X157777690Y-98006274D01*
X157782760Y-98070709D01*
X157783770Y-98083533D01*
X157783771Y-98083536D01*
X157833415Y-98268812D01*
X157903128Y-98405630D01*
X157920498Y-98439720D01*
X158041211Y-98588789D01*
X158190280Y-98709502D01*
X158266374Y-98748274D01*
X158361187Y-98796584D01*
X158389383Y-98804139D01*
X158546467Y-98846230D01*
X158626137Y-98852500D01*
X159141023Y-98852499D01*
X159208062Y-98872183D01*
X159228704Y-98888817D01*
X164174182Y-103834296D01*
X164207666Y-103895617D01*
X164210500Y-103921975D01*
X164210500Y-110831865D01*
X164190815Y-110898904D01*
X164138011Y-110944659D01*
X164068853Y-110954603D01*
X164005297Y-110925578D01*
X164002962Y-110923502D01*
X163898566Y-110828332D01*
X163715391Y-110714915D01*
X163514496Y-110637088D01*
X163302721Y-110597500D01*
X163087279Y-110597500D01*
X162875504Y-110637088D01*
X162674608Y-110714915D01*
X162491433Y-110828332D01*
X162332222Y-110973472D01*
X162202385Y-111145403D01*
X162106356Y-111338257D01*
X162047398Y-111545473D01*
X162027520Y-111759999D01*
X162047398Y-111974526D01*
X162106356Y-112181742D01*
X162202385Y-112374596D01*
X162332222Y-112546527D01*
X162491433Y-112691667D01*
X162491435Y-112691668D01*
X162491436Y-112691669D01*
X162674609Y-112805085D01*
X162875504Y-112882912D01*
X163064638Y-112918267D01*
X163126916Y-112949934D01*
X163129531Y-112952474D01*
X163539181Y-113362124D01*
X163572666Y-113423447D01*
X163575500Y-113449805D01*
X163575500Y-137715235D01*
X163573973Y-137734633D01*
X163571825Y-137748188D01*
X163575330Y-137815055D01*
X163575500Y-137821544D01*
X163575500Y-137841620D01*
X163575837Y-137844827D01*
X163575838Y-137844844D01*
X163577598Y-137861585D01*
X163578107Y-137868055D01*
X163581610Y-137934913D01*
X163583700Y-137942714D01*
X163584909Y-137947225D01*
X163585165Y-137948178D01*
X163588709Y-137967298D01*
X163590145Y-137980956D01*
X163590145Y-137980958D01*
X163590146Y-137980960D01*
X163610829Y-138044617D01*
X163612672Y-138050839D01*
X163630004Y-138115520D01*
X163636236Y-138127751D01*
X163643681Y-138145724D01*
X163647926Y-138158788D01*
X163681401Y-138216769D01*
X163684499Y-138222474D01*
X163714892Y-138282124D01*
X163723527Y-138292787D01*
X163734551Y-138308826D01*
X163741415Y-138320715D01*
X163786223Y-138370480D01*
X163790416Y-138375389D01*
X163803063Y-138391006D01*
X163805368Y-138393311D01*
X163817254Y-138405197D01*
X163821723Y-138409906D01*
X163866530Y-138459669D01*
X163877637Y-138467739D01*
X163892432Y-138480375D01*
X164820156Y-139408099D01*
X164853641Y-139469422D01*
X164856092Y-139505506D01*
X164846957Y-139621585D01*
X164840786Y-139699999D01*
X164859613Y-139939223D01*
X164915630Y-140172553D01*
X164955257Y-140268220D01*
X165007460Y-140394249D01*
X165030321Y-140431554D01*
X165132841Y-140598851D01*
X165288681Y-140781318D01*
X165471148Y-140937158D01*
X165471150Y-140937159D01*
X165471151Y-140937160D01*
X165675751Y-141062540D01*
X165839538Y-141130382D01*
X165897446Y-141154369D01*
X165971161Y-141172066D01*
X166130778Y-141210387D01*
X166370000Y-141229214D01*
X166609222Y-141210387D01*
X166842553Y-141154369D01*
X167064249Y-141062540D01*
X167268849Y-140937160D01*
X167451318Y-140781318D01*
X167545713Y-140670794D01*
X167604214Y-140632605D01*
X167674082Y-140632105D01*
X167733129Y-140669458D01*
X167734289Y-140670798D01*
X167828681Y-140781318D01*
X168011148Y-140937158D01*
X168011150Y-140937159D01*
X168011151Y-140937160D01*
X168215751Y-141062540D01*
X168379538Y-141130382D01*
X168437446Y-141154369D01*
X168511161Y-141172066D01*
X168670778Y-141210387D01*
X168910000Y-141229214D01*
X169149222Y-141210387D01*
X169382553Y-141154369D01*
X169604249Y-141062540D01*
X169808849Y-140937160D01*
X169991318Y-140781318D01*
X170085711Y-140670796D01*
X170144216Y-140632605D01*
X170214084Y-140632105D01*
X170273130Y-140669459D01*
X170274208Y-140670702D01*
X170368682Y-140781318D01*
X170368685Y-140781321D01*
X170551148Y-140937158D01*
X170551150Y-140937159D01*
X170551151Y-140937160D01*
X170755751Y-141062540D01*
X170919538Y-141130382D01*
X170977446Y-141154369D01*
X171051161Y-141172066D01*
X171210778Y-141210387D01*
X171450000Y-141229214D01*
X171689222Y-141210387D01*
X171922553Y-141154369D01*
X172144249Y-141062540D01*
X172348849Y-140937160D01*
X172531318Y-140781318D01*
X172625711Y-140670796D01*
X172684216Y-140632605D01*
X172754084Y-140632105D01*
X172813130Y-140669459D01*
X172814208Y-140670702D01*
X172908682Y-140781318D01*
X172908685Y-140781321D01*
X173091148Y-140937158D01*
X173091150Y-140937159D01*
X173091151Y-140937160D01*
X173295751Y-141062540D01*
X173459538Y-141130382D01*
X173517446Y-141154369D01*
X173591161Y-141172066D01*
X173750778Y-141210387D01*
X173990000Y-141229214D01*
X174229222Y-141210387D01*
X174462553Y-141154369D01*
X174684249Y-141062540D01*
X174888849Y-140937160D01*
X175071318Y-140781318D01*
X175227160Y-140598849D01*
X175352540Y-140394249D01*
X175444369Y-140172553D01*
X175500387Y-139939222D01*
X175519214Y-139700000D01*
X175500387Y-139460778D01*
X175455636Y-139274378D01*
X175444369Y-139227446D01*
X175399127Y-139118223D01*
X175352540Y-139005751D01*
X175227160Y-138801151D01*
X175227159Y-138801150D01*
X175227158Y-138801148D01*
X175071320Y-138618684D01*
X175071316Y-138618681D01*
X174967414Y-138529940D01*
X174922968Y-138491979D01*
X174884775Y-138433472D01*
X174879500Y-138397689D01*
X174879500Y-136219763D01*
X174881027Y-136200363D01*
X174883174Y-136186810D01*
X174879670Y-136119949D01*
X174879500Y-136113460D01*
X174879500Y-136096633D01*
X174879500Y-136093380D01*
X174877400Y-136073405D01*
X174876891Y-136066939D01*
X174876841Y-136065992D01*
X174873388Y-136000085D01*
X174869834Y-135986822D01*
X174866290Y-135967705D01*
X174864855Y-135954044D01*
X174844159Y-135890352D01*
X174842320Y-135884139D01*
X174839554Y-135873816D01*
X174824994Y-135819475D01*
X174818762Y-135807244D01*
X174811315Y-135789265D01*
X174807075Y-135776214D01*
X174773598Y-135718231D01*
X174770500Y-135712526D01*
X174740105Y-135652873D01*
X174731470Y-135642210D01*
X174720447Y-135626171D01*
X174713585Y-135614285D01*
X174668778Y-135564522D01*
X174664562Y-135559585D01*
X174655831Y-135548803D01*
X174628939Y-135484316D01*
X174628859Y-135483564D01*
X174621831Y-135414759D01*
X174565764Y-135245560D01*
X174472189Y-135093851D01*
X174472188Y-135093849D01*
X174346150Y-134967811D01*
X174194440Y-134874236D01*
X174025241Y-134818168D01*
X173923941Y-134807819D01*
X173923925Y-134807818D01*
X173920811Y-134807500D01*
X173917663Y-134807500D01*
X173422339Y-134807500D01*
X173422319Y-134807500D01*
X173419190Y-134807501D01*
X173416058Y-134807820D01*
X173416056Y-134807821D01*
X173301249Y-134819549D01*
X173300951Y-134816641D01*
X173263917Y-134817914D01*
X173263750Y-134819549D01*
X173251817Y-134818329D01*
X173251671Y-134818335D01*
X173251566Y-134818304D01*
X173148941Y-134807819D01*
X173148925Y-134807818D01*
X173145811Y-134807500D01*
X173142663Y-134807500D01*
X172297339Y-134807500D01*
X172297319Y-134807500D01*
X172294190Y-134807501D01*
X172291058Y-134807820D01*
X172291056Y-134807821D01*
X172176249Y-134819549D01*
X172175952Y-134816642D01*
X172138917Y-134817909D01*
X172138750Y-134819549D01*
X172126769Y-134818325D01*
X172126654Y-134818329D01*
X172126571Y-134818304D01*
X172023941Y-134807819D01*
X172023925Y-134807818D01*
X172020811Y-134807500D01*
X172017663Y-134807500D01*
X171522339Y-134807500D01*
X171522319Y-134807500D01*
X171519190Y-134807501D01*
X171516058Y-134807820D01*
X171516056Y-134807821D01*
X171414759Y-134818168D01*
X171245560Y-134874235D01*
X171184272Y-134912039D01*
X171119175Y-134930500D01*
X170529805Y-134930500D01*
X170462766Y-134910815D01*
X170442124Y-134894181D01*
X169265622Y-133717679D01*
X170807500Y-133717679D01*
X170807501Y-133720810D01*
X170807821Y-133723941D01*
X170807821Y-133723943D01*
X170818168Y-133825240D01*
X170874236Y-133994440D01*
X170967811Y-134146150D01*
X171093849Y-134272188D01*
X171093851Y-134272189D01*
X171245560Y-134365764D01*
X171358691Y-134403251D01*
X171414758Y-134421831D01*
X171460495Y-134426503D01*
X171519189Y-134432500D01*
X172920810Y-134432499D01*
X173025241Y-134421831D01*
X173194440Y-134365764D01*
X173346149Y-134272189D01*
X173472189Y-134146149D01*
X173565764Y-133994440D01*
X173621831Y-133825241D01*
X173632500Y-133720811D01*
X173632499Y-133119190D01*
X173621831Y-133014759D01*
X173565764Y-132845560D01*
X173477625Y-132702664D01*
X173472188Y-132693849D01*
X173346150Y-132567811D01*
X173194440Y-132474236D01*
X173025241Y-132418168D01*
X172923941Y-132407819D01*
X172923925Y-132407818D01*
X172920811Y-132407500D01*
X172917663Y-132407500D01*
X171522338Y-132407500D01*
X171522318Y-132407500D01*
X171519190Y-132407501D01*
X171516058Y-132407820D01*
X171516056Y-132407821D01*
X171414759Y-132418168D01*
X171245559Y-132474236D01*
X171093849Y-132567811D01*
X170967811Y-132693849D01*
X170874236Y-132845559D01*
X170818168Y-133014758D01*
X170807819Y-133116058D01*
X170807818Y-133116075D01*
X170807500Y-133119189D01*
X170807500Y-133122335D01*
X170807500Y-133122336D01*
X170807500Y-133717660D01*
X170807500Y-133717679D01*
X169265622Y-133717679D01*
X167295819Y-131747876D01*
X167262334Y-131686553D01*
X167259500Y-131660195D01*
X167259500Y-107945378D01*
X167279185Y-107878339D01*
X167331989Y-107832584D01*
X167401147Y-107822640D01*
X167447649Y-107839261D01*
X167484734Y-107861680D01*
X167539811Y-107894976D01*
X167770101Y-107987658D01*
X167770101Y-107987659D01*
X168012275Y-108042201D01*
X168158151Y-108052500D01*
X175349848Y-108052499D01*
X175495725Y-108042201D01*
X175737899Y-107987659D01*
X175968188Y-107894976D01*
X176180626Y-107766552D01*
X176325659Y-107643186D01*
X176389477Y-107614745D01*
X176458542Y-107625321D01*
X176510925Y-107671557D01*
X176530000Y-107737639D01*
X176530000Y-117218500D01*
X176510315Y-117285539D01*
X176457511Y-117331294D01*
X176406000Y-117342500D01*
X169034000Y-117342500D01*
X169030706Y-117342854D01*
X169030690Y-117342855D01*
X168874160Y-117359685D01*
X168874157Y-117359685D01*
X168870850Y-117360041D01*
X168867615Y-117360744D01*
X168867601Y-117360747D01*
X168819339Y-117371247D01*
X168797701Y-117376344D01*
X168797688Y-117376347D01*
X168793664Y-117377296D01*
X168789804Y-117378770D01*
X168789790Y-117378775D01*
X168627198Y-117440893D01*
X168507955Y-117522061D01*
X168479883Y-117541169D01*
X168477165Y-117543524D01*
X168477160Y-117543528D01*
X168428317Y-117585850D01*
X168428290Y-117585874D01*
X168427079Y-117586924D01*
X168425921Y-117588039D01*
X168425911Y-117588049D01*
X168368652Y-117643226D01*
X168262991Y-117786729D01*
X168194691Y-117947392D01*
X168194680Y-117947420D01*
X168193276Y-117950725D01*
X168192264Y-117954169D01*
X168192259Y-117954185D01*
X168173591Y-118017764D01*
X168173162Y-118019342D01*
X168163190Y-118056985D01*
X168163188Y-118057001D01*
X168163188Y-118057002D01*
X168142500Y-118234000D01*
X168142500Y-128146000D01*
X168142854Y-128149294D01*
X168142855Y-128149309D01*
X168155832Y-128270000D01*
X168160041Y-128309150D01*
X168160745Y-128312387D01*
X168160747Y-128312398D01*
X168171247Y-128360661D01*
X168176344Y-128382298D01*
X168176346Y-128382307D01*
X168177296Y-128386336D01*
X168178772Y-128390199D01*
X168178775Y-128390209D01*
X168240893Y-128552801D01*
X168275724Y-128603971D01*
X168341169Y-128700117D01*
X168386924Y-128752921D01*
X168443226Y-128811348D01*
X168586726Y-128917007D01*
X168599890Y-128922603D01*
X168747392Y-128985308D01*
X168747405Y-128985312D01*
X168750725Y-128986724D01*
X168754184Y-128987739D01*
X168754185Y-128987740D01*
X168817764Y-129006409D01*
X168819342Y-129006838D01*
X168856985Y-129016809D01*
X168856995Y-129016810D01*
X168857002Y-129016812D01*
X169034000Y-129037500D01*
X169037599Y-129037500D01*
X176406000Y-129037500D01*
X176473039Y-129057185D01*
X176518794Y-129109989D01*
X176530000Y-129161500D01*
X176530000Y-152275500D01*
X176510315Y-152342539D01*
X176457511Y-152388294D01*
X176406000Y-152399500D01*
X128394000Y-152399500D01*
X128326961Y-152379815D01*
X128281206Y-152327011D01*
X128270000Y-152275500D01*
X128270000Y-145802307D01*
X130771684Y-145802307D01*
X130772421Y-145808569D01*
X130773112Y-145829331D01*
X130772793Y-145835624D01*
X130784630Y-145912895D01*
X130785209Y-145917170D01*
X130794349Y-145994797D01*
X130796332Y-146000783D01*
X130801189Y-146020985D01*
X130802143Y-146027215D01*
X130829287Y-146100505D01*
X130830715Y-146104576D01*
X130855297Y-146178783D01*
X130858446Y-146184249D01*
X130867269Y-146203057D01*
X130869460Y-146208970D01*
X130904517Y-146265214D01*
X130910796Y-146275288D01*
X130913014Y-146278988D01*
X130952039Y-146346740D01*
X130956215Y-146351452D01*
X130968648Y-146368106D01*
X130971980Y-146373451D01*
X130971982Y-146373453D01*
X130971984Y-146373456D01*
X131025854Y-146430127D01*
X131028753Y-146433286D01*
X131080603Y-146491781D01*
X131085648Y-146495560D01*
X131101179Y-146509370D01*
X131105519Y-146513935D01*
X131169653Y-146558573D01*
X131173153Y-146561100D01*
X131213756Y-146591511D01*
X131235737Y-146607975D01*
X131241431Y-146610657D01*
X131259429Y-146621059D01*
X131264602Y-146624660D01*
X131336433Y-146655485D01*
X131340319Y-146657233D01*
X131411082Y-146690562D01*
X131417208Y-146692044D01*
X131436929Y-146698610D01*
X131442716Y-146701094D01*
X131519268Y-146716825D01*
X131523470Y-146717766D01*
X131563895Y-146727550D01*
X131599463Y-146736160D01*
X131605758Y-146736379D01*
X131626397Y-146738841D01*
X131632569Y-146740110D01*
X131710721Y-146740110D01*
X131715037Y-146740185D01*
X131793166Y-146742906D01*
X131793166Y-146742905D01*
X131793168Y-146742906D01*
X131799382Y-146741852D01*
X131820100Y-146740110D01*
X141091624Y-146740110D01*
X141099867Y-146740384D01*
X141104487Y-146740691D01*
X141160815Y-146744445D01*
X141238280Y-146733832D01*
X141242557Y-146733322D01*
X141320307Y-146725416D01*
X141326313Y-146723531D01*
X141346598Y-146718993D01*
X141352843Y-146718138D01*
X141426641Y-146692128D01*
X141430621Y-146690803D01*
X141505239Y-146667393D01*
X141510739Y-146664339D01*
X141529701Y-146655808D01*
X141535645Y-146653714D01*
X141536086Y-146653449D01*
X164650604Y-146653449D01*
X164661823Y-146817212D01*
X164663851Y-146846815D01*
X164688089Y-146934026D01*
X164715752Y-147033563D01*
X164800097Y-147198071D01*
X164804179Y-147206032D01*
X164883712Y-147305100D01*
X164925519Y-147357176D01*
X165074791Y-147480796D01*
X165074795Y-147480798D01*
X165245903Y-147571841D01*
X165431835Y-147626577D01*
X165431836Y-147626577D01*
X165441758Y-147629498D01*
X165500510Y-147667314D01*
X165529490Y-147730890D01*
X165527038Y-147778526D01*
X165466445Y-148020897D01*
X165460100Y-148039718D01*
X165456014Y-148049239D01*
X165441089Y-148121863D01*
X165439931Y-148126951D01*
X165433732Y-148151752D01*
X165433282Y-148154858D01*
X165433280Y-148154872D01*
X165431365Y-148168110D01*
X165430105Y-148175314D01*
X165416999Y-148239088D01*
X165417000Y-148258519D01*
X165415723Y-148276269D01*
X165412942Y-148295496D01*
X165416784Y-148360488D01*
X165417000Y-148367806D01*
X165416999Y-148512105D01*
X165415709Y-148529945D01*
X165412972Y-148548765D01*
X165416789Y-148614163D01*
X165417000Y-148621387D01*
X165417000Y-148638332D01*
X165417315Y-148641439D01*
X165417317Y-148641460D01*
X165419544Y-148663354D01*
X165419969Y-148668674D01*
X165424262Y-148742255D01*
X165427041Y-148752660D01*
X165430603Y-148772107D01*
X165431693Y-148782824D01*
X165453763Y-148853172D01*
X165455250Y-148858295D01*
X165474269Y-148929512D01*
X165479088Y-148939148D01*
X165486490Y-148957476D01*
X165489717Y-148967759D01*
X165489718Y-148967760D01*
X165525492Y-149032214D01*
X165527982Y-149036937D01*
X165735116Y-149451205D01*
X165742206Y-149468550D01*
X165746912Y-149483122D01*
X165756502Y-149500064D01*
X165772396Y-149568102D01*
X165748982Y-149633932D01*
X165693695Y-149676653D01*
X165681130Y-149679686D01*
X165681204Y-149679919D01*
X165484241Y-149741717D01*
X165314774Y-149835777D01*
X165167709Y-149962027D01*
X165049071Y-150115294D01*
X164963713Y-150289310D01*
X164915131Y-150476946D01*
X164905313Y-150670519D01*
X164934663Y-150862103D01*
X165001980Y-151043861D01*
X165104503Y-151208346D01*
X165238040Y-151348825D01*
X165298965Y-151391231D01*
X165342743Y-151445685D01*
X165346440Y-151455882D01*
X165362717Y-151507759D01*
X165386015Y-151549734D01*
X165456777Y-151677225D01*
X165583027Y-151824290D01*
X165736294Y-151942928D01*
X165763268Y-151956159D01*
X165910311Y-152028287D01*
X166097945Y-152076869D01*
X166291518Y-152086686D01*
X166291518Y-152086685D01*
X166291519Y-152086686D01*
X166411502Y-152068305D01*
X166483104Y-152057336D01*
X166664860Y-151990020D01*
X166829346Y-151887496D01*
X166969826Y-151753959D01*
X167080550Y-151594878D01*
X167140049Y-151456226D01*
X167184575Y-151402383D01*
X167251144Y-151381159D01*
X167318619Y-151399294D01*
X167343117Y-151418933D01*
X167402590Y-151480553D01*
X167402600Y-151480560D01*
X167404338Y-151482361D01*
X167417759Y-151493504D01*
X167546038Y-151621783D01*
X167557741Y-151635310D01*
X167569122Y-151650563D01*
X167618083Y-151694126D01*
X167623339Y-151699084D01*
X167635303Y-151711048D01*
X167637729Y-151713026D01*
X167654777Y-151726927D01*
X167658841Y-151730389D01*
X167713926Y-151779400D01*
X167723246Y-151784791D01*
X167739520Y-151796026D01*
X167747868Y-151802833D01*
X167813206Y-151836962D01*
X167817880Y-151839532D01*
X167881697Y-151876449D01*
X167891923Y-151879857D01*
X167910108Y-151887579D01*
X167919662Y-151892570D01*
X167932579Y-151896266D01*
X167990539Y-151912851D01*
X167995638Y-151914429D01*
X168311906Y-152019851D01*
X168321582Y-152023533D01*
X168369236Y-152043984D01*
X168455892Y-152061792D01*
X168542213Y-152081132D01*
X168542214Y-152081132D01*
X168544651Y-152081678D01*
X168556596Y-152083000D01*
X168647568Y-152083000D01*
X168736003Y-152084568D01*
X168736004Y-152084567D01*
X168738499Y-152084612D01*
X168755883Y-152083000D01*
X168950447Y-152083000D01*
X168970247Y-152084591D01*
X168971588Y-152084807D01*
X168980472Y-152086245D01*
X169054528Y-152083110D01*
X169059771Y-152083000D01*
X169082192Y-152083000D01*
X169085332Y-152083000D01*
X169101785Y-152081326D01*
X169109068Y-152080802D01*
X169174119Y-152078050D01*
X169192972Y-152073336D01*
X169210487Y-152070272D01*
X169229827Y-152068306D01*
X169291964Y-152048809D01*
X169298962Y-152046838D01*
X169710283Y-151944008D01*
X169725610Y-151941187D01*
X169754427Y-151937741D01*
X169807138Y-151920169D01*
X169816248Y-151917517D01*
X169823025Y-151915824D01*
X169856074Y-151903896D01*
X169858879Y-151902922D01*
X170183348Y-151794766D01*
X170193592Y-151791836D01*
X170242715Y-151780043D01*
X170323933Y-151741973D01*
X170405650Y-151705178D01*
X170405650Y-151705177D01*
X170409070Y-151703638D01*
X170415211Y-151700023D01*
X170418876Y-151697289D01*
X170445767Y-151677225D01*
X170490122Y-151644132D01*
X170558279Y-151594878D01*
X170562743Y-151591652D01*
X170562743Y-151591651D01*
X170565780Y-151589457D01*
X170571080Y-151584669D01*
X170603631Y-151548083D01*
X170662899Y-151511081D01*
X170732762Y-151511997D01*
X170790357Y-151549734D01*
X170790775Y-151550221D01*
X170790778Y-151550226D01*
X170800485Y-151561534D01*
X170811621Y-151576698D01*
X170819504Y-151589346D01*
X170867492Y-151639829D01*
X170871679Y-151644464D01*
X170917027Y-151697289D01*
X170928810Y-151706410D01*
X170942774Y-151719025D01*
X170950285Y-151726927D01*
X170953042Y-151729827D01*
X170970493Y-151741973D01*
X171010193Y-151769605D01*
X171015217Y-151773294D01*
X171070297Y-151815929D01*
X171083673Y-151822490D01*
X171099899Y-151832042D01*
X171112122Y-151840550D01*
X171162198Y-151862038D01*
X171176092Y-151868001D01*
X171181803Y-151870625D01*
X171239087Y-151898724D01*
X171244311Y-151901287D01*
X171258730Y-151905020D01*
X171276549Y-151911110D01*
X171290236Y-151916984D01*
X171358434Y-151930999D01*
X171364523Y-151932412D01*
X171415166Y-151945524D01*
X171431944Y-151949869D01*
X171433258Y-151949935D01*
X171446819Y-151950622D01*
X171465504Y-151953002D01*
X171480089Y-151956000D01*
X171549691Y-151956000D01*
X171555972Y-151956159D01*
X171625517Y-151959686D01*
X171625517Y-151959685D01*
X171625518Y-151959686D01*
X171640245Y-151957429D01*
X171659022Y-151956000D01*
X171749190Y-151956000D01*
X171752332Y-151956000D01*
X171896827Y-151941306D01*
X172081759Y-151883283D01*
X172251226Y-151789222D01*
X172398290Y-151662972D01*
X172461061Y-151581879D01*
X172516928Y-151509705D01*
X172543329Y-151455882D01*
X172602287Y-151335689D01*
X172635259Y-151208346D01*
X172650869Y-151148058D01*
X172651473Y-151136143D01*
X172663987Y-151087809D01*
X172729286Y-150954691D01*
X172729287Y-150954689D01*
X172777869Y-150767055D01*
X172787686Y-150573482D01*
X172758336Y-150381896D01*
X172691020Y-150200140D01*
X172691019Y-150200138D01*
X172588496Y-150035653D01*
X172454960Y-149895175D01*
X172454959Y-149895174D01*
X172295878Y-149784450D01*
X172149283Y-149721542D01*
X172095441Y-149677017D01*
X172074217Y-149610449D01*
X172092352Y-149542973D01*
X172095737Y-149538403D01*
X172099394Y-149532079D01*
X172099399Y-149532075D01*
X172127420Y-149483631D01*
X172132435Y-149475676D01*
X172164063Y-149429491D01*
X172175147Y-149403108D01*
X172182125Y-149389062D01*
X172196449Y-149364303D01*
X172214143Y-149311217D01*
X172217450Y-149302424D01*
X172239141Y-149250801D01*
X172244688Y-149222720D01*
X172248695Y-149207560D01*
X172339855Y-148934082D01*
X172343522Y-148924443D01*
X172363984Y-148876764D01*
X172381792Y-148790107D01*
X172401132Y-148703787D01*
X172401132Y-148703781D01*
X172401678Y-148701345D01*
X172403000Y-148689406D01*
X172403000Y-148598432D01*
X172403000Y-148598431D01*
X172404568Y-148509997D01*
X172404567Y-148509995D01*
X172404612Y-148507500D01*
X172403000Y-148490117D01*
X172403000Y-148254054D01*
X172403433Y-148243698D01*
X172403819Y-148239088D01*
X172407764Y-148192021D01*
X172397256Y-148104193D01*
X172388306Y-148016173D01*
X172388305Y-148016171D01*
X172388052Y-148013678D01*
X172385534Y-148001954D01*
X172384741Y-147999576D01*
X172384741Y-147999573D01*
X172356765Y-147915646D01*
X172330283Y-147831241D01*
X172330282Y-147831239D01*
X172329535Y-147828858D01*
X172322508Y-147812876D01*
X172311058Y-147778526D01*
X172237445Y-147557689D01*
X172235284Y-147550480D01*
X172218728Y-147488483D01*
X172211376Y-147473779D01*
X172199001Y-147405014D01*
X172225769Y-147340475D01*
X172283179Y-147300653D01*
X172292211Y-147298027D01*
X172617025Y-147216824D01*
X172753642Y-147167523D01*
X172854398Y-147105887D01*
X172918977Y-147066382D01*
X172918977Y-147066381D01*
X172918980Y-147066380D01*
X173060574Y-146934026D01*
X173172627Y-146775877D01*
X173250550Y-146598410D01*
X173250549Y-146598410D01*
X173250551Y-146598408D01*
X173291154Y-146408893D01*
X173291153Y-146408893D01*
X173291155Y-146408889D01*
X173292778Y-146215075D01*
X173255354Y-146024900D01*
X173255353Y-146024899D01*
X173255353Y-146024896D01*
X173180415Y-145846154D01*
X173071024Y-145686148D01*
X172931669Y-145551441D01*
X172897689Y-145529864D01*
X172768048Y-145447543D01*
X172768046Y-145447542D01*
X172665150Y-145408450D01*
X172615102Y-145373304D01*
X172490972Y-145228709D01*
X172337705Y-145110071D01*
X172163689Y-145024713D01*
X172163688Y-145024712D01*
X171976055Y-144976131D01*
X171956418Y-144975135D01*
X171782480Y-144966313D01*
X171590896Y-144995663D01*
X171409138Y-145062980D01*
X171244653Y-145165503D01*
X171104175Y-145299039D01*
X170993448Y-145458124D01*
X170956924Y-145543235D01*
X170912397Y-145597078D01*
X170845829Y-145618301D01*
X170778354Y-145600165D01*
X170774713Y-145597854D01*
X170750915Y-145582154D01*
X170711408Y-145566351D01*
X170700050Y-145561129D01*
X170662338Y-145541430D01*
X170621919Y-145529864D01*
X170609982Y-145525780D01*
X170034612Y-145295633D01*
X169953925Y-145261511D01*
X169902094Y-145251145D01*
X169892246Y-145248753D01*
X169841441Y-145234190D01*
X169809823Y-145231767D01*
X169794981Y-145229722D01*
X169226381Y-145116003D01*
X169133913Y-145097000D01*
X169133911Y-145097000D01*
X169088759Y-145097000D01*
X169076866Y-145096428D01*
X169031937Y-145092098D01*
X168992724Y-145096296D01*
X168979527Y-145097000D01*
X168542396Y-145097000D01*
X168539315Y-145096962D01*
X168526971Y-145096655D01*
X168455809Y-145094886D01*
X168455808Y-145094886D01*
X168455806Y-145094886D01*
X168400988Y-145104737D01*
X168391605Y-145106056D01*
X168336172Y-145111694D01*
X168308638Y-145120333D01*
X168293455Y-145124063D01*
X168265047Y-145129169D01*
X168213313Y-145149861D01*
X168204388Y-145153040D01*
X168151239Y-145169716D01*
X168125996Y-145183726D01*
X168111878Y-145190435D01*
X167561459Y-145410603D01*
X167556496Y-145412466D01*
X167494677Y-145434177D01*
X167486786Y-145436949D01*
X167430719Y-145470588D01*
X167424403Y-145474131D01*
X167366485Y-145504420D01*
X167351634Y-145516540D01*
X167337032Y-145526799D01*
X166982677Y-145739413D01*
X166915063Y-145757025D01*
X166848661Y-145735287D01*
X166810460Y-145693261D01*
X166775222Y-145629774D01*
X166648972Y-145482709D01*
X166495705Y-145364071D01*
X166321689Y-145278713D01*
X166290849Y-145270728D01*
X166134055Y-145230131D01*
X166114418Y-145229135D01*
X165940480Y-145220313D01*
X165748896Y-145249663D01*
X165567138Y-145316980D01*
X165402653Y-145419503D01*
X165262175Y-145553039D01*
X165151450Y-145712121D01*
X165085973Y-145864703D01*
X165044653Y-145916305D01*
X164971257Y-145969346D01*
X164862102Y-146088331D01*
X164840231Y-146112172D01*
X164782252Y-146208971D01*
X164740635Y-146278452D01*
X164676555Y-146461366D01*
X164676554Y-146461370D01*
X164666527Y-146535590D01*
X164650604Y-146653449D01*
X141536086Y-146653449D01*
X141602678Y-146613392D01*
X141606343Y-146611274D01*
X141674706Y-146573332D01*
X141679478Y-146569234D01*
X141696344Y-146557055D01*
X141697432Y-146556400D01*
X141701736Y-146553812D01*
X141759297Y-146500806D01*
X141762411Y-146498037D01*
X141821770Y-146447082D01*
X141825620Y-146442107D01*
X141839684Y-146426785D01*
X141844317Y-146422521D01*
X141890012Y-146359038D01*
X141892547Y-146355643D01*
X141940409Y-146293813D01*
X141943183Y-146288155D01*
X141953874Y-146270319D01*
X141957550Y-146265215D01*
X141989525Y-146193848D01*
X141991315Y-146190031D01*
X142025767Y-146119799D01*
X142027346Y-146113699D01*
X142034222Y-146094089D01*
X142036801Y-146088336D01*
X142053751Y-146012007D01*
X142054747Y-146007865D01*
X142074349Y-145932165D01*
X142074668Y-145925875D01*
X142077458Y-145905265D01*
X142078823Y-145899125D01*
X142080062Y-145820967D01*
X142080203Y-145816713D01*
X142084166Y-145738592D01*
X142084165Y-145738591D01*
X142084166Y-145738588D01*
X142083213Y-145732368D01*
X142081798Y-145711612D01*
X142081898Y-145705328D01*
X142073710Y-145662013D01*
X142067374Y-145628495D01*
X142066653Y-145624277D01*
X142064342Y-145609194D01*
X142054816Y-145547006D01*
X142052626Y-145541095D01*
X142047066Y-145521063D01*
X142045898Y-145514880D01*
X142016203Y-145442538D01*
X142014655Y-145438572D01*
X141987500Y-145365250D01*
X141984171Y-145359909D01*
X141974689Y-145341401D01*
X141972299Y-145335577D01*
X141928648Y-145270691D01*
X141926340Y-145267128D01*
X141884976Y-145200764D01*
X141884975Y-145200763D01*
X141884974Y-145200761D01*
X141880634Y-145196195D01*
X141867624Y-145179979D01*
X139917038Y-142280460D01*
X150240500Y-142280460D01*
X150249203Y-142327020D01*
X150250785Y-142338362D01*
X150255154Y-142385518D01*
X150268113Y-142431065D01*
X150270734Y-142442209D01*
X150279439Y-142488772D01*
X150296553Y-142532948D01*
X150300187Y-142543791D01*
X150307958Y-142571105D01*
X150313150Y-142589352D01*
X150334259Y-142631743D01*
X150338883Y-142642215D01*
X150345231Y-142658600D01*
X150355996Y-142686389D01*
X150380929Y-142726657D01*
X150386502Y-142736662D01*
X150407611Y-142779056D01*
X150436152Y-142816850D01*
X150442624Y-142826297D01*
X150467558Y-142866565D01*
X150499468Y-142901570D01*
X150506783Y-142910379D01*
X150535323Y-142948171D01*
X150570319Y-142980075D01*
X150570322Y-142980077D01*
X150578421Y-142988176D01*
X150610327Y-143023176D01*
X150648126Y-143051720D01*
X150656932Y-143059033D01*
X150691935Y-143090942D01*
X150732220Y-143115885D01*
X150741640Y-143122338D01*
X150754988Y-143132419D01*
X150779445Y-143150889D01*
X150821846Y-143172001D01*
X150831845Y-143177570D01*
X150872114Y-143202504D01*
X150872115Y-143202505D01*
X150916277Y-143219613D01*
X150926756Y-143224240D01*
X150969150Y-143245350D01*
X151014695Y-143258308D01*
X151014702Y-143258310D01*
X151025562Y-143261951D01*
X151052811Y-143272507D01*
X151069726Y-143279060D01*
X151116298Y-143287765D01*
X151127411Y-143290378D01*
X151166439Y-143301483D01*
X151225529Y-143338763D01*
X151255086Y-143402073D01*
X151256500Y-143420748D01*
X151256500Y-144767368D01*
X151256764Y-144770227D01*
X151256765Y-144770228D01*
X151271154Y-144925520D01*
X151329149Y-145129350D01*
X151423608Y-145319051D01*
X151551323Y-145488172D01*
X151707932Y-145630940D01*
X151707934Y-145630941D01*
X151707935Y-145630942D01*
X151888115Y-145742505D01*
X152085726Y-145819060D01*
X152294039Y-145858000D01*
X152294041Y-145858000D01*
X152505959Y-145858000D01*
X152505961Y-145858000D01*
X152714274Y-145819060D01*
X152911885Y-145742505D01*
X153092065Y-145630942D01*
X153248677Y-145488171D01*
X153376389Y-145319054D01*
X153376389Y-145319052D01*
X153376391Y-145319051D01*
X153470850Y-145129350D01*
X153528845Y-144925520D01*
X153538456Y-144821798D01*
X153543500Y-144767368D01*
X153543500Y-143420747D01*
X153563185Y-143353709D01*
X153615989Y-143307954D01*
X153633562Y-143301483D01*
X153633881Y-143301392D01*
X153672578Y-143290381D01*
X153683698Y-143287765D01*
X153730274Y-143279060D01*
X153762251Y-143266671D01*
X153774441Y-143261949D01*
X153785304Y-143258308D01*
X153830850Y-143245350D01*
X153873264Y-143224229D01*
X153883710Y-143219617D01*
X153927885Y-143202505D01*
X153968165Y-143177563D01*
X153978152Y-143172001D01*
X154020554Y-143150889D01*
X154058357Y-143122340D01*
X154067776Y-143115886D01*
X154108065Y-143090942D01*
X154143081Y-143059019D01*
X154151867Y-143051724D01*
X154189671Y-143023177D01*
X154221592Y-142988160D01*
X154229660Y-142980092D01*
X154264677Y-142948171D01*
X154293224Y-142910367D01*
X154300519Y-142901581D01*
X154332442Y-142866565D01*
X154357386Y-142826276D01*
X154363840Y-142816857D01*
X154392389Y-142779054D01*
X154413501Y-142736652D01*
X154419063Y-142726665D01*
X154444005Y-142686385D01*
X154461117Y-142642210D01*
X154465729Y-142631764D01*
X154486850Y-142589350D01*
X154499808Y-142543802D01*
X154503449Y-142532941D01*
X154508171Y-142520751D01*
X154520560Y-142488774D01*
X154529265Y-142442198D01*
X154531885Y-142431065D01*
X154544845Y-142385518D01*
X154549214Y-142338359D01*
X154550797Y-142327012D01*
X154559500Y-142280460D01*
X154559500Y-141362504D01*
X154559500Y-141359632D01*
X154544845Y-141201482D01*
X154544845Y-141201479D01*
X154486850Y-140997649D01*
X154392391Y-140807948D01*
X154264676Y-140638827D01*
X154115797Y-140503106D01*
X154079515Y-140443395D01*
X154081276Y-140373547D01*
X154104445Y-140335600D01*
X154103979Y-140335297D01*
X154111079Y-140324364D01*
X154147545Y-140268209D01*
X154151218Y-140262866D01*
X154190572Y-140208701D01*
X154190571Y-140208701D01*
X154190573Y-140208700D01*
X154196152Y-140196166D01*
X154205443Y-140179056D01*
X154209666Y-140172553D01*
X154212916Y-140167549D01*
X154236920Y-140105013D01*
X154239381Y-140099074D01*
X154266625Y-140037885D01*
X154269480Y-140024448D01*
X154275005Y-140005798D01*
X154279924Y-139992987D01*
X154290402Y-139926824D01*
X154291574Y-139920501D01*
X154305500Y-139854990D01*
X154305500Y-139841263D01*
X154307027Y-139821863D01*
X154309174Y-139808310D01*
X154305670Y-139741443D01*
X154305500Y-139734960D01*
X154305500Y-139668011D01*
X154302646Y-139654585D01*
X154300106Y-139635290D01*
X154299388Y-139621586D01*
X154282061Y-139556922D01*
X154280545Y-139550608D01*
X154280542Y-139550595D01*
X154266625Y-139485115D01*
X154261037Y-139472564D01*
X154254547Y-139454234D01*
X154250994Y-139440976D01*
X154250994Y-139440975D01*
X154220594Y-139381313D01*
X154217808Y-139375472D01*
X154217806Y-139375468D01*
X154190573Y-139314300D01*
X154190571Y-139314297D01*
X154182499Y-139303185D01*
X154172334Y-139286598D01*
X154166105Y-139274373D01*
X154123981Y-139222355D01*
X154120029Y-139217204D01*
X154080670Y-139163030D01*
X154030906Y-139118223D01*
X154026197Y-139113754D01*
X153847375Y-138934932D01*
X153834739Y-138920137D01*
X153826669Y-138909030D01*
X153776906Y-138864223D01*
X153772197Y-138859754D01*
X153760311Y-138847868D01*
X153758006Y-138845563D01*
X153742389Y-138832916D01*
X153737480Y-138828723D01*
X153687715Y-138783915D01*
X153687714Y-138783914D01*
X153675826Y-138777051D01*
X153659787Y-138766027D01*
X153649124Y-138757392D01*
X153589474Y-138726999D01*
X153583769Y-138723901D01*
X153525788Y-138690426D01*
X153512724Y-138686181D01*
X153494751Y-138678736D01*
X153482520Y-138672504D01*
X153417839Y-138655172D01*
X153411617Y-138653329D01*
X153347960Y-138632646D01*
X153347958Y-138632645D01*
X153347956Y-138632645D01*
X153334298Y-138631209D01*
X153315181Y-138627665D01*
X153309714Y-138626200D01*
X153301913Y-138624110D01*
X153235055Y-138620607D01*
X153228585Y-138620098D01*
X153211844Y-138618338D01*
X153211827Y-138618337D01*
X153208620Y-138618000D01*
X153205378Y-138618000D01*
X153188545Y-138618000D01*
X153182056Y-138617830D01*
X153177891Y-138617611D01*
X153115190Y-138614326D01*
X153115189Y-138614326D01*
X153107601Y-138615527D01*
X153101633Y-138616473D01*
X153082236Y-138618000D01*
X152964764Y-138618000D01*
X152919971Y-138609627D01*
X152714275Y-138529940D01*
X152644836Y-138516960D01*
X152505961Y-138491000D01*
X152294039Y-138491000D01*
X152189882Y-138510469D01*
X152085724Y-138529940D01*
X151880029Y-138609627D01*
X151835236Y-138618000D01*
X151717764Y-138618000D01*
X151698366Y-138616473D01*
X151684810Y-138614326D01*
X151643844Y-138616473D01*
X151617951Y-138617830D01*
X151611461Y-138618000D01*
X151591380Y-138618000D01*
X151588169Y-138618337D01*
X151588158Y-138618338D01*
X151571400Y-138620099D01*
X151564939Y-138620607D01*
X151498083Y-138624111D01*
X151484820Y-138627665D01*
X151465704Y-138631208D01*
X151452044Y-138632644D01*
X151388380Y-138653330D01*
X151382157Y-138655173D01*
X151317475Y-138672505D01*
X151305237Y-138678740D01*
X151287277Y-138686179D01*
X151274216Y-138690423D01*
X151216223Y-138723905D01*
X151210523Y-138727000D01*
X151150875Y-138757393D01*
X151140203Y-138766035D01*
X151124179Y-138777047D01*
X151112286Y-138783913D01*
X151062531Y-138828712D01*
X151057602Y-138832922D01*
X151044512Y-138843522D01*
X151044491Y-138843540D01*
X151041994Y-138845563D01*
X151039714Y-138847842D01*
X151039696Y-138847859D01*
X151027788Y-138859767D01*
X151023083Y-138864232D01*
X150973328Y-138909032D01*
X150965254Y-138920144D01*
X150952623Y-138934932D01*
X150773800Y-139113755D01*
X150769093Y-139118223D01*
X150719329Y-139163031D01*
X150679976Y-139217195D01*
X150676027Y-139222342D01*
X150633890Y-139274378D01*
X150627658Y-139286609D01*
X150617498Y-139303189D01*
X150609428Y-139314297D01*
X150582191Y-139375468D01*
X150579400Y-139381320D01*
X150549006Y-139440975D01*
X150549006Y-139440976D01*
X150545452Y-139454237D01*
X150538960Y-139472569D01*
X150533374Y-139485114D01*
X150519456Y-139550595D01*
X150517941Y-139556906D01*
X150500610Y-139621585D01*
X150499891Y-139635305D01*
X150497353Y-139654584D01*
X150494500Y-139668010D01*
X150494500Y-139734954D01*
X150494330Y-139741443D01*
X150490826Y-139808309D01*
X150492973Y-139821863D01*
X150494500Y-139841263D01*
X150494500Y-139854992D01*
X150508418Y-139920474D01*
X150509601Y-139926856D01*
X150520075Y-139992988D01*
X150524994Y-140005802D01*
X150530522Y-140024461D01*
X150536085Y-140050634D01*
X150533080Y-140051272D01*
X150539671Y-140100423D01*
X150516061Y-140156336D01*
X150407608Y-140299948D01*
X150313149Y-140489649D01*
X150255154Y-140693479D01*
X150247015Y-140781321D01*
X150240500Y-140851632D01*
X150240500Y-140854503D01*
X150240500Y-140854504D01*
X150240500Y-142280460D01*
X139917038Y-142280460D01*
X137240134Y-138301279D01*
X137235569Y-138293954D01*
X137207736Y-138245631D01*
X137205922Y-138242481D01*
X137152967Y-138182740D01*
X137150412Y-138179763D01*
X137099386Y-138118381D01*
X137099383Y-138118379D01*
X137099382Y-138118377D01*
X137095770Y-138115488D01*
X137080426Y-138100902D01*
X137077355Y-138097438D01*
X137077351Y-138097435D01*
X137013433Y-138049560D01*
X137010323Y-138047152D01*
X136948013Y-137997320D01*
X136943890Y-137995216D01*
X136925937Y-137984026D01*
X136922225Y-137981246D01*
X136892632Y-137967308D01*
X136849983Y-137947220D01*
X136846459Y-137945492D01*
X136842295Y-137943367D01*
X136825731Y-137934913D01*
X136775377Y-137909213D01*
X136770917Y-137907983D01*
X136751067Y-137900632D01*
X136746877Y-137898658D01*
X136669308Y-137879882D01*
X136665501Y-137878896D01*
X136588537Y-137857660D01*
X136583912Y-137857352D01*
X136562994Y-137854148D01*
X136558498Y-137853060D01*
X136478736Y-137850281D01*
X136474812Y-137850082D01*
X136395142Y-137844774D01*
X136390544Y-137845404D01*
X136369427Y-137846474D01*
X136364796Y-137846313D01*
X136286076Y-137859653D01*
X136282191Y-137860248D01*
X136203118Y-137871081D01*
X136198741Y-137872624D01*
X136178263Y-137877925D01*
X136177627Y-137878033D01*
X136173692Y-137878700D01*
X136099278Y-137907610D01*
X136095592Y-137908975D01*
X136020314Y-137935505D01*
X136016340Y-137937896D01*
X135997345Y-137947213D01*
X135993030Y-137948889D01*
X135925969Y-137992180D01*
X135922633Y-137994260D01*
X135854219Y-138035410D01*
X135850802Y-138038557D01*
X135834085Y-138051497D01*
X135830191Y-138054010D01*
X135773245Y-138109887D01*
X135770397Y-138112595D01*
X135711640Y-138166700D01*
X135708930Y-138170466D01*
X135695156Y-138186511D01*
X135691848Y-138189757D01*
X135647287Y-138255994D01*
X135645043Y-138259218D01*
X135598407Y-138324008D01*
X135596511Y-138328239D01*
X135586244Y-138346734D01*
X130958761Y-145225427D01*
X130953932Y-145232113D01*
X130916550Y-145280407D01*
X130882131Y-145350575D01*
X130880165Y-145354413D01*
X130843315Y-145423360D01*
X130841525Y-145429401D01*
X130833971Y-145448756D01*
X130831193Y-145454418D01*
X130811602Y-145530081D01*
X130810449Y-145534235D01*
X130788231Y-145609194D01*
X130787693Y-145615476D01*
X130784191Y-145635951D01*
X130782611Y-145642053D01*
X130778650Y-145720138D01*
X130778356Y-145724441D01*
X130771684Y-145802307D01*
X128270000Y-145802307D01*
X128270000Y-129937639D01*
X128289685Y-129870600D01*
X128342489Y-129824845D01*
X128411647Y-129814901D01*
X128474341Y-129843187D01*
X128585382Y-129937639D01*
X128619374Y-129966552D01*
X128831812Y-130094976D01*
X129062101Y-130187659D01*
X129304275Y-130242201D01*
X129450151Y-130252500D01*
X136641848Y-130252499D01*
X136787725Y-130242201D01*
X137029899Y-130187659D01*
X137260188Y-130094976D01*
X137472626Y-129966552D01*
X137661714Y-129805714D01*
X137822552Y-129616626D01*
X137950976Y-129404188D01*
X138043659Y-129173899D01*
X138098201Y-128931725D01*
X138098201Y-128931715D01*
X138100254Y-128922603D01*
X138134187Y-128861527D01*
X138195753Y-128828491D01*
X138214727Y-128826018D01*
X138264915Y-128823389D01*
X138278182Y-128819833D01*
X138297311Y-128816288D01*
X138310956Y-128814855D01*
X138374654Y-128794157D01*
X138380842Y-128792325D01*
X138445524Y-128774994D01*
X138457756Y-128768760D01*
X138475721Y-128761319D01*
X138488785Y-128757075D01*
X138546788Y-128723585D01*
X138552443Y-128720514D01*
X138612125Y-128690107D01*
X138622798Y-128681463D01*
X138638823Y-128670449D01*
X138650715Y-128663585D01*
X138700487Y-128618769D01*
X138705382Y-128614588D01*
X138721006Y-128601937D01*
X138735203Y-128587738D01*
X138739894Y-128583286D01*
X138789669Y-128538470D01*
X138797746Y-128527351D01*
X138810371Y-128512570D01*
X140272570Y-127050371D01*
X140287351Y-127037746D01*
X140298470Y-127029669D01*
X140343286Y-126979894D01*
X140347741Y-126975201D01*
X140359632Y-126963311D01*
X140359633Y-126963309D01*
X140361937Y-126961006D01*
X140374582Y-126945389D01*
X140378775Y-126940480D01*
X140423585Y-126890715D01*
X140430452Y-126878819D01*
X140441469Y-126862790D01*
X140450106Y-126852125D01*
X140480501Y-126792469D01*
X140483585Y-126786789D01*
X140517075Y-126728785D01*
X140521317Y-126715728D01*
X140528766Y-126697747D01*
X140534993Y-126685526D01*
X140534994Y-126685525D01*
X140552329Y-126620826D01*
X140554163Y-126614636D01*
X140554276Y-126614289D01*
X140574855Y-126550956D01*
X140576290Y-126537297D01*
X140579836Y-126518170D01*
X140583388Y-126504914D01*
X140586891Y-126438059D01*
X140587399Y-126431600D01*
X140589500Y-126411620D01*
X140589500Y-126391538D01*
X140589670Y-126385048D01*
X140593174Y-126318188D01*
X140591027Y-126304632D01*
X140589500Y-126285235D01*
X140589500Y-103289805D01*
X140609185Y-103222766D01*
X140625819Y-103202124D01*
X141143899Y-102684044D01*
X141670470Y-102157472D01*
X141731791Y-102123989D01*
X141735283Y-102123282D01*
X141924496Y-102087912D01*
X142125391Y-102010085D01*
X142308564Y-101896669D01*
X142425864Y-101789736D01*
X142467777Y-101751527D01*
X142597614Y-101579596D01*
X142693643Y-101386742D01*
X142752601Y-101179526D01*
X142755709Y-101145984D01*
X142772480Y-100965000D01*
X142752601Y-100750476D01*
X142752601Y-100750473D01*
X142693643Y-100543257D01*
X142597614Y-100350403D01*
X142467777Y-100178472D01*
X142308566Y-100033332D01*
X142125391Y-99919915D01*
X142125391Y-99919914D01*
X141924496Y-99842088D01*
X141712721Y-99802500D01*
X141497279Y-99802500D01*
X141285504Y-99842087D01*
X141285504Y-99842088D01*
X141084608Y-99919915D01*
X140901433Y-100033332D01*
X140742222Y-100178472D01*
X140612385Y-100350403D01*
X140516356Y-100543257D01*
X140457399Y-100750473D01*
X140450889Y-100820718D01*
X140425102Y-100885655D01*
X140415099Y-100896956D01*
X139127432Y-102184623D01*
X139112644Y-102197254D01*
X139101532Y-102205328D01*
X139056732Y-102255083D01*
X139052267Y-102259788D01*
X139040360Y-102271695D01*
X139040343Y-102271713D01*
X139038063Y-102273994D01*
X139036038Y-102276493D01*
X139036023Y-102276511D01*
X139025419Y-102289605D01*
X139021212Y-102294530D01*
X138976412Y-102344286D01*
X138969548Y-102356176D01*
X138958532Y-102372205D01*
X138949894Y-102382872D01*
X138919497Y-102442528D01*
X138916402Y-102448229D01*
X138882922Y-102506219D01*
X138878681Y-102519273D01*
X138871240Y-102537239D01*
X138865005Y-102549477D01*
X138847676Y-102614148D01*
X138845833Y-102620370D01*
X138825144Y-102684044D01*
X138823709Y-102697696D01*
X138820165Y-102716817D01*
X138816611Y-102730082D01*
X138813107Y-102796944D01*
X138812598Y-102803413D01*
X138810838Y-102820152D01*
X138810836Y-102820175D01*
X138810500Y-102823380D01*
X138810500Y-102826620D01*
X138810500Y-102826621D01*
X138810500Y-102843454D01*
X138810330Y-102849943D01*
X138806826Y-102916809D01*
X138808973Y-102930363D01*
X138810500Y-102949763D01*
X138810500Y-125945194D01*
X138790815Y-126012233D01*
X138774181Y-126032875D01*
X138192766Y-126614289D01*
X138131443Y-126647774D01*
X138061751Y-126642790D01*
X138005818Y-126600918D01*
X137990052Y-126572904D01*
X137971818Y-126527598D01*
X137950976Y-126475812D01*
X137822552Y-126263374D01*
X137735640Y-126161196D01*
X137661714Y-126074285D01*
X137559536Y-125987374D01*
X137472626Y-125913448D01*
X137260188Y-125785024D01*
X137260186Y-125785023D01*
X137029898Y-125692340D01*
X136787725Y-125637799D01*
X136644032Y-125627654D01*
X136644028Y-125627653D01*
X136641849Y-125627500D01*
X136639661Y-125627500D01*
X129452340Y-125627500D01*
X129452311Y-125627500D01*
X129450152Y-125627501D01*
X129447974Y-125627654D01*
X129447967Y-125627655D01*
X129304275Y-125637799D01*
X129062101Y-125692340D01*
X128831813Y-125785023D01*
X128619374Y-125913448D01*
X128474341Y-126036812D01*
X128410522Y-126065253D01*
X128341457Y-126054677D01*
X128289075Y-126008440D01*
X128270000Y-125942359D01*
X128270000Y-116461500D01*
X128289685Y-116394461D01*
X128342489Y-116348706D01*
X128394000Y-116337500D01*
X134492676Y-116337500D01*
X134496000Y-116337500D01*
X134659150Y-116319959D01*
X134710661Y-116308753D01*
X134736336Y-116302704D01*
X134858940Y-116255863D01*
X134902801Y-116239106D01*
X134902801Y-116239105D01*
X134902803Y-116239105D01*
X135050117Y-116138831D01*
X135102921Y-116093076D01*
X135161348Y-116036774D01*
X135267007Y-115893274D01*
X135336724Y-115729275D01*
X135356409Y-115662236D01*
X135356838Y-115660658D01*
X135366809Y-115623014D01*
X135366809Y-115623005D01*
X135366812Y-115622998D01*
X135387500Y-115446000D01*
X135387500Y-105534000D01*
X135369959Y-105370850D01*
X135358753Y-105319339D01*
X135352704Y-105293664D01*
X135329528Y-105233002D01*
X135289106Y-105127198D01*
X135247141Y-105065547D01*
X135188831Y-104979883D01*
X135143076Y-104927079D01*
X135086774Y-104868652D01*
X134943274Y-104762993D01*
X134943270Y-104762991D01*
X134782607Y-104694691D01*
X134782585Y-104694683D01*
X134779275Y-104693276D01*
X134775825Y-104692263D01*
X134775814Y-104692259D01*
X134712236Y-104673591D01*
X134710658Y-104673162D01*
X134673014Y-104663190D01*
X134672998Y-104663188D01*
X134496000Y-104642500D01*
X128394000Y-104642500D01*
X128326961Y-104622815D01*
X128281206Y-104570011D01*
X128270000Y-104518500D01*
X128270000Y-99316500D01*
X128289685Y-99249461D01*
X128342489Y-99203706D01*
X128394000Y-99192500D01*
X142112676Y-99192500D01*
X142116000Y-99192500D01*
X142279150Y-99174959D01*
X142330661Y-99163753D01*
X142356336Y-99157704D01*
X142478940Y-99110863D01*
X142522801Y-99094106D01*
X142522801Y-99094105D01*
X142522803Y-99094105D01*
X142670117Y-98993831D01*
X142722921Y-98948076D01*
X142781348Y-98891774D01*
X142887007Y-98748274D01*
X142937291Y-98629989D01*
X142955308Y-98587607D01*
X142955310Y-98587600D01*
X142956724Y-98584275D01*
X142976409Y-98517236D01*
X142976838Y-98515658D01*
X142986809Y-98478014D01*
X142986809Y-98478005D01*
X142986812Y-98477998D01*
X143007500Y-98301000D01*
X143007500Y-96677699D01*
X143027185Y-96610661D01*
X143079989Y-96564906D01*
X143149147Y-96554962D01*
X143212703Y-96583987D01*
X143230462Y-96602984D01*
X143232462Y-96605633D01*
X143257147Y-96670996D01*
X143257500Y-96680349D01*
X143257500Y-98825392D01*
X143255972Y-98844790D01*
X143253834Y-98858296D01*
X143256378Y-98906831D01*
X143257330Y-98925002D01*
X143257500Y-98931492D01*
X143257500Y-98951515D01*
X143257837Y-98954723D01*
X143257838Y-98954739D01*
X143259593Y-98971431D01*
X143260102Y-98977901D01*
X143263597Y-99044601D01*
X143267138Y-99057815D01*
X143270682Y-99076940D01*
X143272111Y-99090537D01*
X143292748Y-99154051D01*
X143294592Y-99160275D01*
X143311883Y-99224805D01*
X143318092Y-99236991D01*
X143325533Y-99254955D01*
X143329762Y-99267967D01*
X143329763Y-99267970D01*
X143349712Y-99302522D01*
X143357782Y-99316500D01*
X143363159Y-99325812D01*
X143366242Y-99331489D01*
X143385493Y-99369272D01*
X143396581Y-99391033D01*
X143405185Y-99401658D01*
X143416199Y-99417683D01*
X143423041Y-99429533D01*
X143467740Y-99479176D01*
X143471948Y-99484102D01*
X143484552Y-99499666D01*
X143486857Y-99501971D01*
X143498699Y-99513813D01*
X143503168Y-99518522D01*
X143547874Y-99568173D01*
X143558940Y-99576213D01*
X143573737Y-99588851D01*
X149167343Y-105182457D01*
X149200828Y-105243780D01*
X149195844Y-105313472D01*
X149153972Y-105369405D01*
X149088508Y-105393822D01*
X149052419Y-105391108D01*
X149037727Y-105387799D01*
X148894032Y-105377654D01*
X148894028Y-105377653D01*
X148891849Y-105377500D01*
X148889661Y-105377500D01*
X147202340Y-105377500D01*
X147202311Y-105377500D01*
X147200152Y-105377501D01*
X147197974Y-105377654D01*
X147197967Y-105377655D01*
X147054275Y-105387799D01*
X146812101Y-105442340D01*
X146581813Y-105535023D01*
X146369374Y-105663448D01*
X146180285Y-105824285D01*
X146019448Y-106013374D01*
X145891023Y-106225813D01*
X145798340Y-106456101D01*
X145747108Y-106683583D01*
X145743799Y-106698275D01*
X145733500Y-106844151D01*
X145733500Y-106846337D01*
X145733500Y-106846338D01*
X145733500Y-114033659D01*
X145733500Y-114033687D01*
X145733501Y-114035848D01*
X145743799Y-114181725D01*
X145751076Y-114214036D01*
X145798340Y-114423898D01*
X145891023Y-114654186D01*
X145891024Y-114654188D01*
X146019448Y-114866626D01*
X146093374Y-114953536D01*
X146180285Y-115055714D01*
X146247501Y-115112887D01*
X146369374Y-115216552D01*
X146581812Y-115344976D01*
X146812101Y-115437659D01*
X147054275Y-115492201D01*
X147200151Y-115502500D01*
X148891848Y-115502499D01*
X149037725Y-115492201D01*
X149279899Y-115437659D01*
X149510188Y-115344976D01*
X149722626Y-115216552D01*
X149757364Y-115187003D01*
X149821181Y-115158562D01*
X149890246Y-115169137D01*
X149925385Y-115193775D01*
X150839182Y-116107571D01*
X150872666Y-116168892D01*
X150875500Y-116195250D01*
X150875500Y-128584548D01*
X150855815Y-128651587D01*
X150839181Y-128672229D01*
X147887430Y-131623981D01*
X147826107Y-131657466D01*
X147799749Y-131660300D01*
X147337351Y-131660300D01*
X147335277Y-131660438D01*
X147335272Y-131660439D01*
X147114895Y-131675191D01*
X147114889Y-131675191D01*
X147110763Y-131675468D01*
X147106706Y-131676292D01*
X147106703Y-131676293D01*
X146817988Y-131734977D01*
X146817985Y-131734977D01*
X146813920Y-131735804D01*
X146810006Y-131737163D01*
X146809999Y-131737165D01*
X146531679Y-131833808D01*
X146531671Y-131833811D01*
X146527767Y-131835167D01*
X146524070Y-131837034D01*
X146524068Y-131837036D01*
X146261113Y-131969913D01*
X146261103Y-131969918D01*
X146257412Y-131971784D01*
X146254001Y-131974125D01*
X146253995Y-131974129D01*
X146011094Y-132140870D01*
X146011080Y-132140880D01*
X146007677Y-132143217D01*
X146004612Y-132145988D01*
X146004602Y-132145997D01*
X145786095Y-132343626D01*
X145786089Y-132343631D01*
X145783021Y-132346407D01*
X145780352Y-132349562D01*
X145780345Y-132349571D01*
X145590127Y-132574562D01*
X145590121Y-132574569D01*
X145587452Y-132577727D01*
X145585229Y-132581208D01*
X145585221Y-132581220D01*
X145426686Y-132829562D01*
X145426682Y-132829569D01*
X145424460Y-132833050D01*
X145422720Y-132836799D01*
X145422717Y-132836805D01*
X145298698Y-133104058D01*
X145298694Y-133104067D01*
X145296953Y-133107820D01*
X145295727Y-133111770D01*
X145295725Y-133111777D01*
X145208434Y-133393177D01*
X145207207Y-133397133D01*
X145206518Y-133401211D01*
X145206518Y-133401216D01*
X145174263Y-133592442D01*
X145156824Y-133695827D01*
X145156686Y-133699950D01*
X145156685Y-133699962D01*
X145146840Y-133994423D01*
X145146840Y-133994433D01*
X145146702Y-133998571D01*
X145147116Y-134002692D01*
X145147117Y-134002703D01*
X145174229Y-134272188D01*
X145177023Y-134299962D01*
X145177983Y-134303990D01*
X145177985Y-134304002D01*
X145246282Y-134590588D01*
X145247244Y-134594624D01*
X145248732Y-134598488D01*
X145248735Y-134598497D01*
X145329354Y-134807819D01*
X145356113Y-134877297D01*
X145358106Y-134880934D01*
X145358108Y-134880938D01*
X145499694Y-135139299D01*
X145499700Y-135139308D01*
X145501688Y-135142936D01*
X145504144Y-135146269D01*
X145504147Y-135146274D01*
X145678909Y-135383462D01*
X145681370Y-135386802D01*
X145891953Y-135604544D01*
X146035917Y-135718231D01*
X146125868Y-135789265D01*
X146129679Y-135792274D01*
X146390306Y-135946644D01*
X146669183Y-136064898D01*
X146961333Y-136144926D01*
X147261543Y-136185300D01*
X147265684Y-136185300D01*
X149586567Y-136185300D01*
X149588649Y-136185300D01*
X149815237Y-136170132D01*
X150112080Y-136109796D01*
X150398233Y-136010433D01*
X150668588Y-135873816D01*
X150918323Y-135702383D01*
X151142979Y-135499193D01*
X151338548Y-135267873D01*
X151501540Y-135012550D01*
X151629047Y-134737780D01*
X151718793Y-134448467D01*
X151769176Y-134149773D01*
X151779298Y-133847029D01*
X151751716Y-133572866D01*
X151764591Y-133504195D01*
X151787409Y-133472778D01*
X154092821Y-131167367D01*
X154154142Y-131133884D01*
X154223834Y-131138868D01*
X154279767Y-131180740D01*
X154304184Y-131246204D01*
X154304500Y-131255050D01*
X154304500Y-131808045D01*
X154284815Y-131875084D01*
X154236426Y-131918717D01*
X154135106Y-131969917D01*
X154135102Y-131969919D01*
X154131412Y-131971784D01*
X154128008Y-131974120D01*
X154127999Y-131974126D01*
X153885094Y-132140870D01*
X153885080Y-132140880D01*
X153881677Y-132143217D01*
X153878612Y-132145988D01*
X153878602Y-132145997D01*
X153660095Y-132343626D01*
X153660089Y-132343631D01*
X153657021Y-132346407D01*
X153654352Y-132349562D01*
X153654345Y-132349571D01*
X153464127Y-132574562D01*
X153464121Y-132574569D01*
X153461452Y-132577727D01*
X153459229Y-132581208D01*
X153459221Y-132581220D01*
X153300686Y-132829562D01*
X153300682Y-132829569D01*
X153298460Y-132833050D01*
X153296720Y-132836799D01*
X153296717Y-132836805D01*
X153172698Y-133104058D01*
X153172694Y-133104067D01*
X153170953Y-133107820D01*
X153169727Y-133111770D01*
X153169725Y-133111777D01*
X153082434Y-133393177D01*
X153081207Y-133397133D01*
X153080518Y-133401211D01*
X153080518Y-133401216D01*
X153048263Y-133592442D01*
X153030824Y-133695827D01*
X153030686Y-133699950D01*
X153030685Y-133699962D01*
X153020840Y-133994423D01*
X153020840Y-133994433D01*
X153020702Y-133998571D01*
X153021116Y-134002692D01*
X153021117Y-134002703D01*
X153048229Y-134272188D01*
X153051023Y-134299962D01*
X153051983Y-134303990D01*
X153051985Y-134304002D01*
X153120282Y-134590588D01*
X153121244Y-134594624D01*
X153122732Y-134598488D01*
X153122735Y-134598497D01*
X153203354Y-134807819D01*
X153230113Y-134877297D01*
X153232106Y-134880934D01*
X153232108Y-134880938D01*
X153373694Y-135139299D01*
X153373700Y-135139308D01*
X153375688Y-135142936D01*
X153378144Y-135146269D01*
X153378147Y-135146274D01*
X153552909Y-135383462D01*
X153555370Y-135386802D01*
X153765953Y-135604544D01*
X153909917Y-135718231D01*
X153999868Y-135789265D01*
X154003679Y-135792274D01*
X154264306Y-135946644D01*
X154543183Y-136064898D01*
X154835333Y-136144926D01*
X155135543Y-136185300D01*
X155139684Y-136185300D01*
X157460567Y-136185300D01*
X157462649Y-136185300D01*
X157689237Y-136170132D01*
X157986080Y-136109796D01*
X158272233Y-136010433D01*
X158542588Y-135873816D01*
X158792323Y-135702383D01*
X159016979Y-135499193D01*
X159212548Y-135267873D01*
X159375540Y-135012550D01*
X159503047Y-134737780D01*
X159592793Y-134448467D01*
X159643176Y-134149773D01*
X159653298Y-133847029D01*
X159622977Y-133545638D01*
X159552756Y-133250976D01*
X159443887Y-132968303D01*
X159369766Y-132833050D01*
X159300305Y-132706300D01*
X159300302Y-132706295D01*
X159298312Y-132702664D01*
X159118630Y-132458798D01*
X158908047Y-132241056D01*
X158773193Y-132134563D01*
X158673571Y-132055892D01*
X158673566Y-132055888D01*
X158670321Y-132053326D01*
X158666765Y-132051219D01*
X158666761Y-132051217D01*
X158430307Y-131911165D01*
X158382658Y-131860064D01*
X158369500Y-131804475D01*
X158369500Y-128123439D01*
X158389185Y-128056400D01*
X158423217Y-128023291D01*
X158423001Y-128023037D01*
X158426800Y-128019805D01*
X158429353Y-128017320D01*
X158430626Y-128016552D01*
X158619714Y-127855714D01*
X158780552Y-127666626D01*
X158908976Y-127454188D01*
X159001659Y-127223899D01*
X159056201Y-126981725D01*
X159066500Y-126835849D01*
X159066499Y-119644152D01*
X159056201Y-119498275D01*
X159001659Y-119256101D01*
X158908976Y-119025812D01*
X158780552Y-118813374D01*
X158693640Y-118711196D01*
X158619714Y-118624285D01*
X158517536Y-118537374D01*
X158430626Y-118463448D01*
X158218188Y-118335024D01*
X158196594Y-118326333D01*
X157987898Y-118242340D01*
X157745725Y-118187799D01*
X157602032Y-118177654D01*
X157602028Y-118177653D01*
X157599849Y-118177500D01*
X157597661Y-118177500D01*
X155910340Y-118177500D01*
X155910311Y-118177500D01*
X155908152Y-118177501D01*
X155905974Y-118177654D01*
X155905967Y-118177655D01*
X155762275Y-118187799D01*
X155520101Y-118242340D01*
X155289813Y-118335023D01*
X155128650Y-118432450D01*
X155061095Y-118450286D01*
X154994622Y-118428768D01*
X154950334Y-118374728D01*
X154940500Y-118326333D01*
X154940500Y-115358455D01*
X154940670Y-115351966D01*
X154944925Y-115270765D01*
X154945152Y-115266441D01*
X154934315Y-115142573D01*
X154925635Y-115018440D01*
X154923506Y-115008428D01*
X154921268Y-114993449D01*
X154920754Y-114987576D01*
X154920378Y-114983271D01*
X154892404Y-114862104D01*
X154866535Y-114740399D01*
X154863036Y-114730788D01*
X154858735Y-114716266D01*
X154857410Y-114710527D01*
X154856435Y-114706303D01*
X154811863Y-114590189D01*
X154769315Y-114473289D01*
X154767285Y-114469472D01*
X154767281Y-114469462D01*
X154764515Y-114464261D01*
X154758230Y-114450471D01*
X154756120Y-114444974D01*
X154754568Y-114440930D01*
X154694266Y-114332143D01*
X154635867Y-114222309D01*
X154629854Y-114214032D01*
X154621723Y-114201271D01*
X154616760Y-114192317D01*
X154541884Y-114092953D01*
X154541884Y-114092952D01*
X154471341Y-113995859D01*
X154471339Y-113995857D01*
X154468787Y-113992344D01*
X154461682Y-113984987D01*
X154451859Y-113973486D01*
X154445693Y-113965303D01*
X154357703Y-113877313D01*
X154357703Y-113877312D01*
X154274336Y-113790983D01*
X154274329Y-113790977D01*
X154271329Y-113787870D01*
X154263266Y-113781570D01*
X154251929Y-113771539D01*
X150394818Y-109914428D01*
X150361333Y-109853105D01*
X150358499Y-109826747D01*
X150358499Y-106846339D01*
X150358499Y-106846338D01*
X150358499Y-106844152D01*
X150348201Y-106698275D01*
X150344891Y-106683579D01*
X150349365Y-106613856D01*
X150390825Y-106557617D01*
X150456108Y-106532721D01*
X150524488Y-106547072D01*
X150553542Y-106568656D01*
X155809810Y-111824924D01*
X155843295Y-111886247D01*
X155845600Y-111901162D01*
X155852399Y-111974526D01*
X155911356Y-112181742D01*
X156007385Y-112374596D01*
X156137222Y-112546527D01*
X156296433Y-112691667D01*
X156296435Y-112691668D01*
X156296436Y-112691669D01*
X156479609Y-112805085D01*
X156680504Y-112882912D01*
X156892279Y-112922500D01*
X156892281Y-112922500D01*
X157107719Y-112922500D01*
X157107721Y-112922500D01*
X157319496Y-112882912D01*
X157520391Y-112805085D01*
X157703564Y-112691669D01*
X157862778Y-112546526D01*
X157992612Y-112374599D01*
X157992612Y-112374597D01*
X157992614Y-112374596D01*
X158088643Y-112181742D01*
X158147601Y-111974526D01*
X158155781Y-111886247D01*
X158167480Y-111760000D01*
X158147601Y-111545476D01*
X158147601Y-111545473D01*
X158088643Y-111338257D01*
X157992614Y-111145403D01*
X157862777Y-110973472D01*
X157703566Y-110828332D01*
X157520391Y-110714915D01*
X157319496Y-110637088D01*
X157126883Y-110601082D01*
X157064603Y-110569413D01*
X157061988Y-110566874D01*
X145068819Y-98573704D01*
X145035334Y-98512381D01*
X145032500Y-98486023D01*
X145032500Y-96724742D01*
X145732500Y-96724742D01*
X145732797Y-96727759D01*
X145732798Y-96727776D01*
X145747150Y-96873487D01*
X145785167Y-96998812D01*
X145805046Y-97064342D01*
X145899063Y-97240237D01*
X146025590Y-97394410D01*
X146179763Y-97520937D01*
X146355658Y-97614954D01*
X146546514Y-97672850D01*
X146695258Y-97687500D01*
X146698308Y-97687500D01*
X147691692Y-97687500D01*
X147694742Y-97687500D01*
X147843486Y-97672850D01*
X148034342Y-97614954D01*
X148210237Y-97520937D01*
X148364410Y-97394410D01*
X148490937Y-97240237D01*
X148584954Y-97064342D01*
X148642850Y-96873486D01*
X148657500Y-96724742D01*
X148657500Y-96263500D01*
X148677185Y-96196461D01*
X148729989Y-96150706D01*
X148781500Y-96139500D01*
X151602141Y-96139500D01*
X151669180Y-96159185D01*
X151685676Y-96171859D01*
X151696436Y-96181669D01*
X151879609Y-96295085D01*
X152080504Y-96372912D01*
X152292279Y-96412500D01*
X152292281Y-96412500D01*
X152507719Y-96412500D01*
X152507721Y-96412500D01*
X152719496Y-96372912D01*
X152920391Y-96295085D01*
X153103564Y-96181669D01*
X153262778Y-96036526D01*
X153392612Y-95864599D01*
X153392612Y-95864597D01*
X153392614Y-95864596D01*
X153488643Y-95671742D01*
X153547601Y-95464526D01*
X153550709Y-95430984D01*
X153567480Y-95250000D01*
X153547887Y-95038559D01*
X153547601Y-95035473D01*
X153488643Y-94828257D01*
X153392614Y-94635403D01*
X153262777Y-94463472D01*
X153103566Y-94318332D01*
X152920391Y-94204915D01*
X152885608Y-94191440D01*
X152719496Y-94127088D01*
X152507721Y-94087500D01*
X152292279Y-94087500D01*
X152080503Y-94127087D01*
X152080504Y-94127088D01*
X151879608Y-94204915D01*
X151696436Y-94318330D01*
X151689586Y-94324575D01*
X151685678Y-94328137D01*
X151622876Y-94358754D01*
X151602141Y-94360500D01*
X148781500Y-94360500D01*
X148714461Y-94340815D01*
X148668706Y-94288011D01*
X148657500Y-94236500D01*
X148657500Y-93778307D01*
X148657500Y-93775258D01*
X148642850Y-93626514D01*
X148584954Y-93435658D01*
X148490937Y-93259763D01*
X148364410Y-93105590D01*
X148210237Y-92979063D01*
X148034342Y-92885046D01*
X148034339Y-92885045D01*
X148034337Y-92885044D01*
X147843487Y-92827150D01*
X147697776Y-92812798D01*
X147697759Y-92812797D01*
X147694742Y-92812500D01*
X146695258Y-92812500D01*
X146692241Y-92812797D01*
X146692223Y-92812798D01*
X146546512Y-92827150D01*
X146355662Y-92885044D01*
X146355658Y-92885045D01*
X146355658Y-92885046D01*
X146179763Y-92979063D01*
X146179761Y-92979064D01*
X146179760Y-92979065D01*
X146025590Y-93105589D01*
X146025590Y-93105590D01*
X145899063Y-93259763D01*
X145805046Y-93435658D01*
X145805044Y-93435662D01*
X145747150Y-93626512D01*
X145732798Y-93772223D01*
X145732797Y-93772241D01*
X145732500Y-93775258D01*
X145732500Y-96724742D01*
X145032500Y-96724742D01*
X145032500Y-96680349D01*
X145052185Y-96613310D01*
X145057546Y-96605622D01*
X145073884Y-96583987D01*
X145137612Y-96499599D01*
X145233643Y-96306742D01*
X145233815Y-96306138D01*
X145292601Y-96099526D01*
X145298007Y-96041185D01*
X145312480Y-95885000D01*
X145297263Y-95720785D01*
X145292601Y-95670473D01*
X145233643Y-95463257D01*
X145137614Y-95270403D01*
X145007777Y-95098472D01*
X144848566Y-94953332D01*
X144665391Y-94839915D01*
X144635298Y-94828257D01*
X144464496Y-94762088D01*
X144252721Y-94722500D01*
X144037279Y-94722500D01*
X143825503Y-94762087D01*
X143825504Y-94762088D01*
X143624608Y-94839915D01*
X143441433Y-94953332D01*
X143282222Y-95098472D01*
X143230454Y-95167025D01*
X143174345Y-95208661D01*
X143104633Y-95213352D01*
X143043451Y-95179610D01*
X143010224Y-95118146D01*
X143007500Y-95092298D01*
X143007500Y-88521500D01*
X143027185Y-88454461D01*
X143079989Y-88408706D01*
X143131500Y-88397500D01*
X146315730Y-88397500D01*
X146382769Y-88417185D01*
X146403410Y-88433819D01*
X147375977Y-89406385D01*
X147395753Y-89424149D01*
X147435873Y-89460188D01*
X147435886Y-89460199D01*
X147437105Y-89461294D01*
X147457747Y-89477928D01*
X147459786Y-89479318D01*
X147459797Y-89479326D01*
X147559085Y-89547005D01*
X147559088Y-89547007D01*
X147723087Y-89616724D01*
X147726546Y-89617739D01*
X147726547Y-89617740D01*
X147790126Y-89636409D01*
X147791704Y-89636838D01*
X147829347Y-89646809D01*
X147829357Y-89646810D01*
X147829364Y-89646812D01*
X148006362Y-89667500D01*
X148009961Y-89667500D01*
X173862676Y-89667500D01*
X173866000Y-89667500D01*
X174029150Y-89649959D01*
X174080661Y-89638753D01*
X174106336Y-89632704D01*
X174203023Y-89595764D01*
X174272801Y-89569106D01*
X174272801Y-89569105D01*
X174272803Y-89569105D01*
X174420117Y-89468831D01*
X174472921Y-89423076D01*
X174531348Y-89366774D01*
X174637007Y-89223274D01*
X174706724Y-89059275D01*
X174726409Y-88992236D01*
X174726838Y-88990658D01*
X174736809Y-88953014D01*
X174736809Y-88953005D01*
X174736812Y-88952998D01*
X174757500Y-88776000D01*
X174757500Y-62100000D01*
X174739959Y-61936850D01*
X174728753Y-61885339D01*
X174722704Y-61859664D01*
X174705026Y-61813392D01*
X174659106Y-61693198D01*
X174631557Y-61652726D01*
X174558831Y-61545883D01*
X174528753Y-61511171D01*
X174514149Y-61494317D01*
X174514143Y-61494311D01*
X174513076Y-61493079D01*
X174456774Y-61434652D01*
X174313274Y-61328993D01*
X174313270Y-61328991D01*
X174152607Y-61260691D01*
X174152585Y-61260683D01*
X174149275Y-61259276D01*
X174145825Y-61258263D01*
X174145814Y-61258259D01*
X174082236Y-61239591D01*
X174080658Y-61239162D01*
X174043014Y-61229190D01*
X174042998Y-61229188D01*
X173866000Y-61208500D01*
X135379000Y-61208500D01*
X135375706Y-61208854D01*
X135375690Y-61208855D01*
X135219160Y-61225685D01*
X135219157Y-61225685D01*
X135215850Y-61226041D01*
X135212615Y-61226744D01*
X135212601Y-61226747D01*
X135164339Y-61237247D01*
X135142701Y-61242344D01*
X135142688Y-61242347D01*
X135138664Y-61243296D01*
X135134804Y-61244770D01*
X135134790Y-61244775D01*
X134972198Y-61306893D01*
X134830982Y-61403017D01*
X134824883Y-61407169D01*
X134822165Y-61409524D01*
X134822160Y-61409528D01*
X134773317Y-61451850D01*
X134773290Y-61451874D01*
X134772079Y-61452924D01*
X134770921Y-61454039D01*
X134770911Y-61454049D01*
X134730408Y-61493079D01*
X134713652Y-61509226D01*
X134686662Y-61545883D01*
X134607991Y-61652729D01*
X134539691Y-61813392D01*
X134539680Y-61813420D01*
X134538276Y-61816725D01*
X134537264Y-61820169D01*
X134537259Y-61820185D01*
X134518591Y-61883764D01*
X134518162Y-61885342D01*
X134508190Y-61922985D01*
X134508188Y-61923001D01*
X134508188Y-61923002D01*
X134487500Y-62100000D01*
X134487500Y-62103597D01*
X134487500Y-62103598D01*
X134487500Y-87373500D01*
X134467815Y-87440539D01*
X134415011Y-87486294D01*
X134363500Y-87497500D01*
X128394000Y-87497500D01*
X128326961Y-87477815D01*
X128281206Y-87425011D01*
X128270000Y-87373500D01*
X128270000Y-59451197D01*
X128836204Y-59451197D01*
X128836941Y-59457459D01*
X128837632Y-59478221D01*
X128837313Y-59484514D01*
X128849150Y-59561785D01*
X128849729Y-59566060D01*
X128858869Y-59643687D01*
X128860852Y-59649673D01*
X128865709Y-59669875D01*
X128866663Y-59676105D01*
X128893807Y-59749395D01*
X128895235Y-59753466D01*
X128919817Y-59827673D01*
X128922966Y-59833139D01*
X128931789Y-59851947D01*
X128933980Y-59857860D01*
X128933981Y-59857861D01*
X128975316Y-59924178D01*
X128977534Y-59927878D01*
X129016559Y-59995630D01*
X129020735Y-60000342D01*
X129033168Y-60016996D01*
X129036500Y-60022341D01*
X129036502Y-60022343D01*
X129036504Y-60022346D01*
X129090374Y-60079017D01*
X129093273Y-60082176D01*
X129145123Y-60140671D01*
X129150168Y-60144450D01*
X129165699Y-60158260D01*
X129170039Y-60162825D01*
X129234173Y-60207463D01*
X129237673Y-60209990D01*
X129278276Y-60240401D01*
X129300257Y-60256865D01*
X129305951Y-60259547D01*
X129323949Y-60269949D01*
X129329122Y-60273550D01*
X129400953Y-60304375D01*
X129404839Y-60306123D01*
X129475602Y-60339452D01*
X129481728Y-60340934D01*
X129501449Y-60347500D01*
X129507236Y-60349984D01*
X129583788Y-60365715D01*
X129587990Y-60366656D01*
X129628415Y-60376440D01*
X129663983Y-60385050D01*
X129670278Y-60385269D01*
X129690917Y-60387731D01*
X129697089Y-60389000D01*
X129775241Y-60389000D01*
X129779557Y-60389075D01*
X129857686Y-60391796D01*
X129857686Y-60391795D01*
X129857688Y-60391796D01*
X129863902Y-60390742D01*
X129884620Y-60389000D01*
X139156144Y-60389000D01*
X139164387Y-60389274D01*
X139169007Y-60389581D01*
X139225335Y-60393335D01*
X139302800Y-60382722D01*
X139307077Y-60382212D01*
X139384827Y-60374306D01*
X139390833Y-60372421D01*
X139411118Y-60367883D01*
X139417363Y-60367028D01*
X139491161Y-60341018D01*
X139495141Y-60339693D01*
X139569759Y-60316283D01*
X139575259Y-60313229D01*
X139594221Y-60304698D01*
X139600165Y-60302604D01*
X139667198Y-60262282D01*
X139670863Y-60260164D01*
X139739226Y-60222222D01*
X139743998Y-60218124D01*
X139760864Y-60205945D01*
X139761952Y-60205290D01*
X139766256Y-60202702D01*
X139823817Y-60149696D01*
X139826931Y-60146927D01*
X139886290Y-60095972D01*
X139890140Y-60090997D01*
X139904204Y-60075675D01*
X139908837Y-60071411D01*
X139954532Y-60007928D01*
X139957067Y-60004533D01*
X140004929Y-59942703D01*
X140007703Y-59937045D01*
X140018394Y-59919209D01*
X140022070Y-59914105D01*
X140054045Y-59842738D01*
X140055835Y-59838921D01*
X140090287Y-59768689D01*
X140091866Y-59762589D01*
X140098742Y-59742979D01*
X140101321Y-59737226D01*
X140118271Y-59660897D01*
X140119267Y-59656755D01*
X140138869Y-59581055D01*
X140139188Y-59574765D01*
X140141978Y-59554155D01*
X140143343Y-59548015D01*
X140144582Y-59469857D01*
X140144723Y-59465603D01*
X140145454Y-59451197D01*
X164396204Y-59451197D01*
X164396941Y-59457459D01*
X164397632Y-59478221D01*
X164397313Y-59484514D01*
X164409150Y-59561785D01*
X164409729Y-59566060D01*
X164418869Y-59643687D01*
X164420852Y-59649673D01*
X164425709Y-59669875D01*
X164426663Y-59676105D01*
X164453807Y-59749395D01*
X164455235Y-59753466D01*
X164479817Y-59827673D01*
X164482966Y-59833139D01*
X164491789Y-59851947D01*
X164493980Y-59857860D01*
X164493981Y-59857861D01*
X164535316Y-59924178D01*
X164537534Y-59927878D01*
X164576559Y-59995630D01*
X164580735Y-60000342D01*
X164593168Y-60016996D01*
X164596500Y-60022341D01*
X164596502Y-60022343D01*
X164596504Y-60022346D01*
X164650374Y-60079017D01*
X164653273Y-60082176D01*
X164705123Y-60140671D01*
X164710168Y-60144450D01*
X164725699Y-60158260D01*
X164730039Y-60162825D01*
X164794173Y-60207463D01*
X164797673Y-60209990D01*
X164838276Y-60240401D01*
X164860257Y-60256865D01*
X164865951Y-60259547D01*
X164883949Y-60269949D01*
X164889122Y-60273550D01*
X164960953Y-60304375D01*
X164964839Y-60306123D01*
X165035602Y-60339452D01*
X165041728Y-60340934D01*
X165061449Y-60347500D01*
X165067236Y-60349984D01*
X165143788Y-60365715D01*
X165147990Y-60366656D01*
X165188415Y-60376440D01*
X165223983Y-60385050D01*
X165230278Y-60385269D01*
X165250917Y-60387731D01*
X165257089Y-60389000D01*
X165335241Y-60389000D01*
X165339557Y-60389075D01*
X165417686Y-60391796D01*
X165417686Y-60391795D01*
X165417688Y-60391796D01*
X165423902Y-60390742D01*
X165444620Y-60389000D01*
X174716144Y-60389000D01*
X174724387Y-60389274D01*
X174729007Y-60389581D01*
X174785335Y-60393335D01*
X174862800Y-60382722D01*
X174867077Y-60382212D01*
X174944827Y-60374306D01*
X174950833Y-60372421D01*
X174971118Y-60367883D01*
X174977363Y-60367028D01*
X175051161Y-60341018D01*
X175055141Y-60339693D01*
X175129759Y-60316283D01*
X175135259Y-60313229D01*
X175154221Y-60304698D01*
X175160165Y-60302604D01*
X175227198Y-60262282D01*
X175230863Y-60260164D01*
X175299226Y-60222222D01*
X175303998Y-60218124D01*
X175320864Y-60205945D01*
X175321952Y-60205290D01*
X175326256Y-60202702D01*
X175383817Y-60149696D01*
X175386931Y-60146927D01*
X175446290Y-60095972D01*
X175450140Y-60090997D01*
X175464204Y-60075675D01*
X175468837Y-60071411D01*
X175514532Y-60007928D01*
X175517067Y-60004533D01*
X175564929Y-59942703D01*
X175567703Y-59937045D01*
X175578394Y-59919209D01*
X175582070Y-59914105D01*
X175614045Y-59842738D01*
X175615835Y-59838921D01*
X175650287Y-59768689D01*
X175651866Y-59762589D01*
X175658742Y-59742979D01*
X175661321Y-59737226D01*
X175678271Y-59660897D01*
X175679267Y-59656755D01*
X175698869Y-59581055D01*
X175699188Y-59574765D01*
X175701978Y-59554155D01*
X175703343Y-59548015D01*
X175704582Y-59469857D01*
X175704723Y-59465603D01*
X175708686Y-59387482D01*
X175708685Y-59387481D01*
X175708686Y-59387478D01*
X175707733Y-59381258D01*
X175706318Y-59360502D01*
X175706418Y-59354218D01*
X175706418Y-59354217D01*
X175691894Y-59277385D01*
X175691173Y-59273167D01*
X175688862Y-59258084D01*
X175679336Y-59195896D01*
X175677146Y-59189985D01*
X175671586Y-59169953D01*
X175670418Y-59163770D01*
X175640723Y-59091428D01*
X175639175Y-59087462D01*
X175612020Y-59014140D01*
X175608691Y-59008799D01*
X175599209Y-58990291D01*
X175596819Y-58984467D01*
X175553168Y-58919581D01*
X175550860Y-58916018D01*
X175509496Y-58849654D01*
X175509495Y-58849653D01*
X175509494Y-58849651D01*
X175505154Y-58845085D01*
X175492144Y-58828869D01*
X170864654Y-51950169D01*
X170860089Y-51942844D01*
X170830441Y-51891370D01*
X170777494Y-51831638D01*
X170774932Y-51828653D01*
X170723906Y-51767271D01*
X170723903Y-51767269D01*
X170723902Y-51767267D01*
X170720290Y-51764378D01*
X170704946Y-51749792D01*
X170701875Y-51746328D01*
X170701871Y-51746325D01*
X170637953Y-51698450D01*
X170634843Y-51696042D01*
X170572533Y-51646210D01*
X170568410Y-51644106D01*
X170550457Y-51632916D01*
X170546745Y-51630136D01*
X170474512Y-51596115D01*
X170470979Y-51594382D01*
X170466815Y-51592257D01*
X170451411Y-51584395D01*
X170399897Y-51558103D01*
X170395437Y-51556873D01*
X170375587Y-51549522D01*
X170371397Y-51547548D01*
X170293828Y-51528772D01*
X170290021Y-51527786D01*
X170213057Y-51506550D01*
X170208432Y-51506242D01*
X170187514Y-51503038D01*
X170183018Y-51501950D01*
X170103256Y-51499171D01*
X170099332Y-51498972D01*
X170019662Y-51493664D01*
X170015064Y-51494294D01*
X169993947Y-51495364D01*
X169989316Y-51495203D01*
X169910596Y-51508543D01*
X169906711Y-51509138D01*
X169827638Y-51519971D01*
X169823261Y-51521514D01*
X169802783Y-51526815D01*
X169802147Y-51526923D01*
X169798212Y-51527590D01*
X169723798Y-51556500D01*
X169720112Y-51557865D01*
X169644834Y-51584395D01*
X169640860Y-51586786D01*
X169621865Y-51596103D01*
X169617550Y-51597779D01*
X169550489Y-51641070D01*
X169547153Y-51643150D01*
X169478739Y-51684300D01*
X169475322Y-51687447D01*
X169458605Y-51700387D01*
X169454711Y-51702900D01*
X169397765Y-51758777D01*
X169394917Y-51761485D01*
X169336160Y-51815590D01*
X169333450Y-51819356D01*
X169319676Y-51835401D01*
X169316368Y-51838647D01*
X169271807Y-51904884D01*
X169269563Y-51908108D01*
X169222927Y-51972898D01*
X169221031Y-51977129D01*
X169210764Y-51995624D01*
X164583281Y-58874317D01*
X164578452Y-58881003D01*
X164541070Y-58929297D01*
X164506651Y-58999465D01*
X164504685Y-59003303D01*
X164467835Y-59072250D01*
X164466045Y-59078291D01*
X164458491Y-59097646D01*
X164455713Y-59103308D01*
X164436122Y-59178971D01*
X164434969Y-59183125D01*
X164412751Y-59258084D01*
X164412213Y-59264366D01*
X164408711Y-59284841D01*
X164407131Y-59290943D01*
X164403170Y-59369028D01*
X164402876Y-59373331D01*
X164396204Y-59451197D01*
X140145454Y-59451197D01*
X140148686Y-59387482D01*
X140148685Y-59387481D01*
X140148686Y-59387478D01*
X140147733Y-59381258D01*
X140146318Y-59360502D01*
X140146418Y-59354218D01*
X140146418Y-59354217D01*
X140131894Y-59277385D01*
X140131173Y-59273167D01*
X140128862Y-59258084D01*
X140119336Y-59195896D01*
X140117146Y-59189985D01*
X140111586Y-59169953D01*
X140110418Y-59163770D01*
X140080723Y-59091428D01*
X140079175Y-59087462D01*
X140052020Y-59014140D01*
X140048691Y-59008799D01*
X140039209Y-58990291D01*
X140036819Y-58984467D01*
X139993168Y-58919581D01*
X139990860Y-58916018D01*
X139949496Y-58849654D01*
X139949495Y-58849653D01*
X139949494Y-58849651D01*
X139945154Y-58845085D01*
X139932144Y-58828869D01*
X135304654Y-51950169D01*
X135300089Y-51942844D01*
X135270441Y-51891370D01*
X135217494Y-51831638D01*
X135214932Y-51828653D01*
X135163906Y-51767271D01*
X135163903Y-51767269D01*
X135163902Y-51767267D01*
X135160290Y-51764378D01*
X135144946Y-51749792D01*
X135141875Y-51746328D01*
X135141871Y-51746325D01*
X135077953Y-51698450D01*
X135074843Y-51696042D01*
X135012533Y-51646210D01*
X135008410Y-51644106D01*
X134990457Y-51632916D01*
X134986745Y-51630136D01*
X134914512Y-51596115D01*
X134910979Y-51594382D01*
X134906815Y-51592257D01*
X134891411Y-51584395D01*
X134839897Y-51558103D01*
X134835437Y-51556873D01*
X134815587Y-51549522D01*
X134811397Y-51547548D01*
X134733828Y-51528772D01*
X134730021Y-51527786D01*
X134653057Y-51506550D01*
X134648432Y-51506242D01*
X134627514Y-51503038D01*
X134623018Y-51501950D01*
X134543256Y-51499171D01*
X134539332Y-51498972D01*
X134459662Y-51493664D01*
X134455064Y-51494294D01*
X134433947Y-51495364D01*
X134429316Y-51495203D01*
X134350596Y-51508543D01*
X134346711Y-51509138D01*
X134267638Y-51519971D01*
X134263261Y-51521514D01*
X134242783Y-51526815D01*
X134242147Y-51526923D01*
X134238212Y-51527590D01*
X134163798Y-51556500D01*
X134160112Y-51557865D01*
X134084834Y-51584395D01*
X134080860Y-51586786D01*
X134061865Y-51596103D01*
X134057550Y-51597779D01*
X133990489Y-51641070D01*
X133987153Y-51643150D01*
X133918739Y-51684300D01*
X133915322Y-51687447D01*
X133898605Y-51700387D01*
X133894711Y-51702900D01*
X133837765Y-51758777D01*
X133834917Y-51761485D01*
X133776160Y-51815590D01*
X133773450Y-51819356D01*
X133759676Y-51835401D01*
X133756368Y-51838647D01*
X133711807Y-51904884D01*
X133709563Y-51908108D01*
X133662927Y-51972898D01*
X133661031Y-51977129D01*
X133650764Y-51995624D01*
X129023281Y-58874317D01*
X129018452Y-58881003D01*
X128981070Y-58929297D01*
X128946651Y-58999465D01*
X128944685Y-59003303D01*
X128907835Y-59072250D01*
X128906045Y-59078291D01*
X128898491Y-59097646D01*
X128895713Y-59103308D01*
X128876122Y-59178971D01*
X128874969Y-59183125D01*
X128852751Y-59258084D01*
X128852213Y-59264366D01*
X128848711Y-59284841D01*
X128847131Y-59290943D01*
X128843170Y-59369028D01*
X128842876Y-59373331D01*
X128836204Y-59451197D01*
X128270000Y-59451197D01*
X128270000Y-50924500D01*
X128289685Y-50857461D01*
X128342489Y-50811706D01*
X128394000Y-50800500D01*
X176406000Y-50800500D01*
X176473039Y-50820185D01*
G37*
%TD.AperFunction*%
%TA.AperFunction,Conductor*%
G36*
X170036958Y-136706892D02*
G01*
X170043425Y-136707401D01*
X170063380Y-136709500D01*
X170083455Y-136709500D01*
X170089944Y-136709670D01*
X170156810Y-136713174D01*
X170170366Y-136711026D01*
X170189764Y-136709500D01*
X171119175Y-136709500D01*
X171184272Y-136727961D01*
X171245560Y-136765764D01*
X171414758Y-136821831D01*
X171460495Y-136826503D01*
X171519189Y-136832500D01*
X172020810Y-136832499D01*
X172111323Y-136823252D01*
X172138753Y-136820451D01*
X172139050Y-136823360D01*
X172176080Y-136822082D01*
X172176247Y-136820451D01*
X172188146Y-136821666D01*
X172188310Y-136821661D01*
X172188426Y-136821695D01*
X172291056Y-136832180D01*
X172291057Y-136832180D01*
X172294189Y-136832500D01*
X172976500Y-136832499D01*
X173043539Y-136852183D01*
X173089294Y-136904987D01*
X173100500Y-136956499D01*
X173100500Y-138397689D01*
X173080815Y-138464728D01*
X173057032Y-138491979D01*
X172908679Y-138618684D01*
X172814290Y-138729201D01*
X172755784Y-138767395D01*
X172685916Y-138767894D01*
X172626869Y-138730540D01*
X172625710Y-138729201D01*
X172531318Y-138618681D01*
X172348851Y-138462841D01*
X172231627Y-138391006D01*
X172144249Y-138337460D01*
X172056900Y-138301279D01*
X171922553Y-138245630D01*
X171689223Y-138189613D01*
X171555399Y-138179081D01*
X171450000Y-138170786D01*
X171449999Y-138170786D01*
X171416070Y-138173456D01*
X171255507Y-138186092D01*
X171187131Y-138171729D01*
X171158099Y-138150156D01*
X169925437Y-136917494D01*
X169891952Y-136856171D01*
X169896936Y-136786479D01*
X169938808Y-136730546D01*
X170004272Y-136706129D01*
X170019598Y-136705983D01*
X170036958Y-136706892D01*
G37*
%TD.AperFunction*%
%TD*%
%TA.AperFunction,Conductor*%
%TO.N,VBUS*%
G36*
X201934853Y-50800881D02*
G01*
X201987001Y-50804986D01*
X202127583Y-50817286D01*
X202145705Y-50820238D01*
X202224476Y-50839149D01*
X202227477Y-50839910D01*
X202332793Y-50868130D01*
X202348150Y-50873343D01*
X202376451Y-50885065D01*
X202428496Y-50906622D01*
X202433376Y-50908770D01*
X202526788Y-50952329D01*
X202539135Y-50958963D01*
X202615163Y-51005553D01*
X202621477Y-51009694D01*
X202704166Y-51067594D01*
X202713551Y-51074860D01*
X202781975Y-51133299D01*
X202789124Y-51139908D01*
X202860090Y-51210874D01*
X202866699Y-51218023D01*
X202925135Y-51286442D01*
X202932414Y-51295844D01*
X202990299Y-51378513D01*
X202994451Y-51384845D01*
X203041028Y-51460852D01*
X203047680Y-51473231D01*
X203091208Y-51566577D01*
X203093388Y-51571531D01*
X203126655Y-51651848D01*
X203131868Y-51667205D01*
X203160067Y-51772442D01*
X203160866Y-51775589D01*
X203179760Y-51854290D01*
X203182714Y-51872429D01*
X203195020Y-52013082D01*
X203199119Y-52065166D01*
X203199500Y-52074871D01*
X203199500Y-151125123D01*
X203199118Y-151134853D01*
X203195020Y-151186916D01*
X203182714Y-151327571D01*
X203179760Y-151345705D01*
X203160866Y-151424408D01*
X203160067Y-151427556D01*
X203131868Y-151532793D01*
X203126655Y-151548150D01*
X203093388Y-151628467D01*
X203091208Y-151633421D01*
X203047680Y-151726767D01*
X203041025Y-151739153D01*
X202994451Y-151815153D01*
X202990299Y-151821485D01*
X202932414Y-151904154D01*
X202925129Y-151913563D01*
X202866699Y-151981975D01*
X202860090Y-151989124D01*
X202789124Y-152060090D01*
X202781975Y-152066699D01*
X202713563Y-152125129D01*
X202704154Y-152132414D01*
X202621485Y-152190299D01*
X202615153Y-152194451D01*
X202539153Y-152241025D01*
X202526767Y-152247680D01*
X202433421Y-152291208D01*
X202428467Y-152293388D01*
X202348150Y-152326655D01*
X202332793Y-152331868D01*
X202227556Y-152360067D01*
X202224409Y-152360866D01*
X202145708Y-152379760D01*
X202127569Y-152382714D01*
X201986917Y-152395020D01*
X201963706Y-152396847D01*
X201934833Y-152399119D01*
X201925129Y-152399500D01*
X177924000Y-152399500D01*
X177856961Y-152379815D01*
X177811206Y-152327011D01*
X177800000Y-152275500D01*
X177800000Y-128270000D01*
X177800000Y-97790000D01*
X180975000Y-97790000D01*
X180975000Y-92710000D01*
X177800000Y-92710000D01*
X177800000Y-50924500D01*
X177819685Y-50857461D01*
X177872489Y-50811706D01*
X177924000Y-50800500D01*
X201925126Y-50800500D01*
X201934853Y-50800881D01*
G37*
%TD.AperFunction*%
%TD*%
%TA.AperFunction,Conductor*%
%TO.N,GNDPWR*%
G36*
X134563039Y-105429685D02*
G01*
X134608794Y-105482489D01*
X134620000Y-105534000D01*
X134620000Y-115446000D01*
X134600315Y-115513039D01*
X134547511Y-115558794D01*
X134496000Y-115570000D01*
X127000000Y-115570000D01*
X127000000Y-105410000D01*
X134496000Y-105410000D01*
X134563039Y-105429685D01*
G37*
%TD.AperFunction*%
%TD*%
%TA.AperFunction,Conductor*%
%TO.N,/PWRRES*%
G36*
X173933039Y-61995685D02*
G01*
X173978794Y-62048489D01*
X173990000Y-62100000D01*
X173990000Y-88776000D01*
X173970315Y-88843039D01*
X173917511Y-88888794D01*
X173866000Y-88900000D01*
X148006362Y-88900000D01*
X147939323Y-88880315D01*
X147918681Y-88863681D01*
X146685000Y-87630000D01*
X135379000Y-87630000D01*
X135311961Y-87610315D01*
X135266206Y-87557511D01*
X135255000Y-87506000D01*
X135255000Y-62100000D01*
X135274685Y-62032961D01*
X135327489Y-61987206D01*
X135379000Y-61976000D01*
X173866000Y-61976000D01*
X173933039Y-61995685D01*
G37*
%TD.AperFunction*%
%TD*%
%TA.AperFunction,Conductor*%
%TO.N,GNDPWR*%
G36*
X134926731Y-88274883D02*
G01*
X134931724Y-88277005D01*
X134931726Y-88277007D01*
X135095725Y-88346724D01*
X135099184Y-88347739D01*
X135099185Y-88347740D01*
X135162764Y-88366409D01*
X135164342Y-88366838D01*
X135201985Y-88376809D01*
X135201995Y-88376810D01*
X135202002Y-88376812D01*
X135379000Y-88397500D01*
X142116000Y-88397500D01*
X142183039Y-88417185D01*
X142228794Y-88469989D01*
X142240000Y-88521500D01*
X142240000Y-98301000D01*
X142220315Y-98368039D01*
X142167511Y-98413794D01*
X142116000Y-98425000D01*
X120650000Y-98425000D01*
X120650000Y-88265000D01*
X127000000Y-88265000D01*
X134878219Y-88265000D01*
X134926731Y-88274883D01*
G37*
%TD.AperFunction*%
%TD*%
M02*
